<svg width="399" height="399" viewBox="0 0 399 399" fill="none" xmlns="http://www.w3.org/2000/svg">
<path d="M249.014 129.961C241.37 127.413 233.968 123.772 227.052 119.16C226.688 118.918 226.202 118.918 225.838 119.039C225.474 119.16 225.11 119.524 224.868 119.888C224.625 120.252 224.625 120.859 224.625 121.345C224.746 121.83 224.989 122.194 225.353 122.558C239.428 132.267 255.687 137.486 272.068 137.486C288.57 137.486 304.707 132.388 318.783 122.558C320.603 121.223 318.904 117.947 317.084 119.16C307.013 126.199 295.729 130.811 283.959 132.631C272.432 134.452 260.419 133.602 249.014 129.961Z" fill="#59DFFD"/>
<path d="M244.888 145.981C235.909 142.947 227.173 138.699 219.043 133.238C218.558 132.996 218.073 132.996 217.587 133.117C217.102 133.238 216.738 133.602 216.495 134.209C216.253 134.695 216.131 135.301 216.253 135.908C216.374 136.515 216.617 137 217.102 137.243C233.725 148.772 252.775 154.84 272.189 154.84C291.603 154.84 310.653 148.772 327.276 137.243C329.46 135.665 327.519 131.782 325.213 133.238C313.322 141.491 299.975 146.952 286.143 149.136C272.432 151.321 258.357 150.229 244.888 145.981Z" fill="#59DFFD"/>
<path d="M255.566 114.427C249.985 112.607 244.767 109.937 239.792 106.66C239.428 106.417 238.943 106.417 238.579 106.539C238.215 106.66 237.851 107.024 237.608 107.388C237.366 107.752 237.366 108.359 237.487 108.723C237.608 109.209 237.851 109.573 238.215 109.815C248.529 116.976 260.298 120.738 272.311 120.738C284.323 120.738 296.093 116.976 306.406 109.815C306.77 109.573 306.892 109.087 307.013 108.723C307.134 108.238 307.013 107.752 306.77 107.388C306.528 107.024 306.285 106.66 305.8 106.539C305.436 106.417 304.95 106.417 304.586 106.66C297.306 111.757 289.176 115.034 280.683 116.369C272.432 117.582 263.817 116.976 255.566 114.427Z" fill="#59DFFD"/>
<path d="M260.056 98.6506C255.93 97.3156 252.047 95.3739 248.407 92.9467C248.165 92.8253 247.801 92.704 247.558 92.8253C247.315 92.9467 246.951 93.1894 246.83 93.4321C246.708 93.7962 246.587 94.1603 246.708 94.403C246.83 94.7671 246.951 95.0098 247.194 95.2525C254.717 100.471 263.453 103.262 272.311 103.262C281.168 103.262 289.783 100.471 297.427 95.2525C297.67 95.0098 297.791 94.7671 297.913 94.403C297.913 94.0389 297.913 93.6748 297.791 93.4321C297.67 93.1894 297.427 92.9467 297.063 92.8253C296.821 92.704 296.457 92.704 296.214 92.9467C290.875 96.7088 284.93 99.136 278.62 100.107C272.432 101.078 266.001 100.592 260.056 98.6506Z" fill="#59DFFD"/>
<path d="M215.286 186.64L204.28 204.516H226.386L215.286 186.64Z" fill="#59DFFD" stroke="black" stroke-width="2" stroke-miterlimit="10"/>
<path d="M345.849 59.9106H200.894C193.086 59.9106 186.878 65.5556 186.878 72.5177V308.948V347.428L359.958 349.309V72.5177C359.958 65.5556 353.656 59.9106 345.849 59.9106ZM335.407 335.573C335.407 342.065 330.14 347.334 323.649 347.334H222.811C216.32 347.334 211.053 342.065 211.053 335.573V96.7911C211.053 90.2994 216.32 85.0308 222.811 85.0308H323.555C330.046 85.0308 335.313 90.2994 335.313 96.7911V335.573H335.407Z" fill="white" stroke="black" stroke-width="2" stroke-miterlimit="10"/>
<path d="M317.817 288.72H319.604C319.134 287.403 312.267 268.304 309.257 260.025V265.011C313.772 277.618 314.336 279.03 317.817 288.72Z" fill="black"/>
<path d="M276.334 283.169C276.334 281.664 276.334 209.314 276.334 209.032C276.334 208.561 276.71 208.279 277.087 208.185C276.616 208.185 263.353 208.185 260.249 208.185C259.779 208.185 259.402 208.561 259.402 209.032V283.169C259.402 283.357 259.496 283.64 259.685 283.734C259.873 283.922 260.061 284.016 260.249 284.016C277.275 284.11 276.899 284.016 277.087 284.016C276.616 283.922 276.334 283.639 276.334 283.169Z" fill="white"/>
<path d="M309.258 209.032C309.258 208.561 308.881 208.185 308.411 208.185C306.059 208.185 291.479 208.185 291.009 208.185C291.667 208.185 291.761 208.844 291.855 209.408C292.044 210.349 292.42 218.346 291.761 283.169C291.761 283.639 291.385 283.922 291.009 284.016C291.197 284.11 290.727 284.11 308.411 284.016C308.881 284.016 309.258 283.639 309.258 283.169C309.352 270.092 309.352 222.297 309.258 209.032Z" fill="white"/>
<path d="M291.102 208.185C290.82 208.185 277.369 208.185 277.086 208.185C276.616 208.185 276.334 208.561 276.334 209.032V283.169C276.334 283.639 276.71 284.016 277.086 284.016C277.181 284.016 290.914 284.016 291.102 284.016C291.573 284.016 291.855 283.639 291.855 283.169C292.513 225.12 292.231 212.231 291.949 209.314C291.855 208.844 291.761 208.185 291.102 208.185ZM285.176 248.17V253.345C285.176 253.815 284.8 254.097 284.33 254.097C283.859 254.097 283.483 253.721 283.483 253.345V248.17C283.483 247.7 283.859 247.418 284.33 247.418C284.8 247.418 285.082 247.7 285.176 248.17ZM283.483 237.915V232.741C283.483 232.27 283.859 231.988 284.33 231.988C284.8 231.988 285.176 232.364 285.176 232.741V237.915C285.176 238.386 284.8 238.668 284.33 238.668C283.859 238.668 283.483 238.386 283.483 237.915ZM285.176 262.941V268.116C285.176 268.586 284.8 268.868 284.33 268.868C283.859 268.868 283.483 268.492 283.483 268.116V262.941C283.483 262.471 283.859 262.189 284.33 262.189C284.8 262.095 285.082 262.471 285.176 262.941ZM285.176 223.144C285.176 223.615 284.8 223.897 284.33 223.897C283.859 223.897 283.483 223.521 283.483 223.144V217.97C283.483 217.499 283.859 217.217 284.33 217.217C284.8 217.217 285.176 217.593 285.176 217.97V223.144ZM283.483 281.57V276.395C283.483 275.925 283.859 275.642 284.33 275.642C284.8 275.642 285.176 276.019 285.176 276.395V281.57C285.176 282.04 284.8 282.416 284.33 282.416C283.859 282.322 283.483 281.946 283.483 281.57Z" fill="#59DFFD"/>
<path d="M167.971 228.601C168.159 229.071 167.877 229.636 167.03 229.636C165.901 229.636 142.949 230.2 82.9357 229.636C82.4654 229.636 82.0891 229.26 82.0891 228.789C82.0891 228.695 82.0891 228.695 82.0891 228.601C81.2425 233.399 80.3959 238.198 79.6434 242.996H86.0399C86.5102 242.996 86.7924 243.372 86.7924 243.843C86.7924 244.313 86.4161 244.689 86.0399 244.689H79.3612C74.0935 278.371 72.4944 302.55 71.836 308.76C71.4597 311.394 71.3656 314.028 71.4597 316.663C71.5538 318.827 72.4004 320.99 73.8113 322.684C76.6333 326.165 80.9603 327.482 85.1933 328.141C89.9906 328.893 94.788 328.987 99.5853 328.517C105.888 327.388 110.779 322.59 112.002 316.286C112.66 313.37 123.196 263.224 123.948 259.554L147.371 300.104V246.1C147.371 245.63 147.747 245.254 148.217 245.254H174.65C172.862 240.926 168.912 230.859 167.971 228.601Z" fill="white"/>
<path d="M148.311 245.254C147.841 245.254 147.465 245.63 147.465 246.101C147.465 246.101 147.465 342.441 147.465 343.476H191.205C191.205 342.441 191.205 246.101 191.205 246.101C191.205 245.63 191.582 245.348 191.958 245.254C191.488 245.254 192.24 244.972 148.311 245.254ZM166.184 307.16L158.941 285.333L181.517 278.747L188.289 299.822L166.184 307.16Z" fill="white"/>
<path d="M253.382 246.101C253.382 245.912 253.288 245.63 253.1 245.536C252.912 245.348 252.724 245.254 252.536 245.254H210.3C210.3 245.254 210.3 245.254 210.206 245.254C210.676 245.254 210.959 245.63 210.959 246.101C210.865 254.286 210.959 213.454 210.959 343.476H253.382C253.382 339.337 253.476 251.181 253.382 246.101ZM219.707 322.684L216.697 308.478L222.058 307.16L221.024 302.55C220.835 301.515 222.435 301.045 222.623 302.08L223.657 306.784L229.678 305.373L232.217 319.297L219.707 322.684ZM242.471 286.18L223.846 281.758L229.772 262.001L248.585 267.081L242.471 286.18Z" fill="white"/>
<path d="M210.771 245.536C210.677 245.348 210.394 245.254 210.206 245.254C209.924 245.254 192.24 245.254 191.958 245.254C191.487 245.254 191.205 245.63 191.205 246.101C191.205 246.101 191.205 342.441 191.205 343.476H211.053C211.053 239.985 211.147 245.912 210.771 245.536ZM201.552 342.441C201.458 342.912 201.082 343.288 200.612 343.194C200.235 343.194 199.953 342.818 199.859 342.441V330.681C199.859 330.211 200.235 329.928 200.706 329.928C201.176 329.928 201.552 330.305 201.552 330.681V342.441ZM201.552 316.663C201.458 317.133 201.082 317.51 200.612 317.415C200.235 317.415 199.953 317.039 199.859 316.663V304.902C199.859 304.432 200.235 304.15 200.706 304.15C201.176 304.15 201.552 304.526 201.552 304.902V316.663ZM201.552 290.978C201.458 291.449 201.082 291.825 200.612 291.731C200.235 291.731 199.953 291.355 199.859 290.978V279.218C199.859 278.747 200.235 278.465 200.706 278.465C201.176 278.465 201.552 278.841 201.552 279.218V290.978ZM201.552 263.788C201.458 264.259 201.082 264.635 200.612 264.541C200.235 264.541 199.953 264.165 199.859 263.788V252.028C199.859 251.557 200.235 251.275 200.706 251.275C201.176 251.275 201.552 251.652 201.552 252.028V263.788Z" fill="#59DFFD"/>
<path d="M338.793 325.883C338.793 326.353 338.511 326.73 337.853 326.73C335.219 326.824 260.06 326.73 260.06 326.73C259.59 326.73 259.214 326.353 259.214 325.883V343.476H338.887V325.883H338.793Z" fill="white"/>
<path d="M338.793 309.606C338.793 310.077 338.417 310.453 337.947 310.453C337.57 310.453 338.041 310.453 336.065 310.453C332.021 310.547 308.598 310.735 260.06 310.453C259.59 310.453 259.214 310.077 259.214 309.606V325.883C259.214 326.353 259.59 326.73 260.06 326.73H337.947C338.417 326.73 338.793 326.353 338.793 325.883V309.606ZM290.82 317.603H297.028C297.499 317.603 297.875 318.074 297.781 318.544C297.781 318.732 297.687 318.921 297.593 319.015C297.404 319.203 297.216 319.297 297.028 319.297H290.82C290.35 319.297 290.067 318.921 290.067 318.45C290.067 317.98 290.35 317.603 290.82 317.603ZM306.247 317.603H312.643C313.113 317.603 313.49 318.074 313.396 318.544C313.396 318.732 313.302 318.921 313.207 319.015C313.019 319.203 312.831 319.297 312.643 319.297H306.247C305.776 319.297 305.494 318.921 305.494 318.45C305.494 317.98 305.776 317.603 306.247 317.603ZM327.129 319.297H320.733C320.262 319.297 319.98 318.921 319.98 318.45C319.98 317.98 320.356 317.603 320.733 317.603H327.129C327.6 317.603 327.976 318.074 327.882 318.544C327.882 318.732 327.788 318.921 327.694 319.015C327.505 319.109 327.317 319.203 327.129 319.297ZM263.353 319.297C262.882 319.297 262.6 318.921 262.6 318.45C262.6 317.98 262.976 317.603 263.353 317.603H269.561C270.031 317.603 270.408 318.074 270.314 318.544C270.314 318.732 270.22 318.921 270.125 319.015C269.937 319.203 269.749 319.297 269.561 319.297H263.353ZM282.354 319.297H276.71C276.24 319.297 275.958 318.921 275.958 318.45C275.958 317.98 276.334 317.603 276.71 317.603H282.354C282.824 317.603 283.201 318.074 283.106 318.544C283.106 318.732 283.012 318.921 282.918 319.015C282.73 319.109 282.542 319.203 282.354 319.297ZM337.947 319.485H332.773C332.303 319.485 332.021 319.109 332.021 318.638C332.021 318.168 332.397 317.792 332.773 317.792H337.947C338.417 317.792 338.793 318.074 338.887 318.544C338.981 319.015 338.605 319.391 338.135 319.485C338.041 319.485 337.947 319.485 337.947 319.485Z" fill="#59DFFD"/>
<path d="M337.947 288.72H260.06C259.59 288.72 259.214 289.097 259.214 289.567V309.607C259.214 309.795 259.308 310.077 259.496 310.171C259.684 310.359 259.872 310.453 260.06 310.453C319.792 310.924 333.996 310.736 337.476 310.453C338.699 310.359 338.887 310.265 338.887 309.136C338.981 307.537 338.981 303.021 338.887 289.567C338.793 289.097 338.417 288.72 337.947 288.72Z" fill="white"/>
<path d="M285.177 223.145V217.97C285.177 217.5 284.8 217.217 284.33 217.217C283.86 217.217 283.483 217.594 283.483 217.97V223.145C283.483 223.615 283.954 223.991 284.424 223.897C284.8 223.897 285.083 223.615 285.177 223.145Z" fill="black"/>
<path d="M285.177 237.916V232.741C285.177 232.271 284.8 231.988 284.33 231.988C283.86 231.988 283.483 232.365 283.483 232.741V237.916C283.483 238.386 283.954 238.762 284.424 238.668C284.8 238.668 285.083 238.292 285.177 237.916Z" fill="black"/>
<path d="M285.177 253.345V248.171C285.177 247.7 284.8 247.418 284.33 247.418C283.86 247.418 283.483 247.794 283.483 248.171V253.345C283.483 253.816 283.954 254.192 284.424 254.098C284.8 254.098 285.083 253.722 285.177 253.345Z" fill="black"/>
<path d="M109.65 123.04L110.215 122.758C112.284 121.535 113.037 118.994 112.002 116.925C110.497 113.914 106.076 114.29 103.254 114.478C83.8765 115.513 63.5584 119.465 49.3545 132.825C51.1417 134.142 53.3993 134.424 55.4687 133.671C58.3848 132.072 58.1966 131.602 61.3949 130.096C66.8507 127.462 74.1878 126.803 79.3614 130.473C81.9952 132.354 81.619 133.201 84.0647 135.177C86.3222 136.682 89.0501 134.894 91.0255 133.765C97.8923 129.908 106.546 126.239 112.472 131.225C113.225 130.755 113.883 130.096 114.354 129.438C116.329 126.521 113.413 123.228 109.65 123.04Z" fill="white"/>
<path d="M87.4502 171.305C84.7223 170.74 82.0885 169.894 79.5487 168.953C75.0336 167.353 72.3998 162.555 73.5285 157.851C71.1769 157.757 68.8253 158.321 66.6618 159.262C61.1119 162.367 60.4534 164.343 55.8442 165.095C48.6012 165.566 46.908 158.792 35.0558 157.851C33.8329 165.848 35.0558 174.033 38.6302 181.278C43.1454 191.909 52.0816 200 63.0873 203.481C66.2855 204.61 69.5778 205.363 85.7571 209.408C85.8511 208.844 90.7425 187.393 91.6832 183.065C92.2476 179.584 93.3764 176.197 94.7873 172.998C92.3416 172.528 89.99 171.869 87.4502 171.305ZM43.5216 178.643C42.2047 176.762 41.2641 174.598 40.6056 172.434C40.3234 171.399 41.9225 170.929 42.2047 171.963C42.8632 174.033 43.8038 176.009 45.0267 177.797C45.5911 178.737 44.1801 179.584 43.5216 178.643Z" fill="white"/>
<path d="M285.177 268.116V262.942C285.177 262.471 284.8 262.189 284.33 262.189C283.86 262.189 283.483 262.565 283.483 262.942V268.116C283.483 268.587 283.954 268.963 284.424 268.869C284.8 268.869 285.083 268.493 285.177 268.116Z" fill="black"/>
<path d="M285.177 281.476V276.301C285.177 275.831 284.8 275.548 284.33 275.548C283.86 275.548 283.483 275.925 283.483 276.301V281.476C283.577 281.946 283.954 282.322 284.424 282.228C284.8 282.228 285.083 281.946 285.177 281.476Z" fill="black"/>
<path d="M167.971 228.601C166.09 223.803 148.688 180.619 146.618 175.915C145.584 173.092 144.173 170.364 142.479 168.012C131.944 155.875 102.407 158.133 94.6 173.468C93.2831 176.573 92.3425 179.866 91.684 183.159C87.357 202.728 85.6638 208.561 82.0893 228.601C81.9952 229.071 82.2774 229.542 82.7478 229.636C82.8418 229.636 82.8418 229.636 82.9359 229.636C133.637 230.106 166.09 229.824 166.842 229.73C167.971 229.636 168.159 229.071 167.971 228.601Z" fill="#59DFFD"/>
<path d="M116.423 137.153C115.67 134.801 114.259 132.731 112.378 131.037C106.264 125.957 97.704 129.72 90.9312 133.577C88.9559 134.706 86.1339 136.494 83.9704 134.989C83.0297 134.236 82.1832 133.295 81.5247 132.26C76.0689 125.863 65.5336 126.803 58.5727 131.508C57.6321 132.26 56.5033 132.919 55.4686 133.577C49.9187 136.024 46.9086 128.403 35.997 127.65C28.2836 127.18 20.7584 130.002 15.3026 135.553C14.9263 135.93 14.456 136.306 14.3619 136.87C14.3619 137.153 14.1738 137.247 14.3619 162.461C14.3619 162.931 14.7382 163.308 15.2085 163.308C15.3967 163.308 15.4907 163.308 15.5848 163.214C24.8973 156.91 36.4673 156.44 44.4629 160.391C48.6018 162.461 51.1415 165.472 55.9389 165.095C60.5481 164.343 61.2066 162.273 66.7564 159.262C70.9894 157.38 75.7867 157.38 80.0196 159.168C82.1832 159.921 84.5348 160.109 86.7924 159.732C90.7431 158.698 93.5651 155.311 97.6099 154.84C101.843 154.276 106.358 155.969 110.309 153.711C116.235 150.512 118.869 143.456 116.423 137.153ZM102.783 147.784C100.056 146.937 98.0802 144.585 97.798 141.763C97.704 138.564 99.6793 135.741 102.595 134.612C108.333 132.448 113.695 139.411 110.121 145.056C108.71 147.502 105.605 148.631 102.783 147.784Z" fill="black"/>
<path d="M110.026 136.87C108.427 134.518 105.417 133.577 102.689 134.518C99.7732 135.647 97.7978 138.564 97.8919 141.669C98.1741 144.491 100.149 146.843 102.877 147.69C108.803 149.76 113.883 142.327 110.026 136.87Z" fill="white"/>
<path d="M199.859 330.681V342.441C199.859 342.912 200.33 343.288 200.8 343.194C201.176 343.194 201.553 342.818 201.553 342.441V330.681C201.553 330.21 201.176 329.928 200.706 329.928C200.236 329.928 199.859 330.21 199.859 330.681Z" fill="black"/>
<path d="M199.859 304.903V316.663C199.953 317.133 200.33 317.51 200.8 317.416C201.176 317.416 201.458 317.039 201.553 316.663V304.903C201.553 304.432 201.176 304.15 200.706 304.15C200.236 304.15 199.859 304.432 199.859 304.903Z" fill="black"/>
<path d="M199.859 279.124V290.884C199.859 291.355 200.33 291.731 200.8 291.637C201.176 291.637 201.553 291.26 201.553 290.884V279.124C201.553 278.653 201.176 278.371 200.706 278.371C200.236 278.371 199.859 278.747 199.859 279.124Z" fill="black"/>
<path d="M199.859 252.028V263.788C199.859 264.259 200.33 264.635 200.8 264.541C201.176 264.541 201.553 264.165 201.553 263.788V252.028C201.553 251.558 201.176 251.275 200.706 251.275C200.236 251.181 199.859 251.558 199.859 252.028Z" fill="black"/>
<path d="M366.355 343.476H100.996C101.09 343.57 101.184 343.759 101.278 343.853C101.466 344.135 101.466 344.511 101.278 344.699C101.09 344.982 100.808 345.076 100.432 345.076C100.337 345.076 46.3439 345.076 44.7448 345.076C44.3685 345.076 44.0863 344.888 43.9923 344.511C43.8982 344.229 43.8982 343.853 44.1804 343.57C44.2745 343.476 44.3685 343.382 44.4626 343.288H35.7145C33.8332 343.288 31.4816 342.818 29.8824 344.135C27.2486 346.205 28.0952 351.097 32.8925 351.097C40.2296 351.191 367.766 351.097 367.766 351.097C372.375 351.003 373.974 343.476 366.355 343.476Z" fill="#DAF8FF"/>
<path d="M101.278 343.947C99.679 341.783 97.7037 339.995 95.4461 338.678C89.9903 334.915 83.5938 332.469 77.0093 331.716C64.7807 330.493 52.7404 334.915 44.1804 343.759C43.8982 344.135 43.8982 344.605 44.1804 344.982L44.2745 345.076C44.3685 345.17 44.5567 345.264 44.7448 345.264C46.6261 345.264 100.526 345.264 100.526 345.264C100.996 345.264 101.372 344.888 101.372 344.417C101.372 344.229 101.372 344.041 101.278 343.947Z" fill="black"/>
<path d="M224.41 309.795C224.222 308.76 223.093 303.679 222.717 302.08C222.529 301.045 220.835 301.421 221.118 302.55L222.811 310.265C222.999 311.394 224.598 310.924 224.41 309.795Z" fill="black"/>
<path d="M232.97 271.973L239.367 273.196C240.402 273.385 240.872 271.785 239.837 271.597L233.441 270.374C232.312 270.092 231.842 271.785 232.97 271.973Z" fill="black"/>
<path d="M175.966 286.18L169.664 288.156C168.629 288.532 169.099 290.131 170.134 289.755L176.436 287.779C177.471 287.497 177.001 285.803 175.966 286.18Z" fill="black"/>
<path d="M177.189 291.731L170.886 293.706C169.852 294.083 170.322 295.682 171.357 295.306L177.659 293.33C178.694 293.048 178.223 291.354 177.189 291.731Z" fill="black"/>
<path d="M178.412 295.87L172.11 297.846C171.075 298.222 171.546 299.822 172.58 299.445L178.883 297.47C179.917 297.187 179.447 295.494 178.412 295.87Z" fill="black"/>
<path d="M231.747 277.43L238.143 278.653C239.178 278.841 239.648 277.242 238.614 277.054L232.217 275.831C231.088 275.548 230.618 277.148 231.747 277.43Z" fill="black"/>
<path d="M269.561 317.604H263.353C262.883 317.604 262.506 318.074 262.6 318.544C262.6 318.733 262.694 318.921 262.789 319.015C262.977 319.203 263.165 319.297 263.353 319.297H269.561C270.032 319.297 270.314 318.921 270.314 318.45C270.314 317.98 270.032 317.604 269.561 317.604Z" fill="black"/>
<path d="M282.354 317.604H276.71C276.24 317.604 275.864 318.074 275.958 318.544C275.958 318.733 276.052 318.921 276.146 319.015C276.334 319.203 276.522 319.297 276.71 319.297H282.354C282.825 319.297 283.107 318.921 283.107 318.45C283.107 317.98 282.731 317.604 282.354 317.604Z" fill="black"/>
<path d="M297.028 317.604H290.82C290.349 317.604 289.973 318.074 290.067 318.544C290.067 318.733 290.161 318.921 290.255 319.015C290.444 319.203 290.632 319.297 290.82 319.297H297.028C297.498 319.297 297.781 318.921 297.781 318.45C297.781 317.98 297.498 317.604 297.028 317.604Z" fill="black"/>
<path d="M312.644 317.604H306.247C305.777 317.604 305.401 318.074 305.495 318.544C305.495 318.733 305.589 318.921 305.683 319.015C305.871 319.203 306.059 319.297 306.247 319.297H312.644C313.114 319.297 313.396 318.921 313.396 318.45C313.396 317.98 313.02 317.604 312.644 317.604Z" fill="black"/>
<path d="M327.129 317.604H320.733C320.263 317.604 319.886 318.074 319.98 318.544C319.98 318.733 320.074 318.921 320.168 319.015C320.357 319.203 320.545 319.297 320.733 319.297H327.129C327.6 319.297 327.882 318.921 327.882 318.45C327.882 317.98 327.6 317.604 327.129 317.604Z" fill="black"/>
<path d="M332.774 319.485H337.947C338.418 319.485 338.7 319.109 338.7 318.638C338.7 318.168 338.324 317.792 337.947 317.792H332.774C332.304 317.792 331.927 318.262 332.021 318.732C332.021 318.92 332.115 319.109 332.209 319.203C332.398 319.297 332.586 319.391 332.774 319.485Z" fill="black"/>
<path d="M29.6945 229.542H16.9957C16.5254 229.542 16.2432 229.918 16.2432 230.389C16.2432 230.859 16.6194 231.235 16.9957 231.235H29.6945C30.1649 231.235 30.4471 230.859 30.4471 230.389C30.4471 229.918 30.1649 229.542 29.6945 229.542Z" fill="black"/>
<path d="M56.9733 257.108C57.4436 257.108 57.7258 256.732 57.7258 256.261C57.7258 255.791 57.3495 255.415 56.9733 255.415H42.1109C41.6406 255.415 41.3584 255.791 41.3584 256.261C41.3584 256.732 41.7347 257.108 42.1109 257.108H56.9733Z" fill="black"/>
<path d="M86.04 244.69C86.5103 244.69 86.7925 244.313 86.7925 243.843C86.7925 243.372 86.4162 242.996 86.04 242.996H70.8013C70.331 242.996 70.0488 243.372 70.0488 243.843C70.0488 244.313 70.4251 244.69 70.8013 244.69H86.04Z" fill="black"/>
<path d="M43.1456 277.618H27.5307C27.0604 277.618 26.6841 278.089 26.7782 278.559C26.7782 278.747 26.8722 278.935 26.9663 279.029C27.1544 279.218 27.3426 279.312 27.5307 279.312H43.1456C43.6159 279.312 43.8981 278.935 43.8981 278.465C43.8981 277.994 43.6159 277.618 43.1456 277.618Z" fill="black"/>
<path d="M245.387 138.282C244.823 136.118 242.847 134.612 241.154 133.107C241.436 132.731 241.624 132.354 241.907 131.978C238.05 135.553 232.97 137.529 227.797 137.341C227.797 137.435 227.703 137.435 227.703 137.529C226.95 138.564 226.198 140.257 227.138 141.386C228.831 143.08 230.901 143.174 233.911 143.738C235.134 143.832 236.263 143.926 237.485 144.209C237.862 144.397 238.05 144.773 238.05 145.15C238.05 145.526 237.768 145.902 237.391 145.996C237.015 146.09 233.158 145.432 232.782 145.338C229.772 144.773 227.326 144.397 224.693 145.996C222.999 147.313 222.247 149.854 224.034 151.265C224.504 151.829 225.069 152.3 225.727 152.582C227.703 153.429 230.619 153.899 232.876 154.652C233.911 155.028 233.441 156.628 232.406 156.251C229.584 155.311 226.574 155.028 224.316 153.617C222.811 152.77 221.118 152.394 219.331 152.488C217.732 152.488 216.321 153.335 215.568 154.746C213.875 157.757 217.92 160.203 220.177 161.238C220.554 161.426 220.742 161.99 220.46 162.367C220.366 162.555 220.177 162.649 219.989 162.743C219.801 162.837 219.519 162.837 219.237 162.743C217.261 161.896 215.568 160.579 214.251 158.98C213.123 157.474 213.028 155.499 213.969 153.993C215.568 151.265 218.484 150.512 221.588 151.077C220.272 148.442 222.153 144.209 226.762 143.456C226.292 143.08 225.821 142.609 225.445 142.139C224.787 140.634 224.881 138.94 225.727 137.529C224.975 137.529 224.222 137.623 223.47 137.717L219.801 137.999L219.707 138.093C219.237 138.187 218.861 138.187 218.39 138.282C217.355 138.47 216.885 136.776 217.92 136.682C225.727 135.365 225.539 136.306 231.277 135.553C234.852 135.083 238.144 133.483 240.684 130.943C241.342 130.284 242.283 131.037 242.095 131.79C243.318 129.626 242.941 126.992 241.06 125.298C239.555 124.169 237.768 123.416 235.886 123.228C234.852 123.134 234.099 123.134 233.629 123.228C233.535 123.228 233.535 123.228 233.441 123.228C233.347 123.228 233.253 123.228 233.253 123.228C228.267 123.887 223.282 125.11 218.484 126.898C209.266 129.908 200.047 132.825 190.923 136.024C180.576 139.599 126.582 158.98 122.726 160.391C129.969 160.579 137.776 162.649 142.479 168.106C144.267 170.552 145.678 173.186 146.618 176.009C148.97 181.277 151.039 186.546 153.203 191.721L189.982 175.821L200.8 171.116C208.607 167.729 218.672 163.402 219.331 163.119C220.93 163.778 222.623 164.154 224.41 164.342C226.574 164.813 228.926 164.437 230.807 163.213C233.064 161.896 234.193 159.262 233.535 156.722C236.733 157.663 240.025 155.875 241.06 152.676C241.154 152.394 241.248 152.112 241.248 151.829C241.342 149.76 240.684 147.784 239.555 146.09C240.778 146.09 241.907 145.808 243.035 145.244C245.763 143.832 246.045 140.822 245.387 138.282ZM175.402 175.538L167.219 179.113C166.184 179.584 165.337 178.079 166.372 177.608L174.556 174.033C175.59 173.563 176.437 175.068 175.402 175.538Z" fill="white"/>
<path d="M200.988 317.509C201.553 317.509 202.023 317.039 202.023 316.474V304.714C202.023 304.15 201.553 303.679 200.894 303.679C200.33 303.679 199.859 304.15 199.859 304.714V316.474C199.859 317.133 200.33 317.603 200.988 317.509Z" fill="black"/>
<path d="M200.988 291.825C201.553 291.825 202.023 291.354 202.023 290.79V279.03C202.023 278.465 201.458 277.995 200.894 277.995C200.612 277.995 200.33 278.089 200.142 278.277C199.953 278.465 199.859 278.747 199.859 279.03V290.79C199.859 291.354 200.33 291.825 200.988 291.825Z" fill="black"/>
<path d="M200.988 264.635C201.553 264.635 202.023 264.164 202.023 263.6V251.84C202.023 251.275 201.458 250.805 200.894 250.805C200.612 250.805 200.33 250.899 200.142 251.087C199.953 251.275 199.859 251.557 199.859 251.84V263.6C199.859 264.164 200.33 264.635 200.988 264.635Z" fill="black"/>
<path d="M284.518 224.085C285.083 224.085 285.553 223.615 285.647 223.05V217.876C285.647 217.311 285.083 216.841 284.518 216.841C283.954 216.841 283.577 217.311 283.483 217.876V223.05C283.483 223.615 283.954 223.991 284.518 224.085Z" fill="black"/>
<path d="M284.518 238.762C285.083 238.762 285.553 238.292 285.647 237.727V232.552C285.647 231.988 285.083 231.518 284.518 231.518C283.954 231.518 283.577 231.988 283.483 232.552V237.727C283.483 238.292 283.954 238.762 284.518 238.762Z" fill="black"/>
<path d="M284.518 254.192C285.083 254.192 285.553 253.721 285.647 253.157V247.982C285.647 247.418 285.083 246.947 284.518 246.947C283.954 246.947 283.577 247.418 283.483 247.982V253.157C283.483 253.721 283.954 254.192 284.518 254.192Z" fill="black"/>
<path d="M284.518 268.963C285.083 268.963 285.553 268.492 285.647 267.928V262.753C285.647 262.189 285.083 261.718 284.518 261.718C283.954 261.718 283.577 262.189 283.483 262.753V267.928C283.483 268.492 283.954 268.963 284.518 268.963Z" fill="black"/>
<path d="M110.309 145.338C114.636 139.505 108.898 131.79 102.783 134.142C99.7734 135.365 97.7039 138.282 97.798 141.575C97.8921 146.749 105.982 151.171 110.309 145.338ZM102.783 136.494C106.64 134.142 110.873 138.658 109.18 142.892C108.427 144.867 106.452 146.091 104.383 145.902C102.125 145.62 100.244 143.833 99.8674 141.48C99.9615 139.505 100.996 137.529 102.783 136.494Z" fill="black"/>
<path d="M371.153 344.605C369.93 343.382 368.237 342.818 366.543 343.006H339.264V289.379C339.264 288.814 338.794 288.344 338.136 288.25H319.981C319.228 286.086 312.644 267.834 309.728 259.743V208.75C309.728 208.185 309.258 207.715 308.599 207.621C307.47 207.621 303.708 207.621 299.945 207.621H288.375C287.058 207.621 285.741 207.621 284.518 207.621C284.518 207.621 284.518 207.621 284.424 207.621C278.216 207.621 272.478 207.621 267.963 207.621C267.492 207.621 267.022 207.621 266.552 207.621C266.458 207.621 266.364 207.621 266.176 207.621C265.799 207.621 265.517 207.621 265.141 207.621C264.953 207.621 264.859 207.621 264.67 207.621C264.388 207.621 264.106 207.621 263.824 207.621C263.636 207.621 263.542 207.621 263.354 207.621C263.071 207.621 262.883 207.621 262.601 207.621C262.507 207.621 262.319 207.621 262.225 207.621C261.943 207.621 261.66 207.621 261.472 207.621C261.378 207.621 261.284 207.621 261.284 207.621C261.002 207.621 260.626 207.621 260.438 207.621C259.873 207.621 259.403 208.091 259.309 208.75V282.887C259.309 283.452 259.779 283.922 260.438 283.922C295.336 284.204 287.999 284.11 308.599 283.922C308.881 283.922 309.163 283.828 309.352 283.64C309.54 283.452 309.634 283.169 309.634 282.887V266.14C311.609 271.503 316.312 284.581 317.535 288.25H260.061C259.497 288.25 259.027 288.72 258.933 289.379V343.1H253.665V245.913C253.665 245.348 253.194 244.878 252.536 244.784C236.169 244.69 182.645 244.784 174.744 244.784C173.991 242.902 166.936 225.308 163.738 217.311L159.976 207.903C157.812 202.446 155.649 196.99 153.391 191.627L186.878 177.138L189.136 176.103L193.369 174.221C193.557 174.127 193.933 173.939 194.498 173.751C199.577 171.587 218.202 163.59 219.331 163.026C220.93 163.684 222.623 164.061 224.316 164.249C226.574 164.719 228.926 164.343 230.807 163.026C233.064 161.708 234.193 159.168 233.723 156.628C236.357 157.287 239.085 156.158 240.496 153.805C240.966 153.053 241.248 152.206 241.342 151.359C241.342 149.384 240.872 147.502 239.837 145.808C244.635 145.432 246.516 142.139 245.293 137.811C244.446 135.742 243.035 133.954 241.154 132.731C243.694 129.25 242.659 126.239 240.966 124.64C239.555 123.511 237.768 122.758 235.981 122.57L233.253 122.476C228.079 123.134 222.999 124.452 218.108 126.145C208.796 129.156 199.671 132.166 190.547 135.271C180.576 138.752 126.959 157.945 122.443 159.639C112.849 159.356 99.8677 162.649 94.506 172.434C85.0054 170.082 83.2181 169.8 79.4555 168.294C75.1285 166.695 72.5887 162.179 73.5294 157.663C75.5988 157.851 77.6683 158.227 79.6436 158.98C81.8072 159.827 84.2529 160.015 86.5104 159.545C90.4612 158.51 93.3772 155.123 97.328 154.652C101.561 154.088 106.076 155.781 110.121 153.523C112.661 152.112 114.636 150.042 115.953 147.502C118.116 142.986 117.646 137.623 114.824 133.484C114.166 132.449 113.413 131.508 112.473 130.755C113.131 130.285 113.695 129.72 114.166 129.062C115.859 126.71 114.26 123.134 110.027 122.57C112.096 121.253 112.849 118.618 111.72 116.455C110.215 113.444 105.982 113.632 103.16 113.82C83.9707 115.043 63.8406 118.713 49.4486 132.261C45.686 130.191 42.77 127.65 36.0913 127.274C28.2839 126.804 20.6646 129.72 15.2088 135.271C14.7385 135.647 14.3622 136.118 14.1741 136.682C14.08 137.811 14.08 151.265 14.1741 162.273C14.1741 162.837 14.6444 163.402 15.3029 163.308C15.491 163.308 15.6791 163.214 15.8672 163.12C21.5112 159.262 28.1898 157.475 35.0566 157.851C32.8931 171.305 39.2896 187.863 50.2012 196.425C59.2314 203.575 67.6033 204.798 85.7579 209.408C83.5003 220.416 81.525 231.424 79.7377 242.432H71.0837C70.6134 242.432 70.143 242.808 70.049 243.372C69.9549 243.937 70.3312 244.501 70.8956 244.595C70.9896 244.595 70.9896 244.595 71.0837 244.595H79.3615C75.1285 271.974 73.4353 291.543 72.4947 302.08C71.46 314.123 70.3312 318.074 73.9057 322.59C78.0445 327.765 85.946 328.517 93.095 328.8C95.3526 328.894 97.7042 328.8 99.9618 328.517C106.264 327.388 111.344 322.496 112.567 316.098C112.567 316.098 123.29 265.482 124.325 259.931L147.371 299.822C147.371 301.61 147.371 339.337 147.371 342.818H101.279C97.6102 338.302 90.2731 334.445 84.6291 332.563C70.4252 328.235 54.9044 332.187 44.4632 342.818C44.4632 342.818 35.0566 342.818 34.6803 342.818C32.9872 342.536 31.294 342.912 29.7889 343.759C26.8729 346.111 28.0017 351.097 32.8931 351.191C35.3388 351.191 365.509 351.191 367.766 351.191C369.365 351.191 370.776 350.25 371.435 348.839C372.281 347.616 372.093 345.923 371.153 344.605ZM276.052 281.852H261.472C261.472 276.772 261.566 214.301 261.566 209.879H276.146L276.052 281.852ZM290.068 281.852H285.459C285.647 281.476 285.741 281.852 285.647 276.113C285.647 275.831 285.553 275.549 285.271 275.361C284.989 275.078 284.518 274.984 284.142 275.172C283.954 275.266 283.766 275.361 283.672 275.549C283.578 275.737 283.484 275.925 283.484 276.113C283.39 281.852 283.39 281.57 283.672 281.852H278.498C278.498 276.772 278.592 214.301 278.592 209.879H290.256L290.068 281.852ZM307.47 281.852H292.42C292.42 278.371 292.514 213.266 292.42 209.879H307.564L307.47 281.852ZM261.284 290.414C261.284 290.414 335.502 290.508 337.007 290.508V308.29C332.304 308.29 261.754 308.195 261.284 308.195V290.414ZM261.284 310.453C266.552 310.453 332.586 310.547 337.007 310.547V317.321H332.962C332.398 317.321 331.927 317.886 331.927 318.45C331.927 319.015 332.398 319.485 332.962 319.485H337.007V324.566C332.304 324.566 261.754 324.472 261.284 324.472V310.453ZM337.101 326.824V343.1L261.378 343.006V326.73C266.646 326.73 332.586 326.824 337.101 326.824ZM211.618 246.947H251.689C251.689 253.157 251.595 337.832 251.689 343.006H211.618C211.618 337.926 211.618 252.216 211.618 246.947ZM193.369 246.947H209.266C209.266 253.157 209.172 337.832 209.266 343.006H201.647C201.929 342.818 202.023 342.536 202.023 342.159V330.399C202.023 329.834 201.458 329.364 200.894 329.364C200.33 329.364 199.859 329.834 199.859 330.399V342.159C199.859 342.442 200.047 342.724 200.236 342.912H193.369C193.369 336.797 193.369 252.216 193.369 246.947ZM191.017 246.947C191.017 253.157 190.923 337.832 191.017 343.006H149.628C149.628 341.877 149.722 251.181 149.628 246.947H191.017ZM232.03 158.604C231.654 160.109 230.525 161.332 229.02 161.897C227.232 162.461 225.351 162.555 223.47 161.991C219.707 161.332 213.781 158.039 215.662 154.652C216.415 153.335 217.826 152.488 219.237 152.582C220.742 152.488 222.247 152.771 223.564 153.523C227.138 155.405 227.985 155.029 231.653 156.252C232.03 157.004 232.124 157.757 232.03 158.604ZM237.58 154.182C236.075 154.84 234.381 154.84 232.876 154.276C227.421 152.582 225.633 152.771 224.128 150.983C222.905 149.76 222.999 147.69 224.222 146.561C224.41 146.373 224.599 146.279 224.787 146.185C227.326 144.585 229.678 144.962 232.688 145.526C232.876 145.526 236.639 146.185 237.391 146.185C238.144 146.467 238.708 147.69 238.897 148.161C239.367 149.195 239.649 150.324 239.555 151.547C239.461 152.582 238.708 153.711 237.58 154.182ZM243.694 138.564C244.352 141.01 243.788 142.704 242.189 143.362C239.461 144.303 237.297 143.833 232.688 143.08C230.807 142.986 228.926 142.327 227.421 141.104C226.48 139.975 227.421 138.564 228.079 137.435C232.218 137.435 236.263 136.306 239.743 134.048C242.001 136.212 242.941 136.776 243.694 138.564ZM223.752 137.623C223.752 137.623 224.975 137.529 225.445 137.529C224.693 138.94 224.693 140.54 225.351 141.951C225.633 142.327 225.916 142.704 226.292 143.08C222.999 143.55 220.648 146.655 221.118 149.948C221.118 150.136 221.212 150.324 221.212 150.513C218.296 149.76 215.286 151.077 213.781 153.617C212.84 155.311 212.934 157.381 214.063 158.886C214.91 160.015 216.039 161.05 217.261 161.803C214.628 162.932 200.518 169.047 196.567 170.74L192.334 172.622L152.921 189.557C148.5 178.643 147.747 177.232 146.43 174.221C145.584 171.869 144.361 169.611 142.856 167.636C138.905 163.496 133.637 160.862 127.993 160.203C148.5 152.676 224.128 126.898 225.351 126.521C228.361 125.487 231.371 124.922 234.57 124.64C235.886 124.546 237.297 124.828 238.52 125.392C239.743 125.769 240.778 126.71 241.06 128.027C241.248 129.532 240.496 130.943 239.179 131.79C235.04 134.895 230.807 135.177 225.257 135.365C222.905 135.459 220.554 135.742 218.202 136.118C216.791 136.306 217.356 138.47 218.767 138.188C219.425 138.094 220.178 138 220.836 137.905L223.752 137.623ZM85.0994 118.242C91.7781 117.019 98.5508 116.266 105.418 116.078C106.923 115.89 108.522 116.172 109.839 116.925C110.591 117.49 110.873 118.524 110.591 119.465C110.309 120.406 109.462 121.253 105.606 123.229C105.135 123.511 104.947 124.263 105.229 124.734C105.512 125.11 105.982 125.298 106.358 125.204C107.957 124.734 109.745 124.734 111.344 125.204C113.601 126.145 113.978 127.933 111.062 129.626C109.368 128.685 107.581 128.215 105.606 128.309C100.338 128.685 95.2585 130.379 90.8374 133.295C89.2383 134.142 86.2282 136.118 84.1588 134.707C83.2181 133.954 82.3716 133.013 81.7131 131.978C76.1632 125.487 65.4398 126.427 58.3849 131.132C57.4442 131.884 56.4095 132.543 55.3748 133.107C54.1519 133.672 52.7409 133.672 51.424 133.201C59.7018 125.863 70.9896 120.876 85.0994 118.242ZM16.3376 160.297V137.153C24.0509 128.968 36.5617 126.898 45.4979 132.355C47.2851 133.578 49.1664 134.613 51.2359 135.365C53.3053 136.024 55.657 135.742 57.4442 134.424C60.2662 132.166 63.6525 130.567 67.227 129.72C70.5193 128.968 73.9997 129.344 77.1039 130.755C78.6089 131.602 79.9258 132.731 80.9606 134.048C84.2529 138.376 87.263 137.623 92.0603 134.989C99.7737 130.661 108.992 126.898 113.507 134.519C115.671 137.717 116.235 141.669 115.106 145.338C114.072 147.878 112.284 149.948 110.027 151.359C106.546 153.523 102.219 152.018 98.2686 152.394C93.4713 152.865 92.3425 155.029 87.4511 157.192C85.3816 157.851 83.2181 157.757 81.2428 157.004C79.0793 156.252 76.8217 155.687 74.5641 155.499C70.143 155.311 65.722 156.722 62.3356 159.545C52.5528 167.259 51.3299 159.074 40.7005 156.44C32.3287 154.558 23.5806 155.875 16.3376 160.297ZM66.8507 202.446C57.3501 200.188 49.0724 194.355 43.6166 186.17C38.0667 177.985 35.7151 168.012 37.126 158.133C47.4733 159.639 49.1664 165.566 56.1273 165.095C60.7365 164.343 61.6771 162.179 67.0389 159.262C68.5439 158.51 70.143 158.133 71.8362 157.945C71.1778 161.991 72.6828 166.036 75.881 168.576C79.8318 171.399 82.8419 171.869 94.0357 174.598C93.095 177.326 92.3425 180.055 91.7781 182.877C91.4018 184.571 86.7926 204.798 86.2282 207.339C84.5351 206.962 71.6481 203.763 66.8507 202.446ZM95.2585 177.703C98.0805 166.695 110.027 163.496 115.106 162.555C119.621 161.803 124.325 161.803 128.84 162.649C132.885 163.308 136.647 165.001 139.846 167.636C142.856 170.27 143.796 172.058 165.808 227.566L84.441 227.472C87.4511 210.82 91.0256 194.167 95.2585 177.703ZM147.371 245.913V295.682L124.701 256.544C124.513 256.168 124.043 255.979 123.572 256.074C123.102 256.168 122.82 256.45 122.632 256.826C119.339 274.42 122.161 260.872 110.215 316.004C109.18 321.085 105.324 325.13 100.244 326.353C98.1746 326.824 96.1051 326.918 94.0357 326.824C91.4959 326.824 89.0502 326.636 86.6045 326.353C84.3469 326.165 82.0894 325.601 80.0199 324.754C75.9751 323.343 73.3413 319.485 73.4353 315.252C73.5294 311.018 76.2573 277.148 81.3368 244.784H86.0401C86.6045 244.784 87.0748 244.219 87.0748 243.655C87.0748 243.09 86.6045 242.62 86.0401 242.62H81.619C81.9953 240.079 83.3122 232.176 83.7825 229.824C89.1443 229.824 162.327 229.918 166.372 229.824C166.372 229.824 170.417 240.079 172.392 244.878H148.217C147.841 244.784 147.371 245.348 147.371 245.913ZM88.9561 336.891C92.3425 338.49 95.5407 340.56 98.3627 343.006H47.6614C58.9492 332.751 75.2226 330.399 88.9561 336.891ZM367.86 349.216C364.286 349.216 34.4922 349.31 32.6109 349.216C31.4821 349.216 30.5415 348.369 30.4474 347.24C30.3533 344.888 33.6456 345.076 36.0913 345.17C37.8786 345.264 364.004 345.076 367.108 345.264C368.895 345.358 369.836 346.017 369.742 347.24C369.836 348.275 368.989 349.216 367.86 349.216Z" fill="black"/>
<path d="M223.752 282.605C228.925 283.734 240.213 286.462 242.377 287.027C242.941 287.121 243.506 286.839 243.694 286.274C249.714 266.705 250.09 267.175 249.714 266.423C249.338 265.764 250.466 266.234 230.242 260.872C229.678 260.684 229.113 261.06 228.925 261.624C222.811 282.229 222.811 281.758 222.999 282.04C223.093 282.323 223.375 282.605 223.752 282.605ZM230.619 263.224L247.362 267.74L241.906 284.769L225.351 280.911L230.619 263.224Z" fill="black"/>
<path d="M218.86 322.778C218.954 323.249 219.424 323.625 219.895 323.625C220.177 323.625 232.594 320.238 232.782 320.238C233.346 320.05 233.722 319.485 233.534 318.921L230.994 304.997C230.806 304.432 230.242 304.056 229.677 304.244C228.361 304.62 224.504 305.467 223.939 305.561L223.187 301.986C222.905 300.575 220.835 301.139 221.118 302.55L221.87 306.126L216.602 307.349C216.038 307.537 215.756 308.101 215.85 308.666C216.791 312.617 218.766 322.12 218.86 322.778ZM222.34 308.101L222.811 310.077C223.093 311.488 225.256 310.924 224.88 309.513L224.504 307.537L229.207 306.408L231.371 318.262L220.835 321.085L218.296 309.042L222.34 308.101Z" fill="black"/>
<path d="M165.431 307.536C165.619 308.007 166.183 308.195 166.654 308.007C173.144 305.655 188.006 300.857 188.853 300.668C189.417 300.48 189.794 299.916 189.605 299.351C184.808 284.392 183.303 279.876 182.833 278.277C182.645 277.712 182.08 277.336 181.516 277.524C176.06 279.029 159.034 284.016 158.94 284.11C158.376 284.298 157.999 284.863 158.188 285.427C164.866 306.125 165.243 307.442 165.431 307.536ZM181.046 279.97L187.16 298.975C187.16 298.975 167.876 305.373 167.406 305.561C167.312 305.561 167.218 305.655 167.03 305.655L160.539 285.897L181.046 279.97Z" fill="black"/>
<path d="M240.025 271.033L233.628 269.81C232.217 269.527 231.747 271.691 233.064 271.879C239.743 273.102 239.46 273.102 239.649 273.102C240.965 273.197 241.342 271.315 240.025 271.033Z" fill="black"/>
<path d="M170.323 289.849L176.625 287.873C177.942 287.403 177.378 285.333 176.061 285.803L169.758 287.779C168.441 288.155 169.006 290.319 170.323 289.849Z" fill="black"/>
<path d="M170.981 293.33C169.664 293.8 170.228 295.87 171.545 295.4L177.848 293.424C179.165 292.954 178.6 290.884 177.283 291.354L170.981 293.33Z" fill="black"/>
<path d="M172.204 297.47C171.639 297.658 171.263 298.222 171.451 298.787C171.639 299.351 172.204 299.728 172.768 299.539L179.071 297.564C180.388 297.093 179.823 295.023 178.506 295.494L172.204 297.47Z" fill="black"/>
<path d="M238.802 276.489L232.406 275.266C231.089 274.984 230.43 277.148 231.841 277.336C238.52 278.559 238.238 278.559 238.426 278.559C239.649 278.653 240.119 276.771 238.802 276.489Z" fill="black"/>
<path d="M263.541 319.297H269.75C270.032 319.297 270.314 319.203 270.502 318.921C270.785 318.639 270.879 318.168 270.69 317.792C270.502 317.416 270.126 317.133 269.75 317.133H263.541C263.259 317.133 262.977 317.227 262.789 317.51C262.507 317.792 262.413 318.262 262.601 318.639C262.789 319.015 263.165 319.297 263.541 319.297Z" fill="black"/>
<path d="M276.804 319.297H282.448C283.013 319.297 283.483 318.733 283.483 318.168C283.483 317.604 283.013 317.133 282.448 317.133H276.804C276.522 317.133 276.24 317.227 276.052 317.51C275.675 317.98 275.675 318.639 276.146 319.015C276.334 319.203 276.616 319.297 276.804 319.297Z" fill="black"/>
<path d="M291.008 319.297H297.217C297.499 319.297 297.781 319.203 297.969 318.921C298.345 318.45 298.345 317.792 297.875 317.416C297.687 317.227 297.405 317.133 297.217 317.133H291.008C290.726 317.133 290.444 317.227 290.256 317.51C289.88 317.98 289.88 318.639 290.35 319.015C290.538 319.203 290.726 319.297 291.008 319.297Z" fill="black"/>
<path d="M306.435 319.297H312.832C313.114 319.297 313.396 319.203 313.584 318.921C313.866 318.639 313.96 318.168 313.772 317.792C313.584 317.416 313.208 317.133 312.832 317.133H306.435C306.153 317.133 305.871 317.227 305.683 317.51C305.306 317.98 305.306 318.639 305.777 319.015C305.965 319.203 306.153 319.297 306.435 319.297Z" fill="black"/>
<path d="M320.921 319.297H327.318C327.882 319.297 328.353 318.733 328.353 318.168C328.353 317.604 327.882 317.133 327.318 317.133H320.921C320.357 317.133 319.887 317.698 319.887 318.262C319.981 318.827 320.357 319.297 320.921 319.297Z" fill="black"/>
<path d="M42.6751 171.775C42.2988 170.458 40.1353 171.022 40.6056 172.34C41.2641 174.598 42.2988 176.667 43.6157 178.643C44.3682 179.772 46.2495 178.737 45.497 177.514C44.1801 175.727 43.2395 173.845 42.6751 171.775Z" fill="black"/>
<path d="M167.125 179.208C167.501 179.208 167.219 179.208 175.685 175.538C177.001 174.974 175.873 173.092 174.65 173.657L166.466 177.232C165.431 177.702 165.996 179.208 167.125 179.208Z" fill="black"/>
<path d="M30.3533 231.141C30.6355 231.047 30.8236 230.765 30.9177 230.577C31.0118 230.483 31.0118 230.295 31.0118 230.2C31.0118 229.636 30.5414 229.166 29.977 229.166H17.1841C16.6197 229.166 16.1494 229.73 16.1494 230.295C16.1494 230.859 16.6197 231.329 17.1841 231.329H29.977C30.0711 231.235 30.1652 231.235 30.3533 231.141Z" fill="black"/>
<path d="M57.1617 257.108C57.7261 257.108 58.1964 256.544 58.1964 255.979C58.1964 255.415 57.7261 254.944 57.1617 254.944H42.2994C41.735 254.944 41.2646 255.509 41.2646 256.073C41.2646 256.638 41.735 257.108 42.2994 257.108H57.1617Z" fill="black"/>
<path d="M44.0867 279.03C44.463 278.559 44.463 277.901 43.9926 277.524C43.8045 277.336 43.5223 277.242 43.3342 277.242H27.7193C27.1549 277.242 26.6846 277.807 26.6846 278.371C26.6846 278.936 27.1549 279.406 27.7193 279.406H43.3342C43.6164 279.312 43.8986 279.218 44.0867 279.03Z" fill="black"/>
<path d="M294.301 189.463H287.81V183.724C287.81 183.63 287.716 183.442 287.716 183.348C287.622 183.254 287.528 183.159 287.434 183.159C287.34 183.065 287.152 183.065 287.058 183.159C286.964 183.159 286.776 183.254 286.682 183.348C286.587 183.442 286.493 183.63 286.493 183.818V189.557H280.097C279.909 189.557 279.721 189.651 279.627 189.745C279.533 189.839 279.438 190.027 279.438 190.216C279.438 190.404 279.533 190.592 279.627 190.686C279.721 190.78 279.909 190.874 280.097 190.874H286.493V196.613C286.493 196.801 286.587 196.99 286.682 197.084C286.776 197.178 286.964 197.272 287.152 197.272C287.34 197.272 287.528 197.178 287.622 197.084C287.716 196.99 287.81 196.801 287.81 196.613V190.874H294.301C294.489 190.874 294.677 190.78 294.771 190.686C294.865 190.592 294.959 190.404 294.959 190.216C294.959 190.027 294.865 189.839 294.771 189.745C294.583 189.557 294.489 189.463 294.301 189.463Z" fill="white"/>
<path d="M275.863 172.245C276.052 172.245 276.24 172.151 276.334 172.057C276.428 171.963 276.522 171.775 276.522 171.587C276.522 171.399 276.428 171.21 276.334 171.116C276.24 171.022 276.052 170.928 275.863 170.928H268.62C268.432 170.928 268.244 171.022 268.15 171.116C268.056 171.21 267.962 171.399 267.962 171.587C267.962 171.775 268.056 171.963 268.15 172.057C268.244 172.151 268.432 172.245 268.62 172.245H275.863Z" fill="white"/>
<path d="M294.301 189.463H287.81V183.724C287.81 183.535 287.716 183.347 287.622 183.253C287.528 183.159 287.34 183.065 287.152 183.065C286.964 183.065 286.776 183.159 286.682 183.253C286.587 183.347 286.493 183.535 286.493 183.724V189.463H280.097C279.909 189.463 279.721 189.557 279.627 189.651C279.533 189.745 279.438 189.933 279.438 190.121C279.438 190.309 279.533 190.497 279.627 190.592C279.721 190.686 279.909 190.78 280.097 190.78H286.493V196.519C286.493 196.613 286.587 196.801 286.587 196.895C286.682 196.989 286.776 197.083 286.87 197.083C286.964 197.177 287.152 197.177 287.246 197.083C287.34 197.083 287.528 196.989 287.622 196.895C287.716 196.801 287.81 196.613 287.81 196.425V190.686H294.301C294.489 190.686 294.677 190.592 294.771 190.497C294.865 190.403 294.959 190.215 294.959 190.027C294.959 189.839 294.865 189.651 294.771 189.557C294.583 189.557 294.489 189.463 294.301 189.463Z" fill="black"/>
<path d="M275.863 172.245C276.052 172.245 276.24 172.151 276.334 172.057C276.428 171.963 276.522 171.775 276.522 171.587C276.522 171.399 276.428 171.21 276.334 171.116C276.24 171.022 276.052 170.928 275.863 170.928H268.62C268.432 170.928 268.244 171.022 268.15 171.116C268.056 171.21 267.962 171.399 267.962 171.587C267.962 171.775 268.056 171.963 268.15 172.057C268.244 172.151 268.432 172.245 268.62 172.245H275.863Z" fill="black"/>
</svg>
