<svg width="407" height="400" viewBox="0 0 407 400" fill="none" xmlns="http://www.w3.org/2000/svg">
<path d="M222.4 179.4L210.6 198.4H234.1L222.4 179.4Z" fill="#59DFFD" stroke="black" stroke-width="2" stroke-miterlimit="10"/>
<path d="M354.4 358.6H212.1C208.4 358.6 205.5 355.6 205.5 352V74.4999C205.5 70.7999 208.5 67.8999 212.1 67.8999H354.4C358.1 67.8999 361 70.8999 361 74.4999V352C361.1 355.7 358.1 358.6 354.4 358.6Z" stroke="black" stroke-width="2" stroke-miterlimit="10"/>
<path d="M189 310.9V64.2C189 56.9 195.9 51 204.3 51H362.2C370.7 51 377.5 56.9 377.5 64.2V353" stroke="black" stroke-width="2" stroke-miterlimit="10"/>
<path d="M328.299 294.3H330.199C329.699 292.9 322.399 272.6 319.199 263.8V269.1C323.999 282.5 324.599 284 328.299 294.3Z" fill="black"/>
<path d="M284.199 288.4C284.199 286.8 284.199 209.9 284.199 209.6C284.199 209.1 284.599 208.8 284.999 208.7C284.499 208.7 270.399 208.7 267.099 208.7C266.599 208.7 266.199 209.1 266.199 209.6V288.4C266.199 288.6 266.299 288.9 266.499 289C266.699 289.2 266.899 289.3 267.099 289.3C285.199 289.4 284.799 289.3 284.999 289.3C284.499 289.2 284.199 288.9 284.199 288.4Z" fill="white"/>
<path d="M319.201 209.6C319.201 209.1 318.801 208.7 318.301 208.7C315.801 208.7 300.301 208.7 299.801 208.7C300.501 208.7 300.601 209.4 300.701 210C300.901 211 301.301 219.5 300.601 288.4C300.601 288.9 300.201 289.2 299.801 289.3C300.001 289.4 299.501 289.4 318.301 289.3C318.801 289.3 319.201 288.9 319.201 288.4C319.301 274.5 319.301 223.7 319.201 209.6Z" fill="white"/>
<path d="M299.899 208.7C299.599 208.7 285.299 208.7 284.999 208.7C284.499 208.7 284.199 209.1 284.199 209.6V288.4C284.199 288.9 284.599 289.3 284.999 289.3C285.099 289.3 299.699 289.3 299.899 289.3C300.399 289.3 300.699 288.9 300.699 288.4C301.399 226.7 301.099 213 300.799 209.9C300.699 209.4 300.599 208.7 299.899 208.7ZM293.599 251.2V256.7C293.599 257.2 293.199 257.5 292.699 257.5C292.199 257.5 291.799 257.1 291.799 256.7V251.2C291.799 250.7 292.199 250.4 292.699 250.4C293.199 250.4 293.499 250.7 293.599 251.2ZM291.799 240.3V234.8C291.799 234.3 292.199 234 292.699 234C293.199 234 293.599 234.4 293.599 234.8V240.3C293.599 240.8 293.199 241.1 292.699 241.1C292.199 241.1 291.799 240.8 291.799 240.3ZM293.599 266.9V272.4C293.599 272.9 293.199 273.2 292.699 273.2C292.199 273.2 291.799 272.8 291.799 272.4V266.9C291.799 266.4 292.199 266.1 292.699 266.1C293.199 266 293.499 266.4 293.599 266.9ZM293.599 224.6C293.599 225.1 293.199 225.4 292.699 225.4C292.199 225.4 291.799 225 291.799 224.6V219.1C291.799 218.6 292.199 218.3 292.699 218.3C293.199 218.3 293.599 218.7 293.599 219.1V224.6ZM291.799 286.7V281.2C291.799 280.7 292.199 280.4 292.699 280.4C293.199 280.4 293.599 280.8 293.599 281.2V286.7C293.599 287.2 293.199 287.6 292.699 287.6C292.199 287.5 291.799 287.1 291.799 286.7Z" fill="#59DFFD"/>
<path d="M169 230.4C169.2 230.9 168.9 231.5 168 231.5C166.8 231.5 142.4 232.1 78.6003 231.5C78.1003 231.5 77.7003 231.1 77.7003 230.6C77.7003 230.5 77.7003 230.5 77.7003 230.4C76.8003 235.5 75.9003 240.6 75.1003 245.7H81.9003C82.4003 245.7 82.7003 246.1 82.7003 246.6C82.7003 247.1 82.3003 247.5 81.9003 247.5H74.8003C69.2003 283.3 67.5003 309 66.8003 315.6C66.4003 318.4 66.3003 321.2 66.4003 324C66.5003 326.3 67.4003 328.6 68.9003 330.4C71.9003 334.1 76.5003 335.5 81.0003 336.2C86.1003 337 91.2003 337.1 96.3003 336.6C103 335.4 108.2 330.3 109.5 323.6C110.2 320.5 121.4 267.2 122.2 263.3L147.1 306.4V249C147.1 248.5 147.5 248.1 148 248.1H176.1C174.2 243.5 170 232.8 169 230.4Z" fill="white"/>
<path d="M148.099 248.1C147.599 248.1 147.199 248.5 147.199 249C147.199 249 147.199 351.4 147.199 352.5H193.699C193.699 351.4 193.699 249 193.699 249C193.699 248.5 194.099 248.2 194.499 248.1C193.999 248.1 194.799 247.8 148.099 248.1ZM167.099 313.9L159.399 290.7L183.399 283.7L190.599 306.1L167.099 313.9Z" fill="white"/>
<path d="M259.8 249C259.8 248.8 259.7 248.5 259.5 248.4C259.3 248.2 259.1 248.1 258.9 248.1H214C214 248.1 214 248.1 213.9 248.1C214.4 248.1 214.7 248.5 214.7 249C214.6 257.7 214.7 214.3 214.7 352.5H259.8C259.8 348.1 259.9 254.4 259.8 249ZM224 330.4L220.8 315.3L226.5 313.9L225.4 309C225.2 307.9 226.9 307.4 227.1 308.5L228.2 313.5L234.6 312L237.3 326.8L224 330.4ZM248.2 291.6L228.4 286.9L234.7 265.9L254.7 271.3L248.2 291.6Z" fill="white"/>
<path d="M214.499 248.4C214.399 248.2 214.099 248.1 213.899 248.1C213.599 248.1 194.799 248.1 194.499 248.1C193.999 248.1 193.699 248.5 193.699 249C193.699 249 193.699 351.4 193.699 352.5H214.799C214.799 242.5 214.899 248.8 214.499 248.4ZM204.699 351.4C204.599 351.9 204.199 352.3 203.699 352.2C203.299 352.2 202.999 351.8 202.899 351.4V338.9C202.899 338.4 203.299 338.1 203.799 338.1C204.299 338.1 204.699 338.5 204.699 338.9V351.4ZM204.699 324C204.599 324.5 204.199 324.9 203.699 324.8C203.299 324.8 202.999 324.4 202.899 324V311.5C202.899 311 203.299 310.7 203.799 310.7C204.299 310.7 204.699 311.1 204.699 311.5V324ZM204.699 296.7C204.599 297.2 204.199 297.6 203.699 297.5C203.299 297.5 202.999 297.1 202.899 296.7V284.2C202.899 283.7 203.299 283.4 203.799 283.4C204.299 283.4 204.699 283.8 204.699 284.2V296.7ZM204.699 267.8C204.599 268.3 204.199 268.7 203.699 268.6C203.299 268.6 202.999 268.2 202.899 267.8V255.3C202.899 254.8 203.299 254.5 203.799 254.5C204.299 254.5 204.699 254.9 204.699 255.3V267.8Z" fill="#59DFFD"/>
<path d="M350.6 333.8C350.6 334.3 350.3 334.7 349.6 334.7C346.8 334.8 266.9 334.7 266.9 334.7C266.4 334.7 266 334.3 266 333.8V352.5H350.7V333.8H350.6Z" fill="white"/>
<path d="M350.6 316.5C350.6 317 350.2 317.4 349.7 317.4C349.3 317.4 349.8 317.4 347.7 317.4C343.4 317.5 318.5 317.7 266.9 317.4C266.4 317.4 266 317 266 316.5V333.8C266 334.3 266.4 334.7 266.9 334.7H349.7C350.2 334.7 350.6 334.3 350.6 333.8V316.5ZM299.6 325H306.2C306.7 325 307.1 325.5 307 326C307 326.2 306.9 326.4 306.8 326.5C306.6 326.7 306.4 326.8 306.2 326.8H299.6C299.1 326.8 298.8 326.4 298.8 325.9C298.8 325.4 299.1 325 299.6 325ZM316 325H322.8C323.3 325 323.7 325.5 323.6 326C323.6 326.2 323.5 326.4 323.4 326.5C323.2 326.7 323 326.8 322.8 326.8H316C315.5 326.8 315.2 326.4 315.2 325.9C315.2 325.4 315.5 325 316 325ZM338.2 326.8H331.4C330.9 326.8 330.6 326.4 330.6 325.9C330.6 325.4 331 325 331.4 325H338.2C338.7 325 339.1 325.5 339 326C339 326.2 338.9 326.4 338.8 326.5C338.6 326.6 338.4 326.7 338.2 326.8ZM270.4 326.8C269.9 326.8 269.6 326.4 269.6 325.9C269.6 325.4 270 325 270.4 325H277C277.5 325 277.9 325.5 277.8 326C277.8 326.2 277.7 326.4 277.6 326.5C277.4 326.7 277.2 326.8 277 326.8H270.4ZM290.6 326.8H284.6C284.1 326.8 283.8 326.4 283.8 325.9C283.8 325.4 284.2 325 284.6 325H290.6C291.1 325 291.5 325.5 291.4 326C291.4 326.2 291.3 326.4 291.2 326.5C291 326.6 290.8 326.7 290.6 326.8ZM349.7 327H344.2C343.7 327 343.4 326.6 343.4 326.1C343.4 325.6 343.8 325.2 344.2 325.2H349.7C350.2 325.2 350.6 325.5 350.7 326C350.8 326.5 350.4 326.9 349.9 327C349.8 327 349.7 327 349.7 327Z" fill="#59DFFD"/>
<path d="M349.7 294.3H266.9C266.4 294.3 266 294.7 266 295.2V316.5C266 316.7 266.1 317 266.3 317.1C266.5 317.3 266.7 317.4 266.9 317.4C330.4 317.9 345.5 317.7 349.2 317.4C350.5 317.3 350.7 317.2 350.7 316C350.8 314.3 350.8 309.5 350.7 295.2C350.6 294.7 350.2 294.3 349.7 294.3Z" fill="white"/>
<path d="M293.601 224.6V219.1C293.601 218.6 293.201 218.3 292.701 218.3C292.201 218.3 291.801 218.7 291.801 219.1V224.6C291.801 225.1 292.301 225.5 292.801 225.4C293.201 225.4 293.501 225.1 293.601 224.6Z" fill="black"/>
<path d="M293.601 240.3V234.8C293.601 234.3 293.201 234 292.701 234C292.201 234 291.801 234.4 291.801 234.8V240.3C291.801 240.8 292.301 241.2 292.801 241.1C293.201 241.1 293.501 240.7 293.601 240.3Z" fill="black"/>
<path d="M293.601 256.7V251.2C293.601 250.7 293.201 250.4 292.701 250.4C292.201 250.4 291.801 250.8 291.801 251.2V256.7C291.801 257.2 292.301 257.6 292.801 257.5C293.201 257.5 293.501 257.1 293.601 256.7Z" fill="black"/>
<path d="M107 118.2L107.6 117.9C109.8 116.6 110.6 113.9 109.5 111.7C107.9 108.5 103.2 108.9 100.2 109.1C79.6004 110.2 58.0004 114.4 42.9004 128.6C44.8004 130 47.2004 130.3 49.4004 129.5C52.5004 127.8 52.3004 127.3 55.7004 125.7C61.5004 122.9 69.3004 122.2 74.8004 126.1C77.6004 128.1 77.2004 129 79.8004 131.1C82.2004 132.7 85.1004 130.8 87.2004 129.6C94.5004 125.5 103.7 121.6 110 126.9C110.8 126.4 111.5 125.7 112 125C114.1 121.9 111 118.4 107 118.2Z" fill="white"/>
<path d="M83.4 169.5C80.5 168.9 77.7 168 75 167C70.2 165.3 67.4 160.2 68.6 155.2C66.1 155.1 63.6 155.7 61.3 156.7C55.4 160 54.7 162.1 49.8 162.9C42.1 163.4 40.3 156.2 27.7 155.2C26.4 163.7 27.7 172.4 31.5 180.1C36.3 191.4 45.8 200 57.5 203.7C60.9 204.9 64.4 205.7 81.6 210C81.7 209.4 86.9 186.6 87.9 182C88.5 178.3 89.7 174.7 91.2 171.3C88.6 170.8 86.1 170.1 83.4 169.5ZM36.7 177.3C35.3 175.3 34.3 173 33.6 170.7C33.3 169.6 35 169.1 35.3 170.2C36 172.4 37 174.5 38.3 176.4C38.9 177.4 37.4 178.3 36.7 177.3Z" fill="white"/>
<path d="M293.601 272.4V266.9C293.601 266.4 293.201 266.1 292.701 266.1C292.201 266.1 291.801 266.5 291.801 266.9V272.4C291.801 272.9 292.301 273.3 292.801 273.2C293.201 273.2 293.501 272.8 293.601 272.4Z" fill="black"/>
<path d="M293.601 286.6V281.1C293.601 280.6 293.201 280.3 292.701 280.3C292.201 280.3 291.801 280.7 291.801 281.1V286.6C291.901 287.1 292.301 287.5 292.801 287.4C293.201 287.4 293.501 287.1 293.601 286.6Z" fill="black"/>
<path d="M169 230.4C167 225.3 148.5 179.4 146.3 174.4C145.2 171.4 143.7 168.5 141.9 166C130.7 153.1 99.2998 155.5 90.9998 171.8C89.5998 175.1 88.5998 178.6 87.8998 182.1C83.2998 202.9 81.4998 209.1 77.6998 230.4C77.5998 230.9 77.8998 231.4 78.3998 231.5C78.4998 231.5 78.4998 231.5 78.5998 231.5C132.5 232 167 231.7 167.8 231.6C169 231.5 169.2 230.9 169 230.4Z" fill="#59DFFD"/>
<path d="M114.2 133.2C113.4 130.7 111.9 128.5 109.9 126.7C103.4 121.3 94.3002 125.3 87.1002 129.4C85.0002 130.6 82.0002 132.5 79.7002 130.9C78.7002 130.1 77.8002 129.1 77.1002 128C71.3002 121.2 60.1002 122.2 52.7002 127.2C51.7002 128 50.5002 128.7 49.4002 129.4C43.5002 132 40.3002 123.9 28.7002 123.1C20.5002 122.6 12.5002 125.6 6.70022 131.5C6.30022 131.9 5.80022 132.3 5.70022 132.9C5.70022 133.2 5.50022 133.3 5.70022 160.1C5.70022 160.6 6.10022 161 6.60022 161C6.80022 161 6.90022 161 7.00022 160.9C16.9002 154.2 29.2002 153.7 37.7002 157.9C42.1002 160.1 44.8002 163.3 49.9002 162.9C54.8002 162.1 55.5002 159.9 61.4002 156.7C65.9002 154.7 71.0002 154.7 75.5002 156.6C77.8002 157.4 80.3002 157.6 82.7002 157.2C86.9002 156.1 89.9002 152.5 94.2002 152C98.7002 151.4 103.5 153.2 107.7 150.8C114 147.4 116.8 139.9 114.2 133.2ZM99.7002 144.5C96.8002 143.6 94.7002 141.1 94.4002 138.1C94.3002 134.7 96.4002 131.7 99.5002 130.5C105.6 128.2 111.3 135.6 107.5 141.6C106 144.2 102.7 145.4 99.7002 144.5Z" fill="black"/>
<path d="M107.4 132.9C105.7 130.4 102.5 129.4 99.5995 130.4C96.4995 131.6 94.3995 134.7 94.4995 138C94.7995 141 96.8995 143.5 99.7995 144.4C106.1 146.6 111.5 138.7 107.4 132.9Z" fill="white"/>
<path d="M202.9 338.9V351.4C202.9 351.9 203.4 352.3 203.9 352.2C204.3 352.2 204.7 351.8 204.7 351.4V338.9C204.7 338.4 204.3 338.1 203.8 338.1C203.3 338.1 202.9 338.4 202.9 338.9Z" fill="black"/>
<path d="M202.9 311.5V324C203 324.5 203.4 324.9 203.9 324.8C204.3 324.8 204.6 324.4 204.7 324V311.5C204.7 311 204.3 310.7 203.8 310.7C203.3 310.7 202.9 311 202.9 311.5Z" fill="black"/>
<path d="M202.9 284.1V296.6C202.9 297.1 203.4 297.5 203.9 297.4C204.3 297.4 204.7 297 204.7 296.6V284.1C204.7 283.6 204.3 283.3 203.8 283.3C203.3 283.3 202.9 283.7 202.9 284.1Z" fill="black"/>
<path d="M202.9 255.3V267.8C202.9 268.3 203.4 268.7 203.9 268.6C204.3 268.6 204.7 268.2 204.7 267.8V255.3C204.7 254.8 204.3 254.5 203.8 254.5C203.3 254.4 202.9 254.8 202.9 255.3Z" fill="black"/>
<path d="M379.9 352.5H97.7998C97.8998 352.6 97.9998 352.8 98.0998 352.9C98.2998 353.2 98.2998 353.6 98.0998 353.8C97.8998 354.1 97.5998 354.2 97.1998 354.2C97.0998 354.2 39.6998 354.2 37.9998 354.2C37.5998 354.2 37.2998 354 37.1998 353.6C37.0998 353.3 37.0998 352.9 37.3998 352.6C37.4998 352.5 37.5998 352.4 37.6998 352.3H28.3998C26.3998 352.3 23.8998 351.8 22.1998 353.2C19.3998 355.4 20.2998 360.6 25.3998 360.6C33.1998 360.7 381.4 360.6 381.4 360.6C386.3 360.5 388 352.5 379.9 352.5Z" fill="#DAF8FF"/>
<path d="M98.0998 353C96.3998 350.7 94.2998 348.8 91.8998 347.4C86.0998 343.4 79.2998 340.8 72.2998 340C59.2998 338.7 46.4998 343.4 37.3998 352.8C37.0998 353.2 37.0998 353.7 37.3998 354.1L37.4998 354.2C37.5998 354.3 37.7998 354.4 37.9998 354.4C39.9998 354.4 97.2998 354.4 97.2998 354.4C97.7998 354.4 98.1998 354 98.1998 353.5C98.1998 353.3 98.1998 353.1 98.0998 353Z" fill="black"/>
<path d="M229 316.7C228.8 315.6 227.6 310.2 227.2 308.5C227 307.4 225.2 307.8 225.5 309L227.3 317.2C227.5 318.4 229.2 317.9 229 316.7Z" fill="black"/>
<path d="M238.1 276.5L244.9 277.8C246 278 246.5 276.3 245.4 276.1L238.6 274.8C237.4 274.5 236.9 276.3 238.1 276.5Z" fill="black"/>
<path d="M177.5 291.6L170.8 293.7C169.7 294.1 170.2 295.8 171.3 295.4L178 293.3C179.1 293 178.6 291.2 177.5 291.6Z" fill="black"/>
<path d="M178.801 297.5L172.101 299.6C171.001 300 171.501 301.7 172.601 301.3L179.301 299.2C180.401 298.9 179.901 297.1 178.801 297.5Z" fill="black"/>
<path d="M180.099 301.9L173.399 304C172.299 304.4 172.799 306.1 173.899 305.7L180.599 303.6C181.699 303.3 181.199 301.5 180.099 301.9Z" fill="black"/>
<path d="M236.799 282.3L243.599 283.6C244.699 283.8 245.199 282.1 244.099 281.9L237.299 280.6C236.099 280.3 235.599 282 236.799 282.3Z" fill="black"/>
<path d="M276.999 325H270.399C269.899 325 269.499 325.5 269.599 326C269.599 326.2 269.699 326.4 269.799 326.5C269.999 326.7 270.199 326.8 270.399 326.8H276.999C277.499 326.8 277.799 326.4 277.799 325.9C277.799 325.4 277.499 325 276.999 325Z" fill="black"/>
<path d="M290.601 325H284.601C284.101 325 283.701 325.5 283.801 326C283.801 326.2 283.901 326.4 284.001 326.5C284.201 326.7 284.401 326.8 284.601 326.8H290.601C291.101 326.8 291.401 326.4 291.401 325.9C291.401 325.4 291.001 325 290.601 325Z" fill="black"/>
<path d="M306.201 325H299.601C299.101 325 298.701 325.5 298.801 326C298.801 326.2 298.901 326.4 299.001 326.5C299.201 326.7 299.401 326.8 299.601 326.8H306.201C306.701 326.8 307.001 326.4 307.001 325.9C307.001 325.4 306.701 325 306.201 325Z" fill="black"/>
<path d="M322.801 325H316.001C315.501 325 315.101 325.5 315.201 326C315.201 326.2 315.301 326.4 315.401 326.5C315.601 326.7 315.801 326.8 316.001 326.8H322.801C323.301 326.8 323.601 326.4 323.601 325.9C323.601 325.4 323.201 325 322.801 325Z" fill="black"/>
<path d="M338.199 325H331.399C330.899 325 330.499 325.5 330.599 326C330.599 326.2 330.699 326.4 330.799 326.5C330.999 326.7 331.199 326.8 331.399 326.8H338.199C338.699 326.8 338.999 326.4 338.999 325.9C338.999 325.4 338.699 325 338.199 325Z" fill="black"/>
<path d="M344.2 327H349.7C350.2 327 350.5 326.6 350.5 326.1C350.5 325.6 350.1 325.2 349.7 325.2H344.2C343.7 325.2 343.3 325.7 343.4 326.2C343.4 326.4 343.5 326.6 343.6 326.7C343.8 326.8 344 326.9 344.2 327Z" fill="black"/>
<path d="M22.0002 231.4H8.5002C8.0002 231.4 7.7002 231.8 7.7002 232.3C7.7002 232.8 8.1002 233.2 8.5002 233.2H22.0002C22.5002 233.2 22.8002 232.8 22.8002 232.3C22.8002 231.8 22.5002 231.4 22.0002 231.4Z" fill="black"/>
<path d="M51.0004 260.7C51.5004 260.7 51.8004 260.3 51.8004 259.8C51.8004 259.3 51.4004 258.9 51.0004 258.9H35.2004C34.7004 258.9 34.4004 259.3 34.4004 259.8C34.4004 260.3 34.8004 260.7 35.2004 260.7H51.0004Z" fill="black"/>
<path d="M81.9004 247.5C82.4004 247.5 82.7004 247.1 82.7004 246.6C82.7004 246.1 82.3004 245.7 81.9004 245.7H65.7004C65.2004 245.7 64.9004 246.1 64.9004 246.6C64.9004 247.1 65.3004 247.5 65.7004 247.5H81.9004Z" fill="black"/>
<path d="M36.3002 282.5H19.7002C19.2002 282.5 18.8002 283 18.9002 283.5C18.9002 283.7 19.0002 283.9 19.1002 284C19.3002 284.2 19.5002 284.3 19.7002 284.3H36.3002C36.8002 284.3 37.1002 283.9 37.1002 283.4C37.1002 282.9 36.8002 282.5 36.3002 282.5Z" fill="black"/>
<path d="M251.3 134.4C250.7 132.1 248.6 130.5 246.8 128.9C247.1 128.5 247.3 128.1 247.6 127.7C243.5 131.5 238.1 133.6 232.6 133.4C232.6 133.5 232.5 133.5 232.5 133.6C231.7 134.7 230.9 136.5 231.9 137.7C233.7 139.5 235.9 139.6 239.1 140.2C240.4 140.3 241.6 140.4 242.9 140.7C243.3 140.9 243.5 141.3 243.5 141.7C243.5 142.1 243.2 142.5 242.8 142.6C242.4 142.7 238.3 142 237.9 141.9C234.7 141.3 232.1 140.9 229.3 142.6C227.5 144 226.7 146.7 228.6 148.2C229.1 148.8 229.7 149.3 230.4 149.6C232.5 150.5 235.6 151 238 151.8C239.1 152.2 238.6 153.9 237.5 153.5C234.5 152.5 231.3 152.2 228.9 150.7C227.3 149.8 225.5 149.4 223.6 149.5C221.9 149.5 220.4 150.4 219.6 151.9C217.8 155.1 222.1 157.7 224.5 158.8C224.9 159 225.1 159.6 224.8 160C224.7 160.2 224.5 160.3 224.3 160.4C224.1 160.5 223.8 160.5 223.5 160.4C221.4 159.5 219.6 158.1 218.2 156.4C217 154.8 216.9 152.7 217.9 151.1C219.6 148.2 222.7 147.4 226 148C224.6 145.2 226.6 140.7 231.5 139.9C231 139.5 230.5 139 230.1 138.5C229.4 136.9 229.5 135.1 230.4 133.6C229.6 133.6 228.8 133.7 228 133.8L224.1 134.1L224 134.2C223.5 134.3 223.1 134.3 222.6 134.4C221.5 134.6 221 132.8 222.1 132.7C230.4 131.3 230.2 132.3 236.3 131.5C240.1 131 243.6 129.3 246.3 126.6C247 125.9 248 126.7 247.8 127.5C249.1 125.2 248.7 122.4 246.7 120.6C245.1 119.4 243.2 118.6 241.2 118.4C240.1 118.3 239.3 118.3 238.8 118.4C238.7 118.4 238.7 118.4 238.6 118.4C238.5 118.4 238.4 118.4 238.4 118.4C233.1 119.1 227.8 120.4 222.7 122.3C212.9 125.5 203.1 128.6 193.4 132C182.4 135.8 125 156.4 120.9 157.9C128.6 158.1 136.9 160.3 141.9 166.1C143.8 168.7 145.3 171.5 146.3 174.5C148.8 180.1 151 185.7 153.3 191.2L192.4 174.3L203.9 169.3C212.2 165.7 222.9 161.1 223.6 160.8C225.3 161.5 227.1 161.9 229 162.1C231.3 162.6 233.8 162.2 235.8 160.9C238.2 159.5 239.4 156.7 238.7 154C242.1 155 245.6 153.1 246.7 149.7C246.8 149.4 246.9 149.1 246.9 148.8C247 146.6 246.3 144.5 245.1 142.7C246.4 142.7 247.6 142.4 248.8 141.8C251.7 140.3 252 137.1 251.3 134.4ZM176.9 174L168.2 177.8C167.1 178.3 166.2 176.7 167.3 176.2L176 172.4C177.1 171.9 178 173.5 176.9 174Z" fill="white"/>
<path d="M204.1 324.9C204.7 324.9 205.2 324.4 205.2 323.8V311.3C205.2 310.7 204.7 310.2 204 310.2C203.4 310.2 202.9 310.7 202.9 311.3V323.8C202.9 324.5 203.4 325 204.1 324.9Z" fill="black"/>
<path d="M204.1 297.6C204.7 297.6 205.2 297.1 205.2 296.5V284C205.2 283.4 204.6 282.9 204 282.9C203.7 282.9 203.4 283 203.2 283.2C203 283.4 202.9 283.7 202.9 284V296.5C202.9 297.1 203.4 297.6 204.1 297.6Z" fill="black"/>
<path d="M204.1 268.7C204.7 268.7 205.2 268.2 205.2 267.6V255.1C205.2 254.5 204.6 254 204 254C203.7 254 203.4 254.1 203.2 254.3C203 254.5 202.9 254.8 202.9 255.1V267.6C202.9 268.2 203.4 268.7 204.1 268.7Z" fill="black"/>
<path d="M292.901 225.6C293.501 225.6 294.001 225.1 294.101 224.5V219C294.101 218.4 293.501 217.9 292.901 217.9C292.301 217.9 291.901 218.4 291.801 219V224.5C291.801 225.1 292.301 225.5 292.901 225.6Z" fill="black"/>
<path d="M292.901 241.2C293.501 241.2 294.001 240.7 294.101 240.1V234.6C294.101 234 293.501 233.5 292.901 233.5C292.301 233.5 291.901 234 291.801 234.6V240.1C291.801 240.7 292.301 241.2 292.901 241.2Z" fill="black"/>
<path d="M292.901 257.6C293.501 257.6 294.001 257.1 294.101 256.5V251C294.101 250.4 293.501 249.9 292.901 249.9C292.301 249.9 291.901 250.4 291.801 251V256.5C291.801 257.1 292.301 257.6 292.901 257.6Z" fill="black"/>
<path d="M292.901 273.3C293.501 273.3 294.001 272.8 294.101 272.2V266.7C294.101 266.1 293.501 265.6 292.901 265.6C292.301 265.6 291.901 266.1 291.801 266.7V272.2C291.801 272.8 292.301 273.3 292.901 273.3Z" fill="black"/>
<path d="M107.7 141.9C112.3 135.7 106.2 127.5 99.6998 130C96.4998 131.3 94.2998 134.4 94.3998 137.9C94.4998 143.4 103.1 148.1 107.7 141.9ZM99.6998 132.5C103.8 130 108.3 134.8 106.5 139.3C105.7 141.4 103.6 142.7 101.4 142.5C98.9998 142.2 96.9998 140.3 96.5998 137.8C96.6998 135.7 97.7998 133.6 99.6998 132.5Z" fill="black"/>
<path d="M385 353.7C383.7 352.4 381.9 351.8 380.1 352H351.1V295C351.1 294.4 350.6 293.9 349.9 293.8H330.6C329.8 291.5 322.8 272.1 319.7 263.5V209.3C319.7 208.7 319.2 208.2 318.5 208.1C317.3 208.1 313.3 208.1 309.3 208.1H297C295.6 208.1 294.2 208.1 292.9 208.1C292.9 208.1 292.9 208.1 292.8 208.1C286.2 208.1 280.1 208.1 275.3 208.1C274.8 208.1 274.3 208.1 273.8 208.1C273.7 208.1 273.6 208.1 273.4 208.1C273 208.1 272.7 208.1 272.3 208.1C272.1 208.1 272 208.1 271.8 208.1C271.5 208.1 271.2 208.1 270.9 208.1C270.7 208.1 270.6 208.1 270.4 208.1C270.1 208.1 269.9 208.1 269.6 208.1C269.5 208.1 269.3 208.1 269.2 208.1C268.9 208.1 268.6 208.1 268.4 208.1C268.3 208.1 268.2 208.1 268.2 208.1C267.9 208.1 267.5 208.1 267.3 208.1C266.7 208.1 266.2 208.6 266.1 209.3V288.1C266.1 288.7 266.6 289.2 267.3 289.2C304.4 289.5 296.6 289.4 318.5 289.2C318.8 289.2 319.1 289.1 319.3 288.9C319.5 288.7 319.6 288.4 319.6 288.1V270.3C321.7 276 326.7 289.9 328 293.8H266.9C266.3 293.8 265.8 294.3 265.7 295V352.1H260.1V248.8C260.1 248.2 259.6 247.7 258.9 247.6C241.5 247.5 184.6 247.6 176.2 247.6C175.4 245.6 167.9 226.9 164.5 218.4L160.5 208.4C158.2 202.6 155.9 196.8 153.5 191.1L189.1 175.7L191.5 174.6L196 172.6C196.2 172.5 196.6 172.3 197.2 172.1C202.6 169.8 222.4 161.3 223.6 160.7C225.3 161.4 227.1 161.8 228.9 162C231.3 162.5 233.8 162.1 235.8 160.7C238.2 159.3 239.4 156.6 238.9 153.9C241.7 154.6 244.6 153.4 246.1 150.9C246.6 150.1 246.9 149.2 247 148.3C247 146.2 246.5 144.2 245.4 142.4C250.5 142 252.5 138.5 251.2 133.9C250.3 131.7 248.8 129.8 246.8 128.5C249.5 124.8 248.4 121.6 246.6 119.9C245.1 118.7 243.2 117.9 241.3 117.7L238.4 117.6C232.9 118.3 227.5 119.7 222.3 121.5C212.4 124.7 202.7 127.9 193 131.2C182.4 134.9 125.4 155.3 120.6 157.1C110.4 156.8 96.5998 160.3 90.8998 170.7C80.7998 168.2 78.8998 167.9 74.8998 166.3C70.2998 164.6 67.5998 159.8 68.5998 155C70.7998 155.2 72.9998 155.6 75.0998 156.4C77.3998 157.3 79.9998 157.5 82.3998 157C86.5998 155.9 89.6998 152.3 93.8998 151.8C98.3998 151.2 103.2 153 107.5 150.6C110.2 149.1 112.3 146.9 113.7 144.2C116 139.4 115.5 133.7 112.5 129.3C111.8 128.2 111 127.2 110 126.4C110.7 125.9 111.3 125.3 111.8 124.6C113.6 122.1 111.9 118.3 107.4 117.7C109.6 116.3 110.4 113.5 109.2 111.2C107.6 108 103.1 108.2 100.1 108.4C79.6998 109.7 58.2998 113.6 42.9998 128C38.9998 125.8 35.8998 123.1 28.7998 122.7C20.4998 122.2 12.3998 125.3 6.5998 131.2C6.0998 131.6 5.6998 132.1 5.4998 132.7C5.3998 133.9 5.3998 148.2 5.4998 159.9C5.4998 160.5 5.9998 161.1 6.6998 161C6.8998 161 7.0998 160.9 7.2998 160.8C13.2998 156.7 20.3998 154.8 27.6998 155.2C25.3998 169.5 32.1998 187.1 43.7998 196.2C53.3998 203.8 62.2998 205.1 81.5998 210C79.1998 221.7 77.0998 233.4 75.1998 245.1H65.9998C65.4998 245.1 64.9998 245.5 64.8998 246.1C64.7998 246.7 65.1998 247.3 65.7998 247.4C65.8998 247.4 65.8998 247.4 65.9998 247.4H74.7998C70.2998 276.5 68.4998 297.3 67.4998 308.5C66.3998 321.3 65.1998 325.5 68.9998 330.3C73.3998 335.8 81.7998 336.6 89.3998 336.9C91.7998 337 94.2998 336.9 96.6998 336.6C103.4 335.4 108.8 330.2 110.1 323.4C110.1 323.4 121.5 269.6 122.6 263.7L147.1 306.1C147.1 308 147.1 348.1 147.1 351.8H98.0998C94.1998 347 86.3998 342.9 80.3998 340.9C65.2998 336.3 48.7998 340.5 37.6998 351.8C37.6998 351.8 27.6998 351.8 27.2998 351.8C25.4998 351.5 23.6998 351.9 22.0998 352.8C18.9998 355.3 20.1998 360.6 25.3998 360.7C27.9998 360.7 379 360.7 381.4 360.7C383.1 360.7 384.6 359.7 385.3 358.2C386.2 356.9 386 355.1 385 353.7ZM283.9 287H268.4C268.4 281.6 268.5 215.2 268.5 210.5H284L283.9 287ZM298.8 287H293.9C294.1 286.6 294.2 287 294.1 280.9C294.1 280.6 294 280.3 293.7 280.1C293.4 279.8 292.9 279.7 292.5 279.9C292.3 280 292.1 280.1 292 280.3C291.9 280.5 291.8 280.7 291.8 280.9C291.7 287 291.7 286.7 292 287H286.5C286.5 281.6 286.6 215.2 286.6 210.5H299L298.8 287ZM317.3 287H301.3C301.3 283.3 301.4 214.1 301.3 210.5H317.4L317.3 287ZM268.2 296.1C268.2 296.1 347.1 296.2 348.7 296.2V315.1C343.7 315.1 268.7 315 268.2 315V296.1ZM268.2 317.4C273.8 317.4 344 317.5 348.7 317.5V324.7H344.4C343.8 324.7 343.3 325.3 343.3 325.9C343.3 326.5 343.8 327 344.4 327H348.7V332.4C343.7 332.4 268.7 332.3 268.2 332.3V317.4ZM348.8 334.8V352.1L268.3 352V334.7C273.9 334.7 344 334.8 348.8 334.8ZM215.4 249.9H258C258 256.5 257.9 346.5 258 352H215.4C215.4 346.6 215.4 255.5 215.4 249.9ZM196 249.9H212.9C212.9 256.5 212.8 346.5 212.9 352H204.8C205.1 351.8 205.2 351.5 205.2 351.1V338.6C205.2 338 204.6 337.5 204 337.5C203.4 337.5 202.9 338 202.9 338.6V351.1C202.9 351.4 203.1 351.7 203.3 351.9H196C196 345.4 196 255.5 196 249.9ZM193.5 249.9C193.5 256.5 193.4 346.5 193.5 352H149.5C149.5 350.8 149.6 254.4 149.5 249.9H193.5ZM237.1 156C236.7 157.6 235.5 158.9 233.9 159.5C232 160.1 230 160.2 228 159.6C224 158.9 217.7 155.4 219.7 151.8C220.5 150.4 222 149.5 223.5 149.6C225.1 149.5 226.7 149.8 228.1 150.6C231.9 152.6 232.8 152.2 236.7 153.5C237.1 154.3 237.2 155.1 237.1 156ZM243 151.3C241.4 152 239.6 152 238 151.4C232.2 149.6 230.3 149.8 228.7 147.9C227.4 146.6 227.5 144.4 228.8 143.2C229 143 229.2 142.9 229.4 142.8C232.1 141.1 234.6 141.5 237.8 142.1C238 142.1 242 142.8 242.8 142.8C243.6 143.1 244.2 144.4 244.4 144.9C244.9 146 245.2 147.2 245.1 148.5C245 149.6 244.2 150.8 243 151.3ZM249.5 134.7C250.2 137.3 249.6 139.1 247.9 139.8C245 140.8 242.7 140.3 237.8 139.5C235.8 139.4 233.8 138.7 232.2 137.4C231.2 136.2 232.2 134.7 232.9 133.5C237.3 133.5 241.6 132.3 245.3 129.9C247.7 132.2 248.7 132.8 249.5 134.7ZM228.3 133.7C228.3 133.7 229.6 133.6 230.1 133.6C229.3 135.1 229.3 136.8 230 138.3C230.3 138.7 230.6 139.1 231 139.5C227.5 140 225 143.3 225.5 146.8C225.5 147 225.6 147.2 225.6 147.4C222.5 146.6 219.3 148 217.7 150.7C216.7 152.5 216.8 154.7 218 156.3C218.9 157.5 220.1 158.6 221.4 159.4C218.6 160.6 203.6 167.1 199.4 168.9L194.9 170.9L153 188.9C148.3 177.3 147.5 175.8 146.1 172.6C145.2 170.1 143.9 167.7 142.3 165.6C138.1 161.2 132.5 158.4 126.5 157.7C148.3 149.7 228.7 122.3 230 121.9C233.2 120.8 236.4 120.2 239.8 119.9C241.2 119.8 242.7 120.1 244 120.7C245.3 121.1 246.4 122.1 246.7 123.5C246.9 125.1 246.1 126.6 244.7 127.5C240.3 130.8 235.8 131.1 229.9 131.3C227.4 131.4 224.9 131.7 222.4 132.1C220.9 132.3 221.5 134.6 223 134.3C223.7 134.2 224.5 134.1 225.2 134L228.3 133.7ZM80.8998 113.1C87.9998 111.8 95.1998 111 102.5 110.8C104.1 110.6 105.8 110.9 107.2 111.7C108 112.3 108.3 113.4 108 114.4C107.7 115.4 106.8 116.3 102.7 118.4C102.2 118.7 102 119.5 102.3 120C102.6 120.4 103.1 120.6 103.5 120.5C105.2 120 107.1 120 108.8 120.5C111.2 121.5 111.6 123.4 108.5 125.2C106.7 124.2 104.8 123.7 102.7 123.8C97.0998 124.2 91.6998 126 86.9998 129.1C85.2998 130 82.0998 132.1 79.8998 130.6C78.8998 129.8 77.9998 128.8 77.2998 127.7C71.3998 120.8 59.9998 121.8 52.4998 126.8C51.4998 127.6 50.3998 128.3 49.2998 128.9C47.9998 129.5 46.4998 129.5 45.0998 129C53.8998 121.2 65.8998 115.9 80.8998 113.1ZM7.7998 157.8V133.2C15.9998 124.5 29.2998 122.3 38.7998 128.1C40.6998 129.4 42.6998 130.5 44.8998 131.3C47.0998 132 49.5998 131.7 51.4998 130.3C54.4998 127.9 58.0998 126.2 61.8998 125.3C65.3998 124.5 69.0998 124.9 72.3998 126.4C73.9998 127.3 75.3998 128.5 76.4998 129.9C79.9998 134.5 83.1998 133.7 88.2998 130.9C96.4998 126.3 106.3 122.3 111.1 130.4C113.4 133.8 114 138 112.8 141.9C111.7 144.6 109.8 146.8 107.4 148.3C103.7 150.6 99.0998 149 94.8998 149.4C89.7998 149.9 88.5998 152.2 83.3998 154.5C81.1998 155.2 78.8998 155.1 76.7998 154.3C74.4998 153.5 72.0998 152.9 69.6998 152.7C64.9998 152.5 60.2998 154 56.6998 157C46.2998 165.2 44.9998 156.5 33.6998 153.7C24.7998 151.7 15.4998 153.1 7.7998 157.8ZM61.4998 202.6C51.3998 200.2 42.5998 194 36.7998 185.3C30.8998 176.6 28.3998 166 29.8998 155.5C40.8998 157.1 42.6998 163.4 50.0998 162.9C54.9998 162.1 55.9998 159.8 61.6998 156.7C63.2998 155.9 64.9998 155.5 66.7998 155.3C66.0998 159.6 67.6998 163.9 71.0998 166.6C75.2998 169.6 78.4998 170.1 90.3998 173C89.3998 175.9 88.5998 178.8 87.9998 181.8C87.5998 183.6 82.6998 205.1 82.0998 207.8C80.2998 207.4 66.5998 204 61.4998 202.6ZM91.6998 176.3C94.6998 164.6 107.4 161.2 112.8 160.2C117.6 159.4 122.6 159.4 127.4 160.3C131.7 161 135.7 162.8 139.1 165.6C142.3 168.4 143.3 170.3 166.7 229.3L80.1998 229.2C83.3998 211.5 87.1998 193.8 91.6998 176.3ZM147.1 248.8V301.7L123 260.1C122.8 259.7 122.3 259.5 121.8 259.6C121.3 259.7 121 260 120.8 260.4C117.3 279.1 120.3 264.7 107.6 323.3C106.5 328.7 102.4 333 96.9998 334.3C94.7998 334.8 92.5998 334.9 90.3998 334.8C87.6998 334.8 85.0998 334.6 82.4998 334.3C80.0998 334.1 77.6998 333.5 75.4998 332.6C71.1998 331.1 68.3998 327 68.4998 322.5C68.5998 318 71.4998 282 76.8998 247.6H81.8998C82.4998 247.6 82.9998 247 82.9998 246.4C82.9998 245.8 82.4998 245.3 81.8998 245.3H77.1998C77.5998 242.6 78.9998 234.2 79.4998 231.7C85.1998 231.7 163 231.8 167.3 231.7C167.3 231.7 171.6 242.6 173.7 247.7H148C147.6 247.6 147.1 248.2 147.1 248.8ZM84.9998 345.5C88.5998 347.2 91.9998 349.4 94.9998 352H41.0998C53.0998 341.1 70.3998 338.6 84.9998 345.5ZM381.5 358.6C377.7 358.6 27.0998 358.7 25.0998 358.6C23.8998 358.6 22.8998 357.7 22.7998 356.5C22.6998 354 26.1998 354.2 28.7998 354.3C30.6998 354.4 377.4 354.2 380.7 354.4C382.6 354.5 383.6 355.2 383.5 356.5C383.6 357.6 382.7 358.6 381.5 358.6Z" fill="black"/>
<path d="M228.301 287.8C233.801 289 245.801 291.9 248.101 292.5C248.701 292.6 249.301 292.3 249.501 291.7C255.901 270.9 256.301 271.4 255.901 270.6C255.501 269.9 256.701 270.4 235.201 264.7C234.601 264.5 234.001 264.9 233.801 265.5C227.301 287.4 227.301 286.9 227.501 287.2C227.601 287.5 227.901 287.8 228.301 287.8ZM235.601 267.2L253.401 272L247.601 290.1L230.001 286L235.601 267.2Z" fill="black"/>
<path d="M223.1 330.5C223.2 331 223.7 331.4 224.2 331.4C224.5 331.4 237.7 327.8 237.9 327.8C238.5 327.6 238.9 327 238.7 326.4L236 311.6C235.8 311 235.2 310.6 234.6 310.8C233.2 311.2 229.1 312.1 228.5 312.2L227.7 308.4C227.4 306.9 225.2 307.5 225.5 309L226.3 312.8L220.7 314.1C220.1 314.3 219.8 314.9 219.9 315.5C220.9 319.7 223 329.8 223.1 330.5ZM226.8 314.9L227.3 317C227.6 318.5 229.9 317.9 229.5 316.4L229.1 314.3L234.1 313.1L236.4 325.7L225.2 328.7L222.5 315.9L226.8 314.9Z" fill="black"/>
<path d="M166.301 314.3C166.501 314.8 167.101 315 167.601 314.8C174.501 312.3 190.301 307.2 191.201 307C191.801 306.8 192.201 306.2 192.001 305.6C186.901 289.7 185.301 284.9 184.801 283.2C184.601 282.6 184.001 282.2 183.401 282.4C177.601 284 159.501 289.3 159.401 289.4C158.801 289.6 158.401 290.2 158.601 290.8C165.701 312.8 166.101 314.2 166.301 314.3ZM182.901 285L189.401 305.2C189.401 305.2 168.901 312 168.401 312.2C168.301 312.2 168.201 312.3 168.001 312.3L161.101 291.3L182.901 285Z" fill="black"/>
<path d="M245.601 275.5L238.801 274.2C237.301 273.9 236.801 276.2 238.201 276.4C245.301 277.7 245.001 277.7 245.201 277.7C246.601 277.8 247.001 275.8 245.601 275.5Z" fill="black"/>
<path d="M171.5 295.5L178.2 293.4C179.6 292.9 179 290.7 177.6 291.2L170.9 293.3C169.5 293.7 170.1 296 171.5 295.5Z" fill="black"/>
<path d="M172.199 299.2C170.799 299.7 171.399 301.9 172.799 301.4L179.499 299.3C180.899 298.8 180.299 296.6 178.899 297.1L172.199 299.2Z" fill="black"/>
<path d="M173.5 303.6C172.9 303.8 172.5 304.4 172.7 305C172.9 305.6 173.5 306 174.1 305.8L180.8 303.7C182.2 303.2 181.6 301 180.2 301.5L173.5 303.6Z" fill="black"/>
<path d="M244.301 281.3L237.501 280C236.101 279.7 235.401 282 236.901 282.2C244.001 283.5 243.701 283.5 243.901 283.5C245.201 283.6 245.701 281.6 244.301 281.3Z" fill="black"/>
<path d="M270.6 326.8H277.2C277.5 326.8 277.8 326.7 278 326.4C278.3 326.1 278.4 325.6 278.2 325.2C278 324.8 277.6 324.5 277.2 324.5H270.6C270.3 324.5 270 324.6 269.8 324.9C269.5 325.2 269.4 325.7 269.6 326.1C269.8 326.5 270.2 326.8 270.6 326.8Z" fill="black"/>
<path d="M284.7 326.8H290.7C291.3 326.8 291.8 326.2 291.8 325.6C291.8 325 291.3 324.5 290.7 324.5H284.7C284.4 324.5 284.1 324.6 283.9 324.9C283.5 325.4 283.5 326.1 284 326.5C284.2 326.7 284.5 326.8 284.7 326.8Z" fill="black"/>
<path d="M299.799 326.8H306.399C306.699 326.8 306.999 326.7 307.199 326.4C307.599 325.9 307.599 325.2 307.099 324.8C306.899 324.6 306.599 324.5 306.399 324.5H299.799C299.499 324.5 299.199 324.6 298.999 324.9C298.599 325.4 298.599 326.1 299.099 326.5C299.299 326.7 299.499 326.8 299.799 326.8Z" fill="black"/>
<path d="M316.2 326.8H323C323.3 326.8 323.6 326.7 323.8 326.4C324.1 326.1 324.2 325.6 324 325.2C323.8 324.8 323.4 324.5 323 324.5H316.2C315.9 324.5 315.6 324.6 315.4 324.9C315 325.4 315 326.1 315.5 326.5C315.7 326.7 315.9 326.8 316.2 326.8Z" fill="black"/>
<path d="M331.6 326.8H338.4C339 326.8 339.5 326.2 339.5 325.6C339.5 325 339 324.5 338.4 324.5H331.6C331 324.5 330.5 325.1 330.5 325.7C330.6 326.3 331 326.8 331.6 326.8Z" fill="black"/>
<path d="M35.8001 170C35.4001 168.6 33.1001 169.2 33.6001 170.6C34.3001 173 35.4001 175.2 36.8001 177.3C37.6001 178.5 39.6001 177.4 38.8001 176.1C37.4001 174.2 36.4001 172.2 35.8001 170Z" fill="black"/>
<path d="M168.101 177.9C168.501 177.9 168.201 177.9 177.201 174C178.601 173.4 177.401 171.4 176.101 172L167.401 175.8C166.301 176.3 166.901 177.9 168.101 177.9Z" fill="black"/>
<path d="M22.6996 233.1C22.9996 233 23.1996 232.7 23.2996 232.5C23.3996 232.4 23.3996 232.2 23.3996 232.1C23.3996 231.5 22.8996 231 22.2996 231H8.69961C8.09961 231 7.59961 231.6 7.59961 232.2C7.59961 232.8 8.09961 233.3 8.69961 233.3H22.2996C22.3996 233.2 22.4996 233.2 22.6996 233.1Z" fill="black"/>
<path d="M51.1998 260.7C51.7998 260.7 52.2998 260.1 52.2998 259.5C52.2998 258.9 51.7998 258.4 51.1998 258.4H35.3998C34.7998 258.4 34.2998 259 34.2998 259.6C34.2998 260.2 34.7998 260.7 35.3998 260.7H51.1998Z" fill="black"/>
<path d="M37.2998 284C37.6998 283.5 37.6998 282.8 37.1998 282.4C36.9998 282.2 36.6998 282.1 36.4998 282.1H19.8998C19.2998 282.1 18.7998 282.7 18.7998 283.3C18.7998 283.9 19.2998 284.4 19.8998 284.4H36.4998C36.7998 284.3 37.0998 284.2 37.2998 284Z" fill="black"/>
<path d="M286.4 82.6001L266 118H306.8L286.4 82.6001Z" fill="#59DFFD" stroke="black" stroke-width="2" stroke-miterlimit="10"/>
<path d="M338.6 168L326.5 188.9H350.7L338.6 168Z" fill="#59DFFD" stroke="black" stroke-width="2" stroke-miterlimit="10"/>
</svg>
