<svg width="400" height="400" viewBox="0 0 400 400" fill="none" xmlns="http://www.w3.org/2000/svg">
<path d="M112.866 86.2002C112.532 85.9522 114.108 86.0302 98.4902 86.0302L113.064 99.2482C113.064 85.3882 113.14 86.5202 112.866 86.2002Z" fill="#DAF8FF"/>
<path d="M94.6731 85.5601H89.1451C88.8534 85.5632 88.5745 85.6802 88.3678 85.8861C88.1612 86.092 88.0432 86.3704 88.0391 86.6621C88.0391 86.6621 88.0671 108.976 88.0751 109.95C88.0777 110.242 88.1948 110.521 88.4013 110.728C88.6078 110.934 88.8871 111.051 89.1791 111.054C95.9691 111.096 111.493 111.028 112.465 111.02C112.757 111.016 113.036 110.899 113.243 110.692C113.45 110.486 113.567 110.206 113.571 109.914C113.585 107.496 113.571 105.076 113.559 102.658L94.6731 85.5581V85.5601ZM90.2731 108.85L90.2411 87.7741L97.0751 87.7641L111.343 100.66V108.82C73.9591 108.82 103.165 108.83 90.2831 108.85H90.2731Z" fill="#59DFFD"/>
<path d="M90.2518 207.388L102.294 207.37L104.73 205.158L89.1458 205.18C88.8352 205.213 88.5448 205.35 88.3218 205.568C87.8898 206.016 88.0938 205.052 88.0618 220.296C88.7958 219.628 89.5238 218.96 90.2618 218.296L90.2518 207.388Z" fill="#59DFFD"/>
<path d="M112.904 205.862C112.678 205.52 112.692 205.644 107.486 205.636L88.4863 222.886C88.5023 223.75 88.5483 229.572 88.5483 229.572C88.5504 229.737 88.617 229.894 88.7336 230.01C88.8503 230.126 89.0078 230.191 89.1723 230.192C95.9623 230.236 112.458 230.158 112.458 230.158C112.62 230.153 112.773 230.086 112.885 229.969C112.997 229.853 113.059 229.698 113.058 229.536C113.234 206.614 113.21 206.2 112.904 205.862Z" fill="#DAF8FF"/>
<path d="M230.253 175.4C245.163 145.028 232.215 105.714 209.271 99.1781C193.281 94.6241 179.655 106.472 173.259 121.746C166.039 138.98 166.481 161.22 176.163 178.23C190.165 202.834 217.359 201.666 230.253 175.4ZM171.467 147.08C171.467 130.386 181.003 116.854 192.769 116.854C204.535 116.854 214.071 130.386 214.071 147.08C214.071 163.774 204.533 177.308 192.769 177.308C181.005 177.308 171.467 163.774 171.467 147.08Z" fill="#59DFFD"/>
<path d="M220.518 89.4278C216.4 87.2718 211.864 86.032 207.221 85.7935C202.579 85.5549 197.94 86.3232 193.622 88.0458C173.72 96.0458 163.352 120.76 162.244 142.384C161.094 164.84 168.816 190.838 187.688 203.052C203.474 213.268 223.96 209.112 236.996 189.452C258.706 156.738 249.556 104.528 220.518 89.4278ZM238.35 154.928C236.55 172.528 226.65 192.438 209.71 197.158C192.77 201.878 178.2 189.714 171.352 173.532C163.686 155.4 164.212 132.332 174.352 114.652C184.526 96.9218 201.47 92.0918 215.012 99.1118C231.224 107.512 238.87 128.87 238.786 147.08C238.767 149.702 238.621 152.322 238.35 154.93V154.928Z" fill="#59DFFD"/>
<path d="M228.776 182.314C247.14 154.714 238.916 111.514 215.008 99.1141C201.464 92.0921 184.52 96.9241 174.348 114.654C164.226 132.3 163.674 155.372 171.348 173.532C183.556 202.4 212.642 206.57 228.776 182.312V182.314ZM188.436 102.514C200.738 94.4421 216.792 97.6101 227.072 113.272C244.594 139.97 236.568 181.21 214.104 193.038C201.744 199.544 185.904 195.352 176.164 178.238C161.312 152.134 168.7 115.458 188.436 102.506V102.514Z" fill="black"/>
<path d="M356.628 239.082C356.792 221.192 357.108 229.766 356.748 207.842C356.758 193.473 351.254 179.648 341.372 169.216C331.49 158.784 317.983 152.541 303.634 151.774C289.285 151.008 275.188 155.778 264.252 165.099C253.315 174.42 246.372 187.583 244.854 201.872C243.966 210.188 245.254 210.442 244.882 227.392C251.03 228.022 257.241 227.302 263.082 225.284C279.99 217.982 290.682 202.266 291.358 201.764C291.469 201.664 291.615 201.611 291.764 201.617C291.914 201.622 292.055 201.686 292.158 201.794C292.182 201.82 322.872 232.484 327.776 237.414C327.873 237.511 327.935 237.638 327.953 237.774C327.971 237.911 327.943 238.049 327.874 238.168C322.199 246.139 315.501 253.328 307.95 259.55C357.586 259.55 356.486 259.51 356.686 259.564C356.813 259.559 356.938 259.602 357.035 259.684C357.133 259.765 357.196 259.88 357.214 260.006C357.4 260.938 356.492 253.658 356.628 239.082ZM343.844 210.144C340.425 219.365 335.808 228.097 330.112 236.114C329.962 236.365 329.72 236.548 329.438 236.623C329.155 236.697 328.854 236.658 328.6 236.514C328.349 236.365 328.166 236.123 328.091 235.84C328.016 235.557 328.055 235.256 328.2 235.002C333.802 227.153 338.344 218.599 341.71 209.562C342.2 208.234 344.34 208.81 343.844 210.144ZM300.382 190.694C298.526 194.056 296.438 197.286 294.134 200.358C293.983 200.607 293.741 200.788 293.459 200.863C293.177 200.937 292.877 200.9 292.622 200.758C292.496 200.686 292.385 200.589 292.297 200.473C292.208 200.358 292.144 200.226 292.107 200.086C292.069 199.945 292.06 199.798 292.08 199.654C292.1 199.51 292.148 199.371 292.222 199.246C294.526 196.173 296.614 192.943 298.47 189.58C299.16 188.332 301.068 189.448 300.382 190.694Z" fill="white"/>
<path d="M287.766 272.59C285.514 273.546 283.19 274.325 280.816 274.92C266.744 278.576 252.023 278.976 237.772 276.09C233.038 292.948 229.696 297.36 228.666 312.778C227.766 326.248 234.638 339.418 247.49 342.514C253.91 343.948 260.632 343.004 266.408 339.854C279.294 333.092 285.856 319.004 291.664 306.454C293.602 302.264 295.517 298.064 297.41 293.854C294.083 286.818 290.868 279.729 287.766 272.59ZM239.828 298.156L240.778 292.176C240.857 291.894 241.045 291.654 241.299 291.51C241.554 291.365 241.856 291.327 242.138 291.404C242.416 291.489 242.651 291.677 242.794 291.929C242.938 292.182 242.979 292.48 242.91 292.762L241.96 298.744C241.882 299.027 241.695 299.267 241.44 299.411C241.185 299.556 240.883 299.594 240.6 299.516C240.322 299.432 240.086 299.243 239.942 298.99C239.799 298.737 239.758 298.438 239.828 298.156Z" fill="#DAF8FF"/>
<path d="M301.167 128.484C301.157 128.422 301.14 128.362 301.117 128.304C301.124 128.388 301.115 128.472 301.088 128.552C301.061 128.632 301.019 128.705 300.962 128.767C300.906 128.829 300.837 128.879 300.76 128.914C300.684 128.948 300.601 128.966 300.517 128.966H281.317C281.235 128.966 281.154 128.95 281.079 128.917C281.004 128.885 280.936 128.838 280.88 128.779C280.824 128.719 280.78 128.649 280.752 128.572C280.724 128.495 280.712 128.414 280.717 128.332C280.717 128.378 280.683 128.42 280.669 128.484C280.382 130.68 280.81 132.909 281.888 134.844C282.966 136.778 284.637 138.314 286.655 139.226C288.331 139.986 290.18 140.283 292.01 140.089C293.84 139.894 295.585 139.213 297.064 138.118C298.544 137.023 299.703 135.552 300.423 133.858C301.143 132.165 301.398 130.309 301.161 128.484H301.167Z" fill="white"/>
<path d="M368.872 307.696C367.566 298.426 366.932 297.206 363.626 285.796C360.286 274.272 358.774 267.632 357.21 259.996C357.192 259.87 357.128 259.755 357.03 259.674C356.933 259.591 356.809 259.548 356.682 259.554C356.482 259.5 357.644 259.54 307.946 259.54C301.827 264.763 295.041 269.148 287.766 272.58C293.152 285.042 304.154 308.964 311.246 321.298C314.707 327.407 319.39 332.737 325.004 336.954C330.551 341.052 337.279 343.236 344.176 343.178C350.413 342.988 356.371 340.552 360.955 336.318C365.538 332.084 368.439 326.337 369.122 320.134C369.58 315.994 369.496 311.814 368.872 307.696ZM314.58 304.926C314.454 305 314.316 305.048 314.171 305.068C314.027 305.088 313.881 305.079 313.74 305.042C313.6 305.004 313.468 304.94 313.352 304.851C313.237 304.763 313.14 304.652 313.068 304.526L309.396 296.694C309.251 296.44 309.212 296.139 309.287 295.857C309.362 295.574 309.544 295.332 309.796 295.182C310.05 295.037 310.351 294.998 310.633 295.073C310.916 295.148 311.158 295.331 311.308 295.582C312.531 298.194 313.756 300.805 314.982 303.416C315.123 303.671 315.159 303.971 315.084 304.252C315.01 304.533 314.829 304.775 314.58 304.926Z" fill="#DAF8FF"/>
<path d="M294.2 119.984C292.053 119.267 289.73 119.275 287.588 120.007C285.446 120.739 283.603 122.155 282.344 124.036C281.51 125.285 280.958 126.7 280.726 128.184C280.688 128.69 280.962 128.952 281.292 128.972H300.53C300.864 128.982 301.162 128.724 301.13 128.186C300.828 126.319 300.023 124.569 298.802 123.124C297.581 121.68 295.991 120.594 294.2 119.984Z" fill="black"/>
<path d="M264.269 126.964C263.985 126.978 263.717 127.1 263.52 127.305C263.323 127.511 263.213 127.783 263.211 128.068C263.212 128.353 263.323 128.626 263.519 128.832C263.716 129.038 263.985 129.16 264.269 129.174H276.355C276.64 129.161 276.908 129.038 277.105 128.832C277.302 128.626 277.412 128.353 277.413 128.068C277.412 127.783 277.301 127.51 277.104 127.305C276.907 127.099 276.639 126.977 276.355 126.964H264.269Z" fill="black"/>
<path d="M211.708 211.234C211.705 211.07 211.639 210.913 211.523 210.797C211.406 210.681 211.25 210.614 211.086 210.612H197.388C197.223 210.614 197.066 210.68 196.95 210.796C196.834 210.912 196.768 211.069 196.766 211.234V216.682C201.212 218.366 203.13 220.124 207.604 220.358C209.99 220.242 210.442 217.892 210.464 215.9C210.467 215.733 210.535 215.574 210.654 215.456C210.775 215.341 210.937 215.278 211.104 215.28C211.324 215.316 211.54 215.372 211.75 215.444C211.772 212.426 211.712 211.86 211.708 211.234Z" fill="black"/>
<path d="M196.766 260.488V275C196.726 276.491 197.127 277.961 197.919 279.226C198.71 280.491 199.857 281.494 201.216 282.11C202.566 282.711 204.064 282.897 205.519 282.645C206.975 282.393 208.323 281.715 209.392 280.696C210.102 280.018 210.67 279.208 211.066 278.31C211.932 276.36 211.71 275.214 211.708 267.896C206.481 265.959 201.473 263.476 196.766 260.488Z" fill="black"/>
<path d="M298.474 189.578C296.618 192.941 294.53 196.171 292.226 199.244C292.079 199.498 292.038 199.799 292.113 200.083C292.188 200.366 292.373 200.608 292.626 200.756C292.881 200.898 293.181 200.935 293.463 200.861C293.745 200.786 293.987 200.605 294.138 200.356C296.442 197.283 298.53 194.054 300.386 190.692C301.068 189.448 299.16 188.33 298.474 189.578Z" fill="black"/>
<path d="M328.6 236.51C328.855 236.652 329.155 236.689 329.436 236.615C329.718 236.54 329.96 236.359 330.112 236.11C335.807 228.092 340.424 219.361 343.844 210.14C344.34 208.806 342.206 208.23 341.714 209.554C338.347 218.593 333.803 227.149 328.2 235C328.053 235.254 328.013 235.555 328.088 235.838C328.163 236.121 328.347 236.363 328.6 236.51Z" fill="black"/>
<path d="M327.772 237.414C326.592 236.226 292.172 201.814 292.154 201.794C292.051 201.686 291.91 201.622 291.76 201.616C291.611 201.611 291.465 201.664 291.354 201.764C290.67 202.268 279.918 218.012 263.078 225.284C257.641 227.184 251.868 227.93 246.126 227.474C239.256 226.986 232.008 226.422 225.802 223.34C219.238 220.08 218.108 216.998 211.254 215.3C211.092 215.26 210.922 215.285 210.778 215.37C210.635 215.454 210.53 215.591 210.486 215.752C210.388 216.136 210.756 220.204 207.606 220.352C202.306 220.076 199.922 217.372 194.586 215.988C190.344 214.888 187.476 219.616 188.852 223.534C189.176 224.282 189.62 224.97 190.166 225.576C190.674 226.212 191.686 227.47 190.438 227.914C189.585 228.082 188.75 228.332 187.944 228.658C185.308 230.244 184.09 234.306 187.448 239.106C187.544 239.24 187.624 239.382 187.692 239.532C187.47 239.932 186.092 240.972 185.45 241.702C184.449 242.82 183.912 244.278 183.949 245.779C183.986 247.279 184.595 248.709 185.65 249.776C190.61 256.48 197.274 261.735 204.95 264.996C230.448 276.35 252.95 281.94 280.82 274.914C289.854 272.636 297.508 267.686 304.926 261.958C313.71 255.203 321.444 247.183 327.874 238.158C327.94 238.04 327.966 237.904 327.946 237.77C327.929 237.635 327.868 237.51 327.772 237.414ZM266.66 271.376C266.621 271.236 266.611 271.09 266.629 270.946C266.647 270.803 266.694 270.664 266.766 270.538C266.837 270.412 266.933 270.301 267.047 270.211C267.161 270.122 267.292 270.057 267.432 270.018C270.519 269.598 273.538 268.776 276.412 267.572C276.695 267.495 276.997 267.532 277.252 267.676C277.378 267.748 277.489 267.844 277.579 267.958C277.668 268.073 277.734 268.204 277.772 268.344C277.841 268.626 277.799 268.924 277.656 269.176C277.512 269.429 277.278 269.617 277 269.702C274.127 270.908 271.108 271.73 268.02 272.148C267.738 272.22 267.438 272.179 267.185 272.035C266.932 271.891 266.744 271.655 266.66 271.376ZM193.688 241.528L196.446 243.836C197.54 244.75 195.968 246.304 194.884 245.398L192.126 243.09C191.032 242.176 192.6 240.622 193.688 241.528ZM198.538 232.996L195.838 230.622C194.768 229.682 196.338 228.124 197.402 229.06L200.102 231.434C201.172 232.374 199.6 233.932 198.538 233V232.996Z" fill="white"/>
<path d="M389.706 358.524C381.331 351.958 370.991 348.397 360.348 348.415C349.705 348.432 339.377 352.026 331.022 358.62C330.57 358.966 330.956 359.7 331.462 359.682H389.4C389.534 359.675 389.662 359.627 389.766 359.544C389.871 359.46 389.946 359.346 389.98 359.216C390.014 359.087 390.005 358.95 389.954 358.826C389.906 358.701 389.819 358.595 389.706 358.524Z" fill="black"/>
<path d="M268.908 358.524C260.532 351.958 250.192 348.397 239.549 348.415C228.907 348.432 218.578 352.026 210.224 358.62C210.142 358.68 210.08 358.764 210.047 358.86C210.014 358.956 210.011 359.06 210.038 359.158C210.056 359.222 210.087 359.283 210.128 359.336C210.172 359.441 210.246 359.53 210.342 359.592C210.438 359.654 210.55 359.685 210.664 359.682H268.6C268.7 359.678 268.797 359.65 268.884 359.6C268.971 359.551 269.045 359.481 269.099 359.397C269.153 359.314 269.187 359.218 269.197 359.119C269.207 359.019 269.193 358.919 269.156 358.826C269.107 358.702 269.021 358.596 268.908 358.524Z" fill="black"/>
<path d="M110.491 148.488C110.841 148.202 110.997 148.26 112.891 148.26C111.758 146.073 110.054 144.234 107.959 142.939C105.864 141.644 103.457 140.941 100.994 140.906C98.5315 140.87 96.1053 141.503 93.9739 142.737C91.8425 143.972 90.0858 145.761 88.8906 147.914H91.5146C92.6043 146.385 94.0543 145.149 95.736 144.314C97.4178 143.48 99.2794 143.073 101.156 143.129C103.033 143.186 104.866 143.705 106.495 144.64C108.123 145.574 109.495 146.896 110.491 148.488Z" fill="#59DFFD"/>
<path d="M102.229 166.014C100.228 166.26 98.1966 165.975 96.3402 165.187C94.4839 164.399 92.8677 163.137 91.6541 161.526C90.4405 159.916 89.6723 158.014 89.4267 156.013C89.1811 154.011 89.4668 151.98 90.2551 150.124H87.9051C87.1938 152.169 86.9785 154.353 87.2769 156.497C87.5753 158.641 88.3788 160.683 89.6213 162.456C90.8637 164.229 92.5096 165.681 94.4233 166.693C96.3369 167.705 98.4636 168.247 100.628 168.276C102.793 168.305 104.933 167.819 106.873 166.859C108.813 165.898 110.497 164.491 111.786 162.752C113.076 161.013 113.934 158.993 114.289 156.857C114.644 154.722 114.488 152.533 113.831 150.47H111.481C112.122 152.095 112.382 153.845 112.241 155.585C112.1 157.326 111.563 159.012 110.669 160.512C109.776 162.013 108.551 163.289 107.088 164.243C105.625 165.197 103.963 165.802 102.229 166.014Z" fill="#59DFFD"/>
<path d="M150.747 272.636C150.747 272.471 150.681 272.314 150.565 272.197C150.448 272.08 150.29 272.015 150.125 272.014C146.967 271.994 143.807 272.042 140.647 272.028C140.482 272.03 140.323 272.098 140.207 272.216L140.185 272.246C140.082 272.354 140.025 272.497 140.025 272.646C140.059 275.804 140.015 278.964 140.039 282.124C140.041 282.289 140.108 282.446 140.224 282.562C140.34 282.678 140.497 282.744 140.661 282.746C143.821 282.766 146.981 282.746 150.139 282.732C150.304 282.73 150.46 282.663 150.576 282.547C150.692 282.431 150.759 282.274 150.761 282.11C150.787 278.952 150.781 275.794 150.747 272.636Z" fill="#DAF8FF"/>
<path d="M71.5465 161.57C69.7765 158.37 56.6765 134.288 56.0345 133.11L56.0005 133.06C55.9391 132.979 55.8589 132.915 55.7668 132.872C55.6747 132.829 55.5736 132.809 55.4722 132.815C55.3708 132.82 55.2722 132.85 55.1851 132.902C55.098 132.955 55.025 133.027 54.9725 133.114C47.0145 145.774 39.3725 158.63 37.6405 161.634C37.5866 161.729 37.5584 161.836 37.5586 161.946C37.5588 162.055 37.5875 162.162 37.6418 162.257C37.6962 162.351 37.7742 162.43 37.8683 162.486C37.9624 162.541 38.0693 162.571 38.1785 162.572C49.1258 162.571 60.0732 162.55 71.0205 162.508C71.1283 162.505 71.2334 162.473 71.3256 162.417C71.4178 162.361 71.494 162.282 71.5469 162.188C71.5997 162.094 71.6275 161.988 71.6274 161.88C71.6273 161.772 71.5994 161.666 71.5465 161.572V161.57Z" fill="#59DFFD"/>
<path d="M105.741 265.138C103.138 264.091 100.27 263.9 97.5511 264.593C94.8326 265.285 92.4052 266.826 90.6207 268.99C88.8513 271.138 87.8061 273.791 87.6345 276.569C87.4629 279.346 88.1736 282.107 89.6652 284.457C91.1567 286.806 93.3527 288.625 95.9395 289.651C98.5262 290.678 101.371 290.861 104.068 290.174C106.765 289.487 109.176 287.965 110.956 285.826C112.736 283.686 113.795 281.039 113.98 278.262C114.166 275.485 113.469 272.721 111.989 270.364C110.509 268.007 108.322 266.178 105.741 265.138Z" fill="#DAF8FF"/>
<path d="M64.5996 230C64.8952 229.995 65.1767 229.873 65.3822 229.66C65.5877 229.447 65.7004 229.162 65.6956 228.866C65.6956 228.394 66.2496 229.71 55.6236 210.12C55.6116 210.096 55.5896 210.086 55.5756 210.064L55.5456 210.026C55.4364 209.882 55.2937 209.767 55.1299 209.691C54.9661 209.615 54.7861 209.58 54.6057 209.589C54.4252 209.598 54.2498 209.651 54.0947 209.744C53.9395 209.837 53.8094 209.966 53.7156 210.12C48.7516 218.012 43.8016 226.32 42.6216 228.378C42.4773 228.632 42.4388 228.933 42.5144 229.215C42.59 229.497 42.7736 229.738 43.0256 229.886C43.1936 229.986 43.3816 230.038 43.5756 230.042C48.1476 230.068 64.3996 230 64.5996 230ZM54.5996 212.86L62.7396 227.794L45.5156 227.828C48.5083 222.816 51.5363 217.825 54.5996 212.856V212.86Z" fill="#59DFFD"/>
<path d="M153.415 225.272C151.101 221.09 145.913 211.508 145.591 210.92L145.547 210.866C145.455 210.744 145.32 210.661 145.17 210.631C145.019 210.602 144.863 210.63 144.731 210.708C144.644 210.76 144.571 210.833 144.519 210.92C141.533 215.668 138.573 220.442 135.777 225.304C135.723 225.399 135.695 225.506 135.695 225.615C135.696 225.724 135.724 225.832 135.779 225.926C135.833 226.021 135.911 226.099 136.005 226.155C136.099 226.21 136.206 226.239 136.315 226.24C141.139 226.272 152.877 226.208 152.877 226.208C152.986 226.207 153.093 226.177 153.187 226.121C153.28 226.066 153.358 225.987 153.411 225.892C153.466 225.798 153.495 225.691 153.495 225.583C153.496 225.474 153.469 225.367 153.415 225.272Z" fill="#DAF8FF"/>
<path d="M156.924 111.684C145.238 90.5558 146.724 92.7139 146.3 92.2179C146.239 92.1369 146.158 92.0723 146.066 92.0295C145.974 91.9868 145.872 91.9672 145.771 91.9725C145.669 91.9779 145.571 92.0079 145.483 92.0601C145.396 92.1122 145.323 92.1849 145.27 92.2719C139.84 100.912 134.626 109.684 133.45 111.728C133.397 111.822 133.369 111.929 133.369 112.038C133.369 112.147 133.398 112.253 133.452 112.347C133.506 112.442 133.584 112.52 133.678 112.575C133.771 112.63 133.878 112.66 133.986 112.662C133.986 112.662 155.452 112.628 156.386 112.618C156.495 112.616 156.601 112.586 156.695 112.531C156.788 112.476 156.866 112.397 156.92 112.303C156.974 112.209 157.003 112.103 157.004 111.994C157.005 111.886 156.977 111.779 156.924 111.684Z" fill="#DAF8FF"/>
<path d="M56.8359 117.088V119.298H131.922L129.482 117.088H56.8359Z" fill="#DAF8FF"/>
<path d="M162.5 117.088H132.77L135.21 119.298H162.5C162.779 119.277 163.039 119.152 163.23 118.947C163.42 118.742 163.526 118.473 163.526 118.193C163.526 117.913 163.42 117.644 163.23 117.439C163.039 117.234 162.779 117.108 162.5 117.088Z" fill="#DAF8FF"/>
<path d="M28.0512 117.088C27.7662 117.1 27.497 117.222 27.2997 117.428C27.1024 117.634 26.9922 117.908 26.9922 118.193C26.9922 118.478 27.1024 118.752 27.2997 118.958C27.497 119.164 27.7662 119.286 28.0512 119.298H54.6252V117.088H28.0512Z" fill="#DAF8FF"/>
<path d="M56.1465 173.818V176.018H136.8L139.234 173.818H56.1465Z" fill="#DAF8FF"/>
<path d="M162.5 173.818H142.52L140.086 176.018H162.5C162.772 175.989 163.024 175.861 163.207 175.658C163.39 175.455 163.491 175.191 163.491 174.918C163.491 174.644 163.39 174.381 163.207 174.178C163.024 173.974 162.772 173.846 162.5 173.818Z" fill="#DAF8FF"/>
<path d="M28.0515 173.818C27.7796 173.846 27.5278 173.974 27.3448 174.178C27.1618 174.381 27.0605 174.644 27.0605 174.918C27.0605 175.191 27.1618 175.455 27.3448 175.658C27.5278 175.861 27.7796 175.989 28.0515 176.018H53.9355V173.818H28.0515Z" fill="#DAF8FF"/>
<path d="M162.501 238.728C162.794 238.728 163.075 238.612 163.282 238.404C163.489 238.197 163.606 237.916 163.606 237.623C163.606 237.33 163.489 237.049 163.282 236.842C163.075 236.634 162.794 236.518 162.501 236.518H73.4847L71.0527 238.728C78.3147 238.728 149.989 238.942 162.501 238.728Z" fill="#DAF8FF"/>
<path d="M70.2003 236.518H28.0523C27.7592 236.518 27.4781 236.634 27.2709 236.842C27.0637 237.049 26.9473 237.33 26.9473 237.623C26.9473 237.916 27.0637 238.197 27.2709 238.404C27.4781 238.612 27.7592 238.728 28.0523 238.728H67.7683L70.2003 236.518Z" fill="#DAF8FF"/>
<path d="M162.501 305.8H28.0525C27.7802 305.827 27.5279 305.955 27.3449 306.158C27.1618 306.362 27.0611 306.626 27.0625 306.9C27.0625 307.173 27.1636 307.437 27.3464 307.64C27.5292 307.843 27.7808 307.971 28.0525 308H162.501C162.773 307.973 163.026 307.845 163.209 307.642C163.393 307.438 163.494 307.174 163.493 306.9C163.493 306.626 163.392 306.362 163.209 306.158C163.026 305.955 162.773 305.827 162.501 305.8Z" fill="#DAF8FF"/>
<path d="M67.7476 267.15C67.7936 269.75 64.7696 271.238 62.2796 272.004C58.3662 273.086 54.272 273.352 50.2516 272.784C46.9316 272.326 41.4656 270.798 41.1816 267.446V292.646C41.1837 292.81 41.2497 292.966 41.3655 293.082C41.4814 293.198 41.6378 293.264 41.8016 293.266H67.1536C67.3176 293.264 67.4743 293.198 67.5905 293.082C67.7066 292.966 67.7731 292.81 67.7756 292.646C67.8876 276.902 67.8776 270.95 67.8376 268.662C67.8116 267.15 67.7736 267.228 67.7476 267.15Z" fill="#DAF8FF"/>
<path d="M48.3481 40.6159C47.2961 39.6619 45.7281 41.2159 46.7841 42.1759C59.5421 53.7359 140.38 126.958 144.6 130.8C145.652 131.752 147.22 130.2 146.164 129.238L48.3481 40.6159Z" fill="black"/>
<path d="M147.165 169.6C148.221 168.642 146.653 167.082 145.603 168.036L46.7833 257.788C45.7293 258.746 47.2953 260.304 48.3473 259.35L147.165 169.6Z" fill="black"/>
<path d="M65.4007 265.432C63.9638 264.405 62.3168 263.71 60.5787 263.398C56.0378 262.312 51.2893 262.46 46.8247 263.826C44.9367 264.412 40.7707 266.366 43.1747 268.788C44.447 269.862 45.961 270.612 47.5867 270.972C52.3727 272.188 57.3947 272.11 62.1407 270.746C63.8249 270.409 65.3226 269.455 66.3407 268.072C66.5277 267.592 66.5356 267.061 66.3629 266.577C66.1903 266.092 65.8487 265.685 65.4007 265.432Z" fill="#DAF8FF"/>
<path d="M66.3745 96.666C65.8845 94.836 64.5745 91.88 62.3445 92.032H45.6685C45.3763 92.0356 45.0971 92.1533 44.8905 92.36C44.6838 92.5666 44.5661 92.8458 44.5625 93.138V109.916C44.5666 110.208 44.6846 110.487 44.8911 110.693C45.0977 110.899 45.3766 111.016 45.6685 111.02H54.6265V108.82H46.7725V94.244H59.4565C58.4507 96.54 57.9304 99.0191 57.9283 101.526C57.9262 104.032 58.4424 106.512 59.4445 108.81H56.8445V111.01C62.2885 111.01 62.9865 111.132 63.9025 110.57C64.9133 109.787 65.6573 108.71 66.0325 107.488C67.1789 103.988 67.2976 100.232 66.3745 96.666ZM64.3425 105.4C63.7225 108.386 62.4205 108.896 62.6545 108.76C62.606 108.79 62.5525 108.812 62.4965 108.824L62.4445 108.812C62.2185 108.812 61.9165 108.518 61.7785 108.344C60.9623 107.056 60.4589 105.595 60.3085 104.078C60.0237 102.011 60.0913 99.9105 60.5085 97.866C61.0825 95.2 61.8885 94.528 62.2125 94.316C62.3025 94.2623 62.4079 94.2402 62.5119 94.2532C62.6159 94.2663 62.7126 94.3137 62.7865 94.388C63.4525 95.034 63.9125 95.866 64.1045 96.774C64.8919 99.586 64.9737 102.549 64.3425 105.4Z" fill="#59DFFD"/>
<path d="M242.139 291.4C241.856 291.323 241.554 291.361 241.3 291.506C241.045 291.651 240.858 291.89 240.779 292.172L239.829 298.152C239.758 298.435 239.799 298.733 239.943 298.987C240.086 299.24 240.322 299.428 240.601 299.512C240.741 299.551 240.887 299.562 241.031 299.545C241.176 299.527 241.315 299.481 241.441 299.409C241.568 299.337 241.679 299.241 241.768 299.127C241.857 299.012 241.923 298.88 241.961 298.74C242.277 296.74 242.593 294.746 242.911 292.758C242.981 292.476 242.939 292.178 242.796 291.925C242.652 291.672 242.417 291.484 242.139 291.4Z" fill="black"/>
<path d="M309.799 295.186C309.548 295.336 309.366 295.578 309.291 295.861C309.216 296.143 309.255 296.444 309.399 296.698L313.071 304.53C313.181 304.719 313.344 304.872 313.54 304.968C313.736 305.064 313.956 305.1 314.172 305.071C314.389 305.041 314.592 304.948 314.755 304.803C314.918 304.658 315.035 304.468 315.089 304.256C315.163 303.974 315.126 303.675 314.984 303.42L311.309 295.586C311.162 295.333 310.92 295.149 310.637 295.074C310.354 294.999 310.053 295.039 309.799 295.186Z" fill="black"/>
<path d="M40.8125 320.31V343.8C40.8258 344.085 40.9481 344.353 41.154 344.55C41.3599 344.747 41.6336 344.857 41.9185 344.858C42.2031 344.857 42.4763 344.746 42.6817 344.549C42.8872 344.353 43.0092 344.084 43.0225 343.8V320.31C43.0097 320.025 42.8879 319.757 42.6824 319.559C42.4769 319.362 42.2034 319.251 41.9185 319.25C41.6334 319.251 41.3597 319.362 41.1539 319.559C40.948 319.756 40.8258 320.025 40.8125 320.31Z" fill="#DAF8FF"/>
<path d="M152.01 320.31V343.8C152.023 344.085 152.145 344.353 152.351 344.55C152.557 344.747 152.831 344.857 153.116 344.858C153.4 344.857 153.674 344.746 153.879 344.549C154.084 344.353 154.206 344.084 154.22 343.8V320.31C154.207 320.025 154.085 319.757 153.88 319.559C153.674 319.362 153.401 319.251 153.116 319.25C152.831 319.251 152.557 319.362 152.351 319.559C152.145 319.756 152.023 320.025 152.01 320.31Z" fill="#DAF8FF"/>
<path d="M56.837 107.816C56.8248 107.531 56.7031 107.262 56.4972 107.064C56.2913 106.867 56.0171 106.757 55.732 106.757C55.4468 106.757 55.1726 106.867 54.9667 107.064C54.7608 107.262 54.6391 107.531 54.627 107.816V126.85C54.6391 127.135 54.7608 127.404 54.9667 127.601C55.1726 127.799 55.4468 127.909 55.732 127.909C56.0171 127.909 56.2913 127.799 56.4972 127.601C56.7031 127.404 56.8248 127.135 56.837 126.85C56.961 119.724 56.957 114.72 56.837 107.816Z" fill="black"/>
<path d="M56.1455 171.466C56.1334 171.181 56.0117 170.912 55.8058 170.715C55.5999 170.517 55.3257 170.407 55.0405 170.407C54.7554 170.407 54.4812 170.517 54.2753 170.715C54.0694 170.912 53.9477 171.181 53.9355 171.466V191.846C53.9477 192.131 54.0694 192.4 54.2753 192.598C54.4812 192.795 54.7554 192.905 55.0405 192.905C55.3257 192.905 55.5999 192.795 55.8058 192.598C56.0117 192.4 56.1334 192.131 56.1455 191.846V171.466Z" fill="black"/>
<path d="M30.5227 148.26H11.0687C10.7838 148.272 10.5146 148.394 10.3173 148.6C10.1199 148.805 10.0098 149.08 10.0098 149.365C10.0098 149.65 10.1199 149.924 10.3173 150.13C10.5146 150.336 10.7838 150.458 11.0687 150.47H30.5227C30.8077 150.458 31.0769 150.336 31.2742 150.13C31.4716 149.924 31.5817 149.65 31.5817 149.365C31.5817 149.08 31.4716 148.805 31.2742 148.6C31.0769 148.394 30.8077 148.272 30.5227 148.26Z" fill="black"/>
<path d="M96.4772 150.124C96.7621 150.112 97.0314 149.99 97.2287 149.784C97.426 149.578 97.5362 149.304 97.5362 149.019C97.5362 148.734 97.426 148.46 97.2287 148.254C97.0314 148.048 96.7621 147.926 96.4772 147.914H76.7992C76.5143 147.926 76.245 148.048 76.0477 148.254C75.8504 148.46 75.7402 148.734 75.7402 149.019C75.7402 149.304 75.8504 149.578 76.0477 149.784C76.245 149.99 76.5143 150.112 76.7992 150.124H96.4772Z" fill="black"/>
<path d="M130.817 148.26C109.319 147.886 110.897 148.16 110.491 148.488C110.314 148.629 110.184 148.821 110.119 149.038C110.054 149.255 110.057 149.486 110.127 149.701C110.197 149.916 110.331 150.105 110.511 150.242C110.691 150.379 110.909 150.458 111.135 150.468H130.817C131.093 150.445 131.351 150.318 131.539 150.114C131.726 149.909 131.831 149.642 131.831 149.364C131.831 149.087 131.726 148.819 131.539 148.615C131.351 148.41 131.093 148.284 130.817 148.26Z" fill="black"/>
<path d="M136.918 148.26C136.633 148.272 136.364 148.394 136.167 148.6C135.97 148.805 135.859 149.08 135.859 149.365C135.859 149.65 135.97 149.924 136.167 150.13C136.364 150.336 136.633 150.458 136.918 150.47H156.6C156.885 150.458 157.155 150.336 157.352 150.13C157.549 149.924 157.659 149.65 157.659 149.365C157.659 149.08 157.549 148.805 157.352 148.6C157.155 148.394 156.885 148.272 156.6 148.26H136.918Z" fill="black"/>
<path d="M198.672 148.26H190.134V137.63C190.106 137.358 189.978 137.106 189.775 136.923C189.572 136.74 189.308 136.639 189.034 136.639C188.761 136.639 188.497 136.74 188.294 136.923C188.091 137.106 187.963 137.358 187.934 137.63V148.26H179C178.715 148.272 178.446 148.394 178.249 148.6C178.052 148.806 177.941 149.08 177.941 149.365C177.941 149.65 178.052 149.924 178.249 150.13C178.446 150.336 178.715 150.458 179 150.47H187.932V160.07C187.961 160.342 188.089 160.594 188.292 160.777C188.495 160.96 188.759 161.061 189.032 161.061C189.306 161.061 189.57 160.96 189.773 160.777C189.976 160.594 190.104 160.342 190.132 160.07V150.47H198.67C198.857 150.477 199.042 150.437 199.209 150.353C199.376 150.27 199.519 150.145 199.625 149.992C199.731 149.838 199.796 149.661 199.815 149.475C199.835 149.289 199.807 149.102 199.734 148.93C199.647 148.723 199.497 148.548 199.307 148.428C199.117 148.309 198.895 148.25 198.67 148.26H198.672Z" fill="black"/>
<path d="M209.461 196.908C234.061 190.052 247.537 148.896 231.827 117.226C228.206 109.466 222.234 103.042 214.759 98.8638C211.316 97.0621 207.526 96.0224 203.646 95.8153C199.766 95.6083 195.886 96.2387 192.271 97.6638C175.517 104.338 166.897 124.94 165.969 142.914C165.001 161.6 171.459 183.232 187.201 193.4C190.452 195.525 194.118 196.937 197.955 197.542C201.792 198.146 205.714 197.93 209.461 196.908ZM173.011 121.496C179.411 106.216 193.037 94.3738 209.023 98.9278C232.037 105.484 244.869 144.868 230.005 175.148C220.989 193.514 205.477 198.948 192.859 193.862C177.179 187.548 169.059 167.576 168.173 150.632C167.58 140.68 169.233 130.722 173.011 121.496Z" fill="black"/>
<path d="M64.3521 229.746C64.6477 229.74 64.9292 229.618 65.1347 229.405C65.3402 229.193 65.4529 228.907 65.4481 228.612C65.4481 228.14 66.0021 229.458 55.3761 209.866C55.3641 209.842 55.3441 209.832 55.3281 209.81L55.2981 209.772C55.189 209.628 55.0463 209.513 54.8825 209.436C54.7186 209.36 54.5387 209.325 54.3582 209.334C54.1778 209.344 54.0023 209.397 53.8472 209.49C53.6921 209.582 53.5619 209.711 53.4681 209.866C48.5061 217.76 43.5661 226.054 42.3741 228.126C42.2783 228.294 42.2282 228.484 42.2285 228.678C42.2289 228.871 42.2797 229.062 42.3761 229.229C42.4725 229.397 42.611 229.537 42.7779 229.635C42.9449 229.733 43.1345 229.786 43.3281 229.788C47.8701 229.818 64.1521 229.748 64.3521 229.746ZM54.3521 212.606L62.4921 227.558H45.2701C47.5881 223.62 53.6761 213.676 54.3541 212.6L54.3521 212.606Z" fill="black"/>
<path d="M264.018 128.926H276.104C276.397 128.926 276.679 128.809 276.886 128.602C277.094 128.395 277.21 128.113 277.21 127.82C277.21 127.527 277.094 127.245 276.886 127.038C276.679 126.83 276.397 126.714 276.104 126.714H264.018C263.725 126.714 263.443 126.83 263.236 127.038C263.029 127.245 262.912 127.527 262.912 127.82C262.912 128.113 263.029 128.395 263.236 128.602C263.443 128.809 263.725 128.926 264.018 128.926Z" fill="black"/>
<path d="M292.372 200.506C292.627 200.648 292.927 200.685 293.209 200.611C293.491 200.536 293.733 200.355 293.884 200.106C296.189 197.033 298.276 193.804 300.132 190.442C300.818 189.196 298.912 188.08 298.224 189.326C296.368 192.689 294.281 195.919 291.976 198.992C291.829 199.246 291.788 199.547 291.862 199.831C291.936 200.114 292.12 200.357 292.372 200.506Z" fill="black"/>
<path d="M328.351 236.26C328.606 236.401 328.906 236.439 329.188 236.364C329.47 236.29 329.712 236.109 329.863 235.86C335.558 227.842 340.175 219.111 343.595 209.89C344.091 208.556 341.957 207.98 341.465 209.304C338.099 218.34 333.557 226.894 327.955 234.744C327.808 234.997 327.767 235.299 327.841 235.583C327.915 235.867 328.098 236.11 328.351 236.26Z" fill="black"/>
<path d="M267.771 271.898C270.858 271.48 273.877 270.658 276.751 269.454C277.029 269.37 277.265 269.181 277.409 268.928C277.552 268.675 277.593 268.376 277.523 268.094C277.464 267.883 277.345 267.695 277.18 267.552C277.015 267.409 276.811 267.318 276.595 267.29C276.451 267.272 276.304 267.283 276.165 267.322C273.29 268.526 270.271 269.348 267.183 269.768C266.973 269.826 266.785 269.945 266.643 270.11C266.501 270.275 266.411 270.479 266.385 270.695C266.359 270.911 266.397 271.13 266.495 271.324C266.593 271.518 266.747 271.679 266.937 271.786C267.19 271.93 267.489 271.97 267.771 271.898Z" fill="black"/>
<path d="M162.251 305.546H27.8006C27.5283 305.573 27.276 305.701 27.0929 305.905C26.9099 306.108 26.8092 306.372 26.8106 306.646C26.8096 306.919 26.9105 307.184 27.0934 307.387C27.2764 307.59 27.5285 307.718 27.8006 307.746H162.251C162.523 307.719 162.776 307.591 162.959 307.388C163.143 307.184 163.244 306.92 163.243 306.646C163.243 306.372 163.142 306.108 162.959 305.904C162.776 305.701 162.523 305.573 162.251 305.546Z" fill="black"/>
<path d="M241.889 291.154C241.606 291.077 241.304 291.115 241.05 291.26C240.795 291.405 240.608 291.644 240.529 291.926L239.579 297.906C239.508 298.189 239.549 298.487 239.693 298.74C239.836 298.994 240.072 299.182 240.351 299.266C240.491 299.305 240.637 299.316 240.781 299.299C240.926 299.281 241.065 299.235 241.191 299.163C241.318 299.091 241.429 298.995 241.518 298.88C241.607 298.766 241.673 298.634 241.711 298.494C242.027 296.494 242.343 294.5 242.661 292.512C242.731 292.23 242.689 291.932 242.546 291.679C242.402 291.426 242.167 291.238 241.889 291.154Z" fill="black"/>
<path d="M311.056 295.332C310.908 295.079 310.666 294.895 310.382 294.82C310.099 294.745 309.797 294.785 309.544 294.932C309.292 295.082 309.11 295.324 309.035 295.606C308.96 295.889 308.999 296.19 309.144 296.444L312.816 304.276C312.925 304.465 313.088 304.618 313.284 304.714C313.48 304.81 313.7 304.846 313.917 304.817C314.133 304.787 314.336 304.694 314.499 304.549C314.663 304.404 314.779 304.213 314.834 304.002C314.91 303.72 314.872 303.42 314.728 303.166C313.506 300.554 312.282 297.942 311.056 295.332Z" fill="black"/>
<path d="M197.152 228.81C196.088 227.874 194.518 229.432 195.588 230.372L198.288 232.746C199.354 233.682 200.922 232.124 199.852 231.184L197.152 228.81Z" fill="black"/>
<path d="M193.438 241.278C192.354 240.372 190.782 241.926 191.876 242.84L194.634 245.148C195.718 246.054 197.29 244.5 196.196 243.586L193.438 241.278Z" fill="black"/>
<path d="M40.5625 320.06V343.544C40.5625 343.837 40.679 344.119 40.8864 344.326C41.0939 344.534 41.3752 344.65 41.6685 344.65C41.9618 344.65 42.2431 344.534 42.4506 344.326C42.658 344.119 42.7745 343.837 42.7745 343.544V320.06C42.7745 319.767 42.658 319.485 42.4506 319.278C42.2431 319.071 41.9618 318.954 41.6685 318.954C41.3752 318.954 41.0939 319.071 40.8864 319.278C40.679 319.485 40.5625 319.767 40.5625 320.06Z" fill="black"/>
<path d="M151.762 320.06V343.544C151.775 343.829 151.897 344.097 152.103 344.294C152.309 344.491 152.583 344.601 152.868 344.602C153.152 344.601 153.425 344.49 153.631 344.293C153.836 344.097 153.958 343.828 153.972 343.544V320.06C153.959 319.775 153.837 319.507 153.632 319.309C153.426 319.112 153.153 319.001 152.868 319C152.583 319.001 152.309 319.112 152.103 319.309C151.897 319.506 151.775 319.775 151.762 320.06Z" fill="black"/>
<path d="M30.2727 148.01H10.8187C10.5338 148.022 10.2646 148.144 10.0673 148.35C9.86993 148.555 9.75977 148.83 9.75977 149.115C9.75977 149.4 9.86993 149.674 10.0673 149.88C10.2646 150.086 10.5338 150.208 10.8187 150.22H30.2727C30.5577 150.208 30.8269 150.086 31.0242 149.88C31.2216 149.674 31.3317 149.4 31.3317 149.115C31.3317 148.83 31.2216 148.555 31.0242 148.35C30.8269 148.144 30.5577 148.022 30.2727 148.01Z" fill="black"/>
<path d="M130.567 148.01H112.675C111.536 145.827 109.829 143.993 107.732 142.702C105.636 141.411 103.23 140.71 100.768 140.675C98.3068 140.639 95.8813 141.27 93.7489 142.501C91.6165 143.731 89.8565 145.515 88.6553 147.664H76.5473C76.2623 147.676 75.9931 147.798 75.7958 148.004C75.5984 148.21 75.4883 148.484 75.4883 148.769C75.4883 149.054 75.5984 149.328 75.7958 149.534C75.9931 149.74 76.2623 149.862 76.5473 149.874H87.6453C86.9321 151.92 86.7155 154.107 87.0133 156.253C87.311 158.4 88.1147 160.444 89.3579 162.219C90.6012 163.994 92.2485 165.448 94.164 166.461C96.0795 167.475 98.2084 168.018 100.375 168.047C102.542 168.076 104.685 167.589 106.626 166.628C108.568 165.666 110.254 164.256 111.544 162.515C112.834 160.774 113.692 158.751 114.047 156.614C114.402 154.476 114.244 152.285 113.585 150.22H130.567C130.716 150.226 130.865 150.202 131.005 150.15C131.144 150.097 131.272 150.017 131.38 149.914C131.487 149.81 131.573 149.686 131.632 149.549C131.69 149.412 131.72 149.264 131.72 149.115C131.72 148.966 131.69 148.818 131.632 148.681C131.573 148.544 131.487 148.42 131.38 148.316C131.272 148.213 131.144 148.133 131.005 148.08C130.865 148.028 130.716 148.004 130.567 148.01ZM110.243 160.502C108.702 162.933 106.302 164.695 103.52 165.438C100.739 166.181 97.78 165.85 95.2315 164.511C92.6831 163.172 90.7319 160.923 89.7658 158.211C88.7997 155.499 88.8895 152.523 90.0173 149.874H96.2293C96.5142 149.862 96.7834 149.74 96.9808 149.534C97.1781 149.328 97.2882 149.054 97.2882 148.769C97.2882 148.484 97.1781 148.21 96.9808 148.004C96.7834 147.798 96.5142 147.676 96.2293 147.664H91.2793C92.3671 146.135 93.8156 144.898 95.4963 144.062C97.1771 143.227 99.038 142.82 100.914 142.877C102.79 142.934 104.623 143.453 106.25 144.388C107.877 145.323 109.248 146.646 110.241 148.238C110.064 148.379 109.933 148.571 109.868 148.788C109.802 149.005 109.805 149.237 109.875 149.453C109.945 149.668 110.079 149.857 110.26 149.995C110.441 150.132 110.659 150.21 110.885 150.22H111.249C111.888 151.895 112.13 153.695 111.955 155.479C111.781 157.263 111.195 158.983 110.243 160.502Z" fill="black"/>
<path d="M136.668 148.01C136.383 148.022 136.114 148.144 135.917 148.35C135.72 148.555 135.609 148.83 135.609 149.115C135.609 149.4 135.72 149.674 135.917 149.88C136.114 150.086 136.383 150.208 136.668 150.22H156.35C156.635 150.208 156.905 150.086 157.102 149.88C157.299 149.674 157.409 149.4 157.409 149.115C157.409 148.83 157.299 148.555 157.102 148.35C156.905 148.144 156.635 148.022 156.35 148.01H136.668Z" fill="black"/>
<path d="M178.743 150.22H187.675V159.82C187.703 160.092 187.831 160.344 188.034 160.527C188.237 160.71 188.501 160.811 188.775 160.811C189.048 160.811 189.312 160.71 189.515 160.527C189.718 160.344 189.846 160.092 189.875 159.82V150.22H198.415C198.694 150.2 198.954 150.074 199.145 149.869C199.335 149.664 199.441 149.395 199.441 149.115C199.441 148.835 199.335 148.566 199.145 148.361C198.954 148.156 198.694 148.031 198.415 148.01H189.875V137.38C189.846 137.108 189.718 136.856 189.515 136.673C189.312 136.49 189.048 136.389 188.775 136.389C188.501 136.389 188.237 136.49 188.034 136.673C187.831 136.856 187.703 137.108 187.675 137.38V148.01H178.743C178.458 148.022 178.188 148.144 177.991 148.35C177.794 148.556 177.684 148.83 177.684 149.115C177.684 149.4 177.794 149.674 177.991 149.88C178.188 150.086 178.458 150.208 178.743 150.22Z" fill="black"/>
<path d="M162.253 116.838H132.521L113.321 99.4379C113.321 96.1659 113.321 87.3279 113.295 86.6499C113.255 85.6259 113.037 85.2819 111.825 85.2639C111.607 85.2639 97.9012 85.2639 97.6872 85.2779L48.0992 40.3659C47.0472 39.4119 45.4792 40.9659 46.5372 41.9259L94.4252 85.3059H88.8972C88.605 85.3095 88.3258 85.4272 88.1191 85.6338C87.9125 85.8405 87.7948 86.1197 87.7912 86.4119C87.7912 86.4119 87.8192 108.726 87.8272 109.7C87.8298 109.992 87.9469 110.271 88.1534 110.478C88.3599 110.684 88.6392 110.801 88.9312 110.804C95.7212 110.848 112.217 110.77 112.217 110.77C112.509 110.765 112.787 110.647 112.994 110.44C113.2 110.234 113.318 109.956 113.323 109.664C113.299 107.244 113.323 104.824 113.311 102.408L129.233 116.828H56.5872V110.768C62.0312 110.768 62.7292 110.892 63.6452 110.328C64.6557 109.545 65.3996 108.47 65.7752 107.248C66.9262 103.744 67.0477 99.9843 66.1252 96.4139C65.6352 94.5859 64.3252 91.6299 62.0952 91.7819H45.4192C45.1274 91.787 44.8491 91.9052 44.6428 92.1115C44.4365 92.3178 44.3183 92.5962 44.3132 92.8879V109.664C44.3173 109.956 44.4352 110.235 44.6417 110.441C44.8482 110.648 45.1271 110.766 45.4192 110.77H54.3772V116.838H27.8012C27.5162 116.85 27.247 116.972 27.0497 117.178C26.8523 117.384 26.7422 117.658 26.7422 117.943C26.7422 118.228 26.8523 118.502 27.0497 118.708C27.247 118.914 27.5162 119.036 27.8012 119.048H54.3772V126.6C54.3893 126.885 54.511 127.154 54.7169 127.351C54.9228 127.549 55.197 127.659 55.4822 127.659C55.7674 127.659 56.0415 127.549 56.2474 127.351C56.4533 127.154 56.575 126.885 56.5872 126.6V119.048H131.673L144.361 130.54C145.413 131.492 146.979 129.94 145.923 128.978L134.961 119.048H162.253C162.538 119.036 162.807 118.914 163.005 118.708C163.202 118.502 163.312 118.228 163.312 117.943C163.312 117.658 163.202 117.384 163.005 117.178C162.807 116.972 162.538 116.85 162.253 116.838ZM111.071 87.5179V97.4119C107.647 94.3119 103.973 90.9799 100.153 87.5179H111.071ZM111.105 108.568C73.7052 108.568 102.917 108.58 90.0352 108.6L90.0012 87.5239L96.8352 87.5139L111.103 100.41L111.105 108.568ZM60.7152 95.9799C61.0332 95.1039 61.8912 93.5159 62.5392 94.1339C63.2052 94.7799 63.6652 95.6119 63.8572 96.5199C64.6431 99.3328 64.7249 102.296 64.0952 105.148C63.4732 108.132 62.1712 108.644 62.4072 108.506C62.3577 108.536 62.3036 108.558 62.2472 108.57L62.2012 108.558H62.1332C60.6612 107.916 60.0412 104.192 59.9332 102.558C59.7545 100.334 60.0203 98.0976 60.7152 95.9779V95.9799ZM55.4432 106.498C55.1636 106.508 54.8982 106.623 54.7004 106.821C54.5026 107.019 54.3871 107.284 54.3772 107.564V108.564H46.5232V93.9999H59.2012C58.203 96.2972 57.6879 98.7751 57.6879 101.28C57.6879 103.785 58.203 106.263 59.2012 108.56H56.6012V107.56C56.5955 107.414 56.561 107.271 56.4996 107.138C56.4382 107.006 56.3511 106.887 56.2434 106.788C56.1357 106.69 56.0095 106.613 55.8722 106.564C55.7348 106.514 55.589 106.493 55.4432 106.5V106.498Z" fill="black"/>
<path d="M242.509 179.732C247.223 168.845 249.541 157.073 249.307 145.212C249.072 133.351 246.291 121.679 241.151 110.988C236.763 101.594 229.541 93.811 220.501 88.7337C216.319 86.5424 211.713 85.2826 206.998 85.0409C202.283 84.7992 197.571 85.5814 193.187 87.3337C172.813 95.5197 162.601 120.744 161.495 142.108C160.477 161.978 166.591 189.908 187.169 203.222C204.601 214.508 229.469 209.048 242.509 179.732ZM239.265 181.432C223.481 213.528 190.265 214.812 173.181 184.818C161.831 164.882 160.449 137.818 169.663 115.888C177.141 98.0877 193.647 82.6877 213.677 88.3957C224.785 91.5657 234.295 100.954 240.457 114.832C245.017 125.376 247.27 136.774 247.064 148.261C246.859 159.747 244.2 171.057 239.265 181.432Z" fill="black"/>
<path d="M149.881 271.264C148.227 271.264 141.909 271.286 140.401 271.278C140.105 271.285 139.824 271.406 139.614 271.616C139.405 271.826 139.284 272.108 139.277 272.404C139.295 274.066 139.277 280.384 139.293 281.882C139.295 282.178 139.414 282.461 139.623 282.67C139.832 282.879 140.115 282.998 140.411 283C140.411 283 147.911 283 149.895 282.986C150.192 282.984 150.475 282.866 150.685 282.656C150.894 282.446 151.012 282.162 151.013 281.866C151.033 278.706 151.029 275.544 150.999 272.382C150.995 272.086 150.876 271.804 150.667 271.596C150.459 271.387 150.177 271.268 149.881 271.264ZM148.763 273.514V280.75H141.527V273.514H148.763Z" fill="black"/>
<path d="M56.2194 132.612C56.144 132.483 56.0436 132.37 55.924 132.281C55.8045 132.191 55.6682 132.126 55.5232 132.09C55.3782 132.054 55.2274 132.047 55.0797 132.07C54.9321 132.093 54.7905 132.145 54.6634 132.224C53.7654 132.77 37.1094 160.844 36.9374 161.154C36.8481 161.325 36.8039 161.517 36.809 161.71C36.8141 161.904 36.8683 162.093 36.9665 162.259C37.0647 162.426 37.2037 162.565 37.3704 162.663C37.5371 162.761 37.726 162.815 37.9194 162.82C38.2354 162.82 69.4254 162.768 70.7654 162.756C70.9608 162.753 71.1521 162.7 71.3207 162.601C71.4893 162.503 71.6294 162.362 71.7272 162.193C71.825 162.023 71.8772 161.832 71.8786 161.636C71.88 161.441 71.8307 161.248 71.7354 161.078C65.6354 150.05 57.2574 134.41 56.2194 132.612ZM39.8854 160.544C43.0234 155.208 49.8254 143.768 55.1774 135.384L68.8754 160.544H39.8854Z" fill="black"/>
<path d="M109.659 266.87C106.939 264.465 103.374 263.239 99.7503 263.462C96.1262 263.685 92.7391 265.338 90.3341 268.059C87.9291 270.779 86.7033 274.343 86.9263 277.967C87.1492 281.592 88.8028 284.979 91.5231 287.384C92.8701 288.575 94.4384 289.488 96.1385 290.073C97.8387 290.658 99.6373 290.902 101.432 290.792C103.226 290.681 104.982 290.218 106.597 289.43C108.213 288.641 109.657 287.542 110.848 286.195C112.039 284.848 112.953 283.279 113.537 281.579C114.122 279.879 114.366 278.08 114.256 276.286C114.146 274.492 113.683 272.736 112.894 271.121C112.105 269.505 111.006 268.061 109.659 266.87ZM108.187 285.67C106.273 287.377 103.841 288.392 101.281 288.554C98.7208 288.715 96.1807 288.013 94.0671 286.56C92.4891 285.473 91.2088 284.008 90.3432 282.299C89.4776 280.589 89.0544 278.69 89.1123 276.775C89.1702 274.86 89.7074 272.99 90.6746 271.336C91.6419 269.682 93.0083 268.297 94.6491 267.308C96.2903 266.317 98.1541 265.754 100.069 265.671C101.985 265.587 103.89 265.986 105.611 266.831C107.332 267.676 108.814 268.94 109.919 270.506C111.025 272.072 111.719 273.891 111.939 275.796C112.165 277.622 111.941 279.476 111.287 281.197C110.633 282.917 109.569 284.452 108.187 285.668V285.67Z" fill="black"/>
<path d="M145.777 210.42C145.68 210.251 145.54 210.111 145.371 210.014C145.203 209.916 145.012 209.864 144.817 209.864C144.622 209.862 144.431 209.911 144.261 210.006C144.091 210.101 143.948 210.238 143.847 210.404C140.853 215.165 137.933 219.973 135.087 224.824C134.948 225.081 134.916 225.383 134.997 225.664C135.077 225.945 135.265 226.183 135.519 226.328C135.701 226.476 135.795 226.552 139.665 226.552C142.127 226.552 146.119 226.522 152.635 226.458C152.83 226.455 153.021 226.401 153.19 226.302C153.358 226.204 153.498 226.063 153.595 225.894C153.693 225.724 153.745 225.533 153.746 225.338C153.747 225.142 153.698 224.95 153.603 224.78C151.601 221.168 148.433 215.152 145.777 210.42ZM150.743 224.23H138.033C140.033 220.83 142.337 216.982 144.737 213.198L150.743 224.23Z" fill="black"/>
<path d="M146.528 91.7718C146.429 91.6041 146.289 91.4647 146.121 91.3673C145.952 91.27 145.761 91.218 145.567 91.2163C145.372 91.2147 145.18 91.2636 145.01 91.3581C144.84 91.4527 144.697 91.5897 144.596 91.7558C140.551 98.1932 136.604 104.691 132.756 111.248C132.669 111.417 132.625 111.606 132.629 111.797C132.633 111.987 132.685 112.174 132.78 112.339C132.875 112.505 133.01 112.644 133.172 112.744C133.335 112.844 133.52 112.902 133.71 112.912C133.71 112.912 155.51 112.872 156.142 112.868C156.338 112.867 156.53 112.815 156.699 112.716C156.869 112.618 157.009 112.477 157.107 112.308C157.206 112.138 157.258 111.946 157.258 111.75C157.259 111.555 157.209 111.362 157.112 111.192C152.54 102.928 147.228 92.9998 146.528 91.7718ZM135.706 110.648C138.929 105.259 142.189 99.894 145.488 94.5518L154.252 110.648H135.706Z" fill="black"/>
<path d="M67.6713 265.552C66.6152 263.851 64.9452 262.621 63.0073 262.118C57.5866 260.389 51.7777 260.29 46.3013 261.834C44.4336 262.308 42.7301 263.281 41.3733 264.65C40.8637 265.248 40.5496 265.988 40.4733 266.77C40.3273 267.44 40.2733 270.74 40.4333 292.392C40.436 292.687 40.5547 292.97 40.7638 293.179C40.973 293.388 41.2558 293.506 41.5513 293.508C46.1133 293.54 62.3513 293.54 66.9093 293.508C67.2049 293.505 67.4874 293.386 67.6964 293.177C67.9054 292.968 68.0242 292.685 68.0273 292.39C68.2133 265.918 68.2013 266.534 67.6713 265.552ZM65.7493 267.182C65.5613 268.24 63.8093 269.252 62.3673 269.794C56.7173 271.59 50.6273 271.45 45.0673 269.394C43.8793 268.826 42.2153 267.642 42.8233 266.474C44.2233 263.798 51.1533 262.988 54.2233 262.992C56.5093 263.012 58.7855 263.294 61.0073 263.832C62.5533 264.178 63.9933 264.892 65.2073 265.91C65.3926 266.063 65.5384 266.259 65.6327 266.48C65.727 266.701 65.767 266.942 65.7493 267.182ZM42.6773 270.582C47.9453 274.248 60.3973 274.248 65.7833 270.582V291.27H42.6773V270.582Z" fill="black"/>
<path d="M200.317 117.42C190.413 112.066 180.183 118.138 175.195 126.9C166.823 141.608 168.451 165.448 183.157 175.336C192.065 181.324 202.957 177.43 208.757 168.492C212.45 162.591 214.581 155.848 214.951 148.897C215.32 141.945 213.914 135.014 210.867 128.756C208.648 123.949 204.952 119.978 200.317 117.42ZM208.881 163.848C204.893 172.248 196.121 178.724 187.081 174.86C182.757 172.924 179.207 169.592 177.001 165.4C174.244 160.259 172.66 154.572 172.362 148.747C172.064 142.921 173.06 137.102 175.279 131.708C178.293 124.188 184.859 117.68 192.479 117.68C195.455 117.86 198.341 118.771 200.881 120.333C203.42 121.895 205.536 124.059 207.039 126.634C210.433 132.188 212.38 138.505 212.701 145.006C213.023 151.507 211.71 157.985 208.881 163.848Z" fill="black"/>
<path d="M290.671 140.14C293.122 140.151 295.501 139.313 297.403 137.767C299.305 136.222 300.613 134.065 301.104 131.664C301.595 129.263 301.239 126.766 300.096 124.598C298.954 122.429 297.095 120.724 294.837 119.772C292.578 118.82 290.06 118.68 287.71 119.376C285.36 120.072 283.323 121.561 281.947 123.589C280.571 125.617 279.941 128.059 280.163 130.5C280.385 132.941 281.446 135.229 283.165 136.976C284.143 137.975 285.311 138.77 286.599 139.313C287.888 139.856 289.272 140.137 290.671 140.14ZM282.189 127.224C282.685 125.353 283.786 123.698 285.32 122.517C286.854 121.336 288.735 120.695 290.671 120.694C292.607 120.694 294.489 121.334 296.023 122.515C297.557 123.697 298.658 125.352 299.153 127.224H282.189ZM281.859 129.104H299.483C299.544 130.3 299.362 131.496 298.948 132.619C298.533 133.743 297.895 134.771 297.071 135.64C296.247 136.509 295.255 137.202 294.154 137.675C293.054 138.148 291.869 138.391 290.671 138.39C288.867 138.391 287.105 137.839 285.625 136.807C284.145 135.776 283.016 134.315 282.393 132.622C281.979 131.498 281.797 130.302 281.859 129.106V129.104Z" fill="black"/>
<path d="M162.252 236.268H73.2343L87.7503 223.086C87.7683 224.698 87.8063 229.328 87.8063 229.328C87.811 229.623 87.9307 229.905 88.1399 230.113C88.3491 230.321 88.6313 230.439 88.9263 230.442C90.4023 230.442 112.088 230.406 112.212 230.408C112.509 230.403 112.792 230.283 113.001 230.074C113.211 229.865 113.332 229.582 113.338 229.286C113.338 229.286 113.31 206.97 113.302 205.996C113.3 205.7 113.181 205.418 112.972 205.209C112.763 205 112.48 204.882 112.184 204.88H107.784L139.836 175.778H162.252C162.524 175.749 162.776 175.621 162.959 175.418C163.142 175.215 163.243 174.951 163.243 174.678C163.243 174.405 163.142 174.141 162.959 173.938C162.776 173.735 162.524 173.606 162.252 173.578H142.27L146.918 169.358C147.972 168.398 146.406 166.838 145.354 167.794L138.986 173.578H55.8963V171.216C55.8842 170.931 55.7625 170.662 55.5566 170.464C55.3507 170.267 55.0765 170.157 54.7913 170.157C54.5061 170.157 54.232 170.267 54.0261 170.464C53.8202 170.662 53.6984 170.931 53.6863 171.216V173.568H27.8003C27.5284 173.596 27.2766 173.725 27.0936 173.928C26.9106 174.131 26.8094 174.395 26.8094 174.668C26.8094 174.941 26.9106 175.205 27.0936 175.408C27.2766 175.611 27.5284 175.739 27.8003 175.768H53.6863V191.6C53.6984 191.885 53.8202 192.154 54.0261 192.351C54.232 192.549 54.5061 192.659 54.7913 192.659C55.0765 192.659 55.3507 192.549 55.5566 192.351C55.7625 192.154 55.8842 191.885 55.8963 191.6V175.78H136.552L104.48 204.906L88.8963 204.93C88.5857 204.963 88.2953 205.099 88.0723 205.318C87.6403 205.766 87.8443 204.802 87.8123 220.046L69.9523 236.268H27.8003C27.5072 236.268 27.2262 236.384 27.019 236.592C26.8117 236.799 26.6953 237.08 26.6953 237.373C26.6953 237.666 26.8117 237.947 27.019 238.154C27.2262 238.362 27.5072 238.478 27.8003 238.478H67.5183L46.5363 257.536C45.4803 258.494 47.0463 260.054 48.0983 259.098L70.8003 238.478H162.252C162.545 238.478 162.826 238.362 163.034 238.154C163.241 237.947 163.357 237.666 163.357 237.373C163.357 237.08 163.241 236.799 163.034 236.592C162.826 236.384 162.545 236.268 162.252 236.268ZM105.314 207.128H111.062V228.166H90.0503V221C94.7483 216.738 100 211.948 105.314 207.128ZM102.044 207.128C98.0363 210.77 94.0243 214.41 90.0103 218.05V207.146L102.044 207.128Z" fill="black"/>
<path d="M369.643 313.298C368.629 295.058 363.079 287.782 357.479 259.806C356.093 240.27 357.541 228.424 357.065 209.7C357.001 207.168 356.979 205.1 356.821 203.1C355.697 188.206 348.732 174.361 337.444 164.58C326.155 154.8 311.459 149.878 296.557 150.887C281.655 151.896 267.756 158.755 257.89 169.968C248.023 181.181 242.988 195.839 243.883 210.748C244.219 215.99 244.261 220.88 244.157 226.61C237.909 226.174 231.331 225.41 225.797 222.664C219.743 219.664 217.547 216.154 211.959 214.808V210.968C211.956 210.672 211.836 210.39 211.626 210.181C211.416 209.973 211.133 209.855 210.837 209.854H197.133C196.837 209.856 196.553 209.974 196.344 210.184C196.135 210.394 196.017 210.678 196.017 210.974V215.774C195.053 215.408 194.044 215.174 193.017 215.08C188.517 215.13 185.761 221.534 189.499 225.584C189.753 225.898 190.435 226.584 190.327 227.028C190.242 227.095 190.151 227.153 190.055 227.202C189.708 227.318 189.35 227.396 188.987 227.434C187.654 227.779 186.488 228.586 185.695 229.71C184.901 230.835 184.534 232.205 184.657 233.576C184.867 235.623 185.627 237.576 186.857 239.226C185.678 240.172 184.66 241.302 183.843 242.574C183.32 243.69 183.128 244.933 183.29 246.155C183.452 247.377 183.961 248.527 184.757 249.468C187.825 253.78 191.637 257.512 196.013 260.488V274.688C195.955 276.289 196.38 277.87 197.232 279.226C198.085 280.582 199.325 281.65 200.793 282.292C202.014 282.826 203.349 283.046 204.676 282.931C206.004 282.816 207.281 282.369 208.392 281.633C209.502 280.896 210.41 279.893 211.033 278.714C211.655 277.536 211.972 276.221 211.955 274.888V268.404C220.029 271.716 228.378 274.316 236.905 276.174C232.137 292.798 229.843 295.888 228.541 306.13C227.409 312.443 227.663 318.926 229.285 325.13C234.513 341.73 251.819 348.432 267.585 339.384C282.231 330.984 289.053 312.446 297.165 294.784C299.939 300.67 302.675 306.43 305.523 312.088C311.083 323.134 318.437 335.17 330.821 340.688C334.76 342.467 339.029 343.397 343.351 343.42C360.019 343.44 370.525 329.132 369.643 313.298ZM295.879 153.422C309.492 152.229 323.054 156.23 333.84 164.622C344.625 173.014 351.838 185.175 354.029 198.664C356.063 211.996 353.719 236.664 355.171 258.73H309.149C316.268 252.677 322.613 245.768 328.039 238.16C328.161 237.949 328.211 237.703 328.179 237.461C328.148 237.219 328.037 236.995 327.865 236.822C326.685 235.636 292.265 201.222 292.247 201.202C292.14 201.1 292.014 201.02 291.877 200.966C291.739 200.912 291.592 200.886 291.445 200.89C291.297 200.893 291.151 200.925 291.016 200.984C290.881 201.044 290.759 201.129 290.657 201.236C286.982 206.115 282.798 210.59 278.177 214.584C273.603 218.674 268.42 222.026 262.815 224.52C257.563 226.422 251.968 227.19 246.399 226.772C246.579 217.216 246.271 212.874 246.159 211.224C245.119 196.973 249.767 182.891 259.085 172.058C268.403 161.225 281.632 154.525 295.879 153.422ZM198.261 212.106H209.715C209.715 212.306 209.727 215.648 209.715 216.106C209.737 216.956 209.555 217.798 209.187 218.562C208.649 219.71 207.167 219.788 205.923 219.53C203.283 218.817 200.715 217.859 198.253 216.67L198.261 212.106ZM209.143 277.532C208.565 278.724 207.593 279.679 206.391 280.236C205.189 280.792 203.831 280.914 202.549 280.583C201.267 280.251 200.139 279.486 199.357 278.417C198.575 277.347 198.188 276.041 198.261 274.718V261.938C201.941 264.064 205.77 265.922 209.717 267.498V274C209.803 275.206 209.607 276.416 209.143 277.532ZM204.179 262.638C196.947 259.354 190.734 254.181 186.195 247.664C185.604 246.799 185.342 245.751 185.455 244.71C185.805 243.297 186.678 242.07 187.897 241.274C188.338 240.941 188.709 240.524 188.987 240.046C189.587 238.83 188.461 237.728 187.909 236.728C186.473 234.432 186.275 231.148 188.777 229.79C189.359 229.61 189.953 229.468 190.555 229.366C190.908 229.279 191.239 229.123 191.531 228.906C191.823 228.69 192.068 228.417 192.253 228.104C193.035 226.754 192.117 225.346 191.275 224.284C190.516 223.563 190.052 222.585 189.972 221.541C189.892 220.497 190.202 219.461 190.843 218.632C191.265 218.084 191.817 217.646 192.449 217.36C193.715 217.26 194.984 217.529 196.101 218.134C200.569 219.876 209.165 224.944 211.435 218.934C211.657 218.34 211.799 217.72 211.857 217.088C216.945 218.648 217.941 220.878 223.457 223.952C229.161 226.75 235.381 228.34 241.729 228.624C248.397 229.276 255.367 229.536 261.757 227.258C267.678 225.044 273.158 221.794 277.939 217.658C282.975 213.492 287.542 208.79 291.561 203.636C292.455 204.53 325.361 237.462 325.623 237.734C316.953 249.544 306.083 259.568 293.611 267.254C289.956 269.573 285.991 271.363 281.835 272.57C254.415 280.274 230.037 274.558 204.179 262.638ZM187.001 239.084C187.027 238.934 187.097 238.954 187.025 239.052L187.001 239.084ZM291.577 301.684C284.417 317.25 276.861 335.14 260.177 340.142C246.341 344.29 233.817 335.99 230.787 322.066C228.539 311.74 232.205 298.64 233.387 294.866C234.483 291.352 236.825 284.726 239.131 276.638C253.529 279.201 268.316 278.539 282.427 274.698C284.073 274.25 285.687 273.696 287.259 273.036C290.108 279.43 292.999 285.805 295.931 292.162C294.485 295.34 293.027 298.508 291.571 301.676L291.577 301.684ZM367.029 320.532C366.345 325.029 364.428 329.249 361.49 332.722C358.553 336.196 354.71 338.787 350.389 340.208C337.913 343.928 325.297 336.942 318.329 328.366C310.995 319.342 307.329 310.908 298.065 291.442C295.055 285.039 292.129 278.598 289.289 272.118C295.339 269.068 301.032 265.356 306.263 261.05C309.705 261.05 348.999 261.098 355.463 261.094C357.813 272.68 360.079 280.4 362.079 287.22C365.061 297.4 368.661 310.056 367.023 320.524L367.029 320.532Z" fill="black"/>
<path d="M389.743 357.862C371.615 344.22 347.797 344.262 330.463 357.978C330.297 358.131 330.181 358.33 330.129 358.549C330.078 358.769 330.094 358.999 330.174 359.21C330.255 359.42 330.397 359.602 330.582 359.73C330.768 359.859 330.987 359.929 331.213 359.932H389.159C389.398 359.924 389.628 359.84 389.816 359.692C390.004 359.544 390.14 359.34 390.205 359.11C390.27 358.88 390.26 358.635 390.177 358.411C390.094 358.186 389.942 357.994 389.743 357.862ZM334.683 357.688C350.107 347.288 369.307 347.288 385.503 357.688H334.683Z" fill="black"/>
<path d="M268.962 357.874C260.493 351.254 250.049 347.666 239.3 347.684C228.552 347.702 218.119 351.325 209.674 357.974C209.502 358.121 209.378 358.316 209.32 358.535C209.262 358.753 209.272 358.984 209.349 359.197C209.426 359.41 209.566 359.594 209.75 359.725C209.934 359.857 210.154 359.929 210.38 359.932H268.362C268.598 359.921 268.826 359.837 269.013 359.691C269.199 359.545 269.336 359.345 269.404 359.118C269.469 358.89 269.461 358.648 269.382 358.425C269.303 358.202 269.156 358.009 268.962 357.874ZM264.718 357.688H213.888C221.409 352.658 230.254 349.973 239.303 349.973C248.351 349.973 257.196 352.658 264.718 357.688Z" fill="black"/>
</svg>
