<svg width="399" height="399" viewBox="0 0 399 399" fill="none" xmlns="http://www.w3.org/2000/svg">
<path d="M115.949 90.1832C115.659 89.9902 117.107 89.9902 102.053 89.9902L116.142 102.728C116.142 89.4112 116.142 90.4727 115.949 90.1832Z" fill="#DAF8FF"/>
<path d="M98.3846 89.604H93.0771C92.7876 89.604 92.4981 89.7005 92.3051 89.8935C92.1121 90.0865 92.0156 90.376 92.0156 90.6655C92.0156 90.6655 92.0156 112.185 92.0156 113.15C92.0156 113.44 92.1121 113.729 92.3051 113.922C92.4981 114.115 92.7876 114.212 93.0771 114.212C99.6391 114.212 114.597 114.212 115.562 114.212C115.851 114.212 116.141 114.115 116.334 113.922C116.527 113.729 116.623 113.44 116.623 113.15C116.623 110.834 116.623 108.518 116.623 106.106L98.3846 89.604ZM94.1386 111.992V91.6305H100.701L114.5 104.079V111.992C78.4091 111.992 106.587 111.992 94.1386 111.992Z" fill="#59DFFD"/>
<path d="M94.1394 207.141H105.719L108.035 205.018H92.9814C92.6919 205.018 92.4024 205.211 92.2094 205.404C91.8234 205.79 92.0164 204.922 91.9199 219.59C92.5954 218.914 93.3674 218.335 94.0429 217.66L94.1394 207.141Z" fill="#59DFFD"/>
<path d="M115.948 205.693C115.755 205.404 115.755 205.5 110.737 205.5L92.4023 222.098C92.4023 222.967 92.4988 228.564 92.4988 228.564C92.4988 228.757 92.5953 228.853 92.6918 228.95C92.7883 229.046 92.9813 229.143 93.0778 229.143C99.6398 229.143 115.562 229.143 115.562 229.143C115.755 229.143 115.852 229.046 115.948 228.95C116.045 228.853 116.141 228.66 116.141 228.564C116.238 206.369 116.238 205.983 115.948 205.693Z" fill="#DAF8FF"/>
<path d="M229.239 176.261C243.617 146.925 231.169 109 208.974 102.728C193.534 98.2888 180.41 109.772 174.234 124.537C167.286 141.135 167.672 162.654 177.032 179.059C190.542 202.702 216.79 201.64 229.239 176.261ZM172.497 148.951C172.497 132.836 181.664 119.808 193.051 119.808C204.438 119.808 213.606 132.836 213.606 148.951C213.606 165.067 204.438 178.094 193.051 178.094C181.664 178.094 172.497 165.067 172.497 148.951Z" fill="#59DFFD"/>
<path d="M219.783 93.271C215.826 91.148 211.387 89.99 206.948 89.797C202.509 89.604 197.974 90.2795 193.824 92.0165C174.621 99.7365 164.585 123.572 163.523 144.416C162.365 166.129 169.892 191.219 188.034 202.992C203.281 212.835 223.064 208.878 235.609 189.868C256.646 158.216 247.864 107.843 219.783 93.271ZM237.056 156.479C235.319 173.463 225.766 192.666 209.457 197.202C193.149 201.737 179.06 190.061 172.401 174.428C164.971 156.961 165.55 134.67 175.296 117.589C185.139 100.509 201.448 95.78 214.572 102.632C230.205 110.738 237.635 131.389 237.539 148.952C237.442 151.461 237.249 153.97 237.056 156.479Z" fill="#59DFFD"/>
<path d="M227.792 182.92C245.548 156.286 237.538 114.598 214.475 102.632C201.447 95.8766 185.042 100.509 175.199 117.589C165.453 134.573 164.874 156.865 172.304 174.428C184.174 202.316 212.159 206.369 227.792 182.92ZM188.806 105.913C200.675 98.0961 216.212 101.184 226.055 116.335C242.942 142.1 235.222 181.858 213.51 193.342C201.544 199.614 186.297 195.561 176.936 179.06C162.654 153.777 169.795 118.458 188.806 105.913Z" fill="black"/>
<path d="M351.118 237.732C351.311 220.458 351.601 228.757 351.215 207.624C351.215 193.728 345.907 180.411 336.354 170.375C326.8 160.339 313.773 154.259 299.973 153.584C286.174 152.812 272.567 157.444 261.952 166.418C251.434 175.393 244.679 188.131 243.231 201.93C242.363 209.94 243.617 210.229 243.231 226.538C249.118 227.117 255.197 226.441 260.794 224.511C277.103 217.467 287.428 202.316 288.104 201.834C288.2 201.737 288.393 201.641 288.49 201.737C288.586 201.737 288.779 201.834 288.876 201.93C288.876 201.93 318.501 231.556 323.23 236.284C323.326 236.381 323.423 236.477 323.423 236.67C323.423 236.767 323.423 236.96 323.326 237.056C317.826 244.776 311.36 251.724 304.123 257.707C351.987 257.707 350.925 257.707 351.118 257.707C351.215 257.707 351.408 257.707 351.408 257.804C351.504 257.9 351.601 257.997 351.601 258.093C351.89 258.769 351.022 251.821 351.118 237.732ZM338.766 209.747C335.485 218.625 331.046 227.117 325.546 234.837C325.449 235.126 325.16 235.223 324.87 235.319C324.581 235.416 324.291 235.319 324.098 235.223C323.809 235.126 323.712 234.837 323.616 234.547C323.519 234.258 323.616 233.968 323.712 233.775C329.116 226.248 333.459 217.949 336.74 209.264C337.222 207.913 339.249 208.492 338.766 209.747ZM296.885 191.026C295.052 194.307 293.122 197.395 290.902 200.386C290.709 200.579 290.516 200.772 290.227 200.869C289.937 200.965 289.648 200.869 289.455 200.772C289.358 200.676 289.262 200.579 289.165 200.483C289.069 200.386 288.972 200.29 288.972 200.097C288.972 200 288.972 199.807 288.972 199.711C288.972 199.614 289.069 199.421 289.069 199.325C291.288 196.333 293.315 193.245 295.052 189.964C295.727 188.71 297.561 189.771 296.885 191.026Z" fill="white"/>
<path d="M284.727 270.059C282.508 271.024 280.288 271.7 278.069 272.279C264.462 275.849 250.277 276.235 236.574 273.437C232.038 289.745 228.757 293.991 227.792 308.852C226.924 321.88 233.582 334.521 245.934 337.513C252.11 338.864 258.576 337.995 264.173 334.907C276.621 328.345 282.894 314.739 288.587 302.676C290.421 298.623 292.351 294.57 294.088 290.517C290.807 283.762 287.719 276.911 284.727 270.059ZM238.407 294.763L239.276 288.973C239.372 288.684 239.565 288.491 239.758 288.298C240.048 288.201 240.337 288.105 240.53 288.201C240.82 288.298 241.013 288.491 241.206 288.684C241.302 288.973 241.399 289.263 241.302 289.456L240.434 295.246C240.337 295.535 240.144 295.728 239.951 295.921C239.662 296.018 239.372 296.114 239.179 296.018C238.89 295.921 238.697 295.728 238.504 295.535C238.407 295.246 238.407 294.956 238.407 294.763Z" fill="#DAF8FF"/>
<path d="M297.657 131.003C297.657 130.906 297.657 130.906 297.657 130.81C297.561 130.906 297.561 131.003 297.657 131.003C297.561 131.099 297.561 131.196 297.464 131.292C297.368 131.389 297.368 131.389 297.271 131.389C297.175 131.389 297.078 131.485 297.078 131.485H278.55C278.454 131.485 278.357 131.485 278.357 131.485C278.261 131.485 278.261 131.389 278.164 131.389C278.068 131.292 278.068 131.292 278.068 131.196C277.778 133.319 278.164 135.442 279.226 137.372C280.287 139.205 281.831 140.749 283.858 141.618C285.498 142.39 287.235 142.679 289.069 142.486C290.806 142.293 292.543 141.618 293.99 140.556C295.438 139.495 296.499 138.047 297.271 136.407C297.561 134.573 297.85 132.74 297.657 131.003Z" fill="white"/>
<path d="M362.989 303.931C361.735 294.956 361.156 293.798 357.971 282.797C354.787 271.7 353.243 265.234 351.795 257.9C351.795 257.804 351.699 257.707 351.602 257.611C351.506 257.514 351.409 257.514 351.313 257.514C351.12 257.418 352.278 257.514 304.317 257.514C298.431 262.532 291.869 266.778 284.824 270.059C290.035 282.122 300.65 305.185 307.502 317.055C310.879 322.941 315.318 328.056 320.819 332.205C326.126 336.162 332.688 338.285 339.347 338.188C345.33 337.995 351.12 335.679 355.559 331.53C359.998 327.477 362.796 321.88 363.472 315.897C363.665 311.94 363.568 307.887 362.989 303.931ZM310.59 301.229C310.493 301.325 310.3 301.325 310.204 301.325C310.107 301.325 309.914 301.325 309.818 301.325C309.721 301.325 309.528 301.229 309.432 301.132C309.335 301.036 309.239 300.939 309.142 300.843L305.572 293.316C305.475 293.026 305.379 292.737 305.475 292.544C305.572 292.254 305.765 292.061 305.958 291.868C306.247 291.772 306.537 291.675 306.73 291.772C307.019 291.868 307.212 292.061 307.405 292.254C308.563 294.763 309.721 297.272 310.976 299.781C311.072 300.071 311.169 300.36 311.072 300.553C310.976 300.843 310.783 301.132 310.59 301.229Z" fill="#DAF8FF"/>
<path d="M290.904 122.8C288.877 122.125 286.561 122.125 284.535 122.8C282.508 123.476 280.675 124.827 279.517 126.66C278.745 127.818 278.166 129.266 277.973 130.617C277.973 131.099 278.166 131.389 278.552 131.389H297.08C297.369 131.389 297.659 131.196 297.659 130.617C297.369 128.783 296.597 127.143 295.439 125.695C294.185 124.441 292.641 123.379 290.904 122.8Z" fill="black"/>
<path d="M262.049 129.555C261.759 129.555 261.47 129.652 261.374 129.845C261.181 130.038 261.084 130.327 261.084 130.617C261.084 130.906 261.181 131.196 261.374 131.389C261.567 131.582 261.856 131.678 262.145 131.678H273.822C274.111 131.678 274.401 131.582 274.594 131.389C274.787 131.196 274.884 130.906 274.884 130.617C274.884 130.327 274.787 130.038 274.594 129.845C274.401 129.652 274.112 129.555 273.919 129.555H262.049Z" fill="black"/>
<path d="M211.291 210.808C211.291 210.615 211.194 210.519 211.098 210.422C211.001 210.326 210.808 210.229 210.712 210.229H197.491C197.298 210.229 197.202 210.326 197.105 210.422C197.009 210.519 196.912 210.711 196.912 210.808V216.019C201.158 217.66 203.088 219.3 207.334 219.59C209.65 219.493 210.036 217.177 210.133 215.247C210.133 215.054 210.229 214.957 210.326 214.861C210.422 214.764 210.615 214.668 210.712 214.668C210.905 214.668 211.098 214.764 211.291 214.861C211.387 211.966 211.291 211.483 211.291 210.808Z" fill="black"/>
<path d="M196.912 258.382V272.375C196.912 273.822 197.298 275.27 198.07 276.428C198.842 277.682 199.904 278.647 201.255 279.226C202.509 279.805 203.957 279.998 205.404 279.709C206.852 279.419 208.106 278.84 209.168 277.875C209.843 277.2 210.422 276.428 210.808 275.559C211.677 273.629 211.387 272.568 211.387 265.523C206.273 263.69 201.448 261.277 196.912 258.382Z" fill="black"/>
<path d="M295.053 189.964C293.22 193.245 291.29 196.333 289.07 199.324C288.974 199.614 288.877 199.903 288.974 200.096C289.07 200.386 289.263 200.579 289.456 200.772C289.746 200.868 290.035 200.965 290.228 200.868C290.518 200.772 290.711 200.579 290.904 200.386C293.123 197.394 295.15 194.306 296.887 191.025C297.562 189.771 295.729 188.709 295.053 189.964Z" fill="black"/>
<path d="M324.099 235.223C324.388 235.319 324.678 235.416 324.871 235.319C325.16 235.223 325.353 235.03 325.546 234.837C331.047 227.117 335.486 218.721 338.767 209.747C339.249 208.492 337.223 207.913 336.74 209.168C333.459 217.853 329.117 226.152 323.713 233.679C323.616 233.968 323.52 234.258 323.616 234.451C323.713 234.837 323.809 235.126 324.099 235.223Z" fill="black"/>
<path d="M323.328 236.091C322.17 234.933 288.974 201.737 288.974 201.737C288.877 201.64 288.781 201.544 288.588 201.544C288.491 201.544 288.298 201.544 288.202 201.64C287.526 202.123 277.201 217.273 260.892 224.318C255.681 226.151 250.084 226.827 244.487 226.441C237.829 225.958 230.881 225.379 224.898 222.484C218.529 219.3 217.467 216.405 210.905 214.764C210.712 214.764 210.616 214.764 210.423 214.861C210.326 214.957 210.23 215.054 210.133 215.247C210.037 215.633 210.423 219.589 207.335 219.686C202.22 219.396 199.904 216.791 194.79 215.44C190.737 214.378 187.938 218.914 189.289 222.677C189.579 223.353 190.061 224.028 190.544 224.607C191.026 225.186 191.991 226.441 190.833 226.827C189.965 227.02 189.193 227.213 188.421 227.502C185.912 229.046 184.657 232.906 187.938 237.538C188.035 237.635 188.131 237.828 188.131 237.924C187.938 238.31 186.587 239.275 186.008 240.047C185.043 241.109 184.561 242.556 184.561 244.004C184.561 245.451 185.14 246.802 186.201 247.864C191.026 254.329 197.395 259.444 204.826 262.532C229.433 273.533 251.146 278.84 278.069 272.085C286.754 269.866 294.185 265.137 301.326 259.54C309.818 252.978 317.248 245.258 323.424 236.573C323.521 236.477 323.521 236.284 323.521 236.187C323.424 236.284 323.424 236.187 323.328 236.091ZM264.366 268.901C264.366 268.804 264.366 268.611 264.366 268.515C264.366 268.418 264.463 268.225 264.463 268.129C264.559 268.032 264.656 267.936 264.752 267.839C264.849 267.743 264.945 267.646 265.138 267.646C268.13 267.26 271.025 266.488 273.823 265.33C274.113 265.234 274.402 265.33 274.595 265.427C274.692 265.523 274.788 265.62 274.885 265.716C274.981 265.813 275.078 265.909 275.078 266.102C275.174 266.392 275.078 266.681 274.981 266.874C274.885 267.164 274.595 267.26 274.306 267.357C271.507 268.515 268.612 269.287 265.621 269.673C265.331 269.769 265.042 269.673 264.849 269.576C264.559 269.383 264.366 269.19 264.366 268.901ZM193.921 240.047L196.623 242.267C197.685 243.135 196.141 244.679 195.079 243.811L192.377 241.591C191.316 240.723 192.86 239.179 193.921 240.047ZM198.553 231.845L195.948 229.529C194.886 228.66 196.43 227.116 197.492 227.985L200.097 230.301C201.159 231.266 199.615 232.713 198.553 231.845Z" fill="white"/>
<path d="M383.061 352.953C374.955 346.584 365.015 343.206 354.69 343.206C344.461 343.206 334.425 346.68 326.415 353.049C325.933 353.339 326.319 354.111 326.801 354.111H382.675C382.771 354.111 382.964 354.014 383.061 354.014C383.157 353.918 383.254 353.821 383.254 353.725C383.254 353.628 383.254 353.435 383.254 353.339C383.254 353.146 383.157 353.049 383.061 352.953Z" fill="black"/>
<path d="M266.489 352.953C258.383 346.584 248.443 343.206 238.118 343.206C227.889 343.206 217.853 346.68 209.843 353.049C209.747 353.146 209.747 353.146 209.65 353.242C209.65 353.339 209.65 353.435 209.65 353.532C209.65 353.628 209.65 353.628 209.747 353.725C209.747 353.821 209.843 353.918 209.94 354.014C210.036 354.111 210.133 354.111 210.229 354.111H266.103C266.199 354.111 266.296 354.111 266.392 354.014C266.489 354.014 266.585 353.918 266.585 353.821C266.682 353.725 266.682 353.628 266.682 353.532C266.682 353.435 266.682 353.339 266.682 353.242C266.682 353.146 266.585 353.049 266.489 352.953Z" fill="black"/>
<path d="M113.633 150.302C114.019 150.013 114.116 150.109 115.949 150.109C114.888 147.986 113.247 146.249 111.221 144.995C109.194 143.74 106.878 143.065 104.466 143.065C102.053 143.065 99.7371 143.644 97.7106 144.802C95.6841 145.96 93.9471 147.697 92.7891 149.82H95.2981C96.3596 148.372 97.7106 147.118 99.3511 146.346C100.992 145.574 102.729 145.188 104.562 145.188C106.396 145.284 108.133 145.767 109.677 146.635C111.317 147.504 112.668 148.758 113.633 150.302Z" fill="#59DFFD"/>
<path d="M105.622 167.19C103.692 167.383 101.762 167.19 99.9286 166.418C98.0951 165.646 96.5511 164.392 95.3931 162.848C94.2351 161.304 93.4631 159.47 93.2701 157.54C93.0771 155.61 93.2701 153.68 94.0421 151.847H91.8226C91.1471 153.777 90.9541 155.9 91.2436 158.023C91.5331 160.049 92.3051 162.076 93.4631 163.813C94.6211 165.55 96.2616 166.901 98.0951 167.866C99.9286 168.831 101.955 169.41 104.078 169.41C106.201 169.41 108.228 168.927 110.061 168.059C111.895 167.094 113.535 165.743 114.79 164.102C116.044 162.462 116.816 160.435 117.202 158.409C117.588 156.382 117.395 154.259 116.72 152.233H114.5C115.079 153.777 115.369 155.514 115.272 157.154C115.176 158.795 114.597 160.435 113.728 161.883C112.86 163.33 111.702 164.585 110.254 165.453C108.903 166.418 107.359 166.997 105.622 167.19Z" fill="#59DFFD"/>
<path d="M152.425 270.059C152.425 269.866 152.329 269.769 152.232 269.673C152.136 269.576 151.943 269.48 151.846 269.48C148.758 269.48 145.767 269.48 142.679 269.48C142.486 269.48 142.389 269.576 142.293 269.673C142.196 269.769 142.1 269.962 142.1 270.059C142.1 273.147 142.1 276.138 142.1 279.226C142.1 279.419 142.196 279.516 142.293 279.612C142.389 279.709 142.582 279.805 142.679 279.805C145.767 279.805 148.758 279.805 151.846 279.805C152.039 279.805 152.136 279.709 152.232 279.612C152.329 279.516 152.425 279.323 152.425 279.226C152.522 276.235 152.522 273.147 152.425 270.059Z" fill="#DAF8FF"/>
<path d="M75.9967 162.944C74.2597 159.856 61.6182 136.6 61.0392 135.442V135.345C60.9427 135.249 60.9427 135.249 60.8462 135.152C60.7497 135.056 60.6532 135.056 60.5567 135.056C60.4602 135.056 60.3637 135.056 60.2672 135.152C60.1707 135.249 60.0742 135.249 60.0742 135.345C52.3542 147.601 45.0202 159.953 43.3797 162.848C43.2832 162.944 43.2832 163.041 43.2832 163.137C43.2832 163.234 43.2832 163.33 43.3797 163.427C43.4762 163.523 43.4762 163.62 43.5727 163.62C43.6692 163.716 43.7657 163.716 43.8622 163.716C54.3807 163.716 64.9957 163.716 75.5142 163.62C75.6107 163.62 75.7072 163.62 75.8037 163.523C75.9002 163.427 75.9967 163.427 75.9967 163.33C76.0932 163.234 76.0932 163.137 76.0932 163.041C76.0932 163.137 76.0932 163.041 75.9967 162.944Z" fill="#59DFFD"/>
<path d="M109.001 262.821C106.492 261.856 103.693 261.663 101.088 262.339C98.4823 263.014 96.1663 264.462 94.4293 266.585C92.6923 268.611 91.7273 271.217 91.5343 273.919C91.3413 276.621 92.0168 279.226 93.4643 281.542C94.9118 283.762 97.0348 285.595 99.5438 286.56C102.053 287.525 104.755 287.718 107.36 287.043C109.966 286.367 112.282 284.92 114.019 282.893C115.756 280.867 116.721 278.261 116.914 275.559C117.107 272.857 116.431 270.252 114.984 267.936C113.633 265.62 111.51 263.883 109.001 262.821Z" fill="#DAF8FF"/>
<path d="M69.3383 228.95C69.6278 228.95 69.9173 228.853 70.1103 228.66C70.3033 228.467 70.3998 228.178 70.3998 227.888C70.3998 227.406 70.9788 228.66 60.6533 209.843C60.6533 209.843 60.6533 209.843 60.6533 209.746C60.5568 209.65 60.3638 209.457 60.2673 209.457C60.0743 209.36 59.9778 209.36 59.7848 209.36C59.5918 209.36 59.3988 209.457 59.3023 209.553C59.1093 209.65 59.0128 209.746 58.9163 209.939C54.0913 217.563 49.3628 225.572 48.2048 227.599C48.1083 227.888 48.0118 228.178 48.1083 228.371C48.2048 228.564 48.3978 228.853 48.5908 229.046C48.7838 229.143 48.9768 229.239 49.0733 229.239C53.4158 229.046 69.1453 228.95 69.3383 228.95ZM59.6883 212.448L67.5048 226.827H50.9068C53.8018 222.002 56.6968 217.177 59.6883 212.448Z" fill="#59DFFD"/>
<path d="M155.031 224.415C152.811 220.362 147.793 211.097 147.504 210.518V210.422C147.407 210.326 147.311 210.229 147.118 210.229C146.925 210.229 146.828 210.229 146.732 210.325C146.635 210.422 146.539 210.422 146.539 210.518C143.644 215.054 140.845 219.686 138.143 224.415C138.047 224.511 138.047 224.608 138.047 224.704C138.047 224.801 138.047 224.897 138.143 224.993C138.24 225.09 138.24 225.187 138.336 225.187C138.433 225.283 138.529 225.283 138.626 225.283C143.258 225.283 154.645 225.283 154.645 225.283C154.741 225.283 154.838 225.283 154.934 225.187C155.031 225.09 155.127 225.09 155.127 224.993C155.224 224.897 155.224 224.801 155.224 224.704C155.127 224.608 155.127 224.511 155.031 224.415Z" fill="#DAF8FF"/>
<path d="M158.408 114.791C147.117 94.4291 148.565 96.4556 148.179 95.9731C148.082 95.8766 148.082 95.8766 147.986 95.7801C147.889 95.7801 147.793 95.6836 147.696 95.6836C147.6 95.6836 147.503 95.6836 147.407 95.7801C147.31 95.8766 147.214 95.8766 147.214 95.9731C142.003 104.272 136.985 112.764 135.827 114.791C135.73 114.887 135.73 114.984 135.73 115.08C135.73 115.177 135.73 115.273 135.827 115.37C135.923 115.466 135.923 115.563 136.02 115.563C136.116 115.659 136.213 115.659 136.309 115.659C136.309 115.659 157.057 115.659 157.925 115.659C158.022 115.659 158.118 115.659 158.215 115.563C158.311 115.466 158.408 115.466 158.408 115.37C158.408 115.273 158.504 115.177 158.504 115.08C158.504 114.984 158.504 114.887 158.408 114.791Z" fill="#DAF8FF"/>
<path d="M61.8125 120.001V122.124H134.284L131.968 120.001H61.8125Z" fill="#DAF8FF"/>
<path d="M163.813 120.001H135.152L137.468 122.124H163.813C164.102 122.124 164.295 122.028 164.488 121.738C164.681 121.545 164.778 121.256 164.778 120.966C164.778 120.677 164.681 120.484 164.488 120.194C164.295 120.098 164.102 120.001 163.813 120.001Z" fill="#DAF8FF"/>
<path d="M34.1162 120.001C33.8267 120.001 33.5372 120.098 33.3442 120.291C33.1512 120.484 33.0547 120.773 33.0547 121.063C33.0547 121.352 33.1512 121.642 33.3442 121.835C33.5372 122.028 33.8267 122.124 34.1162 122.124H59.7852V120.001H34.1162Z" fill="#DAF8FF"/>
<path d="M61.1367 174.717V176.84H139.012L141.328 174.717H61.1367Z" fill="#DAF8FF"/>
<path d="M163.813 174.717H144.513L142.197 176.84H163.813C164.103 176.84 164.296 176.647 164.489 176.454C164.682 176.261 164.778 175.971 164.778 175.778C164.778 175.489 164.682 175.296 164.489 175.103C164.296 174.91 164.103 174.717 163.813 174.717Z" fill="#DAF8FF"/>
<path d="M34.1173 174.717C33.8278 174.717 33.6348 174.91 33.4418 175.103C33.2488 175.296 33.1523 175.585 33.1523 175.778C33.1523 176.068 33.2488 176.261 33.4418 176.454C33.6348 176.647 33.8278 176.743 34.1173 176.84H59.1108V174.717H34.1173Z" fill="#DAF8FF"/>
<path d="M163.812 237.346C164.102 237.346 164.391 237.249 164.584 237.056C164.777 236.863 164.874 236.574 164.874 236.284C164.874 235.995 164.777 235.705 164.584 235.512C164.391 235.319 164.102 235.223 163.812 235.223H77.9273L75.6113 237.346C82.5593 237.346 151.75 237.539 163.812 237.346Z" fill="#DAF8FF"/>
<path d="M74.7427 235.223H34.1162C33.8267 235.223 33.5372 235.319 33.3442 235.512C33.1512 235.705 33.0547 235.995 33.0547 236.284C33.0547 236.574 33.1512 236.863 33.3442 237.056C33.5372 237.249 33.8267 237.346 34.1162 237.346H72.4267L74.7427 235.223Z" fill="#DAF8FF"/>
<path d="M163.813 302.097H34.1173C33.8278 302.097 33.6348 302.29 33.4418 302.483C33.2488 302.676 33.1523 302.966 33.1523 303.159C33.1523 303.448 33.2488 303.641 33.4418 303.834C33.6348 304.027 33.8278 304.124 34.1173 304.22H163.813C164.103 304.22 164.296 304.027 164.489 303.834C164.682 303.641 164.778 303.352 164.778 303.159C164.778 302.869 164.682 302.676 164.489 302.483C164.296 302.29 164.103 302.097 163.813 302.097Z" fill="#DAF8FF"/>
<path d="M72.3311 264.751C72.3311 267.26 69.4361 268.708 67.0236 269.48C63.2601 270.541 59.3036 270.734 55.4436 270.252C52.2591 269.769 46.9516 268.322 46.6621 265.137V289.455C46.6621 289.648 46.7586 289.745 46.8551 289.841C46.9516 289.938 47.1446 290.034 47.2411 290.034H71.7521C71.9451 290.034 72.0416 289.938 72.1381 289.841C72.2346 289.745 72.3311 289.552 72.3311 289.455C72.4276 274.305 72.4276 268.515 72.4276 266.295C72.4276 264.751 72.4276 264.848 72.3311 264.751Z" fill="#DAF8FF"/>
<path d="M53.6091 46.1791C52.5476 45.2141 51.1001 46.7581 52.0651 47.7231C64.4171 58.9171 142.389 129.555 146.442 133.222C147.504 134.187 148.951 132.643 147.986 131.678L53.6091 46.1791Z" fill="black"/>
<path d="M149.047 170.664C150.109 169.699 148.565 168.251 147.503 169.12L52.1615 255.777C51.1 256.742 52.644 258.189 53.7055 257.321L149.047 170.664Z" fill="black"/>
<path d="M70.1104 263.111C68.7594 262.146 67.1189 261.471 65.4784 261.181C61.1359 260.12 56.5039 260.313 52.1614 261.567C50.3279 262.146 46.2749 263.98 48.6874 266.392C49.9419 267.454 51.3894 268.129 52.9334 268.515C57.5654 269.673 62.3904 269.577 67.0224 268.322C68.6629 268.033 70.1104 267.068 71.0754 265.717C71.2684 265.234 71.2684 264.752 71.0754 264.269C70.8824 263.787 70.4964 263.401 70.1104 263.111Z" fill="#DAF8FF"/>
<path d="M71.0761 100.315C70.5936 98.5784 69.3391 95.6834 67.2161 95.8764H51.1006C50.8111 95.8764 50.5216 95.9729 50.3286 96.1659C50.1356 96.3589 50.0391 96.6484 50.0391 96.9379V113.15C50.0391 113.439 50.1356 113.729 50.3286 113.922C50.5216 114.115 50.8111 114.211 51.1006 114.211H59.7856V112.088H52.1621V97.9029H64.4176C63.4526 100.122 62.9701 102.535 62.9701 104.947C62.9701 107.36 63.4526 109.772 64.4176 111.992H61.9086V114.115C67.1196 114.115 67.7951 114.211 68.7601 113.729C69.7251 112.957 70.4971 111.895 70.7866 110.737C71.8481 107.36 71.9446 103.693 71.0761 100.315ZM69.0496 108.711C68.4706 111.606 67.2161 112.088 67.4091 111.992C67.4091 111.992 67.3126 112.088 67.2161 112.088H67.1196C66.9266 112.088 66.6371 111.799 66.4441 111.606C65.6721 110.351 65.1896 109 64.9966 107.456C64.7071 105.43 64.8036 103.403 65.1896 101.473C65.7686 98.8679 66.5406 98.2889 66.8301 98.0959C66.9266 97.9994 67.0231 97.9994 67.1196 97.9994C67.2161 97.9994 67.3126 98.0959 67.4091 98.0959C68.0846 98.6749 68.4706 99.5434 68.6636 100.412C69.6286 103.114 69.7251 105.912 69.0496 108.711Z" fill="#59DFFD"/>
<path d="M240.627 288.201C240.337 288.105 240.048 288.201 239.855 288.298C239.565 288.394 239.469 288.684 239.372 288.973L238.407 294.763C238.311 295.053 238.407 295.342 238.504 295.535C238.6 295.825 238.89 295.921 239.179 296.018C239.276 296.018 239.469 296.114 239.565 296.018C239.662 296.018 239.855 295.921 239.951 295.921C240.048 295.825 240.144 295.728 240.241 295.632C240.337 295.535 240.434 295.439 240.434 295.246C240.723 293.316 241.013 291.386 241.302 289.456C241.399 289.166 241.302 288.877 241.206 288.684C241.206 288.491 240.916 288.298 240.627 288.201Z" fill="black"/>
<path d="M305.956 291.868C305.667 291.964 305.57 292.254 305.474 292.543C305.377 292.833 305.474 293.122 305.57 293.315L309.141 300.842C309.237 301.035 309.43 301.132 309.623 301.228C309.816 301.325 310.009 301.325 310.202 301.325C310.395 301.325 310.588 301.228 310.781 301.035C310.974 300.939 311.071 300.746 311.071 300.553C311.167 300.263 311.071 299.974 310.974 299.781L307.404 292.254C307.307 291.964 307.018 291.868 306.728 291.771C306.535 291.675 306.246 291.675 305.956 291.868Z" fill="black"/>
<path d="M46.3711 316.09V338.767C46.3711 339.057 46.4676 339.346 46.6606 339.539C46.8536 339.732 47.1431 339.829 47.4326 339.829C47.7221 339.829 48.0116 339.732 48.2046 339.539C48.3976 339.346 48.4941 339.057 48.4941 338.864V316.186C48.4941 315.897 48.3976 315.607 48.2046 315.414C48.0116 315.221 47.7221 315.125 47.4326 315.125C47.1431 315.125 46.8536 315.221 46.6606 315.414C46.4676 315.607 46.3711 315.8 46.3711 316.09Z" fill="#DAF8FF"/>
<path d="M153.68 316.09V338.767C153.68 339.057 153.776 339.346 153.969 339.539C154.162 339.732 154.452 339.829 154.741 339.829C155.031 339.829 155.32 339.732 155.513 339.539C155.706 339.346 155.803 339.057 155.803 338.864V316.186C155.803 315.897 155.706 315.607 155.513 315.414C155.32 315.221 155.031 315.125 154.741 315.125C154.452 315.125 154.162 315.221 153.969 315.414C153.776 315.607 153.68 315.8 153.68 316.09Z" fill="#DAF8FF"/>
<path d="M61.8125 111.027C61.8125 110.737 61.716 110.448 61.523 110.255C61.33 110.062 61.0405 109.965 60.751 109.965C60.4615 109.965 60.172 110.062 59.979 110.255C59.786 110.448 59.6895 110.737 59.6895 111.027V129.362C59.6895 129.651 59.786 129.941 59.979 130.134C60.172 130.327 60.4615 130.423 60.751 130.423C61.0405 130.423 61.33 130.327 61.523 130.134C61.716 129.941 61.8125 129.651 61.8125 129.362C62.0055 122.51 62.0055 117.685 61.8125 111.027Z" fill="black"/>
<path d="M61.1367 172.498C61.1367 172.208 61.0402 171.919 60.8472 171.726C60.6542 171.533 60.3647 171.436 60.0752 171.436C59.7857 171.436 59.4962 171.533 59.3032 171.726C59.1102 171.919 59.0137 172.208 59.0137 172.498V192.184C59.0137 192.473 59.1102 192.763 59.3032 192.956C59.4962 193.149 59.7857 193.245 60.0752 193.245C60.3647 193.245 60.6542 193.149 60.8472 192.956C61.0402 192.763 61.1367 192.473 61.1367 192.184V172.498Z" fill="black"/>
<path d="M36.4329 150.109H17.7119C17.4224 150.109 17.1329 150.206 16.9399 150.399C16.7469 150.592 16.6504 150.881 16.6504 151.171C16.6504 151.46 16.7469 151.75 16.9399 151.943C17.1329 152.136 17.4224 152.232 17.7119 152.232H36.5294C36.8189 152.232 37.1084 152.136 37.3014 151.943C37.4944 151.75 37.5909 151.46 37.5909 151.171C37.5909 150.881 37.4944 150.592 37.3014 150.399C37.0119 150.206 36.7224 150.109 36.4329 150.109Z" fill="black"/>
<path d="M100.123 151.847C100.412 151.847 100.702 151.75 100.895 151.557C101.088 151.364 101.184 151.075 101.184 150.785C101.184 150.496 101.088 150.206 100.895 150.013C100.702 149.82 100.412 149.724 100.123 149.724H81.1123C80.8228 149.724 80.5333 149.82 80.3403 150.013C80.1473 150.206 80.0508 150.496 80.0508 150.785C80.0508 151.075 80.1473 151.364 80.3403 151.557C80.5333 151.75 80.8228 151.847 81.1123 151.847H100.123Z" fill="black"/>
<path d="M133.222 150.109C112.474 149.723 114.018 150.013 113.632 150.302C113.439 150.399 113.343 150.592 113.246 150.785C113.15 150.978 113.15 151.171 113.246 151.46C113.343 151.653 113.439 151.846 113.632 151.943C113.825 152.039 114.018 152.136 114.211 152.136H133.222C133.511 152.136 133.704 151.943 133.897 151.75C134.09 151.557 134.187 151.267 134.187 150.978C134.187 150.688 134.09 150.495 133.897 150.302C133.801 150.206 133.511 150.109 133.222 150.109Z" fill="black"/>
<path d="M139.108 150.109C138.819 150.109 138.529 150.206 138.336 150.399C138.143 150.592 138.047 150.881 138.047 151.171C138.047 151.46 138.143 151.75 138.336 151.943C138.529 152.136 138.819 152.232 139.108 152.232H158.119C158.408 152.232 158.698 152.136 158.891 151.943C159.084 151.75 159.18 151.46 159.18 151.171C159.18 150.881 159.084 150.592 158.891 150.399C158.698 150.206 158.408 150.109 158.119 150.109H139.108Z" fill="black"/>
<path d="M198.746 150.11H190.543V139.881C190.543 139.591 190.35 139.398 190.157 139.205C189.964 139.012 189.675 138.916 189.482 138.916C189.192 138.916 188.999 139.012 188.806 139.205C188.613 139.398 188.517 139.591 188.42 139.881V150.11H179.735C179.446 150.11 179.156 150.206 178.963 150.399C178.77 150.592 178.674 150.882 178.674 151.171C178.674 151.461 178.77 151.75 178.963 151.943C179.156 152.136 179.446 152.233 179.735 152.233H188.324V161.497C188.324 161.786 188.517 161.979 188.71 162.172C188.903 162.365 189.192 162.462 189.385 162.462C189.675 162.462 189.868 162.365 190.061 162.172C190.254 161.979 190.35 161.786 190.447 161.497V152.233H198.649C198.842 152.233 199.035 152.233 199.132 152.136C199.325 152.04 199.421 151.943 199.518 151.75C199.614 151.557 199.711 151.461 199.711 151.268C199.711 151.075 199.711 150.882 199.614 150.785C199.518 150.592 199.421 150.399 199.228 150.303C199.132 150.11 198.939 150.013 198.746 150.11Z" fill="black"/>
<path d="M209.167 197.008C232.906 190.35 245.934 150.688 230.783 120.098C227.309 112.571 221.519 106.395 214.282 102.342C211.001 100.605 207.334 99.6398 203.57 99.4468C199.807 99.2538 196.043 99.8328 192.569 101.184C176.357 107.649 168.058 127.528 167.19 144.898C166.225 162.944 172.497 183.788 187.648 193.631C190.832 195.657 194.306 197.008 198.07 197.587C201.737 198.166 205.5 197.973 209.167 197.008ZM173.945 124.247C180.121 109.483 193.245 98.0958 208.685 102.438C230.88 108.807 243.232 146.732 228.95 175.971C220.265 193.727 205.307 198.938 193.148 194.017C177.998 187.937 170.181 168.637 169.313 152.329C168.734 142.775 170.278 133.125 173.945 124.247Z" fill="black"/>
<path d="M69.146 228.66C69.4355 228.66 69.725 228.564 69.918 228.371C70.111 228.178 70.2075 227.888 70.2075 227.599C70.2075 227.116 70.7865 228.371 60.461 209.553C60.461 209.553 60.461 209.553 60.461 209.457C60.3645 209.36 60.1715 209.167 60.075 209.167C59.882 209.071 59.7855 209.071 59.5925 209.071C59.3995 209.071 59.2065 209.167 59.11 209.264C58.917 209.36 58.8205 209.457 58.724 209.65C53.899 217.273 49.1705 225.283 48.0125 227.309C47.916 227.502 47.916 227.695 47.916 227.888C47.916 228.081 48.0125 228.274 48.0125 228.467C48.109 228.66 48.2055 228.757 48.3985 228.853C48.5915 228.95 48.7845 229.046 48.9775 229.046C53.2235 228.757 68.953 228.66 69.146 228.66ZM59.496 212.159L67.3125 226.634H50.7145C52.934 222.774 58.8205 213.22 59.496 212.159Z" fill="black"/>
<path d="M261.761 131.389H273.437C273.727 131.389 274.016 131.292 274.209 131.099C274.402 130.906 274.499 130.617 274.499 130.327C274.499 130.038 274.402 129.748 274.209 129.555C274.016 129.362 273.727 129.266 273.437 129.266H261.761C261.471 129.266 261.182 129.362 260.989 129.555C260.796 129.748 260.699 130.038 260.699 130.327C260.699 130.617 260.796 130.906 260.989 131.099C261.182 131.292 261.471 131.389 261.761 131.389Z" fill="black"/>
<path d="M289.165 200.482C289.455 200.579 289.744 200.675 289.937 200.579C290.227 200.482 290.42 200.289 290.613 200.096C292.832 197.105 294.859 194.017 296.596 190.736C297.271 189.578 295.438 188.42 294.762 189.674C292.929 192.955 290.999 196.043 288.779 199.035C288.683 199.324 288.586 199.614 288.683 199.807C288.683 200.096 288.876 200.386 289.165 200.482Z" fill="black"/>
<path d="M323.905 235.03C324.195 235.126 324.484 235.223 324.677 235.126C324.967 235.03 325.16 234.837 325.353 234.644C330.853 226.924 335.292 218.528 338.573 209.554C339.056 208.299 337.029 207.72 336.547 208.975C333.266 217.66 328.923 225.959 323.519 233.486C323.423 233.775 323.326 234.065 323.423 234.258C323.423 234.644 323.616 234.837 323.905 235.03Z" fill="black"/>
<path d="M265.427 269.384C268.419 268.998 271.314 268.226 274.112 267.068C274.402 266.971 274.595 266.778 274.788 266.585C274.884 266.296 274.981 266.006 274.884 265.813C274.788 265.62 274.691 265.427 274.595 265.331C274.402 265.234 274.209 265.138 274.016 265.041C273.919 265.041 273.726 265.041 273.63 265.041C270.831 266.199 267.936 266.971 264.945 267.357C264.752 267.454 264.559 267.55 264.462 267.647C264.366 267.84 264.269 268.033 264.173 268.226C264.076 268.419 264.173 268.612 264.269 268.805C264.366 268.998 264.559 269.191 264.655 269.287C264.848 269.384 265.138 269.48 265.427 269.384Z" fill="black"/>
<path d="M163.619 301.808H33.8263C33.5368 301.808 33.3438 302.001 33.1508 302.194C32.9578 302.387 32.8613 302.676 32.8613 302.869C32.8613 303.159 32.9578 303.352 33.1508 303.545C33.3438 303.738 33.5368 303.834 33.8263 303.931H163.619C163.908 303.931 164.101 303.738 164.294 303.545C164.487 303.352 164.584 303.062 164.584 302.869C164.584 302.58 164.487 302.387 164.294 302.194C164.101 302.001 163.812 301.904 163.619 301.808Z" fill="black"/>
<path d="M240.433 288.008C240.144 287.912 239.854 288.008 239.661 288.105C239.372 288.201 239.275 288.491 239.179 288.78L238.214 294.57C238.117 294.86 238.214 295.149 238.31 295.342C238.407 295.632 238.696 295.728 238.986 295.825C239.082 295.825 239.275 295.921 239.372 295.825C239.468 295.825 239.661 295.728 239.758 295.728C239.854 295.632 239.951 295.535 240.047 295.439C240.144 295.342 240.24 295.246 240.24 295.053C240.53 293.123 240.819 291.193 241.109 289.263C241.205 288.973 241.109 288.684 241.012 288.491C240.916 288.201 240.723 288.008 240.433 288.008Z" fill="black"/>
<path d="M307.212 291.964C307.116 291.675 306.826 291.578 306.537 291.482C306.247 291.385 305.958 291.482 305.765 291.578C305.475 291.675 305.379 291.964 305.282 292.254C305.186 292.543 305.282 292.833 305.379 293.026L308.949 300.553C309.046 300.746 309.239 300.842 309.432 300.939C309.625 301.035 309.818 301.035 310.011 301.035C310.204 301.035 310.397 300.939 310.59 300.746C310.783 300.649 310.879 300.456 310.879 300.263C310.976 299.974 310.879 299.684 310.783 299.491C309.528 297.079 308.37 294.473 307.212 291.964Z" fill="black"/>
<path d="M197.299 227.792C196.237 226.924 194.79 228.371 195.755 229.336L198.36 231.652C199.422 232.521 200.869 231.073 199.904 230.108L197.299 227.792Z" fill="black"/>
<path d="M193.631 239.855C192.57 238.986 191.026 240.434 192.087 241.399L194.789 243.618C195.851 244.487 197.395 243.039 196.333 242.074L193.631 239.855Z" fill="black"/>
<path d="M46.1797 315.896V338.574C46.1797 338.863 46.2762 339.153 46.4692 339.346C46.6622 339.539 46.9517 339.635 47.2412 339.635C47.5307 339.635 47.8202 339.539 48.0132 339.346C48.2062 339.153 48.3027 338.863 48.3027 338.574V315.896C48.3027 315.607 48.2062 315.317 48.0132 315.124C47.8202 314.931 47.5307 314.835 47.2412 314.835C46.9517 314.835 46.6622 314.931 46.4692 315.124C46.2762 315.317 46.1797 315.607 46.1797 315.896Z" fill="black"/>
<path d="M153.486 315.897V338.574C153.486 338.864 153.583 339.153 153.776 339.346C153.969 339.539 154.258 339.636 154.548 339.636C154.837 339.636 155.127 339.539 155.32 339.346C155.513 339.153 155.609 338.864 155.609 338.671V315.993C155.609 315.704 155.513 315.414 155.32 315.221C155.127 315.028 154.837 314.932 154.548 314.932C154.258 314.932 153.969 315.028 153.776 315.221C153.583 315.318 153.486 315.607 153.486 315.897Z" fill="black"/>
<path d="M36.2403 149.82H17.4228C17.1333 149.82 16.8438 149.916 16.6508 150.109C16.4578 150.302 16.3613 150.592 16.3613 150.881C16.3613 151.171 16.4578 151.46 16.6508 151.653C16.8438 151.846 17.1333 151.943 17.4228 151.943H36.2403C36.5298 151.943 36.8193 151.846 37.0123 151.653C37.2053 151.46 37.3018 151.171 37.3018 150.881C37.3018 150.592 37.2053 150.302 37.0123 150.109C36.7228 149.916 36.5298 149.82 36.2403 149.82Z" fill="black"/>
<path d="M133.03 149.82H115.756C114.695 147.697 113.054 145.96 111.028 144.705C109.001 143.451 106.685 142.775 104.273 142.775C101.86 142.775 99.5442 143.354 97.5177 144.512C95.4912 145.67 93.7542 147.407 92.5962 149.53H80.8232C80.5337 149.53 80.2442 149.627 80.0512 149.82C79.8582 150.013 79.7617 150.302 79.7617 150.592C79.7617 150.881 79.8582 151.171 80.0512 151.364C80.2442 151.557 80.5337 151.653 80.8232 151.653H91.5347C90.8592 153.583 90.6662 155.706 90.9557 157.829C91.2452 159.856 92.0172 161.882 93.1752 163.619C94.3332 165.356 95.9737 166.707 97.8072 167.672C99.6407 168.637 101.667 169.216 103.79 169.216C105.913 169.216 107.94 168.734 109.87 167.865C111.703 166.9 113.344 165.549 114.598 163.909C115.853 162.268 116.625 160.242 117.011 158.215C117.397 156.189 117.204 154.066 116.528 152.039H132.933C133.03 152.039 133.223 152.039 133.319 151.943C133.416 151.846 133.609 151.846 133.705 151.75C133.802 151.653 133.898 151.557 133.995 151.364C134.091 151.267 134.091 151.074 134.091 150.978C134.091 150.881 134.091 150.688 133.995 150.592C133.898 150.495 133.898 150.302 133.705 150.206C133.609 150.109 133.512 150.013 133.319 150.013C133.319 149.82 133.126 149.82 133.03 149.82ZM113.344 161.882C111.896 164.198 109.58 165.935 106.878 166.611C104.176 167.286 101.378 166.997 98.8687 165.742C96.4562 164.488 94.5262 162.268 93.5612 159.663C92.5962 157.057 92.6927 154.162 93.8507 151.653H99.8337C100.123 151.653 100.413 151.557 100.606 151.364C100.799 151.171 100.895 150.881 100.895 150.592C100.895 150.302 100.799 150.013 100.606 149.82C100.413 149.627 100.123 149.53 99.8337 149.53H95.0087C96.0702 148.083 97.4212 146.828 99.0617 146.056C100.702 145.284 102.439 144.898 104.273 144.898C106.106 144.995 107.843 145.477 109.387 146.346C110.931 147.214 112.282 148.565 113.247 150.109C113.054 150.206 112.958 150.399 112.861 150.592C112.765 150.785 112.765 150.978 112.861 151.267C112.958 151.46 113.054 151.653 113.247 151.75C113.44 151.846 113.633 151.943 113.826 151.943H114.212C114.791 153.583 115.081 155.32 114.888 157.057C114.888 158.794 114.309 160.435 113.344 161.882Z" fill="black"/>
<path d="M138.915 149.82C138.626 149.82 138.336 149.916 138.143 150.109C137.95 150.302 137.854 150.592 137.854 150.881C137.854 151.171 137.95 151.46 138.143 151.653C138.336 151.846 138.626 151.943 138.915 151.943H157.926C158.215 151.943 158.505 151.846 158.698 151.653C158.891 151.46 158.987 151.171 158.987 150.881C158.987 150.592 158.891 150.302 158.698 150.109C158.505 149.916 158.215 149.82 157.926 149.82H138.915Z" fill="black"/>
<path d="M179.446 151.943H188.035V161.207C188.035 161.497 188.228 161.69 188.421 161.883C188.614 162.076 188.903 162.172 189.096 162.172C189.386 162.172 189.579 162.076 189.772 161.883C189.965 161.69 190.061 161.497 190.158 161.207V151.943H198.36C198.65 151.943 198.843 151.847 199.036 151.557C199.229 151.364 199.325 151.075 199.325 150.785C199.325 150.496 199.229 150.303 199.036 150.013C198.843 149.82 198.553 149.724 198.36 149.627H190.158V139.398C190.158 139.109 189.965 138.916 189.772 138.723C189.579 138.53 189.289 138.433 189.096 138.433C188.807 138.433 188.614 138.53 188.421 138.723C188.228 138.916 188.131 139.109 188.035 139.398V149.82H179.446C179.157 149.82 178.867 149.917 178.674 150.11C178.481 150.303 178.385 150.592 178.385 150.882C178.385 151.171 178.481 151.461 178.674 151.654C178.964 151.847 179.253 151.943 179.446 151.943Z" fill="black"/>
<path d="M163.62 119.712H134.959L116.431 102.921C116.431 99.7367 116.431 91.2447 116.431 90.5692C116.431 89.6042 116.142 89.2182 114.984 89.2182C114.791 89.2182 101.57 89.2182 101.377 89.2182L53.4166 45.9862C52.3551 45.0212 50.9076 46.5652 51.8726 47.5302L98.0961 89.4112H92.7886C92.4991 89.4112 92.2096 89.5077 92.0166 89.7007C91.8236 89.8937 91.7271 90.1832 91.7271 90.4727C91.7271 90.4727 91.7271 111.992 91.7271 112.957C91.7271 113.247 91.8236 113.536 92.0166 113.729C92.2096 113.922 92.4991 114.019 92.7886 114.019C99.3506 114.019 115.273 114.019 115.273 114.019C115.563 114.019 115.852 113.922 116.045 113.729C116.238 113.536 116.335 113.247 116.335 112.957C116.335 110.641 116.335 108.325 116.335 105.913L131.678 119.809H61.6191V113.922C66.8301 113.922 67.5056 114.019 68.4706 113.536C69.4356 112.764 70.2076 111.703 70.4971 110.545C71.6551 107.167 71.7516 103.5 70.7866 100.123C70.3041 98.3857 69.0496 95.4907 66.9266 95.6837H50.8111C50.5216 95.6837 50.2321 95.7802 50.0391 95.9732C49.8461 96.1662 49.7496 96.4557 49.7496 96.7452V112.957C49.7496 113.247 49.8461 113.536 50.0391 113.729C50.2321 113.922 50.5216 114.019 50.8111 114.019H59.4961V119.905H33.8271C33.5376 119.905 33.2481 120.002 33.0551 120.195C32.8621 120.388 32.7656 120.677 32.7656 120.967C32.7656 121.256 32.8621 121.546 33.0551 121.739C33.2481 121.932 33.5376 122.028 33.8271 122.028H59.4961V129.362C59.4961 129.652 59.5926 129.941 59.7856 130.134C59.9786 130.327 60.2681 130.424 60.5576 130.424C60.8471 130.424 61.1366 130.327 61.3296 130.134C61.5226 129.941 61.6191 129.652 61.6191 129.362V121.835H134.091L146.346 132.933C147.408 133.898 148.855 132.354 147.89 131.389L137.275 121.835H163.62C163.909 121.835 164.199 121.739 164.392 121.546C164.585 121.353 164.681 121.063 164.681 120.774C164.681 120.484 164.585 120.195 164.392 120.002C164.102 119.905 163.813 119.712 163.62 119.712ZM114.212 91.4377V100.991C110.931 97.9997 107.36 94.8152 103.693 91.4377H114.212ZM114.212 111.799C78.1206 111.799 106.299 111.799 93.8501 111.799V91.4377H100.412L114.212 103.886V111.799ZM65.5756 99.6402C65.8651 98.7717 66.7336 97.2277 67.3126 97.9032C67.9881 98.4822 68.3741 99.3507 68.5671 100.219C69.3391 102.921 69.4356 105.816 68.7601 108.518C68.1811 111.413 66.9266 111.896 67.1196 111.799C67.1196 111.799 67.0231 111.896 66.9266 111.896H66.8301C65.3826 111.317 64.8036 107.65 64.7071 106.106C64.7071 103.79 64.9001 101.667 65.5756 99.6402ZM60.4611 109.773C60.1716 109.773 59.9786 109.869 59.7856 110.062C59.5926 110.255 59.4961 110.545 59.4961 110.738V111.703H51.8726V97.7102H64.1281C63.1631 99.9297 62.6806 102.342 62.6806 104.755C62.6806 107.167 63.1631 109.58 64.1281 111.799H61.6191V110.834C61.6191 110.738 61.6191 110.545 61.5226 110.448C61.4261 110.352 61.4261 110.159 61.2331 110.159C61.1366 110.062 61.0401 109.966 60.8471 109.966C60.7506 109.773 60.6541 109.773 60.4611 109.773Z" fill="black"/>
<path d="M241.013 180.411C245.548 169.892 247.768 158.505 247.575 147.118C247.382 135.635 244.68 124.441 239.662 114.115C235.416 105.044 228.468 97.5171 219.783 92.5956C215.73 90.4726 211.291 89.2181 206.755 89.0251C202.22 88.8321 197.684 89.5076 193.438 91.2446C173.752 99.1576 163.909 123.476 162.848 144.127C161.883 163.33 167.769 190.254 187.648 203.088C204.439 213.993 228.468 208.685 241.013 180.411ZM237.925 182.051C222.678 213.028 190.64 214.282 174.138 185.332C163.137 166.129 161.883 139.977 170.761 118.844C177.998 101.667 193.921 86.8056 213.221 92.3061C223.932 95.3941 233.1 104.465 239.083 117.782C243.522 127.915 245.645 138.916 245.452 150.013C245.259 161.111 242.653 172.112 237.925 182.051Z" fill="black"/>
<path d="M151.653 268.805C150.012 268.805 143.933 268.805 142.485 268.805C142.196 268.805 141.906 268.901 141.713 269.094C141.52 269.287 141.424 269.577 141.424 269.866C141.424 271.507 141.424 277.586 141.424 279.034C141.424 279.323 141.52 279.613 141.713 279.806C141.906 279.999 142.196 280.095 142.485 280.095C142.485 280.095 149.723 280.095 151.653 280.095C151.942 280.095 152.232 279.999 152.425 279.806C152.618 279.613 152.714 279.323 152.714 279.034C152.714 275.946 152.714 272.954 152.714 269.866C152.714 269.577 152.618 269.287 152.425 269.094C152.232 268.901 151.942 268.805 151.653 268.805ZM150.591 270.928V277.876H143.643V270.928H150.591Z" fill="black"/>
<path d="M61.2339 134.959C61.1374 134.863 61.0409 134.766 60.9444 134.67C60.8479 134.573 60.6549 134.477 60.5584 134.477C60.4619 134.477 60.2689 134.477 60.1724 134.477C60.0759 134.477 59.8829 134.573 59.7864 134.67C58.9179 135.152 42.8024 162.269 42.7059 162.558C42.6094 162.751 42.6094 162.944 42.6094 163.137C42.6094 163.33 42.7059 163.523 42.8024 163.62C42.8989 163.813 42.9954 163.909 43.1884 164.006C43.3814 164.102 43.5744 164.199 43.6709 164.199C43.9604 164.199 74.0684 164.102 75.3229 164.102C75.5159 164.102 75.7089 164.006 75.9019 163.909C76.0949 163.813 76.1914 163.716 76.2879 163.523C76.3844 163.33 76.3844 163.137 76.4809 162.944C76.4809 162.751 76.4809 162.558 76.3844 162.365C70.3049 151.847 62.2954 136.696 61.2339 134.959ZM45.5044 161.883C48.4959 156.768 55.0579 145.671 60.2689 137.565L73.4894 161.883H45.5044Z" fill="black"/>
<path d="M112.86 264.559C110.254 262.243 106.78 261.085 103.306 261.278C99.8323 261.471 96.5513 263.111 94.2353 265.717C91.9193 268.322 90.7613 271.796 90.9543 275.27C91.1473 278.744 92.7878 282.025 95.3933 284.341C96.6478 285.499 98.1918 286.368 99.8323 286.947C101.473 287.526 103.21 287.719 104.947 287.622C106.684 287.526 108.421 287.043 109.965 286.271C111.509 285.499 112.956 284.438 114.114 283.183C115.272 281.929 116.141 280.385 116.72 278.744C117.299 277.104 117.492 275.367 117.395 273.63C117.299 271.893 116.816 270.156 116.044 268.612C115.176 267.068 114.114 265.717 112.86 264.559ZM111.412 282.701C109.579 284.341 107.263 285.306 104.754 285.499C102.245 285.692 99.8323 285.017 97.8058 283.569C96.2618 282.508 95.0073 281.06 94.2353 279.42C93.3668 277.779 92.9808 275.946 93.0773 274.112C93.1738 272.279 93.6563 270.445 94.6213 268.901C95.5863 267.261 96.8408 266.006 98.4813 265.041C100.025 264.076 101.859 263.497 103.692 263.497C105.526 263.401 107.359 263.787 109 264.655C110.64 265.524 112.088 266.682 113.149 268.226C114.211 269.77 114.886 271.507 115.079 273.34C115.272 275.077 115.079 276.911 114.404 278.551C113.728 279.999 112.763 281.543 111.412 282.701Z" fill="black"/>
<path d="M147.697 210.036C147.601 209.843 147.504 209.747 147.311 209.65C147.118 209.554 146.925 209.457 146.732 209.457C146.539 209.457 146.346 209.457 146.153 209.554C145.96 209.65 145.864 209.747 145.767 209.94C142.872 214.572 140.074 219.204 137.275 223.836C137.179 224.125 137.082 224.415 137.179 224.608C137.275 224.897 137.468 225.09 137.661 225.283C137.854 225.38 137.951 225.476 141.618 225.476C144.03 225.476 147.89 225.476 154.163 225.38C154.356 225.38 154.549 225.283 154.742 225.187C154.935 225.09 155.031 224.994 155.128 224.801C155.224 224.608 155.224 224.415 155.321 224.222C155.321 224.029 155.321 223.836 155.224 223.643C153.294 220.458 150.206 214.668 147.697 210.036ZM152.426 223.353H140.17C142.1 220.072 144.32 216.405 146.636 212.738L152.426 223.353Z" fill="black"/>
<path d="M148.372 95.5868C148.276 95.3938 148.179 95.2973 147.986 95.2008C147.793 95.1043 147.6 95.1043 147.407 95.0078C147.214 95.0078 147.021 95.0078 146.828 95.1043C146.635 95.2008 146.539 95.2973 146.442 95.4903C142.582 101.666 138.722 107.939 135.055 114.308C134.959 114.501 134.959 114.694 134.959 114.79C134.959 114.983 135.055 115.176 135.152 115.273C135.248 115.466 135.345 115.562 135.538 115.659C135.731 115.755 135.827 115.852 136.02 115.852C136.02 115.852 157.057 115.852 157.636 115.852C157.829 115.852 158.022 115.755 158.215 115.659C158.408 115.562 158.505 115.466 158.601 115.273C158.698 115.08 158.794 114.887 158.794 114.694C158.794 114.501 158.794 114.308 158.698 114.115C154.162 106.298 149.048 96.7448 148.372 95.5868ZM137.95 113.729C141.038 108.518 144.223 103.307 147.407 98.1923L155.899 113.729H137.95Z" fill="black"/>
<path d="M72.3301 263.304C71.2686 261.664 69.7246 260.506 67.7946 260.023C62.5836 258.383 56.9866 258.286 51.6791 259.734C49.8456 260.216 48.2051 261.085 46.9506 262.436C46.4681 263.015 46.1786 263.69 46.0821 264.462C45.9856 265.138 45.8891 268.322 46.0821 289.166C46.0821 289.456 46.1786 289.745 46.3716 289.938C46.5646 290.131 46.8541 290.228 47.1436 290.228C51.5826 290.228 67.2156 290.228 71.6546 290.228C71.9441 290.228 72.2336 290.131 72.4266 289.938C72.6196 289.745 72.7161 289.456 72.7161 289.166C72.8126 263.594 72.8126 264.173 72.3301 263.304ZM70.4001 264.848C70.2071 265.91 68.5666 266.875 67.1191 267.357C61.7151 269.094 55.8286 268.998 50.4246 266.971C49.2666 266.392 47.6261 265.234 48.3016 264.173C49.6526 261.567 56.3111 260.795 59.3026 260.795C61.5221 260.795 63.7416 261.085 65.8646 261.567C67.3121 261.857 68.7596 262.629 69.9176 263.594C70.1106 263.787 70.2071 263.883 70.3036 264.173C70.4001 264.366 70.4966 264.559 70.4001 264.848ZM48.2051 268.129C53.3196 271.7 65.2856 271.7 70.4966 268.129V288.105H48.2051V268.129Z" fill="black"/>
<path d="M200.29 120.291C190.736 115.08 180.893 120.966 176.068 129.458C167.962 143.644 169.603 166.611 183.788 176.164C192.377 181.954 202.895 178.191 208.492 169.602C212.063 163.909 214.089 157.443 214.475 150.688C214.861 143.933 213.51 137.275 210.519 131.292C208.299 126.563 204.825 122.8 200.29 120.291ZM208.589 165.067C204.729 173.173 196.237 179.445 187.552 175.682C183.402 173.848 179.928 170.567 177.805 166.514C175.103 161.593 173.656 156.092 173.366 150.399C173.077 144.802 174.042 139.205 176.165 133.994C179.06 126.756 185.429 120.484 192.763 120.484C195.658 120.677 198.456 121.545 200.869 123.089C203.281 124.633 205.404 126.66 206.852 129.169C210.133 134.573 211.966 140.652 212.352 146.925C212.545 153.197 211.291 159.47 208.589 165.067Z" fill="black"/>
<path d="M287.525 142.196C289.937 142.196 292.157 141.424 293.99 139.88C295.824 138.433 297.078 136.31 297.561 133.994C298.043 131.678 297.657 129.265 296.596 127.142C295.534 125.019 293.701 123.379 291.481 122.51C289.262 121.545 286.849 121.449 284.63 122.124C282.41 122.8 280.384 124.247 279.033 126.177C277.682 128.107 277.103 130.52 277.296 132.836C277.489 135.152 278.55 137.371 280.191 139.108C281.156 140.073 282.217 140.845 283.472 141.328C284.823 142.003 286.174 142.196 287.525 142.196ZM279.322 129.748C279.805 127.914 280.866 126.37 282.314 125.212C283.761 124.054 285.595 123.475 287.525 123.475C289.358 123.475 291.192 124.054 292.736 125.212C294.183 126.37 295.245 127.914 295.727 129.748H279.322ZM279.033 131.582H296.017C296.113 132.74 295.92 133.898 295.534 134.959C295.148 136.021 294.473 137.082 293.701 137.854C292.929 138.722 291.964 139.398 290.902 139.784C289.841 140.266 288.683 140.459 287.525 140.459C285.788 140.459 284.051 139.88 282.7 138.915C281.252 137.95 280.191 136.503 279.612 134.862C279.129 133.897 278.936 132.74 279.033 131.582Z" fill="black"/>
<path d="M163.62 235.029H77.7346L91.7271 222.291C91.7271 223.835 91.8236 228.274 91.8236 228.274C91.8236 228.564 91.9201 228.853 92.1131 229.046C92.3061 229.239 92.5956 229.336 92.8851 229.336C94.3326 229.336 115.273 229.336 115.37 229.336C115.659 229.336 115.949 229.239 116.142 229.046C116.335 228.853 116.431 228.564 116.431 228.274C116.431 228.274 116.431 206.755 116.431 205.79C116.431 205.5 116.335 205.211 116.142 205.018C115.949 204.825 115.659 204.728 115.37 204.728H111.124L142.1 176.647H163.716C164.006 176.647 164.199 176.454 164.392 176.261C164.585 176.068 164.681 175.778 164.681 175.585C164.681 175.296 164.585 175.103 164.392 174.91C164.199 174.717 164.006 174.62 163.716 174.524H144.416L148.855 170.471C149.917 169.506 148.373 168.058 147.311 168.927L141.135 174.524H60.9436V172.208C60.9436 171.918 60.8471 171.629 60.6541 171.436C60.4611 171.243 60.1716 171.146 59.8821 171.146C59.5926 171.146 59.3031 171.243 59.1101 171.436C58.9171 171.629 58.8206 171.918 58.8206 172.208V174.524H33.8271C33.5376 174.524 33.3446 174.717 33.1516 174.91C32.9586 175.103 32.8621 175.392 32.8621 175.585C32.8621 175.778 32.9586 176.068 33.1516 176.261C33.3446 176.454 33.5376 176.55 33.8271 176.647H58.8206V191.894C58.8206 192.183 58.9171 192.473 59.1101 192.666C59.3031 192.859 59.5926 192.955 59.8821 192.955C60.1716 192.955 60.4611 192.859 60.6541 192.666C60.8471 192.473 60.9436 192.183 60.9436 191.894V176.647H138.819L107.843 204.728H92.7886C92.4991 204.728 92.2096 204.921 92.0166 205.114C91.6306 205.5 91.8236 204.632 91.7271 219.3L74.5501 235.029H33.8271C33.5376 235.029 33.2481 235.126 33.0551 235.319C32.8621 235.512 32.7656 235.801 32.7656 236.091C32.7656 236.38 32.8621 236.67 33.0551 236.863C33.2481 237.056 33.5376 237.152 33.8271 237.152H72.1376L51.8726 255.584C50.8111 256.549 52.3551 257.996 53.4166 257.128L75.3221 237.249H163.62C163.909 237.249 164.199 237.152 164.392 236.959C164.585 236.766 164.681 236.477 164.681 236.187C164.681 235.898 164.585 235.608 164.392 235.415C164.102 235.126 163.813 235.029 163.62 235.029ZM108.615 206.851H114.115V227.116H93.8501V220.265C98.3856 216.115 103.5 211.483 108.615 206.851ZM105.43 206.851C101.57 210.325 97.7101 213.896 93.8501 217.37V206.851H105.43Z" fill="black"/>
<path d="M363.664 309.334C362.699 291.771 357.295 284.727 351.891 257.707C350.54 238.889 351.987 227.406 351.505 209.36C351.408 206.948 351.408 204.921 351.312 202.991C350.25 188.613 343.495 175.296 332.591 165.839C321.686 156.382 307.501 151.653 293.122 152.618C278.744 153.583 265.33 160.242 255.777 171.05C246.223 181.858 241.398 196.043 242.267 210.422C242.556 215.44 242.653 220.168 242.556 225.765C236.573 225.379 230.204 224.607 224.8 222.002C218.914 219.107 216.887 215.729 211.483 214.378V210.615C211.483 210.325 211.387 210.036 211.194 209.843C211.001 209.65 210.711 209.553 210.422 209.553H197.201C196.912 209.553 196.622 209.65 196.429 209.843C196.236 210.036 196.14 210.325 196.14 210.615V215.247C195.175 214.861 194.21 214.668 193.245 214.571C188.902 214.668 186.2 220.844 189.867 224.704C190.157 224.993 190.736 225.669 190.639 226.055C190.543 226.151 190.446 226.151 190.35 226.248C190.06 226.344 189.674 226.441 189.288 226.441C188.034 226.73 186.876 227.599 186.104 228.66C185.332 229.722 184.946 231.073 185.139 232.424C185.332 234.354 186.104 236.284 187.262 237.828C186.104 238.696 185.139 239.854 184.367 241.012C183.884 242.074 183.691 243.328 183.788 244.486C183.981 245.644 184.463 246.802 185.235 247.671C188.227 251.82 191.894 255.391 196.14 258.286V271.989C196.043 273.533 196.526 275.077 197.298 276.331C198.166 277.682 199.324 278.647 200.772 279.323C201.93 279.805 203.281 280.095 204.535 279.902C205.79 279.805 207.044 279.323 208.106 278.647C209.167 277.972 210.036 277.007 210.615 275.849C211.194 274.691 211.483 273.436 211.483 272.182V265.909C219.3 269.094 227.309 271.603 235.512 273.436C230.88 289.455 228.66 292.447 227.406 302.386C226.344 308.466 226.537 314.738 228.081 320.721C233.099 336.74 249.794 343.206 265.041 334.521C279.13 326.415 285.788 308.562 293.605 291.482C296.307 297.175 298.912 302.676 301.711 308.176C307.115 318.791 314.159 330.468 326.125 335.775C329.889 337.512 334.038 338.381 338.188 338.381C354.4 338.381 364.532 324.581 363.664 309.334ZM292.543 155.031C305.667 153.873 318.791 157.733 329.213 165.839C339.635 173.945 346.583 185.718 348.706 198.649C350.636 211.483 348.417 235.319 349.768 256.645H305.378C312.229 250.759 318.405 244.1 323.616 236.766C323.713 236.573 323.809 236.284 323.713 236.091C323.713 235.898 323.616 235.608 323.423 235.512C322.265 234.354 289.069 201.158 289.069 201.158C288.973 201.061 288.876 200.965 288.683 200.965C288.587 200.868 288.394 200.868 288.297 200.868C288.201 200.868 288.008 200.868 287.911 200.965C287.815 201.061 287.622 201.061 287.525 201.254C283.955 205.983 279.902 210.325 275.463 214.089C271.024 218.045 266.006 221.23 260.602 223.642C255.487 225.476 250.18 226.248 244.776 225.862C244.969 216.598 244.679 212.448 244.583 210.904C243.618 197.105 248.057 183.595 257.031 173.076C266.006 162.558 278.744 156.092 292.543 155.031ZM198.359 211.676H209.457C209.457 211.869 209.457 215.054 209.457 215.536C209.457 216.308 209.264 217.177 208.974 217.949C208.492 219.01 207.044 219.107 205.79 218.914C203.281 218.238 200.772 217.273 198.359 216.115V211.676ZM208.781 274.787C208.202 275.945 207.237 276.814 206.079 277.393C204.921 277.972 203.57 278.068 202.412 277.682C201.158 277.393 200.096 276.621 199.324 275.559C198.552 274.498 198.166 273.243 198.263 271.989V259.637C201.833 261.663 205.5 263.497 209.36 265.041V271.313C209.457 272.568 209.264 273.726 208.781 274.787ZM204.053 260.409C197.105 257.224 191.122 252.206 186.683 245.934C186.104 245.065 185.814 244.1 186.007 243.039C186.297 241.688 187.165 240.53 188.323 239.758C188.709 239.468 189.095 238.986 189.385 238.6C189.964 237.442 188.902 236.38 188.323 235.415C186.972 233.196 186.779 230.011 189.192 228.757C189.771 228.564 190.35 228.467 190.929 228.371C191.315 228.274 191.604 228.178 191.894 227.888C192.183 227.695 192.376 227.406 192.569 227.116C193.341 225.765 192.473 224.414 191.604 223.449C190.832 222.774 190.446 221.809 190.35 220.844C190.253 219.879 190.543 218.817 191.218 218.045C191.604 217.563 192.183 217.08 192.762 216.791C194.017 216.694 195.175 216.984 196.333 217.563C200.675 219.203 208.974 224.125 211.097 218.335C211.29 217.756 211.483 217.177 211.483 216.598C216.405 218.142 217.37 220.265 222.677 223.256C228.178 225.958 234.161 227.502 240.337 227.792C246.802 228.467 253.461 228.66 259.637 226.441C265.33 224.318 270.638 221.133 275.27 217.177C280.095 213.124 284.534 208.588 288.394 203.667C289.262 204.535 321.011 236.284 321.3 236.573C312.905 247.96 302.483 257.61 290.42 265.041C286.85 267.26 283.086 268.997 279.033 270.155C252.496 277.489 228.95 271.989 204.053 260.409ZM187.455 237.731C187.551 237.635 187.455 237.538 187.455 237.731ZM288.394 298.14C281.446 313.194 274.208 330.468 258.093 335.293C244.776 339.249 232.617 331.24 229.722 317.826C227.599 307.887 231.073 295.245 232.231 291.578C233.292 288.201 235.512 281.832 237.731 274.015C251.627 276.524 265.909 275.849 279.516 272.182C281.06 271.796 282.7 271.217 284.148 270.541C286.85 276.717 289.648 282.893 292.543 288.973C291.192 291.964 289.745 295.052 288.394 298.14ZM361.155 316.282C360.479 320.625 358.646 324.678 355.847 328.055C353.049 331.433 349.285 333.942 345.136 335.293C333.073 338.863 320.914 332.108 314.159 323.906C307.115 315.221 303.544 307.018 294.57 288.297C291.675 282.121 288.876 275.945 286.078 269.673C291.868 266.681 297.368 263.111 302.483 258.961C305.764 258.961 343.688 258.961 349.961 258.961C352.18 270.155 354.4 277.586 356.33 284.148C359.321 293.991 362.795 306.246 361.155 316.282Z" fill="black"/>
<path d="M383.061 352.373C365.594 339.249 342.627 339.249 325.836 352.47C325.643 352.663 325.547 352.856 325.547 353.049C325.45 353.242 325.547 353.435 325.547 353.724C325.643 353.917 325.74 354.11 325.933 354.207C326.126 354.303 326.319 354.4 326.512 354.4H382.385C382.578 354.4 382.868 354.303 383.061 354.207C383.254 354.11 383.35 353.821 383.447 353.628C383.543 353.435 383.543 353.145 383.447 352.952C383.447 352.663 383.254 352.47 383.061 352.373ZM329.986 352.18C344.847 342.144 363.375 342.144 379.008 352.18H329.986Z" fill="black"/>
<path d="M266.585 352.373C258.383 346.004 248.347 342.53 237.925 342.53C227.599 342.53 217.467 346.004 209.361 352.47C209.168 352.566 209.071 352.759 208.975 353.049C208.878 353.242 208.975 353.435 208.975 353.724C209.071 353.917 209.168 354.11 209.361 354.207C209.554 354.303 209.747 354.4 209.94 354.4H265.91C266.103 354.4 266.392 354.303 266.585 354.207C266.778 354.11 266.875 353.917 266.971 353.628C267.068 353.435 267.068 353.145 266.971 352.952C266.875 352.663 266.778 352.47 266.585 352.373ZM262.436 352.18H213.414C220.651 347.355 229.24 344.75 237.925 344.75C246.706 344.75 255.198 347.355 262.436 352.18Z" fill="black"/>
<path d="M269.653 81.9357C273.242 88.2709 276.086 95.1903 277.957 102.484C278.081 102.809 278.316 103.128 278.765 103.328C279.105 103.533 279.545 103.513 279.974 103.274C280.409 103.144 280.724 102.8 280.929 102.46C281.134 102.12 281.224 101.676 281.204 101.236C277.548 86.0947 269.686 72.9045 258.556 62.945C247.425 52.9854 233.377 46.6811 217.982 44.7321C215.879 44.4965 215.039 47.838 217.142 48.0735C228.216 49.4465 238.624 53.1618 247.693 58.9197C256.542 64.6875 264.057 72.6077 269.653 81.9357Z" fill="#59DFFD"/>
<path d="M282.048 73.5589C286.351 81.0732 289.69 89.1816 291.839 97.7841C291.969 98.2187 292.314 98.5335 292.763 98.7335C293.213 98.9335 293.652 98.9136 294.192 98.6691C294.626 98.5394 295.046 98.08 295.361 97.7355C295.671 97.281 295.756 96.7266 295.626 96.292C291.302 78.5376 282.117 62.8744 268.925 51.1357C255.732 39.3971 239.211 31.993 221.05 29.7282C218.612 29.3976 217.577 33.2984 220.014 33.629C233.081 35.2424 245.387 39.533 256.049 46.4304C266.711 53.3277 275.604 62.5072 282.048 73.5589Z" fill="#59DFFD"/>
<path d="M255.746 88.509C258.377 93.1255 260.363 98.1014 261.7 103.327C261.829 103.761 262.059 103.971 262.398 104.176C262.738 104.381 263.178 104.361 263.612 104.232C264.047 104.102 264.362 103.757 264.567 103.418C264.772 103.078 264.862 102.634 264.732 102.199C262.034 91.1988 256.423 81.541 248.274 74.2C240.13 66.969 229.901 62.3645 218.608 61.0015C218.278 61.0163 217.844 61.146 217.524 61.3807C217.204 61.6153 216.999 61.9549 216.909 62.3995C216.819 62.844 216.834 63.1737 217.068 63.4935C217.193 63.8182 217.533 64.0231 217.867 64.1182C225.839 65.0803 233.336 67.7156 239.803 71.939C246.38 76.1574 251.807 81.749 255.746 88.509Z" fill="#59DFFD"/>
<path d="M243.329 96.4463C245.24 99.7738 246.728 103.451 247.785 107.367C247.91 107.692 248.03 107.907 248.364 108.002C248.589 108.102 248.919 108.087 249.243 107.962C249.568 107.838 249.778 107.608 249.988 107.378C250.198 107.149 250.183 106.819 250.168 106.489C248.263 98.4263 243.975 91.2417 238.008 85.8946C232.041 80.5475 224.509 77.1429 216.208 76.1956C215.878 76.2105 215.663 76.3303 215.448 76.4501C215.239 76.6798 215.029 76.9095 214.934 77.2441C214.839 77.5788 214.849 77.7986 214.968 78.0134C215.088 78.2282 215.318 78.4381 215.543 78.5381C221.412 79.2647 226.895 81.2199 231.66 84.3087C236.424 87.3975 240.353 91.515 243.329 96.4463Z" fill="#59DFFD"/>
</svg>
