<svg width="399" height="399" viewBox="0 0 399 399" fill="none" xmlns="http://www.w3.org/2000/svg">
<path d="M256.739 184.695H143.432C152.65 192.84 157.215 202.148 159.631 210.74C165.538 232.041 155.872 250.478 160.526 261.397C163.748 268.915 175.383 274.016 182.543 279.386C188.271 283.682 192.925 293.438 193.82 297.376L206.529 307.668H243.403C255.486 276.433 267.926 267.393 287.079 259.786C282.694 258.085 275.981 247.524 275.355 238.843C275.355 221.122 276.071 209.487 270.432 199.552C267.837 195.077 260.945 188.723 256.739 184.695Z" fill="white"/>
<path d="M292.093 224.881C292.093 224.702 291.824 118.824 291.735 118.645C291.735 120.614 291.287 122.493 290.303 124.104C287.528 129.116 281.532 131.264 275.983 131.801C273.477 131.98 119.268 131.891 116.225 131.712C112.824 131.533 109.602 130.638 106.559 129.116C103.874 127.684 101.726 125.268 100.742 122.314C100.026 119.987 100.563 111.485 100.205 164.379C100.384 164.29 100.563 164.29 100.652 164.29C100.831 164.29 101.01 164.379 101.1 164.558C101.189 164.648 101.279 164.827 101.279 165.006C101.279 165.185 101.189 165.364 101.1 165.453C100.831 165.811 100.473 166.08 100.115 166.438C100.115 172.345 99.847 226.94 99.847 228.193C99.5785 232.668 101.01 235.979 106.917 238.127C111.482 239.738 116.136 240.633 120.969 240.991C131.082 241.797 131.888 241.707 159.364 241.707C160.707 228.282 161.244 217.632 156.411 204.923C154.442 199.016 151.041 193.646 146.566 189.26H145.044C144.06 189.26 143.165 188.902 142.449 188.276C141.733 187.649 141.285 186.754 141.196 185.77C141.106 184.785 141.285 183.801 141.912 183.085C142.449 182.279 143.254 181.742 144.239 181.474C145.581 181.295 146.924 181.295 148.266 181.384C148.266 181.384 257.277 181.384 257.814 181.384C258.441 181.384 258.978 181.474 259.604 181.653C260.141 181.921 260.678 182.279 261.036 182.727C261.394 183.174 261.752 183.711 261.842 184.338C262.021 184.964 262.021 185.501 261.931 186.128C261.752 186.933 261.394 187.649 260.768 188.186C264.885 191.408 268.286 195.346 270.792 199.911C273.298 204.475 274.909 209.398 275.535 214.589C276.609 223.36 274.64 230.072 276.251 240.544C278.489 240.275 280.726 239.828 282.874 239.201C285.559 238.664 287.976 237.411 289.855 235.532C292.451 232.399 292.093 228.372 292.093 224.881ZM160.17 168.049C160.17 168.228 160.08 168.407 159.991 168.586C159.812 168.765 159.633 168.765 159.454 168.765C159.275 168.765 159.096 168.675 158.917 168.586C158.827 168.496 158.738 168.228 158.738 168.049V162.858C158.738 162.679 158.827 162.5 158.917 162.321C159.096 162.231 159.275 162.142 159.454 162.142C159.633 162.142 159.812 162.231 159.991 162.321C160.08 162.5 160.17 162.679 160.17 162.858V168.049ZM251.46 168.049C251.46 168.228 251.37 168.407 251.281 168.586C251.191 168.765 250.923 168.765 250.744 168.765C250.565 168.765 250.386 168.675 250.207 168.586C250.028 168.496 250.028 168.228 250.028 168.049V162.858C250.028 162.679 250.117 162.5 250.207 162.321C250.296 162.231 250.565 162.142 250.744 162.142C250.923 162.142 251.102 162.231 251.281 162.321C251.46 162.5 251.46 162.679 251.46 162.858V168.049Z" fill="#DAF8FF"/>
<path d="M249.847 113.901C249.758 113.901 249.668 113.901 249.579 113.901C249.489 113.901 249.4 113.811 249.31 113.722C247.162 111.574 245.104 109.515 242.956 107.367C235.796 107.367 228.636 107.457 221.476 107.457C224.161 109.247 226.219 111.753 227.562 114.706H257.902C258.618 114.706 259.245 114.796 259.871 115.064C260.498 115.333 261.035 115.78 261.393 116.317C261.751 116.854 262.019 117.481 262.109 118.197C262.198 118.823 262.109 119.539 261.84 120.166C261.482 120.882 261.035 121.508 260.319 121.956C259.603 122.403 258.797 122.582 257.992 122.582C257.455 122.582 145.222 122.582 145.222 122.582C144.237 122.582 143.342 122.224 142.626 121.598C141.91 120.971 141.463 120.076 141.284 119.092C141.194 118.107 141.373 117.123 142 116.317C142.537 115.512 143.342 114.975 144.327 114.706C145.49 114.527 139.941 114.617 198.116 114.617C199.369 111.753 201.428 109.247 204.023 107.457C198.474 107.457 192.925 107.546 187.287 107.546C187.645 109.247 188.003 111.037 188.182 112.737C188.182 112.827 188.182 112.916 188.092 113.006C188.092 113.095 188.003 113.185 187.913 113.274C187.824 113.364 187.734 113.364 187.645 113.453C187.555 113.453 187.466 113.453 187.376 113.453C187.197 113.453 165.18 107.636 165.091 107.546C161.869 107.546 128.306 107.457 124.995 107.367C118.461 107.188 110.406 107.188 105.484 111.305C98.8606 116.944 100.293 128.668 115.776 130.011C122.668 130.637 119.535 130.011 270.343 130.279C273.833 130.458 277.413 130.1 280.814 129.295C283.947 128.489 286.811 126.61 288.69 123.925C289.496 122.672 290.033 121.329 290.212 119.808C290.391 118.376 290.301 116.854 289.854 115.512C289.227 113.99 288.243 112.558 287.079 111.395C285.916 110.231 284.484 109.336 282.873 108.71C279.919 107.546 276.697 107.009 273.475 107.099C267.837 107.099 262.288 107.009 256.649 107.099C249.758 114.259 250.205 113.811 249.847 113.901Z" fill="white"/>
<path d="M101.904 124.641C103.068 126.521 104.679 128.042 106.648 129.116C109.691 130.638 112.913 131.533 116.314 131.712C123.474 132.159 126.338 131.712 264.168 131.891C268.106 131.891 272.133 132.159 276.161 131.801C284.484 131.085 291.823 126.7 291.913 118.645C291.913 116.944 291.555 115.333 290.749 113.812C287.348 107.815 280.725 105.936 273.923 105.846C269.896 105.846 259.514 105.846 258.261 105.846L256.829 107.278C262.467 107.278 268.016 107.368 273.655 107.278C276.877 107.189 280.009 107.726 283.052 108.889C284.574 109.516 286.006 110.411 287.259 111.574C288.422 112.738 289.407 114.17 290.033 115.691C290.481 117.123 290.66 118.555 290.391 119.987C290.212 121.419 289.675 122.851 288.87 124.104C286.99 126.789 284.216 128.669 280.994 129.474C277.593 130.369 274.013 130.727 270.522 130.548C266.495 130.548 119.625 130.638 115.956 130.28C112.555 130.101 109.333 129.027 106.379 127.237C98.9508 122.314 100.293 109.874 114.792 107.905C119.894 107.189 119.088 107.636 165.27 107.726L159.811 106.294C153.098 106.294 126.069 106.025 119.267 106.115C113.002 106.294 105.484 107.726 101.994 113.543C101.009 115.244 100.383 117.123 100.383 119.092C100.383 120.972 100.92 122.941 101.904 124.641Z" fill="black"/>
<path d="M204.025 107.546C204.83 107.009 205.636 106.472 206.531 106.114C200.713 106.114 187.736 106.204 187.02 106.204L187.288 107.636C192.927 107.636 198.476 107.546 204.025 107.546Z" fill="black"/>
<path d="M250.027 162.947V168.138C250.027 168.317 250.117 168.496 250.206 168.675C250.296 168.764 250.564 168.854 250.743 168.854C250.922 168.854 251.101 168.764 251.28 168.675C251.37 168.496 251.459 168.317 251.459 168.138V162.947C251.459 162.768 251.37 162.589 251.28 162.41C251.191 162.32 250.922 162.231 250.743 162.231C250.564 162.231 250.385 162.32 250.206 162.41C250.117 162.589 250.027 162.768 250.027 162.947Z" fill="black"/>
<path d="M287.527 75.5054C282.783 70.6724 267.837 55.9049 265.152 53.2199C261.751 56.8894 260.677 62.2594 260.14 67.1819C260.05 68.0769 258.618 68.0769 258.708 67.1819C259.245 62.0804 260.408 55.9944 264.167 52.2354C262.198 50.2664 255.128 43.1959 253.606 41.6744C253.517 41.7639 253.338 41.8534 253.248 41.9429C252.532 42.5694 251.548 41.5849 252.264 40.9584C252.353 40.8689 252.532 40.7794 252.622 40.6899C251.906 39.9739 251.19 39.2579 250.384 38.4524C250.295 38.3629 250.026 38.2734 249.847 38.2734C249.668 38.2734 249.489 38.3629 249.31 38.4524C237.854 49.7294 231.947 56.6209 212.794 76.1319C212.705 76.3109 212.615 76.4899 212.615 76.6689C212.615 76.8479 212.705 77.0269 212.794 77.2059C216.195 80.6069 219.596 84.0079 223.087 87.4984C224.25 85.7979 225.503 84.1869 226.846 82.6654C227.472 81.9494 228.457 83.0234 227.83 83.6499C226.488 85.1714 225.235 86.7824 224.071 88.4829C224.071 88.4829 247.162 111.574 249.31 113.722C249.489 113.811 249.668 113.901 249.847 113.901C250.026 113.901 250.205 113.811 250.384 113.722L276.339 87.6774C276.16 87.5879 275.981 87.4984 275.802 87.4984C274.997 87.1404 275.713 85.8874 276.518 86.2454C276.966 86.4244 277.234 86.5139 277.413 86.6034C277.413 86.6034 284.752 79.1749 287.527 76.4899C287.616 76.3109 287.706 76.1319 287.706 75.9529C287.706 75.7739 287.616 75.5949 287.527 75.5054ZM233.916 89.0199C235.975 85.3504 238.302 81.8599 241.076 78.7274C241.703 78.0114 242.687 79.0854 242.061 79.7119C239.376 82.7549 237.049 86.1559 235.08 89.7359C234.632 90.5414 233.469 89.8254 233.916 89.0199Z" fill="#59DFFD"/>
<path d="M344.181 114.259C342.749 112.648 334.694 104.682 291.465 61.0958C294.598 51.8773 287.438 37.6468 276.429 34.6933C272.223 33.6193 267.748 33.7088 263.541 34.7828C259.335 35.8568 255.397 38.0048 252.175 40.9583C251.459 41.5848 252.533 42.5693 253.159 41.9428C256.023 39.3473 259.424 37.4678 263.094 36.3938C266.763 35.3198 270.701 35.1408 274.46 35.7673C284.842 37.5573 292.271 49.9978 290.481 59.2163C284.753 46.2388 269.538 45.1648 263.183 53.2198C260.14 57.0683 259.156 62.4383 258.619 67.1818C258.529 68.0768 259.961 68.0768 260.051 67.1818C260.588 62.2593 261.662 56.8893 265.063 53.2198C269.001 49.0133 277.235 48.0288 283.052 52.1458C290.212 57.1578 291.555 65.8393 291.913 74.6103C292.092 77.3848 291.555 80.0698 290.481 82.5758C288.064 87.9458 281.889 88.5723 276.429 86.2453C275.624 85.8873 274.908 87.1403 275.713 87.4983C277.414 88.3038 279.293 88.8408 281.262 88.9303C283.142 89.0198 285.111 88.7513 286.901 88.1248C294.777 84.7238 294.15 72.7308 292.002 63.7808L342.749 114.885C336.036 121.598 295.403 161.962 291.913 165.453V167.422C331.919 127.505 341.406 118.286 343.733 115.959C344.36 115.154 344.718 114.885 344.181 114.259Z" fill="black"/>
<path d="M180.038 67.0927C180.038 67.0032 179.949 66.8242 179.859 66.7347C179.77 66.6452 179.68 66.5557 179.501 66.5557C179.412 66.5557 179.233 66.5557 179.143 66.5557C179.054 66.5557 178.875 66.6452 178.785 66.7347C177.532 67.8982 162.228 81.8602 160.169 83.6502C160.975 85.4402 161.601 87.4092 162.138 89.2887C162.138 89.4677 162.138 89.6467 162.049 89.8257C161.959 90.0047 161.78 90.0942 161.601 90.0942C161.422 90.1837 161.243 90.0942 161.064 90.0047C160.885 89.9152 160.796 89.8257 160.706 89.6467C160.259 87.9462 159.722 86.2457 159.006 84.6347L141.822 100.297C141.732 100.387 141.643 100.476 141.643 100.655C141.643 100.745 141.643 100.924 141.643 101.013C141.643 101.103 141.732 101.282 141.822 101.371C141.911 101.461 142.001 101.55 142.18 101.55C143.701 101.998 185.319 113.006 187.198 113.454C187.288 113.543 187.467 113.543 187.556 113.543C187.646 113.543 187.825 113.454 187.914 113.364C188.004 113.275 188.093 113.185 188.183 113.096C188.272 113.006 188.272 112.827 188.272 112.738C188.272 112.648 180.038 67.1822 180.038 67.0927Z" fill="#59DFFD"/>
<path d="M242.151 308.474C242.33 308.026 242.598 307.489 242.777 307.042H206.709C207.335 307.489 207.962 308.026 208.588 308.474H242.151Z" fill="black"/>
<path d="M281.084 252.984C272.85 240.364 277.056 225.328 275.714 214.409C275.087 209.218 273.476 204.296 270.97 199.731C268.464 195.167 265.063 191.229 260.946 188.007C261.483 187.47 261.931 186.754 262.11 185.948C262.289 185.143 262.199 184.337 261.841 183.621C261.483 182.905 260.946 182.279 260.32 181.831C259.604 181.384 258.798 181.205 257.993 181.205C257.456 181.205 148.445 181.205 148.445 181.205C147.102 181.115 145.76 181.115 144.417 181.294C143.522 181.563 142.627 182.1 142.09 182.905C141.553 183.711 141.285 184.695 141.374 185.59C141.464 186.575 141.911 187.47 142.627 188.096C143.343 188.723 144.238 189.081 145.223 189.081H146.744C151.219 193.466 154.62 198.836 156.589 204.743C159.632 212.709 161.154 221.39 160.169 234.547C158.737 252.357 157.574 255.221 159.274 260.77C163.481 271.958 177.085 274.106 184.782 282.25C188.451 286.099 191.226 290.753 192.747 295.854C193.374 296.212 193.911 296.66 194.448 297.018C193.195 292.185 190.957 287.62 187.914 283.682C181.112 275.001 174.131 273.927 167.15 268.557C163.033 265.424 159.901 261.307 159.722 256.027C159.543 247.077 162.675 234.368 161.422 219.6C160.438 208.234 154.889 192.392 144.775 185.769C144.596 185.68 254.502 185.68 254.771 185.68C262.736 189.886 268.822 196.867 271.865 205.37C274.103 211.456 274.908 217.989 274.192 224.433C273.655 234.099 274.103 245.645 279.562 253.521C281.263 255.669 283.142 257.638 285.29 259.338C285.827 259.159 286.364 258.98 286.901 258.801C284.932 257.28 282.874 255.221 281.084 252.984Z" fill="black"/>
<path d="M158.736 162.947V168.138C158.736 168.317 158.826 168.496 158.915 168.675C159.094 168.764 159.273 168.854 159.452 168.854C159.631 168.854 159.81 168.764 159.989 168.675C160.168 168.496 160.168 168.317 160.168 168.138V162.947C160.168 162.768 160.079 162.589 159.989 162.41C159.9 162.32 159.631 162.231 159.452 162.231C159.273 162.231 159.094 162.32 158.915 162.41C158.826 162.589 158.736 162.768 158.736 162.947Z" fill="black"/>
<path d="M307.307 233.652C305.965 234.278 304.891 235.352 304.085 236.516C303.28 237.769 302.832 239.201 302.832 240.633C302.922 242.244 303.548 243.855 304.622 245.108C305.696 246.361 307.128 247.166 308.739 247.524C309.724 247.614 310.798 247.524 311.782 247.256C312.767 246.987 313.662 246.45 314.467 245.824C315.273 245.197 315.899 244.392 316.347 243.497C316.794 242.602 317.063 241.617 317.152 240.543C314.288 237.59 310.082 237.411 307.307 233.652Z" fill="white"/>
<path d="M353.042 312.501C352.236 300.866 348.477 289.679 342.123 280.013C326.55 283.593 312.946 270.526 315.183 258.801C300.863 254.416 286.185 257.638 273.297 265.335C262.11 272.047 256.561 279.655 250.296 291.558C245.642 300.508 241.435 309.727 237.766 319.035C244.657 319.482 251.549 318.05 257.724 315.007C264.347 311.338 270.881 307.31 277.056 302.835C282.784 299.434 289.586 298.36 296.12 299.792C302.653 301.224 308.292 305.073 312.14 310.532C315.899 315.992 317.51 322.704 316.526 329.238C315.541 335.861 312.14 341.768 307.039 345.974H349.641C349.82 345.974 349.909 345.885 350.088 345.795C350.178 345.706 350.267 345.527 350.357 345.437C351.61 335.771 353.758 322.436 353.042 312.501Z" fill="#59DFFD"/>
<path d="M316.168 320.556C315.363 316.439 313.573 312.591 310.977 309.279C308.382 305.968 304.981 303.372 301.132 301.672C297.284 299.971 293.077 299.166 288.871 299.434C284.664 299.703 280.547 300.866 276.967 303.014C270.702 307.4 264.258 311.427 257.635 315.186C251.46 318.229 244.568 319.661 237.677 319.214C225.326 318.677 215.212 313.933 205.636 306.415C198.476 300.777 191.495 292.543 183.261 292.901C181.381 292.99 179.144 293.348 178.07 295.138C177.891 295.496 177.712 295.944 177.712 296.391C177.712 296.839 177.712 297.286 177.891 297.734C178.07 298.181 178.249 298.539 178.517 298.897C178.786 299.255 179.144 299.524 179.591 299.703C183.261 301.94 190.242 304.267 188.541 308.474C188.004 309.816 185.677 309.816 184.514 309.727C178.517 309.369 174.042 306.147 168.672 306.326C168.225 306.326 167.688 306.415 167.24 306.684C166.793 306.863 166.435 307.221 166.166 307.579C165.898 307.937 165.808 308.384 165.719 308.832C165.629 309.279 165.719 309.727 165.808 310.174C166.256 312.054 168.046 313.217 169.567 314.291C171.357 315.634 174.4 317.603 176.817 319.661C177.622 320.288 179.054 321.272 179.054 322.436C178.965 324.226 176.996 323.689 175.922 323.331C168.404 321.093 165.54 318.766 163.123 320.556C162.407 321.093 161.96 321.809 161.781 322.615C161.602 323.42 161.691 324.315 162.049 325.121C165.271 331.386 190.331 350.539 217.271 360.921C223.625 363.427 230.338 365.127 237.14 365.843C253.071 367.365 269.181 365.396 284.217 360.026C290.75 357.609 296.836 354.208 302.475 350.002C304.623 348.48 306.681 346.78 308.65 344.99C311.872 341.947 314.289 338.098 315.631 333.892C316.795 329.417 317.063 324.942 316.168 320.556ZM251.549 359.399C254.592 360.026 257.814 359.668 260.768 358.504C261.663 358.146 262.021 359.578 261.126 359.847C257.993 361.1 254.503 361.458 251.191 360.742C250.296 360.563 250.654 359.22 251.549 359.399ZM184.066 325.389L189.257 328.164C190.063 328.611 189.347 329.864 188.541 329.417L183.35 326.642C182.545 326.195 183.261 324.942 184.066 325.389ZM196.865 315.902C195.164 315.007 193.732 313.754 192.569 312.143C192.032 311.427 193.285 310.711 193.822 311.427C194.806 312.77 196.059 313.933 197.581 314.649C198.386 315.097 197.67 316.26 196.865 315.902Z" fill="white"/>
<path d="M245.642 194.988H260.32C260.499 194.988 260.678 194.899 260.857 194.809C260.946 194.72 261.036 194.451 261.036 194.272C261.036 194.093 260.946 193.914 260.857 193.735C260.678 193.556 260.499 193.556 260.32 193.556H245.642C245.463 193.556 245.284 193.646 245.105 193.735C245.015 193.825 244.926 194.093 244.926 194.272C244.926 194.451 245.015 194.63 245.105 194.809C245.194 194.899 245.463 194.988 245.642 194.988Z" fill="black"/>
<path d="M245.642 200.985H260.32C260.499 200.985 260.678 200.895 260.857 200.806C260.946 200.627 261.036 200.448 261.036 200.269C261.036 200.09 260.946 199.911 260.857 199.732C260.678 199.642 260.499 199.553 260.32 199.553H245.642C245.463 199.553 245.284 199.642 245.105 199.732C244.926 199.821 244.926 200.09 244.926 200.269C244.926 200.448 245.015 200.627 245.105 200.806C245.194 200.895 245.463 200.985 245.642 200.985Z" fill="black"/>
<path d="M262.109 118.197C261.93 117.212 261.483 116.317 260.677 115.691C259.872 115.064 258.887 114.706 257.903 114.796C257.366 114.796 227.562 114.796 227.562 114.796C228.278 116.496 228.726 118.286 228.815 120.166C228.815 120.345 228.726 120.524 228.636 120.703C228.547 120.792 228.278 120.882 228.099 120.882C228.099 120.882 200.981 120.971 197.49 120.971C197.311 120.971 197.132 120.882 196.953 120.792C196.774 120.613 196.774 120.434 196.774 120.255C196.864 118.376 197.311 116.496 198.027 114.796C141.284 114.796 145.401 114.706 144.238 114.885C143.253 115.154 142.448 115.691 141.911 116.496C141.374 117.302 141.105 118.286 141.195 119.271C141.284 120.255 141.732 121.15 142.537 121.777C143.253 122.403 144.238 122.761 145.133 122.761H257.903C258.44 122.761 259.066 122.672 259.603 122.403C260.14 122.135 260.588 121.866 261.035 121.419C261.393 120.971 261.751 120.524 261.93 119.987C262.109 119.271 262.199 118.734 262.109 118.197Z" fill="black"/>
<path d="M245.641 206.892H260.319C260.498 206.892 260.588 206.892 260.677 206.802C260.767 206.713 260.856 206.623 260.946 206.444C261.035 206.355 261.035 206.176 260.946 205.997C260.946 205.818 260.856 205.728 260.767 205.639C260.677 205.549 260.588 205.549 260.498 205.46C260.409 205.46 260.319 205.37 260.23 205.37H245.552C245.373 205.37 245.194 205.46 245.015 205.549C244.925 205.639 244.836 205.907 244.836 206.086C244.836 206.265 244.925 206.444 245.015 206.623C245.194 206.802 245.462 206.892 245.641 206.892Z" fill="black"/>
<path d="M265.868 215.215C266.047 215.215 266.226 215.126 266.405 215.036C266.495 214.947 266.584 214.678 266.584 214.499C266.584 214.32 266.495 214.141 266.405 213.962C266.316 213.783 266.047 213.783 265.868 213.783H170.193C170.014 213.783 169.835 213.873 169.656 213.962C169.566 214.052 169.477 214.32 169.477 214.499C169.477 214.678 169.566 214.857 169.656 215.036C169.745 215.215 170.014 215.215 170.193 215.215C189.704 215.573 246.357 215.573 265.868 215.215Z" fill="black"/>
<path d="M241.793 271.6C241.525 271.242 236.066 266.588 234.544 265.246C232.038 263.098 230.069 260.413 228.637 257.37C227.474 254.058 226.758 250.657 226.31 247.256C225.236 240.365 224.789 233.384 225.147 226.492C225.147 226.313 225.057 226.134 224.968 225.955C224.789 225.866 224.61 225.776 224.431 225.776C211.364 225.687 178.07 225.776 174.49 225.776C174.311 225.776 174.132 225.866 173.953 225.955C173.863 226.045 173.773 226.313 173.773 226.492C173.147 233.742 172.61 240.991 171.983 248.241C171.715 251.373 171.984 254.506 172.789 257.459C173.953 260.413 175.832 262.919 178.338 264.888C182.545 268.02 187.199 270.526 192.211 272.227C192.927 272.585 193.642 272.764 194.358 272.853C196.864 272.943 190.152 271.958 241.346 272.853C241.525 272.853 241.615 272.764 241.704 272.764C241.794 272.674 241.883 272.585 241.973 272.495C242.062 272.406 242.062 272.227 242.062 272.137C241.972 271.869 241.883 271.69 241.793 271.6ZM216.733 232.936L220.582 229.983C221.298 229.446 222.283 230.43 221.567 230.967L217.718 233.921C217.002 234.547 215.928 233.473 216.733 232.936ZM226.847 265.693L231.322 266.946C231.501 267.036 231.68 267.125 231.68 267.304C231.77 267.483 231.769 267.662 231.769 267.841C231.68 268.02 231.591 268.199 231.412 268.289C231.233 268.378 231.053 268.378 230.874 268.378C229.353 268.02 227.921 267.573 226.4 267.125C226.221 267.036 226.131 266.946 226.042 266.767C225.952 266.588 225.952 266.409 225.952 266.23C226.042 266.051 226.131 265.872 226.221 265.783C226.489 265.693 226.668 265.604 226.847 265.693ZM197.402 266.946L194.717 269.542C194.09 270.168 193.016 269.184 193.732 268.557L196.417 265.962C197.044 265.246 198.028 266.32 197.402 266.946ZM181.023 235.174L176.548 231.952C175.832 231.415 176.548 230.162 177.264 230.699L181.739 233.921C182.545 234.458 181.829 235.711 181.023 235.174Z" fill="#59DFFD"/>
<path d="M177.263 230.698C176.547 230.161 175.831 231.414 176.547 231.951L181.022 235.173C181.738 235.71 182.454 234.457 181.738 233.92L177.263 230.698Z" fill="black"/>
<path d="M196.417 265.872L193.732 268.468C193.105 269.094 194.09 270.079 194.716 269.452L197.401 266.857C198.028 266.32 197.043 265.246 196.417 265.872Z" fill="black"/>
<path d="M220.492 229.982L216.644 232.936C215.928 233.473 216.912 234.547 217.628 233.92L221.477 230.967C222.282 230.34 221.298 229.356 220.492 229.982Z" fill="black"/>
<path d="M231.321 266.946L226.846 265.693C226.667 265.603 226.488 265.693 226.309 265.782C226.13 265.872 226.041 266.051 225.951 266.23C225.862 266.409 225.951 266.588 226.041 266.767C226.13 266.946 226.309 267.035 226.488 267.125C227.92 267.572 229.442 268.02 230.963 268.378C231.142 268.378 231.321 268.378 231.5 268.288C231.679 268.199 231.769 268.02 231.858 267.841C231.948 267.662 231.858 267.483 231.769 267.304C231.59 267.125 231.5 267.035 231.321 266.946Z" fill="black"/>
<path d="M241.525 227.834H268.285C268.464 227.834 268.643 227.745 268.822 227.655C268.912 227.566 269.001 227.297 269.001 227.118C269.001 226.939 268.912 226.76 268.822 226.581C268.733 226.402 268.464 226.402 268.285 226.402H241.525C241.346 226.402 241.167 226.492 240.988 226.581C240.898 226.671 240.809 226.939 240.809 227.118C240.809 227.297 240.898 227.476 240.988 227.655C241.167 227.745 241.346 227.834 241.525 227.834Z" fill="black"/>
<path d="M240.63 232.667C240.451 232.667 240.272 232.757 240.093 232.846C240.004 233.025 239.914 233.204 239.914 233.383C239.914 233.562 240.004 233.741 240.093 233.92C240.272 234.01 240.451 234.099 240.63 234.099H268.644C268.823 234.099 269.002 234.01 269.181 233.92C269.36 233.831 269.36 233.562 269.36 233.383C269.36 233.204 269.27 233.025 269.181 232.846C269.091 232.757 268.823 232.667 268.644 232.667H240.63Z" fill="black"/>
<path d="M182.724 202.148C180.755 199.284 178.965 196.331 177.175 193.377C177.085 193.288 176.996 193.198 176.906 193.109C176.817 193.019 176.638 193.019 176.548 193.019C176.459 193.019 176.28 193.019 176.19 193.109C176.101 193.198 176.011 193.288 175.922 193.377C174.221 196.331 172.61 199.374 170.91 202.327C170.82 202.417 170.82 202.596 170.82 202.685C170.82 202.775 170.82 202.954 170.91 203.043C170.999 203.133 171.089 203.222 171.178 203.312C171.268 203.401 171.447 203.401 171.536 203.401C174.579 203.401 182.008 203.222 182.008 203.222C182.097 203.222 182.276 203.222 182.366 203.133C182.455 203.043 182.545 202.954 182.634 202.864C182.724 202.775 182.724 202.596 182.724 202.506C182.813 202.417 182.813 202.327 182.724 202.148Z" fill="#59DFFD"/>
<path d="M198.743 196.778C198.116 195.704 197.132 194.809 195.968 194.272C194.626 193.466 193.194 193.019 191.672 192.929C188.987 192.84 185.855 195.167 186.75 198.12C187.287 199.194 188.092 200.089 189.077 200.805C190.061 201.521 191.135 201.969 192.299 202.237C194.268 202.774 196.953 202.953 198.295 201.074C198.743 200.447 199.011 199.731 199.011 199.015C199.101 198.21 199.011 197.494 198.743 196.778Z" fill="#59DFFD"/>
<path d="M213.51 193.019C213.152 192.751 213.331 192.661 202.86 192.84C202.681 192.84 202.591 192.84 202.502 192.93C202.412 193.019 202.323 193.109 202.233 193.288C202.144 193.377 202.144 193.556 202.233 193.735C202.233 193.914 202.323 194.004 202.412 194.093C204.023 196.062 205.097 198.389 205.545 200.895C205.545 201.074 205.634 201.164 205.813 201.253C205.903 201.343 206.082 201.432 206.261 201.432H216.732C216.822 201.432 216.911 201.432 217.001 201.343C217.09 201.343 217.18 201.253 217.269 201.164C217.359 200.985 217.448 200.806 217.448 200.627C217.09 197.673 215.658 194.988 213.51 193.019Z" fill="#59DFFD"/>
<path d="M139.137 318.588L109.423 269.094C109.334 269.005 109.334 268.915 109.244 268.915C109.155 268.826 109.065 268.826 108.976 268.826C108.886 268.826 108.797 268.826 108.707 268.826C108.618 268.826 108.528 268.915 108.439 268.915C108.26 269.005 109.334 267.573 93.045 290.395C94.298 295.139 98.057 297.824 102.621 299.614C103.427 299.972 103.069 301.314 102.263 300.956C99.668 300.061 97.341 298.629 95.2825 296.839C94.2085 295.855 93.3135 294.602 92.687 293.349L87.9435 299.972C89.465 301.046 91.076 301.941 92.7765 302.746C93.582 303.104 92.866 304.357 92.0605 303.999C89.9125 303.015 87.854 301.762 86.064 300.24L72.818 318.767C72.7285 318.856 72.639 319.035 72.7285 319.214C72.7285 319.393 72.818 319.483 72.9075 319.572C72.997 319.662 73.0865 319.751 73.176 319.751C73.2655 319.841 73.355 319.841 73.4445 319.841H138.511C138.6 319.841 138.779 319.841 138.869 319.751C138.958 319.662 139.048 319.572 139.137 319.483C139.227 319.393 139.227 319.214 139.227 319.125C139.227 318.767 139.227 318.677 139.137 318.588Z" fill="#59DFFD"/>
<path d="M91.9703 291.648L86.7793 298.897C87.1373 299.255 87.4953 299.524 87.8533 299.792L92.5968 293.169C92.4178 292.722 92.1493 292.185 91.9703 291.648Z" fill="#59DFFD"/>
<path d="M106.11 265.514C103.694 267.036 101.367 268.736 99.1291 270.616C92.3271 263.814 51.0676 222.554 47.3981 218.885C54.2896 211.993 100.919 165.722 101.277 165.453C101.367 165.364 101.456 165.185 101.456 165.006C101.456 164.827 101.367 164.648 101.277 164.558C101.188 164.469 101.009 164.379 100.83 164.29C100.651 164.29 100.472 164.29 100.382 164.379C100.203 164.469 46.8611 217.453 45.9661 218.437C45.8766 218.527 45.7871 218.795 45.7871 218.974C45.7871 219.153 45.8766 219.332 45.9661 219.511L97.6076 271.153C92.6851 274.464 88.4786 278.671 85.2566 283.683C81.5871 289.59 81.4081 296.929 87.2256 301.135C88.7471 302.209 90.4476 303.194 92.1481 303.91C92.9536 304.268 93.6696 303.104 92.8641 302.657C90.6266 301.672 88.5681 300.419 86.6886 298.808C85.7936 297.913 85.1671 296.839 84.7196 295.676C84.2721 294.512 84.0036 293.259 84.0931 292.006C84.1826 286.726 87.5836 282.161 91.0741 278.492C92.6851 276.791 94.4751 275.18 96.3546 273.748C93.7591 276.702 92.0586 280.371 91.4321 284.22C91.0741 286.457 91.1636 288.784 91.8796 291.022C92.5956 293.17 93.7591 295.228 95.3701 296.839C97.4286 298.629 99.7556 300.061 102.351 300.956C103.246 301.314 103.604 299.882 102.709 299.614C98.2341 297.824 94.2961 295.049 93.1326 290.395C92.1481 286.457 92.7746 282.251 94.7436 278.76C97.2496 274.285 100.919 270.526 105.305 268.02C107.453 266.32 110.048 265.156 112.733 264.619C113.986 264.44 115.15 264.619 116.313 265.156C117.387 265.693 118.282 266.588 118.909 267.662C119.893 269.721 120.072 272.048 119.535 274.196C118.998 276.344 117.656 278.313 115.866 279.655L116.582 280.908C125.8 273.927 120.52 256.475 106.11 265.514Z" fill="black"/>
<path d="M344.361 93.674C343.824 92.958 342.571 93.674 343.108 94.39C347.672 100.387 350.089 107.636 350.089 115.154C350.089 122.672 347.672 129.922 343.108 135.918C342.571 136.634 343.824 137.35 344.361 136.634C349.015 130.459 351.521 122.851 351.521 115.154C351.521 107.457 349.015 99.939 344.361 93.674Z" fill="black"/>
<path d="M356.443 93.5844C355.816 92.8684 354.832 93.9424 355.458 94.5689C359.396 98.8649 361.813 104.324 362.439 110.142C362.887 115.78 362.26 121.419 360.56 126.789C359.575 129.921 358.501 132.964 357.248 136.007C357.159 136.186 357.159 136.365 357.159 136.544C357.248 136.723 357.338 136.902 357.517 136.992C357.696 137.081 357.875 137.081 358.054 137.081C358.233 136.992 358.412 136.902 358.501 136.723C364.945 121.508 367.63 105.846 356.443 93.5844Z" fill="black"/>
<path d="M221.207 107.189C220.491 108.979 219.954 110.769 219.596 112.648C219.417 113.543 218.075 113.185 218.254 112.29C218.612 110.321 219.238 108.352 219.954 106.473C209.393 100.834 197.311 109.247 196.863 120.077C196.863 120.256 196.953 120.435 197.042 120.614C197.132 120.793 197.4 120.793 197.579 120.793C201.07 120.793 228.188 120.703 228.188 120.703C228.367 120.703 228.546 120.614 228.725 120.524C228.904 120.345 228.904 120.166 228.904 119.987C228.725 117.392 227.92 114.886 226.577 112.648C225.235 110.5 223.445 108.621 221.207 107.189Z" fill="#DAF8FF"/>
<path d="M43.1028 236.605C40.5073 232.309 38.8068 227.655 38.1803 222.643C37.4643 217.721 37.8223 212.709 39.1648 207.876C40.0598 204.654 41.4023 201.521 43.1028 198.657C43.1923 198.478 43.1923 198.299 43.1028 198.12C43.0133 197.941 42.9238 197.762 42.7448 197.673C42.5658 197.583 42.3868 197.583 42.2078 197.583C42.0288 197.583 41.8498 197.762 41.7603 197.852C38.1803 203.759 36.3008 210.561 36.3008 217.542C36.3008 224.433 38.1803 231.235 41.7603 237.232C42.3868 238.127 43.5503 237.411 43.1028 236.605Z" fill="black"/>
<path d="M147.908 246.093C134.93 246.182 122.042 245.287 109.244 243.318C108.349 243.139 107.991 244.571 108.886 244.661C113.808 245.377 118.731 246.003 123.743 246.451C123.564 249.404 123.832 253.163 126.875 254.595C127.502 254.953 128.218 255.132 128.844 255.132C129.56 255.132 130.276 255.043 130.903 254.774C131.529 254.506 132.066 254.058 132.514 253.521C132.961 252.984 133.23 252.358 133.409 251.642C133.767 250.21 133.856 248.688 133.946 247.167C137.973 247.346 141.732 247.525 147.908 247.525C149.25 247.525 148.803 246.093 147.908 246.093Z" fill="#DAF8FF"/>
<path d="M355.19 264.619C354.295 258.891 348.209 257.907 344.45 255.222C342.66 253.969 341.318 252.089 340.602 249.941C339.796 247.256 340.512 244.661 340.512 241.976C340.512 232.936 333.173 225.776 324.671 223.539C319.122 222.286 313.304 222.196 307.755 223.36C307.666 223.36 307.487 223.449 307.397 223.539C307.308 223.628 307.218 223.718 307.218 223.897C306.413 227.477 306.86 226.761 306.323 227.298C300.148 233.831 293.704 241.976 295.762 251.642C296.21 253.521 296.836 255.311 297.821 257.012C303.638 256.475 309.545 257.101 315.094 258.802C313.841 265.425 317.69 272.137 323.06 276.075C325.745 278.044 328.877 279.476 332.099 280.103C335.411 280.819 338.722 280.729 342.034 280.013C351.252 277.865 356.085 270.526 355.19 264.619ZM308.74 247.525C302.743 246.361 299.79 238.127 307.308 233.652C308.65 235.263 310.261 236.516 312.141 237.322C314.02 238.127 315.721 239.112 317.242 240.454C317.153 241.439 316.884 242.513 316.437 243.408C315.989 244.303 315.273 245.108 314.557 245.735C313.752 246.361 312.857 246.898 311.872 247.167C310.798 247.525 309.724 247.614 308.74 247.525Z" fill="black"/>
<path d="M343.644 204.565L336.574 218.974C336.126 219.78 337.379 220.496 337.827 219.69L344.897 205.281C345.255 204.475 344.002 203.759 343.644 204.565Z" fill="black"/>
<path d="M341.675 223.897L356.711 213.336C357.427 212.799 356.711 211.546 355.995 212.083L340.959 222.644C340.243 223.181 340.959 224.344 341.675 223.897Z" fill="black"/>
<path d="M360.649 226.224L343.913 228.551C343.018 228.64 343.376 230.072 344.271 229.893L361.007 227.566C361.902 227.477 361.544 226.134 360.649 226.224Z" fill="black"/>
<path d="M160.795 89.7362C160.885 89.9152 160.974 90.0047 161.153 90.0942C161.332 90.1837 161.511 90.1837 161.69 90.1837C161.869 90.0942 162.048 90.0047 162.138 89.8257C162.227 89.6467 162.227 89.4677 162.227 89.2887C160.974 84.2767 158.647 79.6227 155.425 75.5952C154.888 74.8792 153.814 75.8637 154.441 76.5797C157.394 80.6072 159.632 84.9927 160.795 89.7362Z" fill="black"/>
<path d="M150.592 53.4884C153.725 56.5314 156.32 60.0219 158.379 63.8704C158.826 64.6759 160.079 63.9599 159.632 63.1544C157.573 59.2164 154.888 55.6364 151.666 52.5039C150.95 51.7879 149.966 52.7724 150.592 53.4884Z" fill="black"/>
<path d="M134.215 63.3337C134.036 63.2442 133.857 63.2442 133.678 63.3337C133.499 63.4232 133.32 63.5127 133.23 63.6917C133.141 63.8707 133.141 64.0497 133.141 64.2287C133.141 64.4077 133.32 64.5867 133.409 64.6762C136.9 66.7347 139.674 69.7777 141.375 73.4472C141.733 74.2527 142.986 73.5367 142.628 72.7312C140.838 68.7037 137.884 65.4817 134.215 63.3337Z" fill="black"/>
<path d="M227.831 83.5606C228.458 82.8446 227.473 81.8601 226.847 82.5761C224.251 85.6191 221.924 88.9306 220.134 92.5106C219.687 93.3161 220.94 94.0321 221.387 93.2266C222.998 89.7361 225.236 86.5141 227.831 83.5606Z" fill="black"/>
<path d="M242.957 107.278L241.525 105.846C235.618 105.846 222.73 105.936 221.745 105.936C222.461 104.325 223.356 102.714 224.341 101.282C224.878 100.476 223.625 99.76 223.088 100.566C221.924 102.266 220.94 104.056 220.134 105.936H218.971C219.329 106.115 219.687 106.294 219.955 106.473C219.239 108.352 218.613 110.321 218.255 112.29C218.076 113.185 219.418 113.543 219.597 112.648C219.955 110.769 220.492 108.979 221.208 107.189L221.477 107.368C221.477 107.368 225.594 107.368 242.957 107.278Z" fill="black"/>
<path d="M241.077 78.7275C238.303 81.86 235.886 85.3505 233.917 89.02C233.47 89.8255 234.723 90.5415 235.17 89.736C237.139 86.156 239.466 82.8445 242.151 79.712C242.688 78.996 241.704 78.0115 241.077 78.7275Z" fill="black"/>
<path d="M250.742 169.033C251.011 169.033 251.19 168.944 251.369 168.765C251.548 168.586 251.637 168.407 251.637 168.138V162.947C251.637 162.858 251.637 162.679 251.548 162.589C251.458 162.5 251.458 162.41 251.369 162.321C251.279 162.231 251.1 162.142 250.921 162.052C250.742 161.963 250.563 162.052 250.384 162.142C250.205 162.231 250.116 162.321 249.937 162.5C249.847 162.679 249.758 162.858 249.758 163.037V168.228C249.758 168.496 249.847 168.675 250.026 168.854C250.205 169.033 250.563 169.033 250.742 169.033Z" fill="black"/>
<path d="M159.454 169.033C159.722 169.033 159.901 168.943 160.08 168.764C160.259 168.585 160.349 168.406 160.349 168.138V162.947C160.349 162.678 160.259 162.499 160.08 162.32C159.901 162.141 159.633 162.052 159.454 162.052C159.275 162.052 159.006 162.141 158.827 162.32C158.648 162.499 158.559 162.768 158.559 162.947V168.138C158.559 168.406 158.648 168.585 158.827 168.764C158.917 168.943 159.185 169.033 159.454 169.033Z" fill="black"/>
<path d="M245.641 195.256H260.319C260.588 195.256 260.767 195.167 260.946 194.988C261.125 194.809 261.214 194.54 261.214 194.361C261.214 194.093 261.125 193.914 260.946 193.735C260.767 193.556 260.498 193.466 260.319 193.466H245.641C245.373 193.466 245.194 193.556 245.015 193.735C244.836 193.914 244.746 194.182 244.746 194.361C244.746 194.63 244.836 194.809 245.015 194.988C245.104 195.077 245.373 195.256 245.641 195.256Z" fill="black"/>
<path d="M245.641 201.164H260.319C260.588 201.164 260.767 201.074 260.946 200.895C261.125 200.716 261.214 200.448 261.214 200.269C261.214 200 261.125 199.821 260.946 199.642C260.767 199.463 260.498 199.374 260.319 199.374H245.641C245.373 199.374 245.194 199.463 245.015 199.642C244.836 199.821 244.746 200.09 244.746 200.269C244.746 200.358 244.746 200.537 244.836 200.627C244.925 200.716 244.925 200.806 245.015 200.895C245.104 200.985 245.194 201.074 245.283 201.074C245.373 201.164 245.462 201.164 245.641 201.164Z" fill="black"/>
<path d="M245.641 207.16H260.319C260.588 207.16 260.767 207.071 260.946 206.892C261.125 206.713 261.214 206.444 261.214 206.265C261.214 205.997 261.125 205.818 260.946 205.639C260.767 205.46 260.588 205.37 260.319 205.37H245.641C245.373 205.37 245.194 205.46 245.015 205.639C244.836 205.818 244.746 206.086 244.746 206.265C244.746 206.534 244.836 206.713 245.015 206.892C245.104 206.981 245.373 207.16 245.641 207.16Z" fill="black"/>
<path d="M170.192 215.484C174.399 215.573 264.973 215.484 265.868 215.484C266.136 215.484 266.315 215.394 266.494 215.215C266.673 215.036 266.763 214.768 266.763 214.589C266.763 214.41 266.673 214.141 266.494 213.962C266.315 213.783 266.047 213.694 265.868 213.694C263.72 213.694 176.905 213.604 170.192 213.962C168.671 213.873 169.297 215.484 170.192 215.484Z" fill="black"/>
<path d="M241.882 271.421C235.707 265.693 231.5 263.456 228.815 257.28C227.652 253.969 226.936 250.657 226.488 247.167C225.325 240.275 224.967 233.384 225.325 226.403C225.325 226.134 225.235 225.955 225.056 225.776C224.877 225.597 224.609 225.508 224.43 225.508C211.363 225.418 178.069 225.508 174.489 225.508C174.22 225.508 174.041 225.597 173.862 225.776C173.683 225.955 173.594 226.224 173.594 226.403C173.325 229.356 172.162 243.855 171.804 248.151C171.535 251.284 171.804 254.416 172.609 257.459C173.773 260.413 175.742 263.008 178.248 264.977C182.454 268.199 187.108 270.616 192.12 272.406C194.268 273.39 191.494 273.659 241.345 273.032C241.435 273.032 241.614 273.032 241.703 272.943C241.793 272.853 241.972 272.764 242.061 272.674C242.151 272.585 242.24 272.495 242.24 272.316C242.24 272.227 242.33 272.048 242.24 271.958C242.151 271.779 242.061 271.6 241.882 271.421ZM226.667 256.743C228.636 263.008 233.022 266.141 238.75 271.153C233.469 271.153 195.253 271.153 194.268 271.153C192.478 270.616 190.778 269.9 189.077 269.184C186.303 268.02 183.707 266.588 181.201 264.977C178.695 263.456 176.637 261.308 175.115 258.802C172.878 254.953 173.415 249.315 174.041 242.334C174.131 241.081 175.294 227.477 175.294 227.477C183.618 227.477 221.924 227.477 223.356 227.477C223.087 237.232 224.161 247.167 226.667 256.743Z" fill="black"/>
<path d="M181.918 233.742L177.443 230.52C176.459 229.804 175.474 231.415 176.459 232.131C181.292 235.621 181.113 235.532 181.471 235.532C181.65 235.532 181.829 235.442 182.008 235.263C182.187 235.174 182.276 234.995 182.276 234.816C182.366 234.637 182.276 234.458 182.276 234.189C182.187 234.01 182.097 233.921 181.918 233.742Z" fill="black"/>
<path d="M196.237 265.783L193.552 268.378C193.373 268.557 193.283 268.736 193.283 269.005C193.283 269.273 193.373 269.452 193.552 269.631C193.731 269.81 193.91 269.9 194.178 269.9C194.447 269.9 194.626 269.81 194.805 269.721C195.163 269.452 195.879 268.736 197.579 267.036C198.474 266.23 197.132 264.888 196.237 265.783Z" fill="black"/>
<path d="M220.403 229.804L216.554 232.757C215.57 233.473 216.912 234.816 217.807 234.1L221.656 231.146C222.64 230.341 221.387 228.998 220.403 229.804Z" fill="black"/>
<path d="M226.4 267.304C227.832 267.752 229.353 268.199 230.875 268.557C230.964 268.557 231.143 268.557 231.233 268.557C231.322 268.557 231.501 268.468 231.591 268.468C231.77 268.378 231.859 268.199 231.949 268.11C232.038 268.02 232.038 267.752 232.038 267.573C232.038 267.394 231.949 267.215 231.859 267.125C231.77 266.946 231.591 266.857 231.412 266.857L226.937 265.604C226.847 265.604 226.668 265.604 226.579 265.604C226.489 265.604 226.31 265.693 226.221 265.693C226.131 265.783 226.042 265.872 225.952 265.962C225.863 266.051 225.863 266.23 225.773 266.32C225.773 266.409 225.773 266.588 225.773 266.678C225.773 266.767 225.863 266.946 225.952 267.036C226.131 267.125 226.221 267.215 226.4 267.304Z" fill="black"/>
<path d="M240.629 227.119C240.629 227.387 240.718 227.566 240.897 227.745C241.076 227.924 241.255 228.014 241.524 228.014H268.284C268.553 228.014 268.732 227.924 268.911 227.745C269.09 227.566 269.179 227.298 269.179 227.119C269.179 226.94 269.09 226.671 268.911 226.492C268.732 226.313 268.463 226.224 268.284 226.224H241.524C241.255 226.224 241.076 226.313 240.897 226.492C240.718 226.671 240.629 226.94 240.629 227.119Z" fill="black"/>
<path d="M240.629 232.399C240.361 232.399 240.182 232.488 240.003 232.667C239.824 232.846 239.734 233.115 239.734 233.294C239.734 233.562 239.824 233.741 240.003 233.92C240.182 234.099 240.361 234.189 240.629 234.189H268.643C268.911 234.189 269.09 234.099 269.269 233.92C269.448 233.741 269.538 233.473 269.538 233.294C269.538 233.025 269.448 232.846 269.269 232.667C269.09 232.488 268.911 232.399 268.643 232.399H240.629Z" fill="black"/>
<path d="M171.625 203.67L182.186 203.491C182.365 203.491 182.544 203.401 182.634 203.401C182.813 203.312 182.902 203.222 182.992 203.043C183.081 202.864 183.081 202.775 183.081 202.596C183.081 202.417 182.992 202.238 182.902 202.148C181.023 199.284 179.233 196.331 177.353 193.377C177.264 193.198 177.174 193.109 176.995 193.019C176.816 192.93 176.727 192.93 176.548 192.93C176.369 192.93 176.19 192.93 176.1 193.019C175.921 193.109 175.832 193.198 175.742 193.377C174.847 194.988 171.536 200.985 170.73 202.327C170.641 202.506 170.641 202.596 170.641 202.775C170.641 202.954 170.641 203.133 170.73 203.222C170.82 203.401 170.909 203.491 171.088 203.58C171.267 203.58 171.446 203.67 171.625 203.67ZM173.236 201.79C174.221 200.09 175.384 197.852 176.637 195.615C177.89 197.673 179.143 199.642 180.396 201.701L173.236 201.79Z" fill="black"/>
<path d="M192.21 202.506C194.447 203.132 197.132 203.132 198.475 201.253C198.922 200.626 199.191 199.821 199.28 199.015C199.37 198.21 199.28 197.404 198.922 196.688C198.296 195.525 197.222 194.63 196.058 194.093C194.716 193.287 193.194 192.84 191.673 192.75C188.719 192.571 185.587 195.167 186.571 198.21C187.556 200.984 190.867 202.058 192.21 202.506ZM191.494 194.63C192.657 194.719 193.821 194.988 194.805 195.614C195.7 195.972 196.506 196.599 197.132 197.315C197.311 197.762 197.401 198.21 197.401 198.657C197.401 199.105 197.222 199.552 197.043 200C195.969 201.969 192.031 200.805 190.062 199.552C189.346 199.105 188.719 198.478 188.361 197.762C187.824 195.972 189.883 194.54 191.494 194.63Z" fill="black"/>
<path d="M205.278 200.895C205.367 201.074 205.457 201.253 205.636 201.432C205.815 201.521 205.994 201.611 206.173 201.611H216.644C216.913 201.611 217.092 201.521 217.271 201.342C217.45 201.163 217.539 200.895 217.539 200.716C217.271 197.673 215.839 194.898 213.601 192.929C213.243 192.571 213.154 192.482 202.861 192.661C202.682 192.661 202.503 192.75 202.324 192.84C202.145 192.929 202.056 193.108 201.966 193.287C201.877 193.466 201.877 193.645 201.877 193.824C201.877 194.003 201.966 194.182 202.145 194.272C203.667 196.151 204.741 198.389 205.278 200.895ZM204.651 194.451H212.617C214.138 195.883 215.123 197.673 215.66 199.731H206.978C206.441 197.852 205.725 196.062 204.651 194.451Z" fill="black"/>
<path d="M251.19 361.011C254.591 361.727 258.081 361.369 261.303 360.116C262.467 359.668 261.84 357.878 260.766 358.326C257.902 359.489 254.77 359.847 251.727 359.221C250.474 358.952 249.937 360.742 251.19 361.011Z" fill="black"/>
<path d="M342.927 135.829C342.211 136.813 343.822 137.798 344.538 136.813C349.192 130.548 351.788 122.941 351.788 115.154C351.788 107.368 349.282 99.7602 344.538 93.4952C343.822 92.5107 342.211 93.4952 342.927 94.4797C347.402 100.387 349.819 107.636 349.819 115.154C349.908 122.672 347.402 129.922 342.927 135.829Z" fill="black"/>
<path d="M362.261 110.142C362.708 115.781 362.082 121.419 360.381 126.7C359.486 129.832 358.323 132.875 357.07 135.829C356.98 136.008 356.891 136.187 356.98 136.366C356.98 136.545 357.07 136.724 357.159 136.903C357.249 136.992 357.338 137.082 357.517 137.171C357.696 137.261 357.786 137.261 357.965 137.261C358.144 137.261 358.233 137.171 358.412 137.082C358.591 136.992 358.681 136.903 358.681 136.724C366.825 117.571 366.109 103.788 356.622 93.3162C355.817 92.4212 354.474 93.7637 355.28 94.6587C359.218 99.0442 361.634 104.414 362.261 110.142Z" fill="black"/>
<path d="M73.7554 70.4768C79.8993 63.7775 86.9334 57.8164 94.4457 52.6984C94.8673 52.4593 95.0401 51.9326 95.2032 51.5401C95.2419 51.0038 95.1369 50.5919 94.8978 50.1704C94.6587 49.7488 94.2758 49.4516 93.7395 49.4129C93.2129 49.2401 92.801 49.3451 92.3794 49.5843C76.5504 59.7622 63.7925 74.0702 55.4285 90.9865C47.0645 107.903 43.5449 126.786 45.1588 145.501C45.3868 147.943 49.3136 147.688 49.0856 145.245C47.8987 131.817 49.5563 118.19 53.7225 105.284C57.8887 92.3771 64.6783 80.4684 73.7554 70.4768Z" fill="#59DFFD"/>
<path d="M62.9309 59.8575C70.2443 51.8949 78.4284 44.9386 87.3491 38.9789C87.7804 38.6057 88.0872 38.0888 88.26 37.5621C88.2987 37.0259 88.213 36.3458 87.8399 35.9146C87.4667 35.4833 87.0935 35.0521 86.4232 35.0037C85.8965 34.8309 85.2165 34.9166 84.7853 35.2897C66.2734 47.1608 51.1768 63.9954 41.3835 83.9082C31.5902 103.821 27.2924 126.017 29.2006 148.123C29.524 151.111 33.9967 150.76 33.8074 147.781C32.3925 131.911 34.2243 115.871 39.3595 100.743C44.2169 85.73 52.368 71.7633 62.9309 59.8575Z" fill="#59DFFD"/>
<path d="M85.925 84.8323C90.3149 80.028 95.3462 75.6742 100.865 72.0295C101.287 71.7904 101.594 71.2735 101.623 70.8713C101.662 70.335 101.556 69.9231 101.317 69.5015C101.078 69.08 100.695 68.7828 100.159 68.7441C99.6325 68.5713 99.2206 68.6763 98.7894 69.0495C87.2148 76.3001 77.8309 86.8086 71.8263 99.0435C65.6781 111.403 63.2064 125.106 64.374 138.802C64.479 139.214 64.7181 139.635 65.101 139.932C65.4838 140.23 65.8764 140.393 66.4223 140.297C66.8342 140.192 67.2461 140.087 67.6774 139.714C67.9745 139.331 68.1376 138.939 68.1667 138.537C67.3888 128.777 68.4975 119.019 71.5883 109.808C74.411 100.578 79.3401 92.0388 85.925 84.8323Z" fill="#59DFFD"/>
<path d="M99.3347 96.9864C102.555 93.4453 106.293 90.2111 110.394 87.5422C110.681 87.2935 110.835 87.035 110.998 86.6425C111.027 86.2403 111.046 85.9721 110.797 85.6846C110.549 85.3971 110.29 85.2437 109.898 85.0806C109.495 85.0515 109.227 85.0322 108.94 85.281C100.46 90.7334 93.5779 98.3228 89.0123 107.427C84.5808 116.541 82.6385 126.643 83.5311 136.681C83.6459 136.959 83.7509 137.371 84.0094 137.524C84.2678 137.677 84.6604 137.841 84.9285 137.86C85.1966 137.879 85.6182 137.64 85.7716 137.382C86.0591 137.133 86.0785 136.865 86.1075 136.463C85.5479 129.279 86.3387 122.059 88.5753 115.347C90.9459 108.645 94.4941 102.432 99.3347 96.9864Z" fill="#59DFFD"/>
<path d="M148.355 245.824C135.288 246.003 122.131 245.019 109.243 243.05C108.08 242.871 107.632 244.661 108.796 244.84C113.629 245.556 118.551 246.182 123.384 246.63C123.116 250.926 124.19 253.611 126.606 254.774C127.233 255.132 127.949 255.311 128.665 255.311C129.381 255.311 130.097 255.222 130.813 254.864C131.439 254.595 132.066 254.148 132.513 253.521C132.961 252.984 133.319 252.268 133.498 251.552C133.766 250.12 133.945 248.688 134.035 247.256C139.763 247.525 144.596 247.614 148.355 247.525C148.534 247.525 148.713 247.435 148.892 247.346C149.071 247.256 149.16 247.077 149.25 246.898C149.339 246.719 149.339 246.54 149.339 246.361C149.339 246.182 149.25 246.003 149.071 245.914C148.892 246.003 148.623 245.824 148.355 245.824ZM132.245 247.346C132.155 250.031 132.066 253.163 129.381 253.432C128.575 253.521 127.859 253.342 127.233 252.895C126.606 252.447 126.069 251.91 125.801 251.105C125.353 249.673 125.174 248.241 125.353 246.719L132.245 247.346Z" fill="black"/>
<path d="M340.869 249.941C340.064 247.346 340.78 244.75 340.78 241.976C340.78 237.68 339.169 233.563 336.215 230.341C329.861 223.27 320.284 220.854 307.665 223.181C307.486 223.181 307.396 223.27 307.217 223.449C307.128 223.539 307.038 223.718 306.949 223.897C306.68 224.881 306.501 225.955 306.322 226.94C299.968 233.742 293.345 241.797 295.493 251.731C295.851 253.521 296.567 255.222 297.372 256.833C293.882 257.101 290.481 257.817 287.169 258.802C284.932 257.012 282.963 255.043 281.262 252.895C278.846 249.136 277.235 244.929 276.608 240.544C278.756 240.275 280.904 239.828 283.052 239.201C285.737 238.664 288.243 237.322 290.123 235.442C292.36 232.757 292.36 229.177 292.271 225.955C292.271 225.597 292.092 176.283 292.092 167.333C320.105 139.319 343.465 116.228 344.091 115.602C344.897 114.707 344.718 114.438 344.091 113.812C344.091 113.812 306.77 76.132 291.644 60.917C292.629 57.695 292.629 54.294 291.734 51.072C289.854 44.449 284.842 36.6625 276.429 34.3355C272.223 33.351 267.927 33.351 263.72 34.3355C259.514 35.32 255.665 37.3785 252.443 40.153C252.443 40.153 250.922 38.6315 250.385 38.0945C250.206 37.9155 249.937 37.826 249.758 37.826C249.49 37.826 249.311 37.9155 249.132 38.0945C237.586 49.461 231.858 56.1735 212.616 75.774C212.437 75.953 212.347 76.2215 212.347 76.4005C212.347 76.669 212.437 76.848 212.616 77.027C214.853 79.354 221.655 86.0665 222.729 87.1405C221.655 88.7515 220.671 90.3625 219.865 92.1525C219.328 93.2265 220.939 94.1215 221.476 93.0475C222.282 91.526 223.177 90.0045 224.072 88.483L240.987 105.399C235.17 105.399 224.161 105.488 222.103 105.488C222.819 103.967 223.624 102.535 224.519 101.192C225.235 100.208 223.624 99.223 222.908 100.208C221.745 101.908 220.76 103.698 220.044 105.488C218.881 105.488 219.149 105.488 218.702 105.309C216.822 104.414 214.764 103.967 212.616 104.056C210.557 104.056 208.499 104.593 206.619 105.578C201.07 105.578 189.077 105.667 187.377 105.667C186.75 102.445 180.396 66.824 180.396 66.7345C180.306 66.5555 180.306 66.466 180.127 66.287C180.038 66.1975 179.859 66.108 179.68 66.0185C179.501 66.0185 179.322 66.0185 179.232 66.0185C179.053 66.0185 178.964 66.108 178.785 66.287C177.89 67.182 160.437 83.0235 160.437 83.0235C159.184 80.249 157.573 77.6535 155.694 75.237C154.888 74.2525 153.546 75.595 154.351 76.49C156.231 78.9065 157.842 81.502 159.005 84.2765L141.911 99.8495C141.821 99.939 141.732 100.029 141.732 100.118C141.642 100.208 141.642 100.387 141.642 100.476C141.642 100.566 141.642 100.745 141.732 100.834C141.821 100.924 141.821 101.013 141.911 101.103C142.09 101.371 142 101.282 158.11 105.488C156.052 105.488 124.19 105.22 119.357 105.309C110.586 105.488 104.768 108.084 101.904 112.827C100.651 114.975 100.114 117.392 100.293 119.808C100.293 134.307 100.204 149.075 100.114 163.663C97.4292 166.259 46.2352 217.095 45.6982 217.632C45.5192 217.811 45.4297 218.079 45.4297 218.258C45.4297 218.527 45.5192 218.706 45.6982 218.885L97.1607 270.347C92.2382 273.569 88.1212 277.865 84.8992 282.788C81.7667 287.8 80.7822 294.96 85.7047 299.435L72.6377 317.782C72.5482 317.961 72.4587 318.051 72.4587 318.23C72.4587 318.409 72.4587 318.588 72.5482 318.677C72.6377 318.856 72.7272 318.946 72.9062 319.035C73.0852 319.125 73.1747 319.125 73.3537 319.125H138.51C138.689 319.125 138.868 319.035 138.957 319.035C139.136 318.946 139.226 318.856 139.315 318.677C139.405 318.498 139.405 318.409 139.405 318.23C139.405 318.051 139.405 317.872 139.315 317.782L116.761 280.192C126.069 273.122 120.61 255.49 105.932 264.709C103.515 266.23 101.278 267.841 99.0402 269.721L47.5777 218.348C51.7842 214.141 97.6977 168.586 99.9352 166.348C99.5772 233.384 99.5772 229.446 99.8457 230.967C100.651 234.905 104.679 236.874 106.916 237.68C111.481 239.291 116.224 240.186 120.968 240.544C130.992 241.349 131.708 241.26 159.184 241.26C158.916 243.676 158.289 250.926 158.2 252.179C156.499 270.526 175.384 272.227 184.602 281.982C188.093 285.652 190.778 290.127 192.389 294.96C189.704 293.08 186.482 292.096 183.17 292.096C181.38 292.185 178.964 292.454 177.8 294.423C177.532 294.87 177.442 295.318 177.353 295.765C177.263 296.213 177.353 296.75 177.532 297.108C177.711 297.555 177.89 298.003 178.248 298.361C178.516 298.719 178.964 298.987 179.411 299.166C183.081 301.404 189.883 303.731 188.272 307.669C187.735 309.011 185.229 308.832 184.423 308.743C178.516 308.385 174.041 305.163 168.582 305.342C168.045 305.342 167.508 305.521 167.06 305.7C166.613 305.968 166.165 306.237 165.897 306.684C165.628 307.132 165.449 307.579 165.449 308.027C165.36 308.474 165.449 309.011 165.539 309.459C166.165 311.07 167.329 312.502 168.85 313.397C171.625 315.455 174.22 317.156 176.547 319.035C177.263 319.662 178.695 320.557 178.695 321.631C178.606 323.063 177.174 322.794 175.831 322.347C168.313 320.02 165.36 317.693 162.854 319.572C162.138 320.109 161.601 320.915 161.422 321.81C161.243 322.705 161.332 323.6 161.78 324.405C165.091 330.849 190.151 349.913 217.091 360.295C226.667 364.054 236.96 365.933 247.342 365.665C259.872 365.754 272.402 363.606 284.216 359.4C292.539 356.267 300.326 351.613 307.038 345.796H349.551C349.73 345.796 349.998 345.706 350.088 345.617C350.267 345.527 350.356 345.348 350.446 345.08C353.578 323.51 356.263 307.4 346.955 287.442C345.702 284.667 344.181 282.072 342.48 279.476C345.076 278.939 347.582 277.776 349.73 276.075C351.878 274.375 353.578 272.316 354.652 269.81C355.279 268.468 355.637 266.946 355.637 265.425C355.637 263.903 355.189 262.471 354.473 261.129C351.072 256.296 343.107 257.459 340.869 249.941ZM161.78 90.452C162.048 90.3625 162.227 90.1835 162.317 90.0045C162.406 89.8255 162.496 89.557 162.406 89.2885C162.048 87.8565 161.601 86.514 161.064 85.1715C163.391 83.113 176.547 71.0305 178.695 69.151C179.501 73.5365 185.676 107.726 186.303 111.574C171.625 107.726 147.639 101.371 144.327 100.476L159.542 86.6035C159.9 87.6775 160.258 88.7515 160.527 89.915C160.616 90.1835 160.795 90.3625 160.974 90.452C161.332 90.5415 161.511 90.5415 161.78 90.452ZM180.575 321.81C180.217 320.557 179.501 319.483 178.427 318.767C177.174 317.693 176.1 316.887 174.578 315.813C169.566 312.144 167.955 311.517 167.418 309.906C166.255 306.595 172.072 308.027 175.473 309.101C179.143 310.264 182.723 311.607 186.213 311.159C187.019 311.159 187.824 310.98 188.451 310.533C189.167 310.085 189.704 309.548 190.062 308.832C190.33 308.116 190.42 307.4 190.42 306.684C190.33 305.968 190.151 305.252 189.793 304.536C188.272 302.299 186.303 301.225 182.723 299.345C182.723 299.345 181.738 298.808 181.559 298.719C180.127 298.003 178.964 297.287 179.501 296.034C180.217 294.423 182.812 294.244 184.871 294.512C192.12 295.228 197.669 302.299 206.709 309.19C222.461 321.094 242.867 324.226 257.545 317.066C269.717 311.07 275.355 304.984 281.799 302.567C285.021 301.404 288.422 300.867 291.823 301.046C295.224 301.225 298.536 302.12 301.579 303.731C304.622 305.252 307.307 307.4 309.455 310.085C311.603 312.77 313.214 315.813 314.109 319.035C315.362 323.421 315.362 328.075 314.109 332.46C312.05 339.71 307.665 343.916 300.863 348.839C292.629 354.835 283.231 359.131 273.297 361.458C260.498 364.412 241.524 366.112 226.667 362.085C196.774 353.851 165.449 329.596 163.301 323.868C163.212 323.51 163.212 323.152 163.301 322.884C163.391 322.526 163.57 322.257 163.838 321.989C164.107 321.72 164.375 321.541 164.733 321.452C165.091 321.362 165.449 321.362 165.718 321.452C170.014 322.526 174.578 324.942 177.532 325.211C177.979 325.211 178.427 325.121 178.785 324.942C179.143 324.763 179.501 324.495 179.859 324.226C180.127 323.868 180.396 323.51 180.485 323.063C180.575 322.615 180.575 322.257 180.575 321.81ZM105.753 111.664C110.765 107.368 119.446 107.636 125.085 107.726C128.396 107.815 161.959 107.905 165.181 107.905C189.167 114.259 187.466 113.901 188.003 113.633C188.093 113.543 188.182 113.454 188.272 113.364C188.361 113.275 188.361 113.096 188.451 113.006C188.54 112.559 188.451 112.469 187.645 107.815C192.926 107.815 198.117 107.726 203.397 107.726C201.07 109.516 199.191 111.753 198.027 114.438C143.253 114.438 145.491 114.349 144.327 114.528C143.343 114.796 142.448 115.333 141.911 116.228C141.284 117.034 141.105 118.108 141.195 119.092C141.284 120.077 141.821 121.061 142.537 121.688C143.343 122.404 144.327 122.762 145.312 122.762H258.082C258.798 122.762 259.514 122.672 260.14 122.314C260.767 121.956 261.304 121.509 261.751 120.972C262.109 120.345 262.378 119.719 262.467 119.003C262.557 118.287 262.378 117.571 262.109 116.944C261.751 116.139 261.214 115.512 260.498 115.065C259.782 114.617 258.887 114.438 258.082 114.438H227.831C226.578 111.753 224.698 109.426 222.282 107.636C229.173 107.636 236.065 107.547 242.956 107.547C243.672 108.263 247.879 112.38 249.221 113.812C249.4 113.991 249.669 114.08 249.848 114.08C250.116 114.08 250.295 113.991 250.474 113.812L256.829 107.457C259.514 107.457 270.612 107.457 273.565 107.457C280.278 107.457 287.706 109.516 289.765 115.87C291.376 120.793 288.78 126.789 280.904 129.116C277.503 130.011 274.013 130.28 270.433 130.101C269.896 130.101 118.014 130.011 115.866 129.832C100.562 128.669 99.3087 117.123 105.753 111.664ZM218.075 112.29C217.896 113.454 219.686 113.991 219.865 112.738C220.134 111.485 220.402 110.142 220.85 108.979C222.55 110.142 223.982 111.664 225.056 113.364C226.13 115.154 226.846 117.034 227.115 119.092H198.564C199.907 109.426 210.289 103.161 219.149 107.905C218.702 109.337 218.344 110.858 218.075 112.29ZM229.084 119.987C228.994 118.734 228.815 117.481 228.457 116.318C231.59 116.318 258.082 116.318 258.35 116.318C258.798 116.318 259.245 116.497 259.603 116.855C259.961 117.123 260.23 117.571 260.409 117.929C260.498 118.197 260.498 118.555 260.498 118.824C260.498 119.182 260.319 119.45 260.23 119.719C260.051 119.987 259.872 120.256 259.603 120.435C259.335 120.614 259.066 120.793 258.708 120.882C258.35 120.972 258.082 120.972 257.724 120.882C245.462 120.882 228.189 120.882 228.189 120.882C228.189 120.882 229.084 120.793 229.084 119.987ZM145.312 120.972C144.954 120.972 144.596 120.882 144.238 120.703C143.88 120.524 143.611 120.256 143.432 119.898C143.253 119.54 143.074 119.182 143.074 118.824C143.074 118.466 143.074 118.018 143.253 117.75C143.432 117.302 143.701 116.944 144.148 116.765C144.506 116.497 144.954 116.407 145.401 116.407H197.311C196.953 117.66 196.685 118.913 196.685 120.166C196.685 120.345 196.774 120.524 196.864 120.703C196.953 120.882 197.132 120.972 197.222 121.061L145.312 120.972ZM292.181 164.737C292.002 118.197 292.092 118.824 292.092 118.555C292.181 109.874 282.694 105.578 273.923 105.578C273.923 105.578 260.946 105.578 258.798 105.578L276.34 87.946C279.741 89.4675 283.5 89.557 286.99 88.304C294.419 85.082 294.687 73.984 292.36 64.4075L342.391 114.796C335.41 121.777 297.551 159.367 292.181 164.737ZM290.391 82.4865C288.87 85.798 284.753 88.7515 277.861 86.514C279.204 85.1715 285.2 79.0855 287.706 76.669C287.885 76.49 287.975 76.2215 287.975 76.0425C287.975 75.8635 287.885 75.595 287.706 75.416C284.126 71.657 266.137 53.936 265.51 53.3095C266.584 52.2355 267.927 51.3405 269.359 50.8035C278.13 47.5815 286.632 52.504 289.765 61.5435C291.018 65.8395 291.734 70.225 291.823 74.7C291.913 77.2955 291.465 79.9805 290.391 82.4865ZM290.391 58.411C284.574 46.239 270.522 45.2545 264.078 51.8775C262.02 49.819 255.576 43.4645 253.786 41.6745C256.56 39.258 259.872 37.468 263.452 36.4835C267.032 35.499 270.791 35.32 274.371 35.9465C282.336 37.3785 287.438 44.3595 289.496 50.4455C290.481 52.9515 290.749 55.726 290.391 58.411ZM258.44 67.0925C258.261 68.3455 260.14 68.3455 260.319 67.182C260.588 62.707 261.841 58.411 264.168 54.652C269.09 59.485 282.784 73.1785 285.648 76.0425L249.758 111.932L225.235 87.23C226.13 85.977 227.025 84.8135 228.01 83.7395C228.815 82.8445 227.473 81.502 226.667 82.397C225.772 83.3815 224.877 84.545 223.893 85.8875L214.585 76.669C220.671 70.583 243.493 46.597 249.758 40.332C254.144 44.7175 258.44 49.0135 262.825 53.3095C259.961 57.2475 258.977 62.2595 258.44 67.0925ZM102.083 125.357C107.006 132.249 116.761 132.159 125.353 132.159C130.992 132.07 273.744 132.249 276.071 132.07C279.204 131.801 286.543 130.548 290.123 124.999C290.123 137.708 290.481 225.06 290.481 225.687C290.66 233.563 289.496 235.8 281.352 237.859C279.741 238.306 278.04 238.575 276.34 238.843C275.176 229.356 276.787 222.375 275.892 214.499C274.729 204.117 269.448 194.63 261.214 188.097C261.751 187.47 262.109 186.754 262.288 185.859C262.467 184.964 262.288 184.159 261.93 183.443C261.572 182.727 261.035 182.1 260.319 181.653C259.603 181.205 258.798 181.026 257.992 181.116H148.444C147.102 181.026 145.67 181.026 144.327 181.205C143.343 181.474 142.448 182.011 141.911 182.906C141.284 183.711 141.105 184.785 141.195 185.77C141.284 186.754 141.821 187.739 142.537 188.365C143.253 188.992 144.327 189.439 145.312 189.439H146.744C153.814 195.704 158.379 208.055 159.632 216.916C160.527 224.613 160.527 232.399 159.542 240.007C144.864 240.007 132.603 240.096 123.026 239.47C118.014 239.201 113.092 238.306 108.348 236.785C105.932 235.979 101.815 234.1 101.725 230.162C101.636 228.014 102.083 129.564 102.083 125.357ZM259.782 186.844C258.708 186.128 257.545 185.412 256.381 184.785C255.934 184.517 255.486 184.338 255.039 184.248H143.164C143.343 183.801 143.701 183.443 144.059 183.264C144.417 182.995 144.864 182.906 145.312 182.906H258.35C258.798 182.906 259.245 183.085 259.603 183.353C259.961 183.622 260.23 183.98 260.409 184.427C260.588 184.875 260.588 185.322 260.498 185.77C260.319 186.128 260.051 186.575 259.782 186.844ZM161.78 219.69C160.795 208.145 155.246 192.84 145.58 186.128C151.935 186.038 253.965 186.038 254.77 186.038C255.486 186.486 256.292 186.933 257.097 187.381C263.899 191.587 269.001 198.031 271.686 205.549C273.923 211.635 274.729 218.079 274.013 224.523C273.565 233.115 273.655 245.466 279.472 253.79C281.083 255.848 282.873 257.728 284.932 259.428C274.729 262.919 265.6 269.094 258.619 277.328C253.786 283.593 248.326 293.438 242.33 306.863H206.44C202.055 303.552 198.296 299.793 194.537 297.018C193.284 292.185 191.046 287.621 187.914 283.683C181.022 274.912 174.131 273.838 167.15 268.557C162.406 264.888 159.9 260.771 159.811 256.206C159.9 247.167 163.122 234.547 161.78 219.69ZM241.793 308.743C240.54 311.607 239.287 314.471 237.586 318.946C227.383 318.409 217.538 314.829 209.304 308.743H241.793ZM316.883 324.584C316.704 320.02 315.272 315.545 312.856 311.696C310.439 307.848 307.038 304.626 303.011 302.388C298.983 300.24 294.419 299.077 289.854 299.166C285.29 299.256 280.815 300.509 276.787 302.836C273.207 304.984 267.032 309.996 257.455 314.918C251.906 317.693 245.731 319.125 239.466 318.946C245.283 304.536 253.875 285.562 261.93 276.523C269.269 268.826 278.488 263.277 288.691 260.323C297.193 257.817 306.233 257.817 314.646 260.413C313.93 271.153 325.744 282.788 340.422 280.55C346.776 290.037 350.535 301.135 351.341 312.502C352.057 322.168 350.088 334.877 348.656 344.543H309.007C311.603 341.947 313.751 338.815 315.093 335.414C316.436 331.923 317.062 328.254 316.883 324.584ZM309.902 246.003C308.649 245.914 307.396 245.466 306.412 244.661C305.427 243.855 304.801 242.692 304.532 241.439C304.443 240.096 304.711 238.843 305.338 237.68C305.964 236.516 306.949 235.621 308.202 235.084C310.797 237.411 312.408 237.59 315.541 239.559C315.63 241.17 315.093 242.781 314.019 243.945C313.035 245.108 311.513 245.824 309.902 246.003ZM314.467 246.093C316.078 244.84 317.062 242.96 317.42 240.991C318.584 242.334 319.3 244.124 319.389 245.914C319.568 250.299 315.899 253.969 314.914 258.533C309.902 257.012 304.711 256.385 299.52 256.654C298.178 254.416 297.372 251.821 297.104 249.225C296.477 241.707 301.31 235.174 305.875 230.162C305.875 231.415 306.322 232.578 307.038 233.563C296.746 240.007 306.591 252.358 314.467 246.093ZM324.849 275.359C319.658 271.958 315.004 265.067 316.883 258.175C317.957 254.416 320.732 251.463 321.179 247.435C321.358 245.556 321 243.587 320.195 241.886C319.3 240.186 317.957 238.754 316.346 237.68C312.856 235.532 308.918 234.816 307.754 230.788C307.665 229.893 307.754 228.998 308.023 228.193L308.739 224.881C328.25 221.48 338.811 231.773 338.9 241.797C338.9 244.392 338.274 246.988 338.9 249.583C339.348 251.821 340.511 253.79 342.122 255.401C343.823 256.922 345.792 258.086 347.94 258.981C349.909 259.786 351.609 261.039 352.862 262.74C354.742 265.872 353.31 269.989 351.162 272.674C345.344 279.745 333.351 280.998 324.849 275.359ZM94.9232 275.001C93.1332 277.328 91.8802 280.013 91.2537 282.877C90.7167 285.741 90.8957 288.784 91.7012 291.559L86.7787 298.45C85.8837 297.555 85.2572 296.571 84.8097 295.407C84.3622 294.244 84.0937 293.08 84.1832 291.827C84.2727 286.278 88.2107 281.535 91.1642 278.492C92.3277 277.328 93.5807 276.165 94.9232 275.001ZM87.1367 301.314C88.6582 302.388 90.2692 303.283 91.8802 303.999C92.9542 304.536 93.9387 302.925 92.7752 302.388C91.1642 301.672 89.6427 300.777 88.2107 299.793L92.5962 293.707C94.7442 297.287 98.1452 299.882 102.083 301.135C103.247 301.583 103.694 299.793 102.62 299.345C98.0557 297.555 95.1917 295.139 93.7597 292.006C95.1022 290.127 107.006 273.569 108.706 271.242C110.944 275.001 134.393 314.023 136.809 318.051C132.782 318.051 76.3072 318.051 75.1437 318.051C79.1712 312.412 83.1987 306.863 87.1367 301.314ZM115.777 279.208C113.539 275.538 111.57 272.137 109.601 268.915C109.512 268.736 109.422 268.647 109.243 268.557C109.064 268.468 108.975 268.468 108.796 268.468C108.617 268.468 108.438 268.468 108.348 268.557C108.169 268.647 108.08 268.736 107.99 268.915L93.1332 289.679C91.1642 280.192 99.0402 273.211 99.4877 272.495C101.367 270.884 103.336 269.363 105.395 267.931C107.543 266.23 110.049 265.067 112.734 264.619C113.897 264.44 115.061 264.619 116.135 265.156C117.209 265.693 118.014 266.499 118.641 267.573C119.536 269.542 119.804 271.779 119.267 273.838C118.73 275.986 117.477 277.865 115.777 279.208Z" fill="black"/>
<path d="M183.259 326.822C189.077 329.954 188.54 329.775 188.898 329.775C189.077 329.775 189.166 329.775 189.345 329.686C189.524 329.596 189.614 329.507 189.703 329.417C189.793 329.328 189.882 329.149 189.882 328.97C189.882 328.791 189.882 328.701 189.793 328.522C189.703 328.343 189.614 328.164 189.435 328.075L184.244 325.3C183.08 324.674 182.185 326.285 183.259 326.822Z" fill="black"/>
<path d="M196.774 316.081C197.848 316.618 198.832 315.007 197.669 314.47C196.237 313.754 194.984 312.68 193.999 311.338C193.283 310.353 191.672 311.338 192.388 312.322C193.552 313.844 195.073 315.186 196.774 316.081Z" fill="black"/>
<path d="M343.466 204.475L336.395 218.885C335.858 219.959 337.469 220.854 338.006 219.78L345.077 205.37C345.614 204.296 344.003 203.401 343.466 204.475Z" fill="black"/>
<path d="M341.853 224.075L356.889 213.514C357.874 212.798 356.889 211.187 355.905 211.903L340.869 222.464C339.884 223.18 340.869 224.702 341.853 224.075Z" fill="black"/>
<path d="M360.649 226.044L343.912 228.371C342.749 228.55 343.107 230.34 344.36 230.161L361.096 227.834C362.26 227.655 361.812 225.865 360.649 226.044Z" fill="black"/>
<path d="M158.201 63.96C158.738 65.034 160.438 64.139 159.812 63.065C157.753 59.127 154.979 55.4575 151.757 52.325C150.862 51.5195 149.519 52.7725 150.414 53.6675C153.547 56.621 156.142 60.1115 158.201 63.96Z" fill="black"/>
<path d="M133.319 64.7654C136.72 66.8239 139.494 69.8669 141.195 73.4469C141.732 74.5209 143.343 73.6259 142.806 72.5519C140.926 68.6139 137.973 65.3919 134.214 63.1544C134.035 63.0649 133.766 62.9754 133.498 63.0649C133.229 63.1544 133.05 63.2439 132.961 63.5124C132.871 63.6914 132.782 63.9599 132.871 64.2284C132.961 64.4074 133.14 64.5864 133.319 64.7654Z" fill="black"/>
<path d="M240.898 78.5486C238.123 81.6811 235.707 85.1716 233.648 88.8411C233.559 89.0201 233.469 89.2886 233.559 89.5571C233.648 89.8256 233.738 90.0046 234.006 90.0941C234.185 90.1836 234.454 90.2731 234.722 90.1836C234.991 90.0941 235.17 90.0046 235.259 89.7361C237.228 86.1561 239.555 82.8446 242.24 79.8016C243.046 78.9066 241.703 77.6536 240.898 78.5486Z" fill="black"/>
</svg>
