<svg width="400" height="400" viewBox="0 0 400 400" fill="none" xmlns="http://www.w3.org/2000/svg">
<path d="M270.087 182.94H143.461C153.713 192.066 158.889 202.396 161.587 212.066C168.213 235.816 157.369 256.516 162.587 268.692C166.195 277.11 179.213 282.816 187.213 288.816C193.613 293.616 198.837 304.524 199.837 308.942L214.087 320.442H255.337C268.837 285.566 282.751 275.476 304.087 266.942C299.213 265.066 291.713 253.192 290.963 243.566C290.963 223.816 291.741 210.8 285.463 199.692C282.537 194.514 274.753 187.442 270.087 182.942V182.94Z" fill="white"/>
<path d="M309.634 227.784C309.634 227.536 309.308 109.254 309.266 109.052C309.284 111.202 308.741 113.321 307.692 115.198C304.618 120.786 297.892 123.218 291.714 123.77C288.96 124.016 116.606 123.898 113.204 123.668C109.44 123.485 105.758 122.502 102.404 120.786C99.3655 119.156 97.0515 116.443 95.9217 113.186C95.1417 110.624 95.7697 101.094 95.3377 160.166C95.4986 160.063 95.691 160.021 95.8803 160.047C96.0695 160.073 96.243 160.167 96.3694 160.31C96.4958 160.453 96.5667 160.637 96.5693 160.828C96.572 161.019 96.5061 161.205 96.3837 161.352C96.0357 161.71 95.6757 162.052 95.3237 162.406C95.2837 169.006 95.0217 229.98 95.0197 231.39C94.7357 236.39 96.2977 240.048 102.96 242.486C108.013 244.241 113.281 245.306 118.62 245.652C129.964 246.576 130.82 246.42 161.558 246.408C163.046 231.372 163.628 219.5 158.284 205.33C156.05 198.703 152.263 192.706 147.24 187.84H145.56C144.479 187.834 143.437 187.433 142.631 186.712C141.825 185.992 141.31 185.001 141.183 183.928C141.057 182.854 141.327 181.771 141.943 180.883C142.558 179.994 143.478 179.362 144.528 179.104C146.018 178.9 147.528 178.86 149.026 178.982C149.026 178.982 270.814 178.994 271.456 178.982C272.128 178.94 272.801 179.053 273.422 179.313C274.044 179.573 274.597 179.972 275.04 180.479C275.483 180.987 275.803 181.589 275.976 182.24C276.149 182.891 276.17 183.573 276.038 184.234C275.862 185.118 275.418 185.926 274.768 186.55C279.335 190.133 283.144 194.587 285.974 199.655C288.805 204.723 290.6 210.302 291.256 216.07C292.488 225.916 290.24 233.362 292.056 245.054C294.558 244.756 297.032 244.26 299.456 243.572C302.41 242.984 305.128 241.546 307.276 239.434C310 236.216 309.636 231.716 309.634 227.784ZM162.18 164.342C162.18 164.554 162.095 164.757 161.945 164.907C161.795 165.057 161.592 165.142 161.38 165.142C161.168 165.142 160.964 165.057 160.814 164.907C160.664 164.757 160.58 164.554 160.58 164.342V158.578C160.58 158.366 160.664 158.162 160.814 158.012C160.964 157.862 161.168 157.778 161.38 157.778C161.592 157.778 161.795 157.862 161.945 158.012C162.095 158.162 162.18 158.366 162.18 158.578V164.342ZM264.238 164.342C264.238 164.554 264.153 164.757 264.003 164.907C263.853 165.057 263.65 165.142 263.438 165.142C263.226 165.142 263.022 165.057 262.872 164.907C262.722 164.757 262.638 164.554 262.638 164.342V158.578C262.638 158.366 262.722 158.162 262.872 158.012C263.022 157.862 263.226 157.778 263.438 157.778C263.65 157.778 263.853 157.862 264.003 158.012C264.153 158.162 264.238 158.366 264.238 158.578V164.342Z" fill="#DAF8FF"/>
<path d="M262.427 103.754C262.312 103.767 262.196 103.753 262.087 103.715C261.978 103.677 261.879 103.615 261.797 103.534C259.445 101.148 257.059 98.7942 254.691 96.4282C246.707 96.4582 238.723 96.5022 230.739 96.5582C233.724 98.5686 236.082 101.381 237.539 104.672H271.463C272.215 104.626 272.967 104.772 273.647 105.098C274.327 105.423 274.913 105.916 275.349 106.531C275.785 107.145 276.057 107.861 276.14 108.61C276.223 109.359 276.113 110.117 275.821 110.812C275.471 111.649 274.873 112.358 274.108 112.844C273.343 113.33 272.447 113.571 271.541 113.532C270.941 113.52 145.567 113.532 145.567 113.532C144.484 113.53 143.439 113.131 142.629 112.41C141.82 111.69 141.303 110.698 141.176 109.622C141.049 108.546 141.321 107.461 141.94 106.572C142.559 105.682 143.482 105.051 144.535 104.796C145.789 104.624 139.643 104.672 204.627 104.672C206.055 101.446 208.347 98.6779 211.249 96.6722C205.027 96.7122 198.807 96.7482 192.585 96.7842C193.033 98.7082 193.367 100.656 193.585 102.62C193.586 102.727 193.565 102.834 193.523 102.932C193.48 103.031 193.417 103.119 193.339 103.192C193.26 103.264 193.167 103.319 193.065 103.354C192.963 103.388 192.856 103.4 192.749 103.39C192.593 103.39 167.983 96.8702 167.831 96.8302C164.193 96.8302 126.703 96.7662 123.019 96.6762C115.739 96.4962 106.747 96.4362 101.219 101.126C93.829 107.384 95.449 120.526 112.683 122.02C120.373 122.69 116.849 121.996 285.401 122.296C289.35 122.499 293.308 122.111 297.143 121.146C300.687 120.252 303.797 118.125 305.915 115.146C306.806 113.772 307.379 112.216 307.592 110.591C307.805 108.967 307.653 107.316 307.147 105.758C306.433 104.029 305.373 102.464 304.032 101.16C302.69 99.8559 301.096 98.8405 299.347 98.1762C295.998 96.9059 292.433 96.3032 288.853 96.4022C282.599 96.4382 276.345 96.3462 270.091 96.3762C262.275 104.182 262.833 103.74 262.427 103.754Z" fill="white"/>
<path d="M97.0988 115.776C98.4029 117.877 100.23 119.603 102.401 120.786C105.756 122.502 109.437 123.483 113.201 123.666C121.201 124.21 124.433 123.652 278.351 123.88C282.779 123.88 287.299 124.164 291.711 123.77C301.003 122.942 309.241 118.024 309.263 109.05C309.292 107.174 308.836 105.322 307.939 103.674C304.173 96.974 296.769 94.834 289.177 94.818C284.701 94.818 273.029 94.778 271.671 94.782L270.071 96.382C276.325 96.352 282.579 96.442 288.833 96.408C292.413 96.308 295.979 96.912 299.327 98.182C301.076 98.8455 302.67 99.8605 304.012 101.164C305.353 102.468 306.414 104.033 307.127 105.762C307.633 107.32 307.785 108.971 307.572 110.595C307.359 112.219 306.786 113.776 305.895 115.15C303.776 118.129 300.667 120.256 297.123 121.15C293.288 122.116 289.33 122.504 285.381 122.302C280.907 122.302 116.817 122.388 112.663 122.026C108.882 121.813 105.215 120.652 102.001 118.65C93.7208 113.116 95.1568 99.25 111.415 97.082C117.159 96.314 116.243 96.814 167.829 96.832L161.767 95.232C154.281 95.212 124.101 94.892 116.513 95.068C109.513 95.232 101.097 96.836 97.2428 103.368C96.1 105.23 95.4832 107.367 95.4578 109.552C95.4325 111.737 95.9996 113.888 97.0988 115.776Z" fill="black"/>
<path d="M211.241 96.6721C212.139 96.0521 213.087 95.5121 214.079 95.0601C207.625 95.1001 193.097 95.1801 192.279 95.1841L192.569 96.7841C198.797 96.7521 205.021 96.7141 211.241 96.6721Z" fill="black"/>
<path d="M262.643 158.578V164.342C262.643 164.554 262.727 164.757 262.877 164.908C263.027 165.058 263.23 165.142 263.443 165.142C263.655 165.142 263.858 165.058 264.008 164.908C264.158 164.757 264.243 164.554 264.243 164.342V158.578C264.243 158.366 264.158 158.162 264.008 158.012C263.858 157.862 263.655 157.778 263.443 157.778C263.23 157.778 263.027 157.862 262.877 158.012C262.727 158.162 262.643 158.366 262.643 158.578Z" fill="black"/>
<path d="M304.477 60.8518C299.217 55.4518 282.459 38.9258 279.457 35.9398C275.657 40.0078 274.501 46.0658 273.885 51.5658C273.771 52.5778 272.175 52.5858 272.285 51.5658C272.925 45.8438 274.199 39.0218 278.349 34.8398C276.149 32.6398 268.247 24.7838 266.511 23.0538C266.385 23.1658 266.251 23.2738 266.127 23.3898C265.375 24.0898 264.245 22.9638 264.997 22.2618C265.121 22.1458 265.253 22.0378 265.379 21.9258C264.561 21.1058 263.747 20.2858 262.921 19.4758C262.771 19.3268 262.568 19.2432 262.357 19.2432C262.145 19.2432 261.943 19.3268 261.793 19.4758C248.977 32.1038 242.423 39.8138 220.993 61.6058C220.845 61.7562 220.762 61.9588 220.762 62.1698C220.762 62.3808 220.845 62.5834 220.993 62.7338C224.783 66.5798 228.629 70.3698 232.447 74.1878C233.743 72.3158 235.137 70.5133 236.623 68.7878C237.305 68.0158 238.423 69.1478 237.753 69.9158C236.263 71.6401 234.876 73.4513 233.601 75.3398C233.601 75.3398 259.441 101.14 261.801 103.54C261.953 103.685 262.155 103.766 262.365 103.766C262.575 103.766 262.777 103.685 262.929 103.54L291.981 74.4758C291.781 74.3958 291.581 74.3258 291.381 74.2418C290.437 73.8418 291.251 72.4618 292.181 72.8618C292.681 73.0758 293.007 73.1818 293.207 73.2618C293.207 73.2618 301.381 64.9918 304.479 61.9918C304.624 61.8377 304.706 61.6335 304.705 61.4214C304.705 61.2093 304.623 61.0054 304.477 60.8518ZM244.555 75.9638C246.808 71.8505 249.501 67.9939 252.587 64.4618C253.265 63.6858 254.387 64.8178 253.717 65.5898C250.725 69.0235 248.115 72.7721 245.933 76.7698C245.441 77.6738 244.063 76.8658 244.555 75.9638Z" fill="#59DFFD"/>
<path d="M367.814 104.2C366.23 102.418 357.256 93.4858 308.922 44.7858C312.462 34.4998 304.434 18.6238 292.122 15.2838C287.376 14.1196 282.417 14.1473 277.685 15.3645C272.953 16.5816 268.596 18.9504 265.002 22.2598C264.25 22.9598 265.38 24.0878 266.132 23.3878C269.306 20.4827 273.105 18.346 277.236 17.1427C281.367 15.9393 285.72 15.7016 289.958 16.4478C301.598 18.4838 309.848 32.3478 307.876 42.6278C301.488 28.0958 284.494 26.9178 277.362 35.9458C273.978 40.2258 272.884 46.2458 272.29 51.5638C272.174 52.5838 273.772 52.5758 273.89 51.5638C274.508 46.0238 275.66 40.0438 279.462 35.9378C283.834 31.2158 293.052 30.1378 299.588 34.7378C307.546 40.3518 309.136 49.9978 309.52 59.8178C309.685 62.8849 309.131 65.9482 307.904 68.7638C305.208 74.7158 298.276 75.4518 292.184 72.8538C291.25 72.4538 290.436 73.8278 291.384 74.2318C293.314 75.1657 295.411 75.7051 297.552 75.8185C299.693 75.9318 301.836 75.6167 303.854 74.8918C312.7 71.0918 311.944 57.6718 309.538 47.6518L366.196 104.744C358.674 112.262 313.29 157.344 309.428 161.196V163.44C354.08 118.794 364.768 108.514 367.314 105.892C367.974 105.22 368.414 104.878 367.814 104.2Z" fill="black"/>
<path d="M184.42 51.5202C184.382 51.3861 184.31 51.2642 184.21 51.1666C184.111 51.069 183.988 50.9991 183.853 50.9637C183.718 50.9283 183.576 50.9288 183.442 50.965C183.307 51.0012 183.185 51.072 183.086 51.1702C181.734 52.4402 164.57 68.0242 162.286 70.1042C163.185 72.1479 163.916 74.2616 164.472 76.4242C164.51 76.6221 164.473 76.8273 164.367 76.9988C164.261 77.1702 164.094 77.2952 163.899 77.3488C163.705 77.4024 163.497 77.3806 163.318 77.2878C163.139 77.195 163.002 77.038 162.934 76.8482C162.447 74.9317 161.815 73.055 161.044 71.2342L141.834 88.7202C141.736 88.8191 141.665 88.942 141.629 89.0767C141.593 89.2114 141.592 89.3531 141.628 89.488C141.664 89.6228 141.734 89.7459 141.832 89.8453C141.929 89.9446 142.052 90.0166 142.186 90.0542C143.852 90.5142 190.424 102.888 192.452 103.34C192.585 103.397 192.731 103.418 192.875 103.4C193.019 103.383 193.155 103.327 193.271 103.24C193.386 103.152 193.476 103.036 193.532 102.902C193.588 102.768 193.607 102.622 193.588 102.478C193.6 102.368 184.44 51.6322 184.42 51.5222V51.5202Z" fill="#59DFFD"/>
<path d="M253.751 321.242C253.985 320.708 254.223 320.176 254.459 319.642H214.133C214.835 320.18 215.533 320.722 216.249 321.242H253.751Z" fill="black"/>
<path d="M297.287 259.212C288.039 245.074 292.781 228.264 291.255 216.07C290.598 210.309 288.801 204.736 285.968 199.677C283.135 194.618 279.323 190.173 274.755 186.602C275.4 185.973 275.838 185.163 276.013 184.28C276.188 183.396 276.09 182.481 275.733 181.654C275.375 180.827 274.774 180.129 274.01 179.652C273.246 179.175 272.355 178.941 271.455 178.982C270.813 178.994 149.025 178.982 149.025 178.982C147.526 178.86 146.018 178.901 144.527 179.104C143.477 179.362 142.558 179.994 141.942 180.883C141.326 181.771 141.056 182.854 141.183 183.928C141.31 185.001 141.825 185.992 142.631 186.712C143.437 187.433 144.478 187.834 145.559 187.84H147.261C152.26 192.723 156.033 198.719 158.273 205.338C161.643 214.276 163.383 223.898 162.227 238.662C160.671 258.516 159.329 261.728 161.241 267.94C165.893 280.442 181.149 282.828 189.787 291.96C193.897 296.282 196.956 301.492 198.729 307.186C199.395 307.616 200.045 308.064 200.675 308.526C199.317 303.104 196.816 298.036 193.339 293.66C185.691 283.95 177.987 282.766 170.163 276.766C165.607 273.272 162.029 268.644 161.903 262.728C161.691 252.728 165.241 238.56 163.797 222.06C162.691 209.394 156.503 191.66 145.185 184.286C144.985 184.152 267.785 184.232 268.113 184.21C277.029 188.869 283.854 196.728 287.217 206.21C289.685 213.027 290.591 220.312 289.867 227.526C289.317 238.286 289.741 251.238 295.909 260.022C297.772 262.445 299.921 264.633 302.309 266.54C302.897 266.344 303.489 266.158 304.085 265.98C301.583 263.974 299.304 261.705 297.287 259.212Z" fill="black"/>
<path d="M160.582 158.578V164.342C160.582 164.554 160.666 164.757 160.816 164.908C160.966 165.058 161.17 165.142 161.382 165.142C161.594 165.142 161.798 165.058 161.948 164.908C162.098 164.757 162.182 164.554 162.182 164.342V158.578C162.182 158.366 162.098 158.162 161.948 158.012C161.798 157.862 161.594 157.778 161.382 157.778C161.17 157.778 160.966 157.862 160.816 158.012C160.666 158.162 160.582 158.366 160.582 158.578Z" fill="black"/>
<path d="M326.574 237.636C325.121 238.38 323.892 239.497 323.013 240.873C322.135 242.248 321.638 243.833 321.574 245.464C321.668 247.294 322.371 249.039 323.572 250.423C324.772 251.806 326.4 252.749 328.198 253.1C329.336 253.222 330.487 253.115 331.583 252.785C332.68 252.455 333.698 251.909 334.58 251.179C335.462 250.449 336.189 249.55 336.718 248.535C337.247 247.52 337.567 246.409 337.66 245.268C334.4 242 329.746 241.8 326.574 237.636Z" fill="white"/>
<path d="M377.657 325.696C376.764 312.738 372.546 300.229 365.409 289.376C347.979 293.376 332.771 278.822 335.271 265.698C319.291 260.76 302.825 264.398 288.471 273.02C275.937 280.548 269.757 289.02 262.787 302.366C257.593 312.362 252.92 322.621 248.787 333.1C256.481 333.592 264.168 332.036 271.065 328.59C278.509 324.468 285.724 319.944 292.677 315.038C299.083 311.27 306.676 310.064 313.934 311.661C321.192 313.259 327.578 317.541 331.81 323.65C336.043 329.759 337.808 337.242 336.754 344.599C335.699 351.955 331.901 358.641 326.123 363.314H373.693C373.868 363.315 374.039 363.258 374.178 363.151C374.317 363.045 374.418 362.895 374.463 362.726C376.087 351.666 378.463 336.76 377.657 325.696Z" fill="#59DFFD"/>
<path d="M336.499 334.732C335.587 330.118 333.583 325.79 330.655 322.11C327.729 318.428 323.964 315.5 319.674 313.572C315.384 311.644 310.695 310.772 305.999 311.028C301.303 311.283 296.736 312.658 292.681 315.038C285.724 319.938 278.51 324.462 271.069 328.59C264.175 332.036 256.492 333.592 248.801 333.1C234.953 332.464 223.655 327.18 213.025 318.8C205.009 312.48 197.265 303.326 188.015 303.704C185.903 303.79 183.379 304.194 182.245 306.214C182.005 306.645 181.857 307.12 181.811 307.61C181.765 308.101 181.821 308.595 181.977 309.063C182.132 309.531 182.382 309.961 182.713 310.326C183.043 310.692 183.445 310.985 183.895 311.186C187.995 313.734 195.819 316.316 193.873 321.018C193.243 322.544 190.699 322.5 189.335 322.418C182.637 322.018 177.661 318.418 171.635 318.59C171.091 318.602 170.557 318.735 170.071 318.98C169.585 319.224 169.159 319.573 168.825 320.002C168.56 320.436 168.386 320.919 168.313 321.422C168.24 321.925 168.269 322.437 168.399 322.928C168.937 325.046 170.935 326.316 172.569 327.544C174.569 329.046 177.989 331.282 180.693 333.506C181.547 334.208 183.241 335.32 183.159 336.596C183.029 338.596 180.853 338.008 179.631 337.636C171.271 335.092 168.055 332.512 165.347 334.496C164.571 335.06 164.022 335.884 163.802 336.819C163.582 337.753 163.704 338.735 164.147 339.586C167.779 346.546 195.735 367.97 225.841 379.586C232.965 382.405 240.438 384.246 248.057 385.058C265.854 386.769 283.809 384.554 300.657 378.57C307.946 375.821 314.805 372.042 321.023 367.348C323.422 365.609 325.715 363.728 327.889 361.714C331.488 358.311 334.165 354.051 335.671 349.333C337.176 344.614 337.461 339.591 336.499 334.732ZM264.347 378.072C267.793 378.758 271.364 378.41 274.613 377.072C275.565 376.682 275.977 378.23 275.039 378.612C271.513 380.034 267.646 380.382 263.923 379.612C262.915 379.4 263.343 377.87 264.347 378.072ZM188.917 340.116L194.673 343.236C195.579 343.726 194.771 345.104 193.873 344.614L188.115 341.494C187.201 341 188.015 339.626 188.917 340.116ZM203.217 329.464C201.313 328.476 199.679 327.038 198.459 325.274C197.871 324.426 199.259 323.632 199.837 324.474C200.917 326.003 202.354 327.245 204.023 328.092C204.939 328.554 204.127 329.934 203.217 329.464Z" fill="white"/>
<path d="M257.665 194.41H274.065C274.277 194.41 274.481 194.326 274.631 194.176C274.781 194.026 274.865 193.822 274.865 193.61C274.865 193.398 274.781 193.194 274.631 193.044C274.481 192.894 274.277 192.81 274.065 192.81H257.665C257.453 192.81 257.25 192.894 257.1 193.044C256.95 193.194 256.865 193.398 256.865 193.61C256.865 193.822 256.95 194.026 257.1 194.176C257.25 194.326 257.453 194.41 257.665 194.41Z" fill="black"/>
<path d="M257.665 201.062H274.065C274.277 201.062 274.481 200.978 274.631 200.828C274.781 200.678 274.865 200.474 274.865 200.262C274.865 200.05 274.781 199.846 274.631 199.696C274.481 199.546 274.277 199.462 274.065 199.462H257.665C257.453 199.462 257.25 199.546 257.1 199.696C256.95 199.846 256.865 200.05 256.865 200.262C256.865 200.474 256.95 200.678 257.1 200.828C257.25 200.978 257.453 201.062 257.665 201.062Z" fill="black"/>
<path d="M276.11 108.55C275.951 107.443 275.388 106.433 274.528 105.717C273.669 105 272.574 104.627 271.456 104.67C270.814 104.686 237.532 104.67 237.532 104.67C238.36 106.554 238.842 108.57 238.954 110.622C238.954 110.834 238.87 111.038 238.72 111.188C238.57 111.338 238.366 111.422 238.154 111.422C238.154 111.422 207.866 111.552 204.004 111.538C203.792 111.538 203.588 111.454 203.438 111.304C203.288 111.154 203.204 110.95 203.204 110.738C203.292 108.646 203.772 106.588 204.618 104.672C141.2 104.672 145.806 104.62 144.526 104.796C143.473 105.051 142.55 105.682 141.931 106.572C141.312 107.461 141.04 108.546 141.167 109.622C141.294 110.698 141.811 111.69 142.62 112.41C143.43 113.131 144.475 113.53 145.558 113.532H271.532C272.172 113.547 272.808 113.424 273.397 113.174C273.987 112.923 274.515 112.549 274.949 112.078C275.382 111.606 275.71 111.047 275.91 110.439C276.11 109.831 276.178 109.187 276.11 108.55Z" fill="black"/>
<path d="M257.665 207.714H274.065C274.224 207.716 274.381 207.67 274.514 207.583C274.646 207.495 274.75 207.37 274.811 207.223C274.872 207.075 274.887 206.914 274.855 206.758C274.823 206.602 274.745 206.459 274.631 206.348C274.557 206.274 274.469 206.215 274.372 206.174C274.274 206.134 274.17 206.114 274.065 206.114H257.665C257.453 206.114 257.25 206.198 257.1 206.348C256.95 206.498 256.865 206.702 256.865 206.914C256.865 207.126 256.95 207.329 257.1 207.479C257.25 207.629 257.453 207.714 257.665 207.714Z" fill="black"/>
<path d="M280.284 217.026C280.496 217.026 280.699 216.942 280.849 216.791C280.999 216.641 281.084 216.438 281.084 216.226C281.084 216.014 280.999 215.81 280.849 215.66C280.699 215.51 280.496 215.426 280.284 215.426H173.4C173.187 215.426 172.984 215.51 172.834 215.66C172.684 215.81 172.6 216.014 172.6 216.226C172.6 216.438 172.684 216.641 172.834 216.791C172.984 216.942 173.187 217.026 173.4 217.026C195.238 217.4 258.514 217.4 280.284 217.026Z" fill="black"/>
<path d="M253.386 280C253.11 279.616 247.002 274.414 245.278 272.886C242.476 270.466 240.237 267.462 238.716 264.086C237.46 260.411 236.577 256.62 236.08 252.768C234.834 245.087 234.391 237.297 234.758 229.524C234.758 229.312 234.674 229.108 234.524 228.958C234.374 228.808 234.171 228.724 233.958 228.724C219.392 228.654 182.178 228.698 178.136 228.746C177.925 228.749 177.724 228.834 177.574 228.984C177.425 229.133 177.34 229.335 177.336 229.546C176.656 237.636 176.008 245.746 175.312 253.83C174.975 257.292 175.273 260.786 176.192 264.14C177.454 267.423 179.613 270.285 182.422 272.4C187.111 275.944 192.334 278.72 197.894 280.624C198.654 280.98 199.462 281.214 200.294 281.322C203.078 281.41 195.55 280.284 252.802 281.322C252.954 281.318 253.101 281.271 253.226 281.187C253.352 281.102 253.451 280.984 253.512 280.846C253.572 280.708 253.594 280.554 253.572 280.404C253.55 280.254 253.485 280.114 253.386 280ZM225.35 236.8L229.65 233.454C230.45 232.83 231.588 233.952 230.778 234.582L226.478 237.928C225.678 238.55 224.54 237.428 225.35 236.8ZM236.716 273.382L241.674 274.822C241.868 274.887 242.029 275.024 242.124 275.205C242.22 275.385 242.243 275.595 242.189 275.792C242.135 275.989 242.007 276.157 241.833 276.263C241.658 276.369 241.45 276.405 241.25 276.362C239.586 275.922 237.94 275.418 236.292 274.92C236.103 274.851 235.946 274.714 235.852 274.536C235.761 274.356 235.74 274.149 235.793 273.955C235.847 273.76 235.972 273.593 236.142 273.486C236.314 273.38 236.519 273.343 236.716 273.382ZM203.8 274.782L200.76 277.728C200.022 278.444 198.892 277.316 199.632 276.6L202.672 273.654C203.41 272.928 204.54 274.056 203.8 274.772V274.782ZM185.548 239.3L180.528 235.686C179.7 235.086 180.498 233.706 181.328 234.308L186.348 237.922C187.182 238.518 186.384 239.902 185.548 239.3Z" fill="#59DFFD"/>
<path d="M181.335 234.308C180.499 233.708 179.701 235.09 180.535 235.686L185.555 239.3C186.391 239.9 187.189 238.518 186.355 237.922L181.335 234.308Z" fill="black"/>
<path d="M202.672 273.644L199.632 276.59C198.892 277.306 200.022 278.434 200.76 277.718L203.8 274.772C204.54 274.056 203.41 272.928 202.672 273.644Z" fill="black"/>
<path d="M229.65 233.452L225.35 236.798C224.54 237.428 225.678 238.55 226.478 237.926L230.778 234.58C231.588 233.95 230.452 232.828 229.65 233.452Z" fill="black"/>
<path d="M241.675 274.82L236.717 273.38C236.513 273.324 236.295 273.351 236.111 273.456C235.927 273.56 235.792 273.733 235.736 273.937C235.679 274.141 235.707 274.359 235.811 274.543C235.916 274.727 236.089 274.862 236.293 274.918C237.941 275.416 239.587 275.918 241.251 276.36C241.45 276.403 241.659 276.368 241.833 276.262C242.008 276.156 242.135 275.987 242.189 275.79C242.243 275.593 242.22 275.383 242.125 275.203C242.029 275.023 241.868 274.886 241.675 274.82Z" fill="black"/>
<path d="M253.126 231.106H283.06C283.272 231.106 283.476 231.022 283.626 230.872C283.776 230.722 283.86 230.518 283.86 230.306C283.86 230.094 283.776 229.89 283.626 229.74C283.476 229.59 283.272 229.506 283.06 229.506H253.126C252.914 229.506 252.711 229.59 252.56 229.74C252.41 229.89 252.326 230.094 252.326 230.306C252.326 230.518 252.41 230.722 252.56 230.872C252.711 231.022 252.914 231.106 253.126 231.106Z" fill="black"/>
<path d="M252.128 236.494C251.916 236.494 251.712 236.578 251.562 236.728C251.412 236.878 251.328 237.082 251.328 237.294C251.328 237.506 251.412 237.71 251.562 237.86C251.712 238.01 251.916 238.094 252.128 238.094H283.4C283.612 238.094 283.816 238.01 283.966 237.86C284.116 237.71 284.2 237.506 284.2 237.294C284.2 237.082 284.116 236.878 283.966 236.728C283.816 236.578 283.612 236.494 283.4 236.494H252.128Z" fill="black"/>
<path d="M187.4 202.442C185.248 199.222 183.242 195.902 181.212 192.602C181.141 192.482 181.04 192.382 180.919 192.313C180.798 192.243 180.661 192.207 180.522 192.207C180.382 192.207 180.245 192.243 180.124 192.313C180.003 192.382 179.902 192.482 179.832 192.602C177.938 195.922 176.15 199.302 174.276 202.632C174.206 202.754 174.17 202.891 174.17 203.031C174.17 203.171 174.206 203.309 174.276 203.43C174.345 203.552 174.446 203.653 174.567 203.724C174.688 203.794 174.825 203.832 174.966 203.832C178.388 203.832 186.71 203.642 186.71 203.642C186.85 203.642 186.987 203.604 187.109 203.534C187.23 203.464 187.33 203.362 187.4 203.241C187.47 203.119 187.507 202.982 187.507 202.841C187.507 202.701 187.47 202.564 187.4 202.442Z" fill="#59DFFD"/>
<path d="M205.303 196.38C204.591 195.133 203.494 194.151 202.177 193.58C200.713 192.715 199.063 192.214 197.365 192.12C194.401 191.986 190.859 194.622 191.887 197.92C192.507 199.104 193.387 200.133 194.46 200.929C195.534 201.726 196.774 202.27 198.087 202.52C200.329 203.12 203.337 203.346 204.799 201.178C205.263 200.478 205.551 199.676 205.639 198.84C205.726 198.004 205.611 197.16 205.303 196.378V196.38Z" fill="#59DFFD"/>
<path d="M221.764 192.16C221.41 191.814 221.564 191.76 209.89 191.926C209.733 191.927 209.579 191.975 209.449 192.063C209.318 192.151 209.216 192.275 209.156 192.42C209.096 192.565 209.08 192.725 209.111 192.879C209.141 193.034 209.216 193.176 209.326 193.288C211.09 195.515 212.298 198.131 212.85 200.918C212.897 201.086 212.997 201.235 213.136 201.34C213.275 201.446 213.445 201.504 213.62 201.504H225.314C225.419 201.504 225.523 201.484 225.62 201.443C225.717 201.403 225.806 201.344 225.88 201.27C226.029 201.119 226.113 200.916 226.114 200.704C225.794 197.409 224.24 194.357 221.764 192.16Z" fill="#59DFFD"/>
<path d="M138.737 332.456L105.505 277.128C105.451 277.036 105.378 276.957 105.291 276.894C105.206 276.83 105.109 276.784 105.005 276.759C104.901 276.734 104.793 276.731 104.687 276.75C104.582 276.766 104.481 276.804 104.391 276.862C104.191 276.992 105.391 275.364 87.1635 300.824C88.5635 306.102 92.7855 309.122 97.8495 311.122C98.7955 311.496 98.3875 313.022 97.4255 312.66C94.5499 311.642 91.897 310.08 89.6115 308.06C88.4176 306.942 87.4447 305.61 86.7435 304.132L81.4635 311.508C83.1687 312.682 84.9712 313.708 86.8515 314.574C87.7835 315.012 86.9715 316.39 86.0515 315.952C83.619 314.89 81.3492 313.489 79.3095 311.79L64.5195 332.458C64.4141 332.587 64.3631 332.752 64.3773 332.919C64.3915 333.085 64.4697 333.239 64.5955 333.348C64.6629 333.448 64.7547 333.529 64.8622 333.583C64.9696 333.637 65.0892 333.663 65.2095 333.658H138.047C138.188 333.657 138.325 333.62 138.446 333.549C138.568 333.478 138.668 333.377 138.738 333.255C138.808 333.134 138.844 332.996 138.844 332.856C138.844 332.715 138.807 332.578 138.737 332.456Z" fill="#59DFFD"/>
<path d="M86.014 302.43L80.25 310.482C80.636 310.85 81.04 311.196 81.464 311.518L86.744 304.142C86.466 303.587 86.2222 303.015 86.014 302.43Z" fill="#59DFFD"/>
<path d="M101.788 273.218C99.0604 274.934 96.4542 276.836 93.9881 278.91C86.3881 271.298 40.2881 225.206 36.1881 221.11C43.8741 213.428 96.0301 161.71 96.3881 161.362C96.509 161.215 96.5735 161.03 96.5702 160.84C96.5668 160.649 96.4958 160.467 96.3698 160.324C96.2439 160.181 96.0712 160.088 95.8829 160.062C95.6945 160.035 95.5028 160.076 95.3421 160.178C95.1221 160.302 35.5901 219.44 34.5041 220.544C34.3551 220.694 34.2715 220.897 34.2715 221.108C34.2715 221.319 34.3551 221.522 34.5041 221.672L92.1681 279.338C86.6506 283.006 81.9432 287.766 78.3361 293.324C74.2321 299.896 73.9901 308.09 80.5481 312.818C82.2852 314.034 84.131 315.088 86.0621 315.964C86.9861 316.4 87.7981 315.024 86.8621 314.586C84.3584 313.515 82.0402 312.055 79.9941 310.258C79.0217 309.264 78.2571 308.086 77.7451 306.793C77.2331 305.5 76.9839 304.118 77.0121 302.728C77.0781 296.816 80.9541 291.704 84.8481 287.622C86.6843 285.708 88.664 283.938 90.7701 282.326C87.908 285.648 85.9972 289.681 85.2401 294C84.8021 296.524 84.9701 299.116 85.7303 301.563C86.4904 304.009 87.8209 306.24 89.6121 308.072C91.8976 310.092 94.5505 311.654 97.4261 312.672C98.3881 313.034 98.7961 311.508 97.8501 311.134C92.8501 309.16 88.4721 306.058 87.1641 300.836C86.1049 296.421 86.7664 291.769 89.0141 287.824C91.7973 282.829 95.8668 278.669 100.8 275.778C103.208 273.842 106.064 272.542 109.106 272C110.461 271.797 111.846 272.02 113.068 272.638C114.291 273.257 115.291 274.24 115.93 275.452C117.002 277.736 117.254 280.32 116.642 282.767C116.029 285.215 114.591 287.376 112.57 288.886L113.394 290.256C123.766 282.646 117.936 263.114 101.788 273.218Z" fill="black"/>
<path d="M368 81.248C367.39 80.438 366 81.234 366.622 82.048C371.675 88.7322 374.41 96.8832 374.41 105.263C374.41 113.643 371.675 121.794 366.622 128.478C366.01 129.304 367.396 130.102 368 129.278C373.176 122.341 375.972 113.918 375.972 105.263C375.972 96.608 373.176 88.1847 368 81.248Z" fill="black"/>
<path d="M381.52 81.0858C380.828 80.3238 379.702 81.4558 380.39 82.2158C384.797 87.0072 387.54 93.0916 388.214 99.5658C388.748 105.855 388.035 112.188 386.116 118.202C385.064 121.693 383.824 125.125 382.4 128.482C382.299 128.666 382.271 128.882 382.325 129.086C382.378 129.29 382.507 129.465 382.686 129.576C382.869 129.682 383.087 129.712 383.291 129.658C383.496 129.605 383.671 129.472 383.778 129.29C391 112.254 394.01 94.8438 381.52 81.0858Z" fill="black"/>
<path d="M230.423 96.34C229.64 98.3243 229.047 100.378 228.651 102.474C228.463 103.486 226.925 103.054 227.113 102.05C227.529 99.816 228.167 97.63 229.017 95.524C217.233 89.236 203.715 98.672 203.217 110.738C203.217 110.95 203.301 111.154 203.451 111.304C203.601 111.454 203.805 111.538 204.017 111.538C207.879 111.552 238.167 111.422 238.167 111.422C238.379 111.422 238.582 111.338 238.732 111.188C238.883 111.038 238.967 110.834 238.967 110.622C238.757 107.739 237.875 104.946 236.391 102.466C234.908 99.9858 232.864 97.8877 230.423 96.34Z" fill="#DAF8FF"/>
<path d="M31.4 240.884C28.5104 236.132 26.6269 230.837 25.8659 225.328C25.105 219.819 25.4828 214.212 26.976 208.854C28.0242 205.253 29.51 201.794 31.4 198.554C31.4841 198.373 31.4975 198.167 31.4376 197.977C31.3777 197.786 31.2488 197.625 31.0762 197.525C30.9035 197.425 30.6997 197.393 30.5047 197.435C30.3096 197.478 30.1374 197.591 30.022 197.754C26.027 204.387 23.916 211.983 23.916 219.725C23.916 227.468 26.027 235.064 30.022 241.696C30.568 242.564 31.946 241.764 31.4 240.884Z" fill="black"/>
<path d="M13.0558 208.854C14.104 205.253 15.5904 201.793 17.4818 198.554C17.5689 198.373 17.5843 198.165 17.5249 197.972C17.4656 197.78 17.3359 197.617 17.1617 197.516C16.9875 197.415 16.7816 197.384 16.5851 197.428C16.3887 197.472 16.2161 197.588 16.1018 197.754C12.107 204.386 9.99609 211.982 9.99609 219.724C9.99609 227.466 12.107 235.062 16.1018 241.694C16.6398 242.57 18.0178 241.77 17.4818 240.894C14.5916 236.14 12.7076 230.844 11.9463 225.333C11.185 219.822 11.5626 214.213 13.0558 208.854Z" fill="black"/>
<path d="M148.471 251.5C134.004 251.608 119.551 250.567 105.249 248.388C104.249 248.234 103.811 249.772 104.825 249.926C110.329 250.766 115.853 251.438 121.399 251.944C121.199 255.278 121.505 259.406 124.859 261.028C125.546 261.402 126.311 261.613 127.093 261.643C127.875 261.673 128.654 261.523 129.368 261.202C130.082 260.882 130.712 260.401 131.21 259.797C131.708 259.193 132.059 258.482 132.237 257.72C132.593 256.082 132.785 254.414 132.813 252.74C137.359 252.966 141.505 253.152 148.413 253.098C150.043 253.086 149.525 251.494 148.471 251.5Z" fill="#DAF8FF"/>
<path d="M380.062 272.242C379.022 265.842 372.226 264.696 368.074 261.768C366.029 260.322 364.529 258.23 363.818 255.828C362.942 252.876 363.704 249.892 363.704 246.888C363.704 236.804 355.488 228.798 345.97 226.316C339.744 224.866 333.275 224.804 327.022 226.134C326.888 226.169 326.766 226.239 326.668 226.337C326.57 226.435 326.5 226.558 326.466 226.692C325.534 230.708 326.024 229.88 325.45 230.492C318.526 237.812 311.358 246.928 313.698 257.666C314.16 259.767 314.928 261.789 315.978 263.666C322.48 263.094 329.032 263.784 335.272 265.698C333.872 273.056 338.214 280.59 344.18 285.022C347.195 287.237 350.653 288.773 354.318 289.525C357.983 290.276 361.767 290.226 365.41 289.376C375.656 287.022 381.132 278.836 380.062 272.242ZM328.2 253.1C321.498 251.764 318.222 242.65 326.568 237.636C328.042 239.407 329.899 240.82 332 241.766C334.063 242.623 335.974 243.806 337.662 245.268C337.569 246.409 337.248 247.52 336.719 248.534C336.19 249.549 335.463 250.448 334.582 251.178C333.7 251.908 332.681 252.454 331.585 252.784C330.489 253.114 329.338 253.222 328.2 253.1Z" fill="black"/>
<path d="M367.199 205.104L359.289 221.242C358.837 222.162 360.215 222.972 360.667 222.042L368.577 205.904C369.021 205 367.643 204.182 367.199 205.104Z" fill="black"/>
<path d="M365.024 226.654L381.812 214.866C382.646 214.28 381.85 212.896 381.012 213.488L364.224 225.276C363.384 225.862 364.182 227.246 365.024 226.654Z" fill="black"/>
<path d="M386.2 229.346L367.458 231.982C366.444 232.124 366.874 233.664 367.882 233.522L386.624 230.886C387.628 230.742 387.2 229.2 386.2 229.346Z" fill="black"/>
<path d="M162.935 76.8479C163.003 77.0376 163.14 77.1947 163.319 77.2875C163.498 77.3803 163.706 77.4021 163.9 77.3485C164.095 77.2949 164.262 77.1699 164.368 76.9984C164.474 76.827 164.511 76.6218 164.473 76.4239C163.046 70.8522 160.451 65.6472 156.861 61.1539C156.219 60.3539 155.097 61.4859 155.731 62.2819C159.136 66.5723 161.592 71.5372 162.935 76.8479Z" fill="black"/>
<path d="M151.492 36.2601C154.992 39.6311 157.927 43.543 160.184 47.8461C160.66 48.7561 162.04 47.9501 161.562 47.0461C159.24 42.6229 156.22 38.6022 152.62 35.1381C151.88 34.4181 150.75 35.5481 151.492 36.2621V36.2601Z" fill="black"/>
<path d="M133.159 47.3079C132.978 47.2238 132.772 47.2104 132.581 47.2703C132.391 47.3302 132.23 47.4591 132.13 47.6317C132.029 47.8044 131.997 48.0082 132.04 48.2032C132.082 48.3983 132.196 48.5704 132.359 48.6859C136.212 51.0167 139.31 54.4107 141.281 58.4599C141.725 59.3859 143.105 58.5759 142.661 57.6599C140.618 53.3245 137.304 49.7137 133.159 47.3079Z" fill="black"/>
<path d="M237.756 69.918C238.432 69.15 237.308 68.018 236.626 68.79C233.679 72.1662 231.156 75.8914 229.116 79.882C228.656 80.798 230.032 81.606 230.494 80.682C232.45 76.8014 234.89 73.1845 237.756 69.918Z" fill="black"/>
<path d="M254.69 96.4278L253.09 94.8278C246.444 94.8538 232.108 94.9398 230.994 94.9478C231.806 93.1204 232.78 91.3688 233.902 89.7138C234.482 88.8618 233.102 88.0618 232.524 88.9138C231.231 90.8163 230.13 92.843 229.238 94.9638H227.902C228.256 95.1238 228.658 95.3278 229.008 95.5138C228.162 97.6217 227.524 99.8075 227.104 102.04C226.914 103.04 228.454 103.474 228.642 102.464C229.038 100.368 229.632 98.3141 230.414 96.3298L230.702 96.5298C230.702 96.5298 235.332 96.5138 254.69 96.4278Z" fill="black"/>
<path d="M252.586 64.46C249.5 67.9928 246.807 71.8501 244.554 75.964C244.062 76.864 245.44 77.674 245.932 76.764C248.114 72.7664 250.724 69.0177 253.716 65.584C254.388 64.818 253.264 63.684 252.586 64.462V64.46Z" fill="black"/>
<path d="M263.439 165.362C263.709 165.362 263.969 165.259 264.164 165.073C264.36 164.886 264.476 164.632 264.489 164.362V158.568C264.485 158.43 264.454 158.294 264.396 158.168C264.339 158.043 264.257 157.93 264.155 157.838C264.007 157.699 263.823 157.607 263.624 157.571C263.425 157.535 263.219 157.558 263.033 157.636C262.846 157.715 262.687 157.845 262.573 158.012C262.459 158.179 262.395 158.376 262.391 158.578V164.352C262.402 164.623 262.517 164.879 262.712 165.067C262.907 165.255 263.168 165.36 263.439 165.362Z" fill="black"/>
<path d="M161.38 165.36C161.65 165.36 161.909 165.256 162.105 165.07C162.3 164.884 162.417 164.63 162.43 164.36V158.568C162.43 158.29 162.32 158.024 162.123 157.827C161.926 157.63 161.66 157.52 161.382 157.52C161.104 157.52 160.837 157.63 160.641 157.827C160.444 158.024 160.334 158.29 160.334 158.568V164.342C160.341 164.615 160.454 164.874 160.649 165.065C160.845 165.255 161.107 165.362 161.38 165.362V165.36Z" fill="black"/>
<path d="M257.657 194.66H274.083C274.361 194.658 274.626 194.547 274.823 194.351C275.019 194.155 275.13 193.889 275.131 193.612C275.131 193.334 275.02 193.068 274.824 192.872C274.627 192.675 274.361 192.564 274.083 192.564H257.665C257.388 192.565 257.122 192.676 256.925 192.872C256.729 193.068 256.618 193.334 256.617 193.612C256.618 193.89 256.728 194.156 256.925 194.352C257.121 194.549 257.387 194.659 257.665 194.66H257.657Z" fill="black"/>
<path d="M257.657 201.312H274.083C274.361 201.312 274.628 201.201 274.824 201.005C275.021 200.808 275.131 200.542 275.131 200.264C275.131 199.986 275.021 199.719 274.824 199.523C274.628 199.326 274.361 199.216 274.083 199.216H257.665C257.388 199.217 257.122 199.328 256.925 199.524C256.729 199.72 256.618 199.986 256.617 200.264C256.617 200.402 256.644 200.538 256.696 200.665C256.749 200.792 256.826 200.908 256.924 201.005C257.021 201.103 257.137 201.18 257.264 201.233C257.391 201.285 257.527 201.312 257.665 201.312H257.657Z" fill="black"/>
<path d="M257.658 207.964H274.082C274.352 207.951 274.606 207.835 274.793 207.64C274.98 207.445 275.085 207.186 275.086 206.916C275.087 206.645 274.983 206.384 274.796 206.188C274.609 205.992 274.353 205.877 274.082 205.866H257.664C257.393 205.877 257.137 205.992 256.95 206.188C256.763 206.384 256.659 206.645 256.66 206.916C256.66 207.186 256.764 207.446 256.951 207.642C257.139 207.837 257.394 207.952 257.664 207.964H257.658Z" fill="black"/>
<path d="M173.4 217.276C178.058 217.358 279.342 217.292 280.284 217.276C280.562 217.276 280.828 217.165 281.025 216.969C281.221 216.772 281.332 216.506 281.332 216.228C281.332 215.95 281.221 215.683 281.025 215.487C280.828 215.29 280.562 215.18 280.284 215.18C277.884 215.138 180.896 215.11 173.418 215.448C171.712 215.524 172.37 217.258 173.4 217.276Z" fill="black"/>
<path d="M253.538 279.8C246.686 273.446 241.938 270.872 238.952 264.018C237.699 260.36 236.82 256.584 236.328 252.748C235.075 245.079 234.632 237.298 235.008 229.536C235.004 229.26 234.892 228.996 234.696 228.801C234.501 228.606 234.237 228.494 233.96 228.49C219.402 228.422 182.122 228.466 178.134 228.512C177.861 228.514 177.599 228.622 177.404 228.813C177.209 229.005 177.097 229.265 177.09 229.538C176.816 232.802 175.49 248.996 175.066 253.822C174.727 257.321 175.03 260.853 175.962 264.242C177.241 267.568 179.428 270.468 182.274 272.612C186.977 276.167 192.215 278.953 197.792 280.864C200.212 281.998 197.14 282.216 252.792 281.584C252.942 281.585 253.09 281.554 253.226 281.492C253.363 281.431 253.484 281.341 253.583 281.228C253.681 281.116 253.754 280.984 253.797 280.84C253.84 280.697 253.851 280.546 253.83 280.398C253.805 280.2 253.722 280.014 253.592 279.862L253.538 279.8ZM236.51 263.4C238.694 270.428 243.612 273.864 250.04 279.48C244.16 279.48 201.396 279.504 200.318 279.48C198.332 278.86 196.384 278.126 194.482 277.28C191.429 275.956 188.493 274.376 185.704 272.558C182.904 270.838 180.555 268.473 178.854 265.66C176.346 261.33 176.93 255.11 177.672 247.232C177.8 245.86 179.1 230.596 179.1 230.596C188.388 230.596 231.154 230.574 232.848 230.574C232.489 241.635 233.722 252.69 236.51 263.4Z" fill="black"/>
<path d="M186.501 237.72L181.481 234.106C180.381 233.306 179.281 235.106 180.383 235.89C185.783 239.788 185.563 239.7 185.969 239.7C186.189 239.676 186.397 239.585 186.566 239.441C186.735 239.297 186.856 239.106 186.915 238.892C186.972 238.677 186.964 238.451 186.89 238.241C186.816 238.032 186.68 237.85 186.501 237.72Z" fill="black"/>
<path d="M202.499 273.464L199.459 276.41C199.277 276.601 199.173 276.854 199.17 277.118C199.167 277.382 199.263 277.637 199.441 277.833C199.618 278.028 199.863 278.149 200.127 278.171C200.39 278.193 200.651 278.115 200.859 277.952C201.285 277.614 202.043 276.82 203.967 274.952C204.951 274 203.475 272.518 202.499 273.464Z" fill="black"/>
<path d="M229.498 233.254L225.202 236.6C224.12 237.438 225.578 238.946 226.636 238.124L230.936 234.778C232.002 233.942 230.554 232.43 229.498 233.254Z" fill="black"/>
<path d="M236.221 275.158C237.867 275.656 239.541 276.158 241.187 276.602C241.319 276.636 241.456 276.644 241.591 276.624C241.725 276.605 241.855 276.558 241.971 276.488C242.145 276.383 242.285 276.23 242.375 276.048C242.465 275.866 242.5 275.662 242.477 275.46C242.454 275.258 242.372 275.067 242.242 274.911C242.112 274.755 241.939 274.64 241.745 274.58L236.775 273.136C236.64 273.102 236.5 273.095 236.362 273.117C236.224 273.139 236.093 273.189 235.975 273.264C235.848 273.344 235.739 273.45 235.656 273.576C235.573 273.701 235.518 273.843 235.495 273.992C235.472 274.14 235.481 274.292 235.521 274.437C235.561 274.582 235.632 274.717 235.729 274.832C235.857 274.986 236.029 275.098 236.221 275.158Z" fill="black"/>
<path d="M252.106 230.344C252.115 230.609 252.225 230.861 252.413 231.049C252.601 231.237 252.853 231.346 253.118 231.356H283.068C283.346 231.356 283.612 231.245 283.809 231.049C284.006 230.852 284.116 230.586 284.116 230.308C284.116 230.03 284.006 229.763 283.809 229.567C283.612 229.37 283.346 229.26 283.068 229.26H253.118C252.84 229.271 252.579 229.391 252.389 229.594C252.2 229.797 252.098 230.066 252.106 230.344Z" fill="black"/>
<path d="M252.121 236.244C251.85 236.255 251.594 236.371 251.407 236.566C251.22 236.762 251.116 237.023 251.117 237.294C251.117 237.565 251.221 237.825 251.408 238.02C251.596 238.215 251.851 238.331 252.121 238.342H283.401C283.671 238.329 283.925 238.213 284.112 238.018C284.299 237.823 284.404 237.564 284.405 237.294C284.406 237.023 284.302 236.762 284.115 236.566C283.928 236.371 283.672 236.255 283.401 236.244H252.121Z" fill="black"/>
<path d="M174.966 204.082L186.72 203.894C186.907 203.893 187.089 203.842 187.249 203.747C187.409 203.652 187.541 203.516 187.632 203.354C187.722 203.191 187.768 203.007 187.764 202.821C187.76 202.635 187.707 202.453 187.61 202.294C185.5 199.134 183.494 195.82 181.426 192.46C181.331 192.308 181.198 192.182 181.041 192.095C180.883 192.008 180.706 191.962 180.526 191.962C180.346 191.962 180.169 192.008 180.012 192.095C179.855 192.182 179.722 192.308 179.626 192.46C178.578 194.294 174.908 201 174.068 202.492C173.974 202.652 173.924 202.833 173.922 203.018C173.92 203.203 173.967 203.385 174.058 203.547C174.149 203.708 174.281 203.842 174.44 203.936C174.6 204.03 174.781 204.08 174.966 204.082ZM176.766 201.958C177.852 200.022 179.214 197.584 180.58 195.074C181.988 197.329 183.402 199.58 184.824 201.826L176.766 201.958Z" fill="black"/>
<path d="M198.015 202.754C200.551 203.44 203.525 203.496 205.001 201.31C205.489 200.572 205.792 199.726 205.882 198.846C205.973 197.965 205.849 197.076 205.521 196.254C204.786 194.967 203.657 193.95 202.301 193.354C200.802 192.47 199.114 191.959 197.377 191.862C194.119 191.706 190.587 194.6 191.653 198C192.801 201.05 196.483 202.34 198.015 202.754ZM197.239 193.954C198.546 194.009 199.821 194.372 200.961 195.014C201.977 195.414 202.863 196.084 203.527 196.952C203.732 197.421 203.828 197.931 203.807 198.443C203.786 198.955 203.649 199.455 203.407 199.906C202.207 202.116 197.765 200.79 195.607 199.436C194.764 198.98 194.083 198.274 193.657 197.416C193.053 195.452 195.381 193.894 197.239 193.956V193.954Z" fill="black"/>
<path d="M212.601 200.968C212.661 201.192 212.791 201.39 212.975 201.534C213.159 201.675 213.385 201.752 213.617 201.754H225.313C225.59 201.75 225.854 201.638 226.049 201.442C226.244 201.247 226.355 200.982 226.359 200.706C226.009 197.343 224.427 194.229 221.917 191.964C221.493 191.544 221.457 191.51 209.881 191.676C209.679 191.682 209.483 191.746 209.316 191.86C209.149 191.974 209.018 192.133 208.939 192.319C208.859 192.504 208.835 192.709 208.868 192.908C208.901 193.108 208.99 193.294 209.125 193.444C210.84 195.656 212.028 198.229 212.601 200.968ZM211.903 193.768H220.753C222.415 195.367 223.583 197.41 224.119 199.654H214.419C213.897 197.574 213.05 195.588 211.909 193.772L211.903 193.768Z" fill="black"/>
<path d="M263.873 379.856C267.644 380.637 271.562 380.282 275.131 378.836C276.385 378.33 275.771 376.318 274.519 376.836C271.318 378.166 267.794 378.514 264.395 377.836C263.069 377.562 262.541 379.584 263.873 379.856Z" fill="black"/>
<path d="M366.425 128.336C365.609 129.44 367.425 130.516 368.207 129.436C373.449 122.468 376.284 113.985 376.284 105.266C376.284 96.5465 373.449 88.0635 368.207 81.0958C367.407 80.0298 365.607 81.1118 366.429 82.2038C371.451 88.8453 374.168 96.9442 374.167 105.27C374.166 113.597 371.448 121.695 366.425 128.336Z" fill="black"/>
<path d="M387.965 99.5998C388.501 105.857 387.792 112.158 385.879 118.14C384.831 121.615 383.597 125.031 382.181 128.374C382.074 128.555 382.024 128.765 382.037 128.975C382.05 129.185 382.126 129.387 382.255 129.554C382.363 129.692 382.503 129.801 382.664 129.871C382.825 129.941 383 129.969 383.175 129.953C383.349 129.938 383.517 129.879 383.663 129.782C383.809 129.685 383.928 129.553 384.009 129.398C393.071 108.042 392.339 92.6418 381.707 80.9278C380.789 79.9178 379.307 81.3918 380.207 82.3938C384.565 87.153 387.284 93.1829 387.965 99.5998Z" fill="black"/>
<path d="M27.2254 208.922C28.2656 205.339 29.7434 201.897 31.6254 198.676C31.7503 198.437 31.7784 198.159 31.704 197.9C31.6295 197.64 31.4581 197.42 31.2254 197.284C30.9927 197.147 30.7164 197.106 30.4539 197.168C30.1914 197.23 29.9628 197.39 29.8154 197.616C25.7762 204.28 23.6406 211.923 23.6406 219.716C23.6406 227.508 25.7762 235.152 29.8154 241.816C29.968 242.031 30.1959 242.181 30.4538 242.235C30.7117 242.29 30.9808 242.246 31.2075 242.111C31.4342 241.977 31.6021 241.762 31.6776 241.509C31.7532 241.257 31.731 240.985 31.6154 240.748C28.7523 236.023 26.8858 230.762 26.1309 225.289C25.3759 219.815 25.7484 214.246 27.2254 208.922Z" fill="black"/>
<path d="M13.2967 208.922C14.3354 205.338 15.8133 201.897 17.6967 198.676C17.8287 198.436 17.8617 198.154 17.7889 197.89C17.7161 197.626 17.5432 197.402 17.307 197.263C17.0707 197.125 16.7899 197.085 16.5242 197.15C16.2585 197.216 16.0291 197.383 15.8847 197.616C11.8462 204.28 9.71094 211.923 9.71094 219.716C9.71094 227.508 11.8462 235.152 15.8847 241.816C16.0398 242.025 16.2669 242.169 16.5222 242.221C16.7775 242.272 17.0428 242.227 17.2667 242.094C17.4907 241.961 17.6574 241.75 17.7346 241.501C17.8118 241.253 17.794 240.984 17.6847 240.748C14.8211 236.023 12.9546 230.762 12.2 225.288C11.4454 219.815 11.8186 214.245 13.2967 208.922Z" fill="black"/>
<path d="M149.033 251.246C134.39 251.409 119.759 250.37 105.287 248.14C103.953 247.94 103.443 249.97 104.789 250.174C110.189 250.998 115.691 251.67 121.133 252.174C120.879 256.974 122.061 259.954 124.751 261.254C125.472 261.644 126.274 261.862 127.093 261.893C127.913 261.923 128.729 261.764 129.477 261.428C130.225 261.09 130.884 260.585 131.405 259.952C131.926 259.318 132.294 258.573 132.481 257.774C132.821 256.206 133.013 254.608 133.057 253.004C139.495 253.322 144.871 253.438 149.035 253.344C149.242 253.342 149.444 253.28 149.615 253.164C149.787 253.048 149.92 252.885 149.999 252.693C150.078 252.502 150.099 252.292 150.059 252.089C150.019 251.886 149.92 251.699 149.775 251.552C149.578 251.356 149.311 251.246 149.033 251.246ZM130.965 252.898C130.853 255.914 130.785 259.408 127.765 259.734C126.912 259.824 126.053 259.625 125.327 259.167C124.601 258.709 124.051 258.021 123.765 257.212C123.239 255.649 123.053 253.992 123.219 252.352L130.965 252.898Z" fill="black"/>
<path d="M364.059 255.758C363.195 252.854 363.955 249.938 363.955 246.888C363.919 242.077 362.109 237.448 358.873 233.888C351.769 225.944 341.039 223.25 326.961 225.888C326.782 225.932 326.618 226.025 326.488 226.156C326.358 226.286 326.266 226.451 326.223 226.63C325.961 227.758 325.739 228.974 325.521 230.05C318.413 237.65 311.053 246.688 313.455 257.708C313.892 259.71 314.606 261.641 315.575 263.446C311.697 263.794 307.867 264.546 304.147 265.69C301.697 263.731 299.468 261.512 297.499 259.072C294.783 254.908 293.021 250.196 292.339 245.272C294.769 244.97 297.173 244.482 299.529 243.814C302.531 243.214 305.292 241.748 307.471 239.596C309.967 236.636 309.929 232.582 309.893 228.996C309.893 228.584 309.725 173.506 309.679 163.544C340.935 132.288 367.103 106.482 367.763 105.784C368.675 104.816 368.491 104.532 367.779 103.784C367.779 103.784 326.083 61.7199 309.209 44.7159C310.297 41.1419 310.319 37.3283 309.273 33.7419C307.183 26.3759 301.595 17.5939 292.185 15.0419C287.521 13.9041 282.652 13.904 277.988 15.0415C273.324 16.1789 269.001 18.4207 265.385 21.5779C265.385 21.5779 263.665 19.8559 263.093 19.2939C262.895 19.1009 262.629 18.9929 262.353 18.9929C262.076 18.9929 261.811 19.1009 261.613 19.2939C248.757 31.9619 242.337 39.5379 220.813 61.4259C220.619 61.6234 220.51 61.8891 220.51 62.1659C220.51 62.4427 220.619 62.7084 220.813 62.9059C223.329 65.4599 230.887 72.9799 232.125 74.2159C230.93 75.9964 229.849 77.8501 228.887 79.7659C228.287 80.9779 230.103 82.0099 230.713 80.7959C231.588 79.052 232.565 77.3605 233.637 75.7299L252.493 94.5859C246.035 94.6119 233.727 94.6839 231.385 94.6979C232.157 93.0119 233.069 91.3919 234.111 89.8579C234.877 88.7299 233.079 87.6579 232.311 88.7699C231.039 90.6399 229.953 92.6293 229.067 94.7099C227.773 94.7099 228.039 94.7579 227.533 94.5299C225.409 93.5361 223.084 93.0441 220.74 93.092C218.395 93.1398 216.093 93.7262 214.011 94.8059C207.843 94.8459 194.459 94.9179 192.485 94.9259C191.829 91.2939 184.659 51.4999 184.647 51.4459C184.596 51.2714 184.501 51.1129 184.372 50.9859C184.242 50.8589 184.081 50.7677 183.906 50.7212C183.73 50.6747 183.545 50.6744 183.37 50.7205C183.194 50.7665 183.033 50.8573 182.903 50.9839C181.873 51.9499 162.361 69.6819 162.361 69.6819C160.956 66.5753 159.169 63.6561 157.041 60.9919C156.187 59.9259 154.683 61.3919 155.523 62.4319C157.641 65.0955 159.39 68.0327 160.723 71.1639L141.633 88.5419C141.535 88.6423 141.458 88.7612 141.406 88.8918C141.355 89.0223 141.33 89.1618 141.333 89.302C141.336 89.4423 141.367 89.5805 141.425 89.7086C141.482 89.8367 141.564 89.952 141.667 90.0479C141.891 90.3119 141.771 90.2079 159.791 94.9679C157.517 94.9539 121.891 94.6859 116.487 94.8119C106.725 95.0399 100.173 97.8719 97.0087 103.236C95.6137 105.593 94.9939 108.328 95.2367 111.056C95.2367 127.296 95.1767 143.786 95.0567 160.07C92.0087 162.99 34.8567 219.79 34.2887 220.362C34.096 220.56 33.9883 220.826 33.9883 221.103C33.9883 221.38 34.096 221.645 34.2887 221.844L91.7607 279.314C86.2923 282.942 81.6361 287.666 78.0867 293.186C74.5607 298.832 73.4867 306.754 78.9507 311.832L64.3267 332.3C64.2259 332.458 64.1696 332.64 64.1636 332.827C64.1576 333.014 64.2022 333.199 64.2928 333.363C64.3833 333.527 64.5163 333.663 64.6779 333.758C64.8395 333.852 65.0236 333.901 65.2107 333.9H138.051C138.235 333.899 138.415 333.849 138.574 333.755C138.733 333.662 138.864 333.528 138.955 333.368C139.046 333.208 139.094 333.028 139.094 332.844C139.094 332.66 139.046 332.479 138.955 332.32L113.725 290.32C124.079 282.44 118.011 262.77 101.655 273C98.9798 274.68 96.4188 276.534 93.9887 278.552L36.5387 221.108C41.2847 216.368 92.5507 165.52 95.0607 163.02C94.6607 237.916 94.6907 233.54 94.9367 235.186C95.8427 239.556 100.295 241.786 102.867 242.73C107.941 244.493 113.23 245.562 118.591 245.908C129.791 246.822 130.591 246.68 161.273 246.666C161.011 249.338 160.283 257.466 160.153 258.854C158.265 279.394 179.313 281.254 189.607 292.132C193.525 296.264 196.488 301.206 198.285 306.61C195.254 304.543 191.669 303.443 188.001 303.454C186.025 303.534 183.255 303.896 182.023 306.09C181.766 306.548 181.607 307.054 181.555 307.576C181.504 308.099 181.562 308.626 181.725 309.125C181.888 309.624 182.153 310.084 182.503 310.475C182.853 310.866 183.281 311.181 183.759 311.398C187.809 313.916 195.481 316.468 193.639 320.922C193.039 322.388 190.257 322.224 189.345 322.17C182.761 321.77 177.733 318.17 171.625 318.34C171.039 318.353 170.465 318.497 169.943 318.762C169.421 319.026 168.965 319.405 168.609 319.87C168.326 320.332 168.139 320.846 168.061 321.382C167.982 321.918 168.014 322.464 168.153 322.988C168.856 324.831 170.175 326.374 171.887 327.354C175.029 329.678 177.909 331.544 180.529 333.698C181.355 334.382 182.979 335.446 182.905 336.58C182.805 338.164 181.239 337.864 179.705 337.396C171.281 334.834 168.047 332.21 165.201 334.294C164.384 334.898 163.808 335.772 163.576 336.761C163.344 337.751 163.471 338.79 163.935 339.694C167.667 346.846 195.675 368.204 225.763 379.818C236.504 384.041 247.977 386.092 259.517 385.852C273.567 385.933 287.522 383.547 300.747 378.804C310.071 375.26 318.698 370.099 326.229 363.558H373.709C373.943 363.557 374.17 363.477 374.353 363.332C374.537 363.187 374.667 362.985 374.723 362.758C378.269 338.698 381.239 320.646 370.813 298.38C369.37 295.311 367.704 292.353 365.829 289.528C368.768 288.91 371.525 287.62 373.884 285.761C376.244 283.901 378.141 281.522 379.429 278.808C380.158 277.296 380.519 275.633 380.481 273.955C380.443 272.276 380.008 270.631 379.211 269.154C375.457 262.932 366.557 264.168 364.059 255.758ZM164.011 77.6099C164.265 77.531 164.479 77.3581 164.61 77.1265C164.741 76.895 164.778 76.6222 164.715 76.3639C164.322 74.7915 163.826 73.2468 163.229 71.7399C165.787 69.4139 180.561 55.9799 182.963 53.8079C183.843 58.6939 190.725 96.9259 191.485 101.174C175.069 96.8379 148.273 89.7519 144.545 88.7479L161.569 73.2519C162.001 74.4519 162.381 75.6799 162.697 76.9239C162.78 77.1888 162.966 77.4098 163.212 77.5384C163.458 77.6669 163.746 77.6927 164.011 77.6099ZM184.963 336.064C184.61 334.661 183.741 333.442 182.529 332.652C181.093 331.428 179.885 330.532 178.225 329.332C172.625 325.27 170.863 324.496 170.257 322.75C168.953 319.002 175.457 320.698 179.257 321.882C183.315 323.144 187.361 324.67 191.293 324.22C192.182 324.239 193.059 324.005 193.821 323.545C194.582 323.084 195.197 322.417 195.593 321.62C195.889 320.841 196.013 320.007 195.956 319.176C195.899 318.344 195.663 317.535 195.263 316.804C193.517 314.254 191.329 313.092 187.357 310.984C187.357 310.984 186.217 310.384 186.051 310.3C184.437 309.482 183.147 308.7 183.731 307.32C184.509 305.484 187.431 305.364 189.745 305.588C197.829 306.368 204.025 314.322 214.115 321.95C231.695 335.238 254.515 338.764 270.887 330.724C284.455 324.062 290.831 317.184 297.943 314.524C301.523 313.198 305.339 312.629 309.151 312.851C312.962 313.073 316.686 314.082 320.088 315.814C323.491 317.546 326.497 319.964 328.919 322.916C331.34 325.868 333.125 329.289 334.159 332.964C335.54 337.879 335.535 343.08 334.143 347.992C331.841 356.068 326.965 360.82 319.325 366.298C310.125 373.042 299.644 377.836 288.525 380.386C274.245 383.694 253.071 385.606 236.463 381.048C203.081 371.89 168.103 344.714 165.619 338.346C165.509 337.977 165.501 337.585 165.595 337.212C165.689 336.838 165.881 336.497 166.152 336.224C166.423 335.95 166.762 335.754 167.134 335.657C167.507 335.56 167.899 335.564 168.269 335.67C173.021 336.916 178.141 339.55 181.487 339.908C181.976 339.912 182.461 339.813 182.91 339.616C183.358 339.419 183.76 339.13 184.088 338.767C184.417 338.404 184.664 337.975 184.815 337.509C184.966 337.043 185.016 336.551 184.963 336.064ZM101.373 101.316C107.019 96.5359 116.645 96.7699 123.013 96.9159C126.687 97.0059 164.201 97.0699 167.799 97.0719C194.599 104.22 192.749 103.812 193.307 103.506C193.437 103.437 193.551 103.339 193.638 103.22C193.726 103.101 193.785 102.963 193.813 102.818C193.907 102.354 193.813 102.218 192.877 97.0179C198.743 96.9879 204.605 96.9519 210.463 96.9139C207.865 98.8678 205.801 101.445 204.463 104.408C143.249 104.408 145.727 104.348 144.463 104.538C143.351 104.808 142.377 105.475 141.724 106.414C141.071 107.353 140.784 108.499 140.919 109.635C141.053 110.771 141.598 111.818 142.452 112.579C143.306 113.34 144.409 113.763 145.553 113.766H271.523C272.315 113.797 273.103 113.626 273.812 113.269C274.52 112.913 275.127 112.381 275.574 111.726C276.02 111.07 276.293 110.312 276.367 109.522C276.44 108.732 276.311 107.936 275.993 107.21C275.611 106.336 274.972 105.599 274.16 105.098C273.348 104.598 272.403 104.357 271.451 104.408H237.689C236.319 101.385 234.195 98.7652 231.521 96.7999C239.211 96.7499 246.899 96.7079 254.589 96.6739C255.341 97.4279 260.041 102.102 261.619 103.704C261.818 103.897 262.084 104.005 262.361 104.005C262.638 104.005 262.904 103.897 263.103 103.704L270.181 96.6239C273.181 96.6119 285.621 96.6699 288.841 96.6519C296.335 96.6059 304.671 98.9379 306.955 106.068C308.731 111.612 305.859 118.248 297.063 120.9C293.252 121.864 289.318 122.248 285.393 122.04C284.775 122.04 115.065 121.972 112.697 121.766C95.6307 120.29 94.2187 107.374 101.373 101.316ZM226.867 102C226.617 103.33 228.645 103.856 228.897 102.516C229.173 101.076 229.541 99.6599 230.001 98.2699C231.892 99.5751 233.492 101.259 234.699 103.214C235.907 105.169 236.695 107.354 237.015 109.63H205.157C206.685 98.8759 218.295 91.8299 228.157 97.1419C227.61 98.728 227.179 100.352 226.867 102ZM239.205 110.6C239.132 109.212 238.889 107.838 238.481 106.51C242.015 106.51 271.547 106.496 271.893 106.51C272.408 106.552 272.899 106.746 273.303 107.068C273.708 107.389 274.008 107.824 274.165 108.316C274.269 108.643 274.307 108.988 274.277 109.33C274.233 109.694 274.116 110.046 273.932 110.363C273.748 110.68 273.501 110.957 273.207 111.176C272.912 111.395 272.576 111.552 272.219 111.637C271.863 111.721 271.492 111.733 271.131 111.67C257.463 111.67 238.161 111.658 238.161 111.658C238.161 111.658 239.157 111.504 239.201 110.61L239.205 110.6ZM145.565 111.674C145.137 111.668 144.718 111.556 144.343 111.349C143.969 111.142 143.652 110.846 143.419 110.487C143.187 110.128 143.047 109.717 143.011 109.291C142.975 108.865 143.045 108.437 143.215 108.044C143.419 107.577 143.759 107.182 144.191 106.91C144.622 106.638 145.125 106.502 145.635 106.52H203.671C203.239 107.887 202.999 109.307 202.959 110.74C202.958 110.938 203.015 111.132 203.121 111.299C203.227 111.467 203.379 111.6 203.559 111.684L145.565 111.674ZM309.667 160.6C309.447 108.6 309.583 109.292 309.517 109.048C309.601 99.3059 299.003 94.5839 289.181 94.5599C289.181 94.5599 274.667 94.5279 272.279 94.5259L292.043 74.7639C295.813 76.425 300.081 76.5541 303.945 75.1239C312.251 71.5599 312.513 59.1619 309.945 48.4239L365.845 104.748C357.959 112.622 315.661 154.628 309.667 160.6ZM307.667 68.6659C305.995 72.3539 301.331 75.6919 293.657 73.1399C295.119 71.6599 301.907 64.8059 304.645 62.1539C304.837 61.9551 304.944 61.6894 304.944 61.4129C304.944 61.1364 304.837 60.8707 304.645 60.6719C300.601 56.5159 280.541 36.6639 279.801 35.9319C281.001 34.6863 282.467 33.7289 284.091 33.1319C293.869 29.5319 303.383 35.0319 306.931 45.1319C308.322 49.9199 309.105 54.8642 309.261 59.8479C309.429 62.8729 308.885 65.8952 307.673 68.6719L307.667 68.6659ZM307.749 41.7979C301.257 28.1699 285.507 27.1179 278.349 34.4759C276.001 32.1399 268.883 25.0559 266.881 23.0599C270.005 20.3528 273.693 18.3766 277.678 17.275C281.662 16.1734 285.842 15.9742 289.913 16.6919C298.847 18.2519 304.513 26.0759 306.833 32.8759C307.827 35.7391 308.143 38.794 307.755 41.7999L307.749 41.7979ZM272.033 51.5319C271.881 52.8859 273.977 52.9319 274.127 51.5879C274.385 46.6227 275.873 41.7995 278.457 37.5519C283.917 42.9839 299.257 58.2619 302.423 61.4119L262.361 101.486L234.863 73.9859C235.822 72.6332 236.851 71.3308 237.945 70.0839C238.839 69.0639 237.345 67.6039 236.441 68.6239C235.441 69.7539 234.441 71.0239 233.365 72.4899L223.039 62.1639C229.829 55.3499 255.345 28.5779 262.369 21.5239C267.229 26.3759 272.095 31.2239 276.969 36.0639C273.663 40.5099 272.645 46.1239 272.039 51.5379L272.033 51.5319ZM97.3467 116.6C102.857 124.326 113.747 124.244 123.365 124.17C129.679 124.118 289.137 124.244 291.737 124.026C295.207 123.716 303.465 122.326 307.445 116.114C307.461 130.28 307.807 227.902 307.825 228.566C308.075 237.356 306.699 239.898 297.639 242.166C295.799 242.624 293.935 242.976 292.055 243.222C290.775 232.668 292.599 224.822 291.505 216.056C290.163 204.445 284.284 193.835 275.151 186.542C275.776 185.859 276.184 185.004 276.322 184.088C276.46 183.172 276.322 182.235 275.925 181.398C275.528 180.561 274.891 179.861 274.094 179.388C273.297 178.915 272.378 178.69 271.453 178.742H149.053C147.527 178.618 145.993 178.662 144.475 178.872C143.363 179.142 142.389 179.809 141.736 180.749C141.083 181.688 140.796 182.834 140.931 183.97C141.065 185.106 141.611 186.153 142.465 186.914C143.319 187.675 144.423 188.097 145.567 188.1H147.151C155.031 195.084 160.137 208.874 161.551 218.76C162.588 227.341 162.565 236.017 161.481 244.592C145.065 244.592 131.429 244.736 120.633 243.992C115.074 243.687 109.576 242.687 104.267 241.014C101.557 240.122 96.9907 237.982 96.8667 233.662C96.8007 231.324 97.3367 121.342 97.3467 116.6ZM273.459 185.32C272.245 184.472 270.982 183.696 269.677 182.996C269.209 182.685 268.683 182.472 268.131 182.37H143.205C143.414 181.904 143.756 181.51 144.189 181.237C144.621 180.964 145.124 180.824 145.635 180.836H271.893C272.392 180.879 272.869 181.065 273.265 181.372C273.661 181.68 273.959 182.095 274.125 182.568C274.29 183.041 274.316 183.552 274.197 184.039C274.079 184.527 273.823 184.969 273.459 185.314V185.32ZM164.049 222.036C162.921 209.144 156.795 192.08 145.975 184.516C153.097 184.444 267.069 184.466 268.025 184.46C268.865 185.008 269.737 185.506 270.637 185.946C278.224 190.69 283.985 197.86 286.983 206.292C289.449 213.075 290.35 220.328 289.619 227.508C289.129 237.108 289.219 250.936 295.707 260.162C297.479 262.498 299.534 264.606 301.825 266.438C290.396 270.305 280.241 277.221 272.455 286.438C267.015 293.394 260.905 304.48 254.297 319.39H214.217C209.341 315.646 205.085 311.464 200.899 308.374C199.533 302.948 197.023 297.878 193.537 293.502C185.855 283.748 178.091 282.528 170.317 276.564C165.009 272.494 162.263 267.836 162.155 262.718C161.941 252.658 165.501 238.642 164.049 222.036ZM253.369 321.49C251.979 324.674 250.619 327.89 248.625 332.842C237.213 332.202 226.234 328.258 217.025 321.49H253.369ZM337.287 339.152C337.058 334.034 335.511 329.062 332.796 324.718C330.081 320.374 326.289 316.805 321.789 314.357C317.288 311.909 312.232 310.666 307.11 310.748C301.987 310.829 296.973 312.232 292.553 314.822C288.593 317.176 281.649 322.808 270.953 328.368C264.736 331.502 257.841 333.05 250.881 332.876C257.387 316.762 266.971 295.596 275.933 285.51C284.121 276.951 294.419 270.699 305.791 267.386C315.255 264.559 325.345 264.591 334.791 267.48C333.979 279.48 347.169 292.53 363.591 289.98C370.697 300.629 374.909 312.944 375.813 325.714C376.577 336.556 374.385 350.676 372.797 361.468H328.501C331.448 358.572 333.753 355.089 335.267 351.244C336.78 347.4 337.469 343.28 337.287 339.152ZM329.487 251.352C328.059 251.3 326.691 250.762 325.609 249.829C324.527 248.895 323.796 247.621 323.535 246.216C323.417 244.762 323.747 243.306 324.481 242.046C325.215 240.785 326.318 239.779 327.641 239.164C330.579 241.798 332.337 241.916 335.869 244.136C335.968 245.937 335.352 247.705 334.156 249.055C332.96 250.405 331.279 251.228 329.479 251.346L329.487 251.352ZM334.573 251.528C336.342 250.108 337.513 248.075 337.855 245.832C339.197 247.359 339.979 249.297 340.073 251.328C340.311 256.218 336.137 260.312 335.089 265.384C329.52 263.694 323.7 262.99 317.889 263.302C316.374 260.779 315.444 257.948 315.169 255.018C314.435 246.594 319.901 239.276 324.943 233.758C324.963 235.132 325.411 236.466 326.225 237.574C314.801 244.728 325.815 258.518 334.565 251.522L334.573 251.528ZM346.249 284.234C340.461 280.408 335.199 272.768 337.319 265.034C338.479 260.818 341.597 257.488 342.103 253.01C342.318 250.868 341.922 248.709 340.96 246.784C339.998 244.858 338.509 243.245 336.667 242.132C332.807 239.76 328.359 238.976 327.067 234.454C326.969 233.464 327.071 232.465 327.367 231.516L328.127 227.822C349.957 223.996 361.771 235.528 361.867 246.772C361.895 249.668 361.177 252.55 361.833 255.504C362.381 257.962 363.632 260.207 365.433 261.968C367.368 263.634 369.551 264.99 371.903 265.986C374.106 266.846 376.016 268.321 377.405 270.236C379.487 273.718 377.947 278.306 375.497 281.308C369.095 289.138 355.699 290.48 346.241 284.228L346.249 284.234ZM89.2967 283.822C87.2493 286.401 85.8568 289.437 85.2383 292.671C84.6197 295.906 84.7935 299.241 85.7447 302.394L80.2247 310.108C79.2584 309.143 78.4977 307.992 77.9883 306.724C77.4788 305.457 77.2314 304.099 77.2607 302.734C77.3287 296.572 81.7247 291.26 85.0267 287.8C86.3688 286.39 87.7919 285.06 89.2887 283.816L89.2967 283.822ZM80.6007 313.162C82.3007 314.312 84.0867 315.324 85.9467 316.188C87.1667 316.762 88.2007 314.938 86.9667 314.358C85.1765 313.532 83.4562 312.562 81.8227 311.458L86.7147 304.624C89.1195 308.595 92.9043 311.54 97.3447 312.896C98.6207 313.376 99.1927 311.38 97.9447 310.896C92.8787 308.896 89.6527 306.214 88.0907 302.696C89.5727 300.626 102.867 282.096 104.761 279.47C107.295 283.688 133.461 327.26 136.161 331.812C131.671 331.812 68.5207 331.772 67.2707 331.778C71.7125 325.571 76.1558 319.366 80.6007 313.162ZM112.647 288.522C110.197 284.44 107.921 280.612 105.725 276.998C105.631 276.844 105.499 276.717 105.342 276.628C105.186 276.538 105.009 276.49 104.829 276.488C104.648 276.487 104.471 276.531 104.313 276.618C104.155 276.704 104.021 276.829 103.925 276.982L87.2887 300.224C85.1287 289.598 93.8887 281.798 94.3467 281.024C96.4492 279.216 98.6527 277.529 100.947 275.972C103.328 274.07 106.147 272.792 109.147 272.254C110.452 272.054 111.787 272.267 112.965 272.861C114.144 273.456 115.108 274.404 115.723 275.572C116.744 277.762 116.995 280.233 116.435 282.583C115.876 284.934 114.539 287.027 112.641 288.522H112.647Z" fill="black"/>
<path d="M188.001 341.714C194.493 345.232 193.907 344.968 194.259 344.968C194.43 344.967 194.598 344.924 194.749 344.843C194.9 344.762 195.029 344.646 195.125 344.504C195.221 344.363 195.281 344.2 195.3 344.03C195.319 343.86 195.297 343.687 195.235 343.528C195.15 343.314 194.998 343.134 194.801 343.016L189.045 339.896C187.849 339.254 186.789 341.062 188.001 341.714Z" fill="black"/>
<path d="M203.101 329.686C204.301 330.308 205.353 328.486 204.135 327.862C202.504 327.033 201.099 325.818 200.043 324.324C199.267 323.22 197.473 324.292 198.253 325.416C199.498 327.212 201.162 328.677 203.101 329.686Z" fill="black"/>
<path d="M366.969 205L359.057 221.138C358.457 222.358 360.287 223.386 360.885 222.164L368.797 206.026C369.401 204.8 367.571 203.768 366.969 205Z" fill="black"/>
<path d="M365.169 226.858L381.957 215.07C383.053 214.3 381.991 212.496 380.865 213.282L364.077 225.07C362.965 225.852 364.065 227.638 365.169 226.858Z" fill="black"/>
<path d="M386.155 229.098L367.413 231.734C366.071 231.922 366.563 233.954 367.907 233.77L386.649 231.132C388.001 230.944 387.495 228.918 386.155 229.098Z" fill="black"/>
<path d="M159.963 47.9599C160.595 49.1599 162.415 48.1199 161.785 46.9239C159.452 42.4768 156.419 38.4344 152.801 34.9519C151.819 34.0079 150.349 35.5019 151.325 36.4419C154.804 39.7928 157.721 43.6827 159.963 47.9619V47.9599Z" fill="black"/>
<path d="M132.221 48.8977C136.034 51.2027 139.1 54.5608 141.049 58.5677C141.637 59.7897 143.471 58.7677 142.879 57.5457C140.822 53.1619 137.472 49.513 133.279 47.0897C133.041 46.9632 132.764 46.9334 132.505 47.0065C132.245 47.0795 132.024 47.2498 131.887 47.4818C131.75 47.7138 131.708 47.9896 131.77 48.2519C131.831 48.5142 131.992 48.7427 132.217 48.8897L132.221 48.8977Z" fill="black"/>
<path d="M252.4 64.2957C249.304 67.8426 246.601 71.7145 244.338 75.8437C244.204 76.0839 244.169 76.3676 244.243 76.633C244.317 76.8983 244.493 77.1237 244.732 77.2597C244.97 77.3973 245.253 77.4357 245.519 77.3664C245.785 77.2972 246.014 77.1259 246.154 76.8897C248.329 72.9087 250.928 69.175 253.906 65.7537C254.8 64.7337 253.294 63.2697 252.4 64.2937V64.2957Z" fill="black"/>
</svg>
