<svg width="399" height="399" viewBox="0 0 399 399" fill="none" xmlns="http://www.w3.org/2000/svg">
<g clip-path="url(#clip0_101_554)">
<path d="M387.938 160.881H277.244L308.617 256.556H387.938C388.16 256.556 388.383 256.445 388.494 256.334C388.605 256.223 388.717 256 388.717 255.778V161.771C388.717 161.549 388.605 161.326 388.494 161.215C388.272 160.993 388.16 160.881 387.938 160.881Z" fill="#DAF8FF"/>
<path d="M86.7851 299.165H62.4213C62.1988 299.165 62.0876 299.276 61.8651 299.388C61.7538 299.499 61.6426 299.721 61.6426 299.944C61.6426 300.166 61.7538 300.389 61.8651 300.5C61.9763 300.611 62.1988 300.723 62.4213 300.723H86.7851C87.0076 300.723 87.1188 300.611 87.3413 300.5C87.4526 300.389 87.5638 300.166 87.5638 299.944C87.5638 299.721 87.4526 299.499 87.3413 299.388C87.2301 299.276 87.0076 299.165 86.7851 299.165Z" fill="#DAF8FF"/>
<path d="M59.8628 299.721L43.6203 260.116C43.6203 260.005 43.509 259.782 43.2865 259.671C43.1753 259.56 42.9528 259.56 42.8415 259.449C32.7178 259.337 6.90777 259.56 4.12652 259.56C3.57027 259.449 2.79152 259.782 3.12527 260.45C7.35277 270.796 18.2553 297.162 19.3678 300.055C19.3678 300.166 19.479 300.389 19.7015 300.5C19.8128 300.611 20.0353 300.611 20.1465 300.722C61.6428 301.39 59.1953 300.834 59.529 300.5C59.6403 300.5 59.6403 300.389 59.7515 300.389C59.7515 300.277 59.8628 300.277 59.8628 300.166C59.8628 300.055 59.8628 300.055 59.8628 299.944C59.974 299.832 59.8628 299.832 59.8628 299.721Z" fill="#DAF8FF"/>
<path d="M35.4994 284.146C33.9419 281.921 32.4956 279.585 31.0494 277.249C30.9381 277.026 30.7156 276.915 30.4931 276.915C30.2706 276.915 30.0481 276.915 29.9369 277.026C29.4919 277.36 29.6031 277.138 29.0469 284.591C29.0469 284.814 29.1581 285.036 29.2694 285.148C29.3806 285.259 29.6031 285.37 29.8256 285.37H34.8319C34.9431 285.37 35.0544 285.37 35.2769 285.259C35.3881 285.148 35.4994 285.036 35.6106 284.925C35.7219 284.814 35.7219 284.703 35.7219 284.48C35.6106 284.369 35.4994 284.258 35.4994 284.146Z" fill="black"/>
<path d="M17.6995 244.541C16.6982 244.207 16.3645 245.654 17.2545 246.099L28.8245 250.66C29.8257 250.994 30.1595 249.547 29.2695 249.102L17.6995 244.541Z" fill="black"/>
<path d="M35.1646 248.213C35.6096 249.103 36.9446 248.324 36.4996 247.434L21.0359 213.169C20.5909 212.279 19.2559 213.058 19.7009 213.948L35.1646 248.213Z" fill="black"/>
<path d="M43.1744 245.542L46.9569 233.416C47.2907 232.415 45.7332 231.97 45.3994 232.971L41.6169 245.097C41.2831 246.099 42.8407 246.544 43.1744 245.542Z" fill="black"/>
<path d="M72.9896 222.291H65.3134V215.505C65.3134 215.394 65.2021 215.171 65.2021 215.06C65.0909 214.949 64.9796 214.837 64.8684 214.837C64.7571 214.726 64.5346 214.726 64.4234 214.837C64.3121 214.837 64.0896 214.949 63.9784 215.06C63.8671 215.171 63.7559 215.394 63.7559 215.616V222.402H56.1909C55.9684 222.402 55.7459 222.514 55.6346 222.625C55.5234 222.736 55.4121 222.959 55.4121 223.181C55.4121 223.404 55.5234 223.626 55.6346 223.737C55.7459 223.849 55.9684 223.96 56.1909 223.96H63.7559V230.746C63.7559 230.969 63.8671 231.191 63.9784 231.302C64.0896 231.414 64.3121 231.525 64.5346 231.525C64.7571 231.525 64.9796 231.414 65.0909 231.302C65.2021 231.191 65.3134 230.969 65.3134 230.746V223.96H72.9896C73.2121 223.96 73.4346 223.849 73.5459 223.737C73.6571 223.626 73.7684 223.404 73.7684 223.181C73.7684 222.959 73.6571 222.736 73.5459 222.625C73.4346 222.402 73.2121 222.291 72.9896 222.291Z" fill="white"/>
<path d="M75.6596 172.118H70.8759V167.89C70.8759 167.668 70.7646 167.445 70.6534 167.334C70.5421 167.223 70.3196 167.111 70.0971 167.111C69.8746 167.111 69.6521 167.223 69.5409 167.334C69.4296 167.445 69.3184 167.668 69.3184 167.89V172.118H64.5346C64.3121 172.118 64.0896 172.229 63.9784 172.34C63.8671 172.451 63.7559 172.674 63.7559 172.896C63.7559 173.119 63.8671 173.341 63.9784 173.453C64.0896 173.564 64.3121 173.675 64.5346 173.675H69.3184V177.903C69.3184 178.125 69.4296 178.348 69.5409 178.459C69.6521 178.57 69.8746 178.681 70.0971 178.681C70.3196 178.681 70.5421 178.57 70.6534 178.459C70.7646 178.348 70.8759 178.125 70.8759 177.903V173.675H75.6596C75.8821 173.675 76.1046 173.564 76.2159 173.453C76.3271 173.341 76.4384 173.119 76.4384 172.896C76.4384 172.674 76.3271 172.451 76.2159 172.34C76.1046 172.118 75.8821 172.118 75.6596 172.118Z" fill="white"/>
<path d="M51.1848 201.932C51.4073 201.932 51.6298 201.821 51.7411 201.71C51.8523 201.599 51.9636 201.376 51.9636 201.154C51.9636 200.931 51.8523 200.709 51.7411 200.597C51.6298 200.486 51.4073 200.375 51.1848 200.375H42.6186C42.3961 200.375 42.1736 200.486 42.0623 200.597C41.9511 200.709 41.8398 200.931 41.8398 201.154C41.8398 201.376 41.9511 201.599 42.0623 201.71C42.1736 201.821 42.3961 201.932 42.6186 201.932H51.1848Z" fill="white"/>
<path d="M95.7962 157.321C96.0187 157.321 96.2412 157.21 96.3524 157.099C96.4637 156.987 96.5749 156.765 96.5749 156.542C96.5749 156.32 96.4637 156.097 96.3524 155.986C96.2412 155.875 96.0187 155.764 95.7962 155.764H87.2299C87.0074 155.764 86.7849 155.875 86.6737 155.986C86.5624 156.097 86.4512 156.32 86.4512 156.542C86.4512 156.765 86.5624 156.987 86.6737 157.099C86.7849 157.21 87.0074 157.321 87.2299 157.321H95.7962Z" fill="white"/>
<path d="M392.167 166.666V259.894C307.505 259.894 309.953 259.894 309.73 259.894L310.287 261.451H393.057C393.279 261.451 393.502 261.34 393.613 261.229C393.724 261.118 393.835 260.895 393.835 260.673V166.666C393.835 166.444 393.724 166.221 393.613 166.11C393.502 165.999 393.279 165.888 393.057 165.888C392.834 165.888 392.612 165.999 392.5 166.11C392.389 166.221 392.167 166.444 392.167 166.666Z" fill="#DAF8FF"/>
<path d="M377.927 165.888H354.898C354.675 165.888 354.453 165.999 354.342 166.11C354.23 166.221 354.119 166.444 354.119 166.666C354.119 166.889 354.23 167.111 354.342 167.223C354.453 167.334 354.675 167.445 354.898 167.445H377.927C378.149 167.445 378.372 167.334 378.483 167.223C378.594 167.111 378.705 166.889 378.705 166.666C378.705 166.444 378.594 166.221 378.483 166.11C378.26 165.999 378.038 165.888 377.927 165.888Z" fill="white"/>
<path d="M196.143 98.6925C196.588 99.5825 197.923 98.8038 197.478 97.9138C197.367 97.8025 189.802 82.45 186.019 74.9963C184.239 71.9925 183.461 68.4325 184.017 64.9838C184.239 63.9825 184.684 63.0925 185.463 62.5363C186.242 61.8688 187.132 61.535 188.133 61.535C192.806 61.535 196.254 67.0975 198.257 71.325C201.594 78.1113 208.826 90.2375 211.941 99.1375C213.276 102.253 213.943 105.59 213.721 109.039C213.498 110.596 212.831 111.931 211.829 113.044C210.717 114.156 209.382 114.824 207.936 115.046C207.713 115.158 207.602 115.269 207.491 115.38C207.379 115.603 207.379 115.825 207.379 115.936C207.491 116.159 207.602 116.27 207.713 116.381C207.936 116.493 208.158 116.493 208.269 116.493C209.716 116.27 210.939 115.603 212.052 114.713C213.164 113.823 214.054 112.71 214.722 111.375C215.612 108.594 215.612 105.479 214.722 102.698C212.608 94.1313 205.599 82.005 200.816 72.7713C198.702 68.655 195.921 61.7575 189.802 60.0888C184.907 58.7538 180.346 63.315 182.793 71.325C183.794 73.995 183.794 73.995 196.143 98.6925Z" fill="black"/>
<path d="M115.932 283.812H95.2397C95.0172 283.812 94.7947 283.924 94.6834 284.035C94.5722 284.146 94.4609 284.369 94.4609 284.591C94.4609 284.814 94.5722 285.036 94.6834 285.148C94.7947 285.259 95.0172 285.37 95.2397 285.37H115.932C116.155 285.37 116.377 285.259 116.488 285.148C116.6 285.036 116.711 284.814 116.711 284.591C116.711 284.369 116.6 284.146 116.488 284.035C116.377 283.813 116.155 283.812 115.932 283.812Z" fill="#59DFFD"/>
<path d="M166.774 171.561C165.55 171.116 164.215 170.782 162.88 170.671C163.548 166.444 162.769 162.105 160.544 158.434C157.54 154.651 150.643 154.874 146.749 161.104C146.304 159.435 145.636 157.766 144.746 156.32C143.856 155.096 142.633 153.984 141.298 153.316C139.963 152.649 138.405 152.204 136.848 152.315C135.29 152.426 133.733 152.76 132.398 153.427C131.063 154.206 129.839 155.207 128.949 156.542C128.17 157.766 127.614 159.101 127.28 160.436C127.058 161.882 127.058 163.329 127.391 164.664C128.059 163.662 129.171 162.995 130.284 162.661C131.508 162.327 132.731 162.439 133.844 162.884C134.956 163.329 135.846 164.219 136.403 165.331C136.959 166.444 137.07 167.667 136.848 168.891C136.514 170.337 135.846 171.561 134.734 172.562C133.621 173.564 132.286 174.12 130.84 174.342C131.841 177.346 133.176 182.13 134.066 185.245C146.193 180.795 158.986 182.352 171.446 186.135L166.774 171.561Z" fill="black"/>
<path d="M95.6846 257.113C95.5734 257.224 95.3509 257.335 95.1284 257.335C94.9059 257.335 94.6834 257.224 94.5721 257.113C87.3409 249.993 80.2209 242.873 73.1009 235.641C72.9896 235.53 72.8784 235.308 72.8784 235.085C72.8784 234.863 72.9896 234.64 73.1009 234.529C62.1984 244.208 50.4059 254.554 47.0684 268.015L59.3059 297.83C62.5321 298.164 63.9784 295.383 64.4234 292.156C64.7571 289.931 64.5346 289.82 64.7571 290.933C65.8696 297.83 74.2134 296.718 74.8809 289.041C75.2146 285.036 74.4359 277.694 74.8809 274.134C74.8809 273.578 75.1034 273.133 75.3259 272.576C75.5484 272.131 75.9934 271.686 76.4384 271.464C76.9946 271.353 77.6621 271.353 78.1071 271.575C78.6634 271.798 79.1084 272.243 79.4421 272.688C82.3346 276.581 82.6684 281.921 86.4509 284.035C87.6746 284.48 88.8984 284.48 90.1221 284.035C91.2346 283.59 92.2359 282.7 92.7921 281.588C93.7934 279.029 93.9046 276.248 92.9034 273.689C92.1246 270.574 90.9009 267.57 89.3434 264.789C95.6846 257.113 95.4621 257.335 95.6846 257.113Z" fill="white"/>
<path d="M171.558 186.024C147.416 178.792 132.286 183.131 119.715 193.922C119.493 194.145 73.2127 234.306 73.1014 234.529C72.9902 234.64 72.8789 234.862 72.8789 235.085C72.8789 235.307 72.9902 235.53 73.1014 235.641C80.2214 242.872 87.3414 250.104 94.5727 257.112C94.6839 257.224 94.9064 257.335 95.1289 257.335C95.3514 257.335 95.5739 257.224 95.6852 257.112C95.9077 257.001 128.504 218.397 128.615 218.175C124.833 243.985 120.494 254.665 118.603 271.352C118.158 275.135 119.159 278.917 121.384 281.921C123.609 284.925 126.946 287.039 130.618 287.706C138.071 289.041 151.088 287.817 156.205 287.15L164.104 328.535C164.104 328.646 164.215 328.869 164.438 328.98C164.549 329.091 164.771 329.091 164.883 329.091H208.493C208.715 329.091 208.826 328.98 209.049 328.869C209.16 328.757 209.271 328.535 209.271 328.424C209.271 328.312 209.271 328.201 209.271 328.09C205.823 313.85 203.931 298.497 199.37 281.81H203.041L171.558 186.024Z" fill="white"/>
<path d="M133.065 162.439C129.283 161.437 125.834 165.331 125.5 169.225C125.5 170.115 125.611 170.894 125.945 171.672C126.279 172.451 126.835 173.119 127.614 173.564C128.281 174.009 129.171 174.342 129.95 174.342C130.84 174.454 131.619 174.231 132.397 173.897C138.182 171.784 138.516 164.219 133.065 162.439Z" fill="white"/>
<path d="M205.266 361.91C203.041 357.015 199.815 352.565 195.81 349.005C187.688 341.551 175.673 333.541 164.66 333.875C164.548 333.875 164.437 333.875 164.326 333.986C164.215 334.097 164.103 334.097 164.103 334.209C163.992 334.32 163.992 334.431 163.992 334.542C163.992 334.654 163.992 334.765 163.992 334.876C164.103 334.987 164.215 335.21 164.326 335.21C165.661 336.1 202.485 361.799 204.153 362.8C204.265 362.911 204.376 362.911 204.487 363.022C204.598 363.022 204.71 363.022 204.821 363.022C204.932 363.022 205.043 362.911 205.155 362.8C205.266 362.689 205.266 362.577 205.377 362.466C205.488 362.355 205.488 362.244 205.488 362.132C205.377 362.132 205.266 362.021 205.266 361.91Z" fill="black"/>
<path d="M166.55 224.85L154.758 193.7C154.647 193.477 154.535 193.366 154.424 193.255C154.313 193.144 154.09 193.144 153.868 193.144C153.645 193.144 153.534 193.255 153.423 193.366C153.312 193.477 153.2 193.7 153.2 193.811C153.089 199.707 152.422 225.295 152.422 226.519C152.422 227.742 152.31 227.965 153.312 228.632C154.424 229.3 156.649 230.524 161.322 233.639C161.433 233.75 161.655 233.75 161.767 233.75C161.989 233.75 162.1 233.639 162.212 233.527C163.658 231.525 165.104 229.522 166.328 227.409C167.107 226.519 167.329 226.519 166.55 224.85Z" fill="black"/>
<path d="M176.23 263.342C176.341 263.454 176.564 263.565 176.786 263.565C177.009 263.565 177.231 263.454 177.342 263.342C177.454 263.231 177.565 263.009 177.565 262.786C177.565 262.564 177.454 262.341 177.342 262.23C176.23 261.117 175.117 260.005 174.005 258.892C173.894 258.781 173.671 258.67 173.449 258.67C173.226 258.67 173.004 258.781 172.892 258.892C172.781 259.004 172.67 259.226 172.67 259.449C172.67 259.671 172.781 259.894 172.892 260.005C174.005 261.117 175.117 262.23 176.23 263.342Z" fill="white"/>
<path d="M198.145 277.805C195.253 267.014 187.688 254.443 177.787 248.435C176.674 243.095 175.895 237.755 175.45 232.304C175.005 225.295 175.562 218.398 180.457 213.391L179.9 211.723C172.447 218.509 173.337 229.634 174.56 238.756C174.894 241.649 175.45 244.541 176.007 247.434C163.658 240.87 145.635 241.649 129.393 254.109C128.614 254.665 129.393 256.111 130.172 255.444C150.642 239.98 176.118 240.759 189.579 262.786C192.583 267.57 194.919 272.799 196.477 278.25C196.588 278.473 196.699 278.584 196.81 278.695C197.033 278.806 197.144 278.806 197.367 278.806C197.589 278.806 197.7 278.584 197.812 278.473C198.145 278.139 198.145 278.028 198.145 277.805Z" fill="white"/>
<path d="M62.8661 274.912V269.795C62.8661 269.572 62.7548 269.35 62.6436 269.239C62.5323 269.127 62.3098 269.016 62.0873 269.016C61.8648 269.016 61.6423 269.127 61.5311 269.239C61.4198 269.35 61.3086 269.572 61.3086 269.795V274.912C61.3086 275.024 61.3086 275.135 61.4198 275.246C61.4198 275.357 61.5311 275.469 61.6423 275.469C61.7536 275.58 61.7536 275.58 61.8648 275.691C61.9761 275.691 62.0873 275.802 62.1986 275.802C62.3098 275.802 62.4211 275.802 62.5323 275.691C62.6436 275.58 62.7548 275.58 62.7548 275.469C62.8661 275.357 62.8661 275.357 62.9773 275.246C62.8661 275.135 62.8661 275.024 62.8661 274.912Z" fill="white"/>
<path d="M52.5193 269.239C52.4081 269.239 52.2968 269.239 52.1856 269.239C52.0743 269.239 51.8518 269.35 51.7406 269.461C51.6293 269.573 51.5181 269.684 51.5181 269.906C51.2956 271.909 51.1843 273.911 51.2956 275.914C51.4068 276.915 52.9643 276.915 52.8531 275.914C52.6306 270.574 53.7431 269.573 52.5193 269.239Z" fill="white"/>
<path d="M86.7851 299.165H62.4213C62.1988 299.165 62.0876 299.276 61.8651 299.388C61.7538 299.499 61.6426 299.721 61.6426 299.944C61.6426 300.166 61.7538 300.389 61.8651 300.5C61.9763 300.611 62.1988 300.723 62.4213 300.723H86.7851C87.0076 300.723 87.1188 300.611 87.3413 300.5C87.4526 300.389 87.5638 300.166 87.5638 299.944C87.5638 299.721 87.4526 299.499 87.3413 299.388C87.2301 299.276 87.0076 299.165 86.7851 299.165Z" fill="black"/>
<path d="M30.938 277.249C30.8267 277.138 30.7155 277.026 30.6042 276.915C30.493 276.804 30.2705 276.804 30.048 276.915C29.9367 276.915 29.7142 277.026 29.603 277.137C29.4917 277.249 29.3805 277.471 29.3805 277.582L28.8242 284.48C28.8242 284.703 28.9355 284.925 29.0467 285.036C29.158 285.148 29.3805 285.259 29.603 285.259C34.8317 285.259 34.943 285.37 35.2767 284.925C35.388 284.814 35.4992 284.703 35.4992 284.48C35.4992 284.369 35.4992 284.146 35.388 284.035C33.9417 281.921 32.4955 279.585 30.938 277.249ZM30.938 280.03L33.3855 283.701H30.7155L30.938 280.03Z" fill="black"/>
<path d="M17.6995 244.541C16.6982 244.207 16.3645 245.654 17.2545 246.099L28.8245 250.66C29.8257 250.994 30.1595 249.547 29.2695 249.102L17.6995 244.541Z" fill="black"/>
<path d="M35.1646 248.213C35.6096 249.103 36.9446 248.324 36.4996 247.434L21.0359 213.169C20.5909 212.279 19.2559 213.058 19.7009 213.948L35.1646 248.213Z" fill="black"/>
<path d="M43.1744 245.542L46.9569 233.416C47.2907 232.415 45.7332 231.97 45.3994 232.971L41.6169 245.097C41.2831 246.099 42.8407 246.544 43.1744 245.542Z" fill="black"/>
<path d="M72.9896 222.291H65.3134V215.505C65.3134 215.282 65.2021 215.06 65.0909 214.949C64.9796 214.837 64.7571 214.726 64.5346 214.726C64.3121 214.726 64.0896 214.837 63.9784 214.949C63.8671 215.06 63.7559 215.282 63.7559 215.505V222.291H56.1909C55.9684 222.291 55.7459 222.402 55.6346 222.514C55.5234 222.625 55.4121 222.847 55.4121 223.07C55.4121 223.292 55.5234 223.515 55.6346 223.626C55.7459 223.737 55.9684 223.849 56.1909 223.849H63.7559V230.635C63.7559 230.746 63.8671 230.969 63.8671 231.08C63.9784 231.191 64.0896 231.302 64.2009 231.302C64.3121 231.414 64.5346 231.414 64.6459 231.302C64.7571 231.302 64.9796 231.191 65.0909 231.08C65.2021 230.969 65.3134 230.746 65.3134 230.524V223.737H72.9896C73.2121 223.737 73.4346 223.626 73.5459 223.515C73.6571 223.404 73.7684 223.181 73.7684 222.959C73.7684 222.736 73.6571 222.514 73.5459 222.402C73.4346 222.402 73.2121 222.291 72.9896 222.291Z" fill="black"/>
<path d="M75.6596 172.118H70.8759V167.89C70.8759 167.668 70.7646 167.445 70.6534 167.334C70.5421 167.223 70.3196 167.111 70.0971 167.111C69.8746 167.111 69.6521 167.223 69.5409 167.334C69.4296 167.445 69.3184 167.668 69.3184 167.89V172.118H64.5346C64.3121 172.118 64.0896 172.229 63.9784 172.34C63.8671 172.451 63.7559 172.674 63.7559 172.896C63.7559 173.119 63.8671 173.341 63.9784 173.453C64.0896 173.564 64.3121 173.675 64.5346 173.675H69.3184V177.903C69.3184 178.125 69.4296 178.348 69.5409 178.459C69.6521 178.57 69.8746 178.681 70.0971 178.681C70.3196 178.681 70.5421 178.57 70.6534 178.459C70.7646 178.348 70.8759 178.125 70.8759 177.903V173.675H75.6596C75.8821 173.675 76.1046 173.564 76.2159 173.453C76.3271 173.341 76.4384 173.119 76.4384 172.896C76.4384 172.674 76.3271 172.451 76.2159 172.34C76.1046 172.118 75.8821 172.118 75.6596 172.118Z" fill="black"/>
<path d="M51.1848 201.932C51.4073 201.932 51.6298 201.821 51.7411 201.71C51.8523 201.599 51.9636 201.376 51.9636 201.154C51.9636 200.931 51.8523 200.709 51.7411 200.597C51.6298 200.486 51.4073 200.375 51.1848 200.375H42.6186C42.3961 200.375 42.1736 200.486 42.0623 200.597C41.9511 200.709 41.8398 200.931 41.8398 201.154C41.8398 201.376 41.9511 201.599 42.0623 201.71C42.1736 201.821 42.3961 201.932 42.6186 201.932H51.1848Z" fill="black"/>
<path d="M95.7962 157.321C96.0187 157.321 96.2412 157.21 96.3524 157.099C96.4637 156.987 96.5749 156.765 96.5749 156.542C96.5749 156.32 96.4637 156.097 96.3524 155.986C96.2412 155.875 96.0187 155.764 95.7962 155.764H87.2299C87.0074 155.764 86.7849 155.875 86.6737 155.986C86.5624 156.097 86.4512 156.32 86.4512 156.542C86.4512 156.765 86.5624 156.987 86.6737 157.099C86.7849 157.21 87.0074 157.321 87.2299 157.321H95.7962Z" fill="black"/>
<path d="M377.927 165.888H354.898C354.675 165.888 354.453 165.999 354.342 166.11C354.23 166.221 354.119 166.444 354.119 166.666C354.119 166.889 354.23 167.111 354.342 167.223C354.453 167.334 354.675 167.445 354.898 167.445H377.927C378.149 167.445 378.372 167.334 378.483 167.223C378.594 167.111 378.705 166.889 378.705 166.666C378.705 166.444 378.594 166.221 378.483 166.11C378.26 165.999 378.038 165.888 377.927 165.888Z" fill="black"/>
<path d="M115.932 283.812H95.2397C95.0172 283.812 94.7947 283.924 94.6834 284.035C94.5722 284.146 94.4609 284.369 94.4609 284.591C94.4609 284.814 94.5722 285.036 94.6834 285.148C94.7947 285.259 95.0172 285.37 95.2397 285.37H115.932C116.155 285.37 116.377 285.259 116.488 285.148C116.6 285.036 116.711 284.814 116.711 284.591C116.711 284.369 116.6 284.146 116.488 284.035C116.377 283.813 116.155 283.812 115.932 283.812Z" fill="black"/>
<path d="M205.266 361.91C204.376 360.019 203.375 358.239 202.262 356.459C197.367 349.895 191.248 344.333 184.24 340.216C178.455 336.211 171.668 333.986 164.66 333.875C164.548 333.875 164.437 333.875 164.326 333.986C164.215 334.098 164.103 334.097 164.103 334.209C163.992 334.32 163.992 334.431 163.992 334.543C163.992 334.654 163.992 334.765 163.992 334.876C164.103 334.987 164.215 335.21 164.326 335.21C166.328 336.545 204.042 362.911 204.487 363.023C205.043 363.245 205.488 362.355 205.266 361.91ZM202.373 359.796L167.218 335.432C172.558 336.1 177.565 337.88 182.126 340.773C189.913 345.445 198.146 351.897 202.373 359.796Z" fill="black"/>
<path d="M154.758 193.7C154.647 193.477 154.535 193.366 154.424 193.255C154.313 193.144 154.09 193.144 153.868 193.144C153.645 193.144 153.534 193.255 153.423 193.366C153.312 193.477 153.2 193.7 153.2 193.811C153.089 199.707 152.422 225.295 152.422 226.519C152.31 228.966 151.977 227.409 161.322 233.639C161.433 233.75 161.655 233.75 161.767 233.75C161.989 233.75 162.1 233.639 162.212 233.527C163.658 231.525 165.104 229.522 166.328 227.409C167.107 226.296 167.329 226.407 166.55 224.627L154.758 193.7ZM161.544 232.081L153.979 227.297L154.647 198.039L165.327 226.296L161.544 232.081Z" fill="black"/>
<path d="M176.23 263.342C176.341 263.454 176.564 263.565 176.786 263.565C177.009 263.565 177.231 263.454 177.342 263.342C177.454 263.231 177.565 263.009 177.565 262.786C177.565 262.564 177.454 262.341 177.342 262.23C176.23 261.117 175.117 260.005 174.005 258.892C173.894 258.781 173.671 258.67 173.449 258.67C173.226 258.67 173.004 258.781 172.892 258.892C172.781 259.004 172.67 259.226 172.67 259.449C172.67 259.671 172.781 259.894 172.892 260.005C174.005 261.117 175.117 262.23 176.23 263.342Z" fill="black"/>
<path d="M62.8661 274.912V269.795C62.8661 269.572 62.7548 269.35 62.6436 269.239C62.5323 269.127 62.3098 269.016 62.0873 269.016C61.8648 269.016 61.6423 269.127 61.5311 269.239C61.4198 269.35 61.3086 269.572 61.3086 269.795V274.912C61.3086 275.024 61.3086 275.135 61.4198 275.246C61.4198 275.357 61.5311 275.469 61.6423 275.469C61.7536 275.58 61.7536 275.58 61.8648 275.691C61.9761 275.691 62.0873 275.802 62.1986 275.802C62.3098 275.802 62.4211 275.802 62.5323 275.691C62.6436 275.58 62.7548 275.58 62.7548 275.469C62.8661 275.357 62.8661 275.357 62.9773 275.246C62.8661 275.135 62.8661 275.024 62.8661 274.912Z" fill="black"/>
<path d="M341.769 206.828C341.658 222.625 328.864 235.196 313.067 235.085C297.492 234.974 284.698 222.18 284.809 206.605C284.809 190.808 297.714 178.014 313.512 178.125C329.198 178.236 341.881 191.03 341.769 206.828ZM293.264 223.738C290.483 218.286 288.814 212.724 288.926 206.605C289.037 196.036 295.601 186.803 305.502 183.576C315.737 180.239 326.417 183.576 332.869 192.031C339.211 200.486 339.433 211.945 333.426 220.623C325.972 231.525 306.503 237.421 296.824 220.623C295.044 217.508 293.932 213.725 293.376 210.054C291.596 198.818 298.493 189.028 309.173 186.691C319.742 184.466 329.977 190.696 333.092 201.265C335.984 211.5 329.866 222.848 319.853 225.851C315.737 227.075 312.733 225.073 312.622 220.734C312.622 219.065 312.511 217.396 312.622 215.728C312.733 213.836 312.399 212.501 310.286 211.611C307.838 210.499 306.948 207.495 307.616 204.825C308.283 202.378 310.508 200.598 313.178 200.486C315.848 200.375 318.296 202.155 319.074 204.714C319.853 207.273 319.186 210.276 316.738 211.278C314.179 212.39 313.957 214.17 314.179 216.395C314.291 217.619 314.179 218.843 314.179 220.066C314.291 223.849 316.071 225.184 319.631 223.738C326.751 220.845 330.978 215.505 331.534 207.829C332.091 199.708 328.308 193.7 321.299 190.029C314.847 186.58 306.948 187.693 301.386 192.476C293.709 199.04 292.597 210.833 298.827 220.4C302.498 225.963 307.504 229.3 314.513 229.078C323.858 228.633 332.313 222.069 334.983 212.946C337.764 203.49 334.093 193.478 325.749 187.804C317.851 182.464 307.393 182.909 299.717 188.694C290.038 196.036 287.813 209.831 294.711 221.401C298.716 228.299 304.389 232.86 312.733 233.083C323.858 233.305 332.313 228.188 337.208 218.286C341.992 208.719 341.102 199.04 334.538 190.585C327.641 181.685 318.296 178.348 307.393 180.795C297.714 183.02 291.151 189.139 288.147 198.595C285.032 207.94 287.034 216.395 293.264 223.738Z" fill="#59DFFD"/>
<path d="M52.5193 269.239C52.4081 269.239 52.2968 269.239 52.1856 269.239C52.0743 269.239 51.8518 269.35 51.7406 269.461C51.6293 269.573 51.5181 269.684 51.5181 269.906C51.2956 271.909 51.1843 273.911 51.2956 275.914C51.4068 276.915 52.9643 276.915 52.8531 275.914C52.6306 270.574 53.7431 269.573 52.5193 269.239Z" fill="black"/>
<path d="M319.965 288.596C254.661 89.4586 257.331 97.4686 257.109 97.2461C256.775 96.8011 264.563 94.6874 144.301 96.9124C143.523 96.9124 143.411 97.4686 141.854 102.03C141.52 103.142 108.924 202.934 108.924 203.156L111.371 201.042C111.594 200.375 143.745 101.474 144.19 100.139C210.718 302.725 206.045 289.597 206.935 289.597H319.186C319.298 289.597 319.409 289.597 319.52 289.486C319.631 289.486 319.743 289.375 319.854 289.264C319.965 289.152 319.965 289.041 319.965 288.93C320.076 288.819 320.076 288.707 319.965 288.596Z" fill="#59DFFD"/>
<path d="M260.113 186.691C265.453 202.378 256.998 214.838 241.09 214.726C225.403 214.615 208.382 201.933 203.042 186.469C197.702 170.783 206.157 158.211 221.955 158.211C237.752 158.434 254.773 171.005 260.113 186.691ZM217.393 203.49C212.721 198.15 209.161 192.588 207.158 186.469C203.71 176.011 207.158 166.889 215.947 163.663C224.958 160.325 236.862 163.663 246.207 172.006C255.441 180.35 259.446 191.698 256.553 200.375C252.771 211.166 235.416 217.063 219.952 200.375C217.06 197.26 214.612 193.478 212.832 189.918C207.27 178.793 210.718 169.114 220.62 166.778C230.41 164.553 242.87 170.783 249.545 181.24C255.997 191.364 253.661 202.6 244.65 205.604C240.867 206.828 237.196 204.825 235.638 200.486C234.971 198.818 234.415 197.149 233.97 195.48C233.413 193.589 232.635 192.254 230.298 191.364C227.406 190.251 225.515 187.359 225.403 184.689C225.292 182.241 226.85 180.461 229.52 180.35C232.19 180.239 235.193 182.019 236.862 184.578C238.531 187.025 238.865 190.029 236.751 191.141C234.637 192.254 234.971 194.034 235.972 196.259C236.528 197.483 236.862 198.706 237.196 199.819C238.531 203.601 240.867 204.936 243.871 203.49C249.99 200.598 252.437 195.369 250.435 187.693C248.21 179.683 242.425 173.786 234.081 170.004C226.405 166.666 218.84 167.668 214.946 172.451C209.495 179.015 212.387 190.696 221.843 200.041C227.406 205.604 233.636 208.941 240.422 208.608C249.656 208.163 255.775 201.599 255.441 192.588C254.996 183.243 247.876 173.23 237.641 167.668C227.962 162.439 217.616 162.773 211.942 168.558C204.822 175.9 207.27 189.473 218.061 200.931C224.402 207.718 231.633 212.279 239.977 212.501C251.213 212.724 257.888 207.606 259.446 197.816C261.003 188.249 256.776 178.793 247.32 170.338C237.418 161.549 226.961 158.211 216.837 160.659C207.937 162.884 203.487 169.003 203.598 178.348C203.71 187.804 208.493 196.148 217.393 203.49Z" fill="#DAF8FF"/>
<path d="M203.597 111.041C202.262 111.264 201.038 111.82 200.037 112.71C199.48 113.266 199.258 114.045 199.258 114.824C199.258 115.602 199.592 116.381 200.148 116.937C200.815 117.605 201.594 118.05 202.373 118.384C203.263 118.717 204.153 118.829 205.043 118.829C209.27 119.162 213.498 118.829 217.614 117.939C218.393 117.827 219.172 117.494 219.728 116.937C220.284 116.381 220.729 115.714 220.84 114.935C221.285 108.816 209.715 109.595 203.597 111.041Z" fill="white"/>
<path d="M392.612 165.554V258.781H310.176L309.063 255.332H388.385C388.607 255.332 388.83 255.221 388.941 255.11C389.052 254.999 389.163 254.776 389.163 254.554V160.547C389.163 160.325 389.052 160.102 388.941 159.991C388.83 159.88 388.607 159.769 388.385 159.769H277.691L257.11 97.0236C257.11 96.8011 256.998 96.6898 256.776 96.5786C256.665 96.4673 256.442 96.4673 256.331 96.4673H213.833C210.941 88.9023 205.712 79.7798 201.596 71.7698C199.482 67.6536 196.701 60.7561 190.582 59.0873C185.687 57.7523 181.126 62.3136 183.573 70.3236C184.241 72.5486 184.018 72.2148 196.145 96.4673H144.191C144.08 96.4673 143.857 96.5786 143.746 96.5786C143.635 96.6898 143.523 96.8011 143.412 96.9123C140.52 104.922 114.376 186.135 111.038 196.147C110.371 198.039 108.813 202.489 108.813 202.6C106.255 204.825 85.7846 222.625 78.1083 229.411C64.8696 240.981 53.2996 250.771 48.5158 263.454C48.0708 264.566 47.8483 265.79 47.5146 266.902L44.2883 258.892C43.9546 257.891 45.5121 258.336 4.90582 258.447C4.34957 258.336 3.57082 258.67 3.90457 259.337C8.13207 269.684 19.0346 296.05 20.1471 298.942C20.1471 299.054 20.2583 299.276 20.4808 299.387C20.5921 299.499 20.8146 299.499 20.9258 299.61H59.7521C60.1971 299.61 60.7533 299.165 60.5308 298.609L59.7521 296.717C62.9783 297.051 64.4246 294.27 64.8696 291.044C65.2033 288.819 64.9808 288.707 65.2033 289.82C66.3158 296.606 74.6596 295.605 75.3271 287.929C75.4383 286.26 75.4383 284.591 75.3271 282.922C74.9933 274.467 74.6596 271.797 76.8846 270.351C80.1108 269.016 82.2246 276.47 84.1158 279.919C84.7833 281.142 85.7846 282.144 86.8971 282.811C88.1208 283.256 89.3446 283.256 90.5683 282.811C91.6808 282.366 92.6821 281.476 93.2383 280.364C94.2396 277.805 94.3508 275.024 93.3496 272.465C92.5708 269.35 91.3471 266.346 89.7896 263.565C106.143 244.207 127.281 219.287 129.172 217.062C125.278 243.429 120.94 253.552 119.16 270.24C118.715 274.022 119.716 277.694 121.941 280.809C124.166 283.812 127.503 285.926 131.175 286.594C138.74 287.817 150.31 286.927 156.762 286.037L164.661 327.422C164.661 327.534 164.772 327.756 164.995 327.867C165.106 327.979 165.328 327.979 165.44 327.979H208.938C209.161 327.979 209.272 327.867 209.495 327.756C209.606 327.645 209.717 327.422 209.717 327.311C209.717 327.2 209.717 327.089 209.717 326.977C206.602 312.96 203.821 295.271 199.816 280.697H203.487L205.935 288.262C205.935 288.374 206.046 288.596 206.268 288.707C206.38 288.819 206.602 288.819 206.713 288.819H318.965C319.076 288.819 319.187 288.819 319.298 288.707C319.41 288.707 319.521 288.596 319.521 288.485C319.632 288.374 319.632 288.262 319.632 288.151C319.632 288.04 319.632 287.929 319.632 287.817L310.51 260.116H393.28C393.502 260.116 393.725 260.005 393.836 259.894C393.947 259.782 394.058 259.56 394.058 259.337V165.331C394.058 165.109 393.947 164.886 393.836 164.775C393.725 164.664 393.502 164.552 393.28 164.552C393.057 164.552 392.835 164.664 392.723 164.775C392.723 165.22 392.612 165.442 392.612 165.554ZM208.938 115.491C211.275 115.046 213.277 113.711 214.612 111.82C216.17 111.82 217.727 112.376 218.84 113.489C219.062 113.711 219.173 113.934 219.285 114.156C219.396 114.379 219.396 114.712 219.285 114.935C219.285 115.157 219.062 115.491 218.951 115.714C218.728 115.936 218.506 116.047 218.283 116.159C213.388 117.494 208.382 117.827 203.376 117.16C202.152 116.937 200.15 115.714 200.928 114.156C201.373 113.155 202.931 112.821 203.932 112.599C206.825 111.931 209.717 111.709 212.61 111.709C211.497 112.932 210.051 113.711 208.382 114.045C208.16 114.156 208.048 114.267 207.937 114.379C207.826 114.601 207.826 114.824 207.826 114.935C207.826 115.157 208.048 115.269 208.16 115.38C208.493 115.491 208.716 115.491 208.938 115.491ZM281.362 171.116L278.136 161.437H387.606V253.775H308.507L298.495 223.181L297.938 221.624L288.816 193.922L281.362 171.116ZM186.577 73.8836C184.797 70.8798 184.018 67.3198 184.575 63.8711C184.797 62.8698 185.242 61.9798 186.021 61.4236C186.8 60.7561 187.69 60.4223 188.691 60.4223C193.363 60.4223 196.812 65.9848 198.815 70.2123C201.707 76.1086 208.716 88.1236 211.942 96.4673H197.813C194.031 88.9023 190.36 81.4486 186.577 73.8836ZM143.968 99.6936L167.22 170.449C165.996 170.004 164.661 169.67 163.326 169.559C163.993 165.331 163.215 160.992 160.99 157.321C157.986 153.539 151.088 153.872 147.195 159.991C146.75 158.322 146.082 156.654 145.192 155.207C144.302 153.984 143.078 152.871 141.743 152.204C140.408 151.536 138.851 151.091 137.293 151.202C135.736 151.202 134.178 151.647 132.843 152.315C131.508 153.094 130.285 154.095 129.395 155.319C128.616 156.542 128.06 157.877 127.837 159.324C127.615 160.77 127.615 162.216 127.948 163.551C126.836 164.886 126.168 166.444 125.946 168.224C125.835 168.891 125.946 169.67 126.28 170.337C126.502 171.005 126.947 171.561 127.503 172.117C128.06 172.562 128.616 173.007 129.283 173.119C129.951 173.341 130.73 173.341 131.397 173.23C132.065 175.344 133.733 180.906 134.623 184.132C125.612 187.47 120.94 192.031 111.15 200.597C112.707 196.147 143.412 101.251 143.968 99.6936ZM137.293 167.667C138.072 163.106 133.066 159.212 129.283 162.105C128.95 160.436 129.283 158.656 130.062 157.099C130.841 155.541 132.176 154.317 133.733 153.539C135.291 152.76 137.071 152.537 138.74 152.76C140.408 153.094 142.077 153.872 143.19 155.207C144.636 157.321 145.637 159.657 146.082 162.216C146.082 162.327 146.193 162.439 146.305 162.55C146.416 162.661 146.527 162.661 146.75 162.772C146.861 162.772 147.083 162.772 147.195 162.661C147.306 162.55 147.417 162.439 147.528 162.327C150.866 155.652 156.54 155.096 159.432 157.877C160.545 159.324 161.323 161.104 161.546 162.995C161.991 165.331 161.991 167.667 161.546 170.004C161.435 170.56 161.768 171.116 162.325 171.005C164.216 171.116 165.996 171.561 167.776 172.229L171.892 184.8C159.877 181.24 147.862 179.571 136.07 183.354C135.068 179.682 134.067 176.122 132.843 172.562C133.956 172.117 134.957 171.45 135.736 170.56C136.626 169.892 137.071 168.891 137.293 167.667ZM131.508 171.561C125.501 172.451 127.17 163.551 132.176 162.772C133.066 162.772 133.845 163.106 134.512 163.662C135.18 164.219 135.625 164.997 135.736 165.776C135.847 166.444 135.847 167.111 135.625 167.779C135.513 168.446 135.18 169.002 134.735 169.559C134.29 170.115 133.845 170.56 133.288 170.894C132.732 171.227 132.065 171.45 131.508 171.561ZM21.2596 298.052C17.1433 287.929 6.68582 262.675 5.68457 260.116C6.12957 260.116 40.1721 260.005 42.8421 260.005L58.4171 298.052H21.2596ZM88.0096 264.01C90.2346 267.681 91.6808 271.797 92.2371 276.136C92.9046 280.475 89.3446 282.589 87.2308 281.365C85.2283 280.03 84.8946 278.584 82.8921 273.8C82.0021 271.686 80.4446 268.905 77.8858 268.571C75.3271 268.237 73.8808 270.574 73.5471 272.799C73.3246 275.914 73.3246 278.917 73.5471 282.032C73.6583 286.482 73.9921 288.819 72.4346 291.044C72.1008 291.6 71.5446 292.045 70.9883 292.267C70.4321 292.601 69.7646 292.712 69.0971 292.601C67.6508 292.379 67.0946 290.932 66.7608 289.709C66.5383 288.819 64.7583 279.362 64.5358 278.472C64.4246 277.582 62.8671 277.805 62.9783 278.695C63.6458 283.256 63.6458 287.929 62.7558 292.379C62.6446 292.824 62.4221 293.269 62.1996 293.714C61.9771 294.159 61.5321 294.492 61.1983 294.715C60.5308 295.049 59.6408 295.049 58.9733 294.826L48.6271 269.461C48.8496 268.237 49.0721 267.014 49.4058 265.79C53.0771 253.441 63.8683 243.985 74.1033 234.862L94.5733 255.332C87.7871 263.454 87.5646 263.342 88.0096 264.01ZM198.815 279.362C198.703 279.362 198.592 279.362 198.481 279.474C198.37 279.585 198.258 279.585 198.258 279.696C198.147 279.807 198.147 279.919 198.147 280.03C198.147 280.141 198.147 280.252 198.147 280.364C202.486 295.494 204.822 311.625 208.048 326.644H166.107L158.208 285.147C158.208 284.925 158.097 284.814 157.875 284.702C157.763 284.591 157.541 284.591 157.43 284.591C149.642 285.592 141.855 285.926 134.067 285.592C130.507 285.592 127.17 284.146 124.611 281.587C122.052 279.029 120.717 275.691 120.606 272.131C120.717 262.564 127.615 240.87 131.175 214.726C131.286 214.059 130.396 213.28 129.84 213.947C121.273 224.294 98.3558 251.105 95.6858 254.331L75.3271 234.084C77.4408 232.304 123.276 192.365 124.833 191.252C139.518 180.684 155.538 181.574 172.782 186.914L180.57 210.721C173.227 217.507 174.006 228.632 175.118 237.644C175.452 240.536 176.008 243.429 176.565 246.321C161.768 238.534 143.635 242.539 129.951 252.996C129.172 253.552 129.951 254.999 130.73 254.331C145.637 242.984 164.772 239.646 179.457 249.881C188.246 256.334 194.142 266.68 197.146 277.026C197.257 277.249 197.368 277.36 197.48 277.471C197.702 277.582 197.925 277.582 198.036 277.582C198.258 277.471 198.37 277.36 198.481 277.249C198.592 277.026 198.592 276.804 198.592 276.692C195.811 266.235 188.691 254.331 179.346 247.99C178.678 247.322 178.122 246.544 177.9 245.654C176.898 240.87 176.342 236.086 176.008 231.302C175.563 224.294 176.12 217.507 181.015 212.39L203.042 279.362H198.815ZM317.852 287.484H207.27C206.825 286.037 145.415 98.6923 145.192 98.0248H212.61C212.721 98.3586 212.832 98.6923 212.943 99.0261C214.167 102.03 215.168 107.147 213.722 110.04C210.273 109.929 206.936 110.262 203.598 111.041C202.263 111.264 201.04 111.82 200.038 112.71C199.482 113.266 199.26 114.045 199.26 114.824C199.26 115.602 199.593 116.381 200.15 116.937C200.817 117.605 201.596 118.05 202.375 118.384C203.265 118.717 204.155 118.829 205.045 118.829C209.272 119.162 213.5 118.829 217.616 117.939C218.395 117.827 219.173 117.494 219.73 116.937C220.286 116.381 220.731 115.714 220.842 114.935C220.953 111.931 218.283 110.485 215.28 110.151C216.726 106.48 215.391 101.696 214.167 97.9136H255.663C328.866 320.97 316.406 283.145 317.852 287.484Z" fill="black"/>
<path d="M302.403 85.5148C305.564 91.8384 307.823 98.6137 309.328 105.69C309.479 105.991 309.63 106.292 310.081 106.443C310.382 106.594 310.834 106.594 311.286 106.443C311.737 106.292 312.039 105.991 312.34 105.69C312.641 105.389 312.641 104.937 312.641 104.486C309.931 89.8811 303.155 76.6316 293.068 66.5439C282.98 56.4563 269.881 49.6809 255.126 46.9708C253.169 46.6697 252.115 49.6809 254.072 50.1326C264.611 52.0899 274.398 56.1551 282.679 62.1776C290.809 68.3507 297.585 76.3305 302.403 85.5148Z" fill="#59DFFD"/>
<path d="M314.749 78.2882C318.513 85.6657 321.223 93.6455 322.879 102.077C323.03 102.529 323.331 102.83 323.632 102.98C324.084 103.131 324.535 103.131 324.987 102.98C325.439 102.83 325.89 102.529 326.192 102.077C326.493 101.625 326.643 101.174 326.493 100.722C323.331 83.4073 315.351 67.8994 303.306 56.0049C291.261 44.1105 275.904 35.9801 258.589 32.8183C256.331 32.3666 255.126 36.1307 257.385 36.4318C269.881 38.6903 281.324 43.5083 291.261 50.7353C301.198 57.9623 309.178 67.2971 314.749 78.2882Z" fill="#59DFFD"/>
<path d="M288.701 91.0859C290.959 95.6027 292.615 100.421 293.669 105.54C293.82 105.841 293.971 106.142 294.272 106.443C294.573 106.594 295.024 106.594 295.326 106.443C295.777 106.293 296.078 105.992 296.229 105.69C296.53 105.389 296.53 104.938 296.53 104.486C294.573 93.796 289.604 84.16 282.227 76.7824C274.849 69.4049 265.213 64.4363 254.523 62.479C254.222 62.479 253.77 62.6296 253.469 62.7801C253.168 63.0813 252.867 63.3824 252.716 63.6835C252.566 63.9846 252.566 64.4363 252.716 64.7374C252.867 65.0386 253.168 65.3397 253.469 65.3397C260.997 66.6948 268.074 69.706 274.096 74.0723C280.42 78.7397 285.238 84.4611 288.701 91.0859Z" fill="#59DFFD"/>
<path d="M276.355 98.1622C278.011 101.475 279.215 105.088 279.968 108.852C279.968 109.153 280.269 109.304 280.42 109.454C280.721 109.605 281.022 109.605 281.173 109.454C281.474 109.304 281.775 109.153 281.926 108.852C282.076 108.551 282.227 108.25 282.076 107.949C280.721 100.12 276.957 93.0431 271.537 87.6229C266.117 82.2026 259.04 78.5891 251.211 77.0835C250.91 77.0835 250.609 77.0835 250.458 77.3846C250.157 77.5352 250.006 77.8363 250.006 78.1374C249.856 78.4386 250.006 78.7397 250.006 78.8902C250.157 79.1914 250.308 79.3419 250.609 79.3419C256.179 80.3959 261.299 82.5037 265.815 85.8161C270.182 88.9779 273.795 93.1937 276.355 98.1622Z" fill="#59DFFD"/>
<path d="M327.848 71.9643C332.214 80.8475 335.526 90.333 337.484 100.421C337.634 100.872 337.935 101.324 338.537 101.625C338.989 101.926 339.591 101.926 340.194 101.625C340.796 101.475 341.248 101.023 341.549 100.571C341.85 100.12 342 99.5173 342 98.915C338.236 78.1374 328.6 59.6182 314.297 45.3148C299.993 31.0114 281.474 21.3754 260.697 17.6113C257.987 17.1596 256.481 21.526 259.191 21.9776C274.097 24.6878 287.948 30.4091 299.692 38.9912C311.436 47.7238 321.072 58.8654 327.848 71.9643Z" fill="#59DFFD"/>
</g>
<defs>
<clipPath id="clip0_101_554">
<rect width="399" height="399" fill="white"/>
</clipPath>
</defs>
</svg>
