<svg width="400" height="400" viewBox="0 0 400 400" fill="none" xmlns="http://www.w3.org/2000/svg">
<path d="M355.868 154.486H256.33L284.544 240.46H355.868C356.057 240.458 356.238 240.382 356.372 240.248C356.506 240.114 356.581 239.933 356.582 239.744V155.2C356.581 155.011 356.505 154.83 356.371 154.697C356.238 154.563 356.057 154.487 355.868 154.486Z" fill="#DAF8FF"/>
<path d="M85.2347 278.764H63.3207C63.14 278.777 62.9712 278.858 62.848 278.991C62.7247 279.124 62.6562 279.299 62.6562 279.48C62.6562 279.661 62.7247 279.835 62.848 279.968C62.9712 280.101 63.14 280.182 63.3207 280.196H85.2347C85.4153 280.182 85.5842 280.101 85.7074 279.968C85.8307 279.835 85.8991 279.661 85.8991 279.48C85.8991 279.299 85.8307 279.124 85.7074 278.991C85.5842 278.858 85.4153 278.777 85.2347 278.764Z" fill="#DAF8FF"/>
<path d="M60.9998 279.292L46.4238 243.704C46.3783 243.555 46.2872 243.424 46.1634 243.33C46.0397 243.235 45.8894 243.182 45.7338 243.178C36.6178 243.036 13.4458 243.256 10.9778 243.256C10.4718 243.126 9.81383 243.476 10.0618 244.084C13.8618 253.382 23.6258 277.096 24.6778 279.67C24.7223 279.819 24.8131 279.951 24.9371 280.045C25.0611 280.14 25.2119 280.192 25.3678 280.196C62.7078 280.778 60.4558 280.284 60.7398 280.038C60.8061 280.006 60.8655 279.962 60.9145 279.907C60.9635 279.852 61.0012 279.788 61.0254 279.719C61.0495 279.649 61.0597 279.576 61.0553 279.503C61.051 279.429 61.0321 279.358 60.9998 279.292Z" fill="#DAF8FF"/>
<path d="M39.0726 265.31C37.6726 263.274 36.3746 261.176 35.0486 259.094C34.9449 258.932 34.783 258.817 34.5966 258.772C34.4086 258.731 34.2121 258.765 34.0486 258.866C33.6286 259.128 33.7526 258.93 33.2266 265.666C33.2281 265.855 33.3039 266.036 33.4374 266.169C33.571 266.303 33.7517 266.378 33.9406 266.38H38.4506C38.5759 266.379 38.6989 266.346 38.8076 266.284C38.9162 266.221 39.0069 266.132 39.0706 266.024C39.1343 265.916 39.1681 265.793 39.1685 265.667C39.1688 265.542 39.1357 265.418 39.0726 265.31Z" fill="black"/>
<path d="M23.0823 229.726C22.2263 229.386 21.8543 230.77 22.7003 231.106L33.1463 235.252C34.0023 235.592 34.3743 234.21 33.5263 233.872L23.0823 229.726Z" fill="black"/>
<path d="M38.8199 233C39.1999 233.838 40.4319 233.112 40.0559 232.278L26.1619 201.504C25.7839 200.666 24.5499 201.394 24.9259 202.226L38.8199 233Z" fill="black"/>
<path d="M45.9885 230.6L49.3885 219.658C49.6625 218.776 48.2825 218.4 48.0105 219.278L44.6105 230.22C44.3345 231.108 45.7165 231.484 45.9885 230.6Z" fill="black"/>
<path d="M72.8099 209.746H65.8799V203.67C65.8712 203.534 65.8242 203.404 65.7442 203.293C65.6643 203.183 65.5547 203.098 65.4282 203.047C65.3018 202.997 65.1636 202.983 65.0297 203.008C64.8958 203.033 64.7718 203.095 64.6719 203.188C64.5393 203.315 64.4599 203.487 64.4499 203.67V209.746H57.5999C57.4167 209.756 57.2442 209.836 57.1178 209.969C56.9915 210.102 56.9207 210.279 56.9199 210.462C56.9212 210.645 56.9922 210.821 57.1185 210.954C57.2449 211.086 57.417 211.166 57.5999 211.176H64.4439V217.25C64.4439 217.44 64.5193 217.622 64.6533 217.756C64.7874 217.89 64.9693 217.965 65.1589 217.965C65.3486 217.965 65.5304 217.89 65.6645 217.756C65.7986 217.622 65.8739 217.44 65.8739 217.25V211.176H72.8039C72.9936 211.177 73.1757 211.102 73.3104 210.969C73.445 210.835 73.5211 210.654 73.5219 210.464C73.5227 210.274 73.4482 210.092 73.3146 209.958C73.1811 209.823 72.9996 209.747 72.8099 209.746Z" fill="white"/>
<path d="M75.2436 164.558H70.9136V160.8C70.9136 160.61 70.8382 160.428 70.7039 160.294C70.5696 160.159 70.3875 160.084 70.1976 160.084C70.0077 160.084 69.8256 160.159 69.6913 160.294C69.557 160.428 69.4816 160.61 69.4816 160.8V164.568H65.2016C65.0185 164.578 64.8461 164.657 64.7199 164.79C64.5938 164.923 64.5234 165.1 64.5234 165.283C64.5234 165.466 64.5938 165.643 64.7199 165.776C64.8461 165.909 65.0185 165.988 65.2016 165.998H69.4736V169.766C69.4736 169.956 69.549 170.138 69.6833 170.272C69.8176 170.407 69.9997 170.482 70.1896 170.482C70.3795 170.482 70.5616 170.407 70.6959 170.272C70.8302 170.138 70.9056 169.956 70.9056 169.766V165.988H75.2356C75.4188 165.979 75.5917 165.901 75.7187 165.768C75.8456 165.636 75.917 165.46 75.918 165.277C75.919 165.093 75.8496 164.917 75.7242 164.783C75.5987 164.649 75.4267 164.569 75.2436 164.558Z" fill="white"/>
<path d="M53.2192 191.432C53.4091 191.432 53.5913 191.357 53.7255 191.222C53.8598 191.088 53.9352 190.906 53.9352 190.716C53.9352 190.526 53.8598 190.344 53.7255 190.21C53.5913 190.075 53.4091 190 53.2192 190H45.4972C45.3074 190 45.1252 190.075 44.991 190.21C44.8567 190.344 44.7812 190.526 44.7812 190.716C44.7812 190.906 44.8567 191.088 44.991 191.222C45.1252 191.357 45.3074 191.432 45.4972 191.432H53.2192Z" fill="white"/>
<path d="M93.318 151.32C93.5011 151.31 93.6735 151.23 93.7997 151.097C93.9259 150.964 93.9962 150.788 93.9962 150.605C93.9962 150.421 93.9259 150.245 93.7997 150.112C93.6735 149.979 93.5011 149.899 93.318 149.89H85.6C85.417 149.899 85.2446 149.979 85.1184 150.112C84.9922 150.245 84.9219 150.421 84.9219 150.605C84.9219 150.788 84.9922 150.964 85.1184 151.097C85.2446 151.23 85.417 151.31 85.6 151.32H93.318Z" fill="white"/>
<path d="M341.212 164.63H259.658L266.416 185.23H341.216C341.405 185.227 341.586 185.151 341.72 185.017C341.853 184.884 341.93 184.703 341.932 184.514V165.346C341.928 165.157 341.851 164.976 341.717 164.843C341.582 164.709 341.402 164.633 341.212 164.63Z" fill="white"/>
<path d="M313.028 182.88C313.8 182.657 314.495 182.227 315.04 181.636C315.584 181.046 315.956 180.317 316.116 179.53C316.714 177.362 317.066 175.134 317.164 172.888C317.284 170.93 317.276 168.098 315.604 167.068C312.46 165.554 311.28 172.248 310.768 175.746C310.314 178.836 309.27 183.55 313.028 182.88ZM313.464 170.238C314.132 168.266 315.064 167.41 315.578 169.516C315.972 172.96 315.608 176.448 314.512 179.736C313.494 182.092 311.256 182.272 311.694 179.398C312.008 176.298 312.6 173.232 313.464 170.238Z" fill="white"/>
<path d="M322.06 182.88C322.831 182.656 323.526 182.225 324.07 181.635C324.614 181.045 324.987 180.317 325.148 179.53C325.744 177.362 326.096 175.134 326.196 172.888C326.316 170.93 326.308 168.098 324.636 167.068C321.49 165.554 320.312 172.248 319.798 175.746C319.346 178.836 318.302 183.55 322.06 182.88ZM322.494 170.238C323.164 168.266 324.094 167.41 324.61 169.516C325.004 172.96 324.639 176.448 323.542 179.736C322.526 182.092 320.286 182.272 320.724 179.398C321.04 176.298 321.632 173.232 322.494 170.238Z" fill="white"/>
<path d="M331.089 182.88C331.861 182.658 332.558 182.228 333.103 181.637C333.647 181.047 334.02 180.318 334.179 179.53C334.775 177.362 335.127 175.134 335.227 172.888C335.347 170.93 335.339 168.098 333.667 167.068C330.521 165.554 329.343 172.248 328.829 175.746C328.377 178.836 327.333 183.55 331.089 182.88ZM331.525 170.238C332.195 168.266 333.125 167.41 333.641 169.516C334.034 172.96 333.67 176.448 332.573 179.736C331.557 182.092 329.317 182.272 329.755 179.398C330.069 176.298 330.661 173.232 331.525 170.238Z" fill="white"/>
<path d="M359.661 159.71V243.538C283.555 243.538 285.757 243.506 285.557 243.538L286.023 244.96H360.377C360.566 244.957 360.746 244.881 360.881 244.748C361.014 244.614 361.09 244.433 361.093 244.244V159.71C361.079 159.529 360.998 159.36 360.865 159.237C360.732 159.114 360.558 159.045 360.377 159.045C360.195 159.045 360.021 159.114 359.888 159.237C359.755 159.36 359.674 159.529 359.661 159.71Z" fill="#DAF8FF"/>
<path d="M341.214 210.096H301.724C301.724 204.668 301.822 193.998 301.724 188.456C301.711 188.275 301.629 188.106 301.497 187.983C301.364 187.86 301.189 187.792 301.008 187.792C300.827 187.792 300.653 187.86 300.52 187.983C300.387 188.106 300.306 188.275 300.292 188.456V210.096H274.578L275.048 211.528C283.922 211.528 292.208 211.582 300.292 211.63C300.292 216.854 300.196 227.33 300.292 232.794C300.292 232.984 300.368 233.166 300.502 233.3C300.636 233.435 300.818 233.51 301.008 233.51C301.198 233.51 301.38 233.435 301.514 233.3C301.649 233.166 301.724 232.984 301.724 232.794V211.64C314.8 211.716 327.412 211.766 341.214 211.528C341.404 211.528 341.586 211.453 341.72 211.318C341.855 211.184 341.93 211.002 341.93 210.812C341.93 210.622 341.855 210.44 341.72 210.306C341.586 210.171 341.404 210.096 341.214 210.096Z" fill="white"/>
<path d="M334.449 196.946H322.613C322.424 196.946 322.242 197.021 322.108 197.155C321.974 197.289 321.898 197.471 321.898 197.661C321.898 197.85 321.974 198.032 322.108 198.166C322.242 198.3 322.424 198.376 322.613 198.376H334.449C334.639 198.376 334.821 198.3 334.955 198.166C335.089 198.032 335.164 197.85 335.164 197.661C335.164 197.471 335.089 197.289 334.955 197.155C334.821 197.021 334.639 196.946 334.449 196.946Z" fill="white"/>
<path d="M334.767 223.342C334.894 223.206 334.963 223.026 334.96 222.841C334.957 222.655 334.882 222.478 334.75 222.346C334.619 222.215 334.442 222.14 334.256 222.137C334.07 222.134 333.891 222.203 333.755 222.33C332.335 223.704 330.955 225.13 329.555 226.53C328.155 225.13 326.785 223.71 325.365 222.33C325.229 222.203 325.05 222.134 324.864 222.137C324.678 222.14 324.501 222.215 324.37 222.346C324.239 222.478 324.163 222.655 324.16 222.841C324.157 223.026 324.226 223.206 324.353 223.342C325.727 224.762 327.153 226.142 328.543 227.532C327.209 228.868 325.853 230.178 324.543 231.532C324.426 231.669 324.366 231.845 324.373 232.025C324.381 232.206 324.455 232.376 324.583 232.504C324.71 232.631 324.881 232.706 325.061 232.713C325.241 232.721 325.418 232.66 325.555 232.544C326.911 231.232 328.223 229.876 329.555 228.544C330.827 229.816 332.077 231.11 333.371 232.36C333.509 232.476 333.685 232.537 333.865 232.529C334.045 232.522 334.216 232.447 334.343 232.32C334.471 232.192 334.546 232.022 334.553 231.841C334.56 231.661 334.5 231.485 334.383 231.348C333.159 230.082 331.801 228.798 330.551 227.548C330.559 227.55 333.399 224.762 334.767 223.342Z" fill="white"/>
<path d="M284.85 196.946H280.682V193.022C280.669 192.841 280.587 192.672 280.455 192.549C280.322 192.426 280.147 192.357 279.966 192.357C279.785 192.357 279.611 192.426 279.478 192.549C279.345 192.672 279.264 192.841 279.25 193.022V196.946H275.082C274.893 196.946 274.711 197.021 274.577 197.155C274.443 197.289 274.367 197.471 274.367 197.661C274.367 197.85 274.443 198.032 274.577 198.166C274.711 198.301 274.893 198.376 275.082 198.376H279.25V202.3C279.25 202.49 279.326 202.672 279.46 202.806C279.594 202.94 279.776 203.016 279.966 203.016C280.156 203.016 280.338 202.94 280.472 202.806C280.607 202.672 280.682 202.49 280.682 202.3V198.376H284.85C285.04 198.376 285.222 198.301 285.356 198.166C285.49 198.032 285.565 197.85 285.565 197.661C285.565 197.471 285.49 197.289 285.356 197.155C285.222 197.021 285.04 196.946 284.85 196.946Z" fill="white"/>
<path d="M346.851 159H326.185C325.995 159 325.813 159.075 325.678 159.21C325.544 159.344 325.469 159.526 325.469 159.716C325.469 159.906 325.544 160.088 325.678 160.222C325.813 160.357 325.995 160.432 326.185 160.432H346.851C347.041 160.432 347.223 160.357 347.357 160.222C347.491 160.088 347.567 159.906 347.567 159.716C347.567 159.526 347.491 159.344 347.357 159.21C347.223 159.075 347.041 159 346.851 159Z" fill="white"/>
<path d="M293.921 142.984C293.886 145.134 294.687 147.213 296.155 148.784C296.787 149.458 297.795 148.446 297.167 147.772C295.983 146.477 295.334 144.782 295.351 143.027C295.367 141.273 296.048 139.59 297.255 138.318C298.617 137.034 299.597 135.399 300.089 133.594C300.823 129.194 296.067 124.878 298.689 121.436C299.247 120.704 298.005 119.99 297.455 120.716C294.583 125.266 298.907 128.804 298.749 132.778C298.599 136.388 294.013 137.642 293.921 142.984Z" fill="black"/>
<path d="M299.331 142.984C299.295 145.134 300.097 147.214 301.567 148.784C302.197 149.458 303.205 148.446 302.579 147.772C301.396 146.477 300.747 144.782 300.763 143.027C300.779 141.273 301.46 139.59 302.667 138.318C304.029 137.034 305.009 135.399 305.499 133.594C306.233 129.194 301.479 124.878 304.099 121.436C304.655 120.704 303.413 119.99 302.863 120.716C299.991 125.266 304.317 128.804 304.159 132.778C304.011 136.388 299.423 137.642 299.331 142.984Z" fill="black"/>
<path d="M305.038 142.984C305.002 145.134 305.804 147.214 307.274 148.784C307.904 149.458 308.912 148.446 308.286 147.772C307.102 146.477 306.453 144.782 306.469 143.028C306.485 141.274 307.165 139.59 308.372 138.318C309.734 137.034 310.715 135.399 311.206 133.594C311.94 129.194 307.186 124.878 309.806 121.436C310.362 120.704 309.12 119.99 308.57 120.716C305.698 125.266 310.022 128.804 309.866 132.778C309.718 136.388 305.13 137.642 305.038 142.984Z" fill="black"/>
<path d="M366.701 194.026L376.867 185.016C377.557 184.404 376.541 183.394 375.855 184.004L365.689 193.014C365.001 193.626 366.013 194.634 366.701 194.026Z" fill="black"/>
<path d="M389.308 198.448H366.2C366.01 198.448 365.828 198.523 365.694 198.657C365.56 198.792 365.484 198.974 365.484 199.164C365.484 199.354 365.56 199.536 365.694 199.67C365.828 199.804 366.01 199.88 366.2 199.88H389.308C389.498 199.88 389.68 199.804 389.815 199.67C389.949 199.536 390.024 199.354 390.024 199.164C390.024 198.974 389.949 198.792 389.815 198.657C389.68 198.523 389.498 198.448 389.308 198.448Z" fill="black"/>
<path d="M366.668 204.342C365.962 203.76 364.944 204.768 365.656 205.354L375.856 213.744C376.56 214.324 377.578 213.318 376.868 212.732L366.668 204.342Z" fill="black"/>
<path d="M294.183 269.834C235.439 90.8218 237.847 98.0158 237.669 97.8158C237.367 97.4158 244.345 95.4878 136.243 97.5598C135.587 97.5718 135.491 98.0478 134.089 102.14C133.759 103.102 104.477 192.818 104.469 193.024L106.669 191.114C106.907 190.464 135.801 101.63 136.201 100.464C195.955 282.548 191.801 270.724 192.601 270.74H293.491C293.601 270.74 293.709 270.715 293.808 270.666C293.907 270.617 293.993 270.546 294.059 270.458C294.126 270.37 294.172 270.268 294.194 270.16C294.215 270.052 294.211 269.94 294.183 269.834Z" fill="#59DFFD"/>
<path d="M195.646 154.87C180.246 156.086 181.326 170.706 193.748 172.396C202.812 173.344 211.942 173.488 221.032 172.828C226.97 172.428 233.884 172.29 238.562 175.93C241.732 178.052 241.902 181.486 237.378 183.572C236.277 184.058 235.13 184.434 233.954 184.696C220.216 187.978 209.796 185.808 193.454 184.496C192.536 184.422 192.542 185.854 193.454 185.926C207.254 187.03 220.432 189.512 234.054 186.15C236.377 185.723 238.562 184.744 240.426 183.294C243.648 180.788 243.142 175.85 236.158 172.88C227.134 169.042 215.224 173.43 194.446 171.066C188.974 170.444 183.954 166.19 186.294 161.254C186.929 160.177 187.774 159.24 188.779 158.497C189.784 157.755 190.929 157.222 192.144 156.932C197.32 155.678 198.582 156.106 230.522 157.196C231.444 157.228 231.442 155.796 230.522 155.764C205.11 154.904 200.932 154.454 195.646 154.87Z" fill="black"/>
<path d="M201.699 140.146C201.987 141.018 203.369 140.646 203.079 139.766L199.751 129.656C199.465 128.786 198.083 129.16 198.371 130.038L201.699 140.146Z" fill="black"/>
<path d="M225.713 208.916C225.427 208.046 224.045 208.418 224.335 209.296L227.661 219.406C227.949 220.276 229.331 219.904 229.041 219.026L225.713 208.916Z" fill="black"/>
<path d="M189.835 110.69C188.648 110.855 187.539 111.376 186.653 112.184C186.197 112.729 185.954 113.422 185.969 114.133C185.985 114.844 186.259 115.526 186.739 116.05C187.319 116.632 188.012 117.089 188.775 117.393C189.539 117.696 190.356 117.839 191.177 117.814C194.973 118.106 198.791 117.82 202.501 116.968C203.206 116.883 203.866 116.579 204.389 116.1C204.912 115.62 205.272 114.989 205.417 114.294C205.691 108.668 195.273 109.426 189.835 110.69Z" fill="white"/>
<path d="M183.511 98.6359C183.925 99.4599 185.159 98.7359 184.747 97.9159C184.689 97.7959 177.833 84.0619 174.491 77.2979C172.863 74.6071 172.226 71.4322 172.691 68.3219C172.849 67.4511 173.306 66.6628 173.982 66.0929C174.659 65.5229 175.514 65.2071 176.399 65.1999C180.599 65.1859 183.705 70.1879 185.529 73.9679C188.489 80.0999 194.983 90.9319 197.877 98.9999C199.103 101.793 199.657 104.834 199.493 107.88C199.322 109.233 198.714 110.493 197.761 111.468C196.807 112.442 195.562 113.079 194.213 113.28C194.035 113.335 193.885 113.457 193.796 113.62C193.706 113.783 193.684 113.975 193.733 114.154C193.783 114.334 193.9 114.487 194.061 114.581C194.221 114.676 194.412 114.704 194.593 114.66C195.845 114.412 197.022 113.874 198.027 113.088C199.033 112.301 199.839 111.289 200.381 110.134C201.187 107.592 201.195 104.865 200.405 102.318C198.551 94.6259 192.205 83.7599 187.867 75.3899C185.961 71.7119 183.449 65.4699 177.917 63.9619C173.499 62.7619 169.401 66.8259 171.639 74.0219C172.371 76.4019 172.399 76.4459 183.511 98.6359Z" fill="black"/>
<path d="M111.442 264.956H92.8421C92.6589 264.966 92.4864 265.046 92.36 265.179C92.2336 265.312 92.1628 265.489 92.1621 265.672C92.1634 265.855 92.2344 266.031 92.3607 266.164C92.487 266.296 92.6592 266.376 92.8421 266.386H111.442C111.625 266.376 111.797 266.296 111.924 266.164C112.05 266.031 112.121 265.855 112.122 265.672C112.121 265.489 112.051 265.312 111.924 265.179C111.798 265.046 111.625 264.966 111.442 264.956Z" fill="#59DFFD"/>
<path d="M157.077 164.056C155.952 163.666 154.79 163.394 153.609 163.244C154.255 159.428 153.5 155.508 151.485 152.204C148.785 148.836 142.611 149.044 139.119 154.63C138.743 153.096 138.119 151.634 137.271 150.302C136.466 149.168 135.398 148.247 134.159 147.615C132.92 146.984 131.547 146.662 130.157 146.677C128.767 146.692 127.401 147.044 126.176 147.701C124.951 148.359 123.903 149.303 123.123 150.454C122.397 151.523 121.903 152.732 121.671 154.003C121.439 155.274 121.474 156.579 121.775 157.836C122.406 156.944 123.326 156.299 124.38 156.011C125.433 155.723 126.554 155.809 127.551 156.255C128.548 156.701 129.359 157.48 129.846 158.457C130.333 159.435 130.465 160.551 130.221 161.616C129.966 162.895 129.312 164.061 128.354 164.946C127.396 165.83 126.182 166.389 124.887 166.542C125.783 169.29 127.009 173.562 127.775 176.37C138.663 172.37 150.175 173.77 161.375 177.13L157.077 164.056Z" fill="black"/>
<path d="M93.154 241.028C93.0181 241.15 92.8408 241.216 92.6581 241.212C92.4754 241.209 92.3009 241.136 92.17 241.008C85.6743 234.609 79.2268 228.162 72.828 221.666C72.7003 221.536 72.6269 221.362 72.6228 221.179C72.6187 220.997 72.6843 220.82 72.806 220.684L72.764 220.71C62.964 229.402 52.39 238.694 49.332 250.836L60.308 277.624C63.206 277.882 64.528 275.424 64.908 272.518C65.168 270.49 64.992 270.414 65.224 271.4C66.262 277.586 73.722 276.584 74.322 269.698C74.642 266.052 73.94 259.466 74.356 256.278C74.3843 255.8 74.5281 255.336 74.7751 254.926C75.022 254.515 75.3648 254.171 75.774 253.922C76.2857 253.789 76.8268 253.826 77.3158 254.027C77.8049 254.228 78.2155 254.582 78.486 255.036C81.072 258.53 81.39 263.344 84.776 265.19C85.8304 265.581 86.9914 265.574 88.0405 265.168C89.0896 264.763 89.9543 263.988 90.472 262.99C91.4046 260.739 91.4411 258.216 90.574 255.938C89.8919 253.117 88.8074 250.408 87.354 247.896C93.226 240.956 93.03 241.234 93.154 241.028Z" fill="white"/>
<path d="M161.367 177.128C139.657 170.628 126.041 174.528 114.729 184.23C114.529 184.404 72.9486 220.484 72.8086 220.684C72.687 220.82 72.6214 220.997 72.6251 221.179C72.6289 221.361 72.7016 221.535 72.8286 221.666C79.2153 228.174 85.6629 234.621 92.1706 241.008C92.3014 241.136 92.4759 241.209 92.6586 241.212C92.8414 241.216 93.0187 241.15 93.1546 241.028C93.3546 240.88 122.621 206.272 122.795 206.064C119.395 229.218 115.479 238.844 113.755 253.83C113.364 257.194 114.261 260.582 116.266 263.312C118.271 266.041 121.235 267.911 124.563 268.544C131.239 269.754 142.933 268.662 147.579 268.086L154.719 305.314C154.761 305.464 154.851 305.597 154.975 305.692C155.099 305.787 155.25 305.839 155.407 305.84H194.581C194.746 305.838 194.907 305.78 195.034 305.674C195.162 305.568 195.249 305.421 195.281 305.258C195.302 305.151 195.299 305.04 195.271 304.934C192.197 292.134 190.505 278.298 186.385 263.38H189.675L161.367 177.128Z" fill="white"/>
<path d="M126.799 155.914C123.399 154.994 120.347 158.54 120.019 162.008C119.969 162.769 120.118 163.529 120.454 164.214C120.79 164.899 121.3 165.483 121.933 165.908C122.566 166.334 123.299 166.585 124.06 166.638C124.821 166.69 125.582 166.542 126.267 166.208C131.373 164.342 131.679 157.524 126.799 155.914Z" fill="white"/>
<path d="M191.68 335.16C189.691 330.73 186.794 326.768 183.176 323.53C175.91 316.81 165.092 309.62 155.154 309.908C155.038 309.912 154.926 309.944 154.826 310.001C154.725 310.057 154.64 310.137 154.576 310.233C154.513 310.329 154.474 310.439 154.461 310.554C154.449 310.668 154.464 310.784 154.506 310.892C154.562 311.036 154.663 311.158 154.794 311.24C156.006 312.04 189.096 335.166 190.578 336.056C190.656 336.135 190.754 336.193 190.861 336.225C190.969 336.256 191.082 336.26 191.192 336.236C191.301 336.21 191.402 336.158 191.485 336.083C191.569 336.008 191.632 335.913 191.67 335.808C191.721 335.708 191.748 335.597 191.75 335.485C191.751 335.373 191.727 335.261 191.68 335.16Z" fill="black"/>
<path d="M156.917 212L146.305 184.032C146.251 183.874 146.144 183.74 146.002 183.652C145.86 183.565 145.692 183.529 145.527 183.551C145.362 183.574 145.209 183.653 145.096 183.775C144.983 183.898 144.915 184.055 144.905 184.222C144.759 189.478 144.247 212.564 144.221 213.646C144.195 214.728 144.093 214.936 145.053 215.568C146.013 216.2 148.037 217.264 152.253 220.092C152.378 220.179 152.53 220.217 152.681 220.199C152.832 220.181 152.972 220.109 153.073 219.996C154.406 218.235 155.635 216.398 156.755 214.494C157.425 213.476 157.639 213.548 156.917 212Z" fill="black"/>
<path d="M165.638 246.6C165.772 246.734 165.954 246.81 166.144 246.81C166.334 246.81 166.516 246.734 166.65 246.6C166.784 246.466 166.86 246.284 166.86 246.094C166.86 245.904 166.784 245.722 166.65 245.588C165.667 244.571 164.667 243.571 163.65 242.588C163.515 242.461 163.335 242.392 163.149 242.395C162.964 242.398 162.786 242.473 162.655 242.605C162.524 242.736 162.449 242.913 162.445 243.099C162.442 243.285 162.511 243.464 162.638 243.6C163.618 244.622 164.618 245.622 165.638 246.6Z" fill="white"/>
<path d="M185.261 259.572C182.707 249.91 175.841 238.586 167.009 233.22C165.982 228.441 165.295 223.596 164.951 218.72C164.525 212.45 165.063 206.182 169.439 201.72L168.937 200.19C162.247 206.254 163.057 216.34 164.091 224.456C164.423 227.062 164.849 229.656 165.367 232.232C154.267 226.356 138.029 227.02 123.503 238.256C122.779 238.804 123.491 240.056 124.227 239.492C142.587 225.582 165.531 226.262 177.651 246.066C180.372 250.374 182.469 255.046 183.881 259.942C183.939 260.114 184.06 260.258 184.221 260.344C184.381 260.429 184.568 260.45 184.743 260.402C184.919 260.356 185.071 260.244 185.167 260.09C185.264 259.936 185.297 259.75 185.261 259.572Z" fill="white"/>
<path d="M63.6879 256.966V252.4C63.6879 252.21 63.6124 252.028 63.4781 251.894C63.3439 251.76 63.1618 251.684 62.9719 251.684C62.782 251.684 62.5998 251.76 62.4656 251.894C62.3313 252.028 62.2559 252.21 62.2559 252.4V256.97C62.2561 257.064 62.2749 257.157 62.3111 257.244C62.3474 257.331 62.4003 257.409 62.467 257.476C62.5337 257.542 62.6127 257.595 62.6997 257.63C62.7867 257.666 62.8798 257.684 62.9739 257.684C63.0679 257.684 63.1609 257.665 63.2477 257.629C63.3345 257.593 63.4133 257.54 63.4796 257.473C63.5459 257.406 63.5984 257.327 63.6341 257.24C63.6699 257.153 63.6881 257.06 63.6879 256.966Z" fill="white"/>
<path d="M54.4362 251.908C54.3453 251.882 54.25 251.875 54.1562 251.888C54.0158 251.905 53.8837 251.964 53.7768 252.056C53.6699 252.149 53.5931 252.271 53.5562 252.408C53.3087 254.181 53.2316 255.974 53.3262 257.762C53.3762 258.676 54.8102 258.682 54.7582 257.762C54.4922 253.13 55.4902 252.214 54.4362 251.908Z" fill="white"/>
<path d="M85.2347 278.764H63.3207C63.14 278.778 62.9712 278.859 62.848 278.992C62.7247 279.125 62.6562 279.299 62.6562 279.48C62.6562 279.661 62.7247 279.836 62.848 279.969C62.9712 280.101 63.14 280.183 63.3207 280.196H85.2347C85.4153 280.183 85.5842 280.101 85.7074 279.969C85.8307 279.836 85.8991 279.661 85.8991 279.48C85.8991 279.299 85.8307 279.125 85.7074 278.992C85.5842 278.859 85.4153 278.778 85.2347 278.764Z" fill="black"/>
<path d="M35.0485 259.094C34.9659 258.963 34.8438 258.863 34.6999 258.806C34.556 258.75 34.3979 258.74 34.2485 258.78C34.0993 258.821 33.967 258.908 33.8709 259.03C33.7749 259.151 33.7201 259.3 33.7145 259.454L33.2305 265.672C33.2331 265.861 33.3091 266.041 33.4425 266.174C33.5758 266.307 33.7559 266.384 33.9445 266.386C38.6045 266.41 38.7325 266.506 39.0045 266.106C39.1078 266.002 39.1712 265.865 39.1836 265.718C39.196 265.572 39.1567 265.426 39.0725 265.306C37.6765 263.274 36.3745 261.176 35.0485 259.094ZM34.9765 261.616L37.1405 264.956H34.7165L34.9765 261.616Z" fill="black"/>
<path d="M23.0823 229.726C22.2263 229.386 21.8543 230.77 22.7003 231.106L33.1463 235.252C34.0023 235.592 34.3743 234.21 33.5263 233.872L23.0823 229.726Z" fill="black"/>
<path d="M38.8199 233C39.1979 233.838 40.4319 233.112 40.0559 232.278L26.1619 201.504C25.7839 200.666 24.5499 201.394 24.9259 202.226L38.8199 233Z" fill="black"/>
<path d="M45.9885 230.6L49.3885 219.658C49.6625 218.776 48.2825 218.4 48.0105 219.278L44.6105 230.22C44.3345 231.108 45.7165 231.484 45.9885 230.6Z" fill="black"/>
<path d="M72.8099 209.746H65.8799V203.67C65.8799 203.48 65.8046 203.299 65.6705 203.164C65.5364 203.03 65.3546 202.955 65.1649 202.955C64.9753 202.955 64.7934 203.03 64.6593 203.164C64.5253 203.299 64.4499 203.48 64.4499 203.67V209.746H57.5999C57.417 209.756 57.2449 209.836 57.1185 209.968C56.9922 210.101 56.9212 210.277 56.9199 210.46C56.9207 210.644 56.9915 210.82 57.1178 210.953C57.2442 211.086 57.4167 211.166 57.5999 211.176H64.4439V217.25C64.4526 217.386 64.4997 217.517 64.5796 217.627C64.6596 217.737 64.7692 217.822 64.8956 217.873C65.0221 217.923 65.1603 217.937 65.2941 217.912C65.428 217.887 65.5521 217.825 65.6519 217.732C65.7846 217.606 65.864 217.433 65.8739 217.25V211.176H72.8039C72.9936 211.177 73.1757 211.102 73.3104 210.969C73.445 210.835 73.5211 210.654 73.5219 210.464C73.5227 210.274 73.4482 210.092 73.3146 209.958C73.1811 209.823 72.9996 209.747 72.8099 209.746Z" fill="black"/>
<path d="M75.2437 164.558H70.9137V160.8C70.9137 160.61 70.8382 160.428 70.7039 160.294C70.5697 160.159 70.3875 160.084 70.1977 160.084C70.0078 160.084 69.8256 160.159 69.6914 160.294C69.5571 160.428 69.4817 160.61 69.4817 160.8V164.568H65.1997C65.0166 164.578 64.8442 164.657 64.718 164.79C64.5918 164.923 64.5215 165.1 64.5215 165.283C64.5215 165.466 64.5918 165.643 64.718 165.776C64.8442 165.909 65.0166 165.988 65.1997 165.998H69.4737V169.766C69.4737 169.956 69.5491 170.138 69.6834 170.272C69.8176 170.407 69.9998 170.482 70.1897 170.482C70.3796 170.482 70.5617 170.407 70.6959 170.272C70.8302 170.138 70.9057 169.956 70.9057 169.766V165.988H75.2357C75.4188 165.979 75.5917 165.901 75.7187 165.768C75.8457 165.636 75.917 165.46 75.918 165.277C75.9191 165.093 75.8497 164.917 75.7242 164.783C75.5987 164.649 75.4267 164.569 75.2437 164.558Z" fill="black"/>
<path d="M53.2192 191.432C53.4091 191.432 53.5913 191.357 53.7255 191.222C53.8598 191.088 53.9352 190.906 53.9352 190.716C53.9352 190.526 53.8598 190.344 53.7255 190.21C53.5913 190.075 53.4091 190 53.2192 190H45.4972C45.3074 190 45.1252 190.075 44.991 190.21C44.8567 190.344 44.7812 190.526 44.7812 190.716C44.7812 190.906 44.8567 191.088 44.991 191.222C45.1252 191.357 45.3074 191.432 45.4972 191.432H53.2192Z" fill="black"/>
<path d="M93.318 151.32C93.5011 151.31 93.6735 151.231 93.7997 151.098C93.9259 150.965 93.9962 150.788 93.9962 150.605C93.9962 150.422 93.9259 150.245 93.7997 150.112C93.6735 149.979 93.5011 149.9 93.318 149.89H85.6C85.417 149.9 85.2446 149.979 85.1184 150.112C84.9922 150.245 84.9219 150.422 84.9219 150.605C84.9219 150.788 84.9922 150.965 85.1184 151.098C85.2446 151.231 85.417 151.31 85.6 151.32H93.318Z" fill="black"/>
<path d="M316.988 169.236C316.936 168.794 316.785 168.369 316.545 167.993C316.305 167.617 315.983 167.301 315.604 167.068C312.086 165.374 311.004 173.918 310.472 177.848C310.05 179.167 310.096 180.591 310.602 181.88C311.802 183.656 314.956 183.33 316.116 179.53C317.07 176.188 317.368 172.69 316.988 169.236ZM312.522 181.49C311.46 181.43 311.58 180.154 311.694 179.398C312.008 176.298 312.6 173.232 313.464 170.238C314.574 166.958 315.786 168.286 315.766 171.226C315.748 173.982 315.28 181.646 312.522 181.49Z" fill="black"/>
<path d="M326.241 169.236C326.19 168.794 326.039 168.369 325.799 167.993C325.56 167.618 325.238 167.301 324.859 167.068C321.339 165.374 320.247 173.918 319.725 177.848C319.303 179.167 319.35 180.591 319.857 181.88C321.057 183.656 324.211 183.33 325.371 179.53C326.325 176.188 326.621 172.69 326.241 169.236ZM321.777 181.49C320.715 181.43 320.833 180.154 320.947 179.398C321.261 176.298 321.855 173.232 322.717 170.238C323.829 166.958 325.039 168.286 325.021 171.226C324.999 173.982 324.535 181.646 321.777 181.49Z" fill="black"/>
<path d="M335.498 169.236C335.447 168.794 335.296 168.369 335.056 167.993C334.817 167.618 334.495 167.301 334.116 167.068C330.596 165.374 329.504 173.918 328.982 177.848C328.562 179.167 328.608 180.591 329.112 181.88C330.312 183.656 333.468 183.33 334.626 179.53C335.58 176.188 335.878 172.69 335.498 169.236ZM331.032 181.49C329.972 181.43 330.09 180.154 330.204 179.398C330.518 176.298 331.11 173.232 331.974 170.238C333.084 166.958 334.296 168.286 334.276 171.226C334.258 173.982 333.8 181.646 331.032 181.49Z" fill="black"/>
<path d="M334.449 196.946H322.613C322.424 196.946 322.242 197.021 322.108 197.155C321.974 197.289 321.898 197.471 321.898 197.661C321.898 197.85 321.974 198.032 322.108 198.166C322.242 198.3 322.424 198.376 322.613 198.376H334.449C334.639 198.376 334.821 198.3 334.955 198.166C335.089 198.032 335.164 197.85 335.164 197.661C335.164 197.471 335.089 197.289 334.955 197.155C334.821 197.021 334.639 196.946 334.449 196.946Z" fill="black"/>
<path d="M334.767 223.342C334.884 223.205 334.944 223.028 334.937 222.848C334.93 222.668 334.855 222.497 334.727 222.37C334.6 222.243 334.429 222.168 334.249 222.16C334.069 222.153 333.893 222.214 333.755 222.33C332.335 223.702 331.519 224.566 329.555 226.53C328.155 225.13 326.785 223.71 325.365 222.33C325.229 222.203 325.05 222.134 324.864 222.137C324.678 222.14 324.501 222.216 324.37 222.347C324.239 222.478 324.163 222.655 324.16 222.841C324.157 223.027 324.226 223.206 324.353 223.342L328.543 227.532L324.543 231.532C324.416 231.668 324.347 231.847 324.35 232.033C324.353 232.219 324.429 232.396 324.56 232.527C324.691 232.659 324.868 232.734 325.054 232.737C325.24 232.74 325.419 232.671 325.555 232.544L329.555 228.544C330.827 229.816 332.077 231.11 333.371 232.36C333.509 232.477 333.685 232.537 333.865 232.53C334.045 232.523 334.216 232.448 334.343 232.32C334.471 232.193 334.546 232.022 334.553 231.842C334.56 231.662 334.5 231.486 334.383 231.348C333.133 230.054 331.839 228.804 330.567 227.532C331.97 226.138 333.37 224.741 334.767 223.342Z" fill="black"/>
<path d="M284.85 196.946H280.682V193.022C280.669 192.841 280.587 192.672 280.455 192.549C280.322 192.426 280.147 192.357 279.966 192.357C279.785 192.357 279.611 192.426 279.478 192.549C279.345 192.672 279.264 192.841 279.25 193.022V196.946H275.082C274.893 196.946 274.711 197.021 274.577 197.155C274.443 197.289 274.367 197.471 274.367 197.661C274.367 197.85 274.443 198.032 274.577 198.166C274.711 198.301 274.893 198.376 275.082 198.376H279.25V202.3C279.25 202.49 279.326 202.672 279.46 202.806C279.594 202.94 279.776 203.016 279.966 203.016C280.156 203.016 280.338 202.94 280.472 202.806C280.607 202.672 280.682 202.49 280.682 202.3V198.376H284.85C285.033 198.366 285.206 198.287 285.332 198.154C285.458 198.021 285.528 197.844 285.528 197.661C285.528 197.478 285.458 197.301 285.332 197.168C285.206 197.035 285.033 196.956 284.85 196.946Z" fill="black"/>
<path d="M346.851 159H326.185C325.995 159 325.813 159.075 325.678 159.21C325.544 159.344 325.469 159.526 325.469 159.716C325.469 159.906 325.544 160.088 325.678 160.222C325.813 160.357 325.995 160.432 326.185 160.432H346.851C347.041 160.432 347.223 160.357 347.357 160.222C347.491 160.088 347.567 159.906 347.567 159.716C347.567 159.526 347.491 159.344 347.357 159.21C347.223 159.075 347.041 159 346.851 159Z" fill="black"/>
<path d="M293.923 142.984C293.888 145.134 294.689 147.213 296.157 148.784C296.789 149.458 297.797 148.444 297.169 147.772C295.985 146.477 295.336 144.782 295.353 143.028C295.369 141.273 296.049 139.591 297.257 138.318C298.619 137.034 299.6 135.4 300.091 133.594C300.825 129.194 296.069 124.878 298.691 121.434C299.249 120.704 298.007 119.99 297.457 120.714C294.585 125.266 298.909 128.804 298.751 132.778C298.601 136.388 294.015 137.642 293.923 142.984Z" fill="black"/>
<path d="M299.331 142.984C299.295 145.134 300.097 147.214 301.567 148.784C302.197 149.458 303.205 148.444 302.579 147.772C301.396 146.477 300.747 144.782 300.763 143.028C300.779 141.273 301.46 139.591 302.667 138.318C304.029 137.035 305.009 135.4 305.499 133.594C306.233 129.194 301.479 124.878 304.099 121.434C304.655 120.704 303.413 119.99 302.863 120.714C299.991 125.266 304.317 128.804 304.159 132.778C304.011 136.388 299.423 137.642 299.331 142.984Z" fill="black"/>
<path d="M305.038 142.984C305.002 145.134 305.804 147.214 307.274 148.784C307.904 149.458 308.912 148.444 308.286 147.772C307.102 146.478 306.452 144.782 306.468 143.028C306.484 141.274 307.165 139.591 308.372 138.318C309.734 137.034 310.715 135.4 311.206 133.594C311.94 129.194 307.186 124.878 309.806 121.434C310.362 120.704 309.12 119.99 308.57 120.714C305.698 125.266 310.022 128.804 309.866 132.778C309.718 136.388 305.13 137.642 305.038 142.984Z" fill="black"/>
<path d="M366.701 194.026L376.867 185.016C377.557 184.404 376.541 183.394 375.855 184.004L365.689 193.014C365.001 193.626 366.013 194.634 366.701 194.026Z" fill="black"/>
<path d="M389.308 198.448H366.2C366.01 198.448 365.828 198.523 365.694 198.657C365.56 198.792 365.484 198.974 365.484 199.164C365.484 199.354 365.56 199.536 365.694 199.67C365.828 199.804 366.01 199.88 366.2 199.88H389.308C389.498 199.88 389.68 199.804 389.815 199.67C389.949 199.536 390.024 199.354 390.024 199.164C390.024 198.974 389.949 198.792 389.815 198.657C389.68 198.523 389.498 198.448 389.308 198.448Z" fill="black"/>
<path d="M366.668 204.342C365.962 203.76 364.944 204.768 365.656 205.354L375.856 213.744C376.56 214.324 377.578 213.318 376.868 212.732L366.668 204.342Z" fill="black"/>
<path d="M195.646 154.87C180.246 156.086 181.326 170.706 193.748 172.396C202.812 173.344 211.942 173.488 221.032 172.828C226.97 172.428 233.884 172.29 238.562 175.93C241.732 178.052 241.902 181.486 237.378 183.572C236.277 184.058 235.13 184.434 233.954 184.696C220.216 187.978 209.796 185.808 193.454 184.496C192.536 184.422 192.542 185.854 193.454 185.926C207.254 187.03 220.432 189.512 234.054 186.15C236.377 185.723 238.562 184.744 240.426 183.294C243.648 180.788 243.142 175.85 236.158 172.88C227.134 169.042 215.224 173.43 194.446 171.066C188.974 170.444 183.954 166.19 186.294 161.254C186.929 160.177 187.774 159.24 188.779 158.497C189.784 157.755 190.929 157.222 192.144 156.932C197.32 155.678 198.582 156.106 230.522 157.196C231.444 157.228 231.442 155.796 230.522 155.764C205.11 154.904 200.932 154.454 195.646 154.87Z" fill="black"/>
<path d="M201.699 140.146C201.987 141.018 203.369 140.644 203.079 139.766L199.751 129.656C199.465 128.786 198.083 129.16 198.371 130.036L201.699 140.146Z" fill="black"/>
<path d="M225.713 208.916C225.427 208.046 224.045 208.418 224.335 209.296L227.661 219.406C227.949 220.276 229.331 219.904 229.041 219.026L225.713 208.916Z" fill="black"/>
<path d="M111.442 264.956H92.8421C92.6589 264.966 92.4864 265.046 92.36 265.179C92.2336 265.312 92.1628 265.489 92.1621 265.672C92.1634 265.855 92.2344 266.031 92.3607 266.164C92.487 266.296 92.6592 266.376 92.8421 266.386H111.442C111.625 266.376 111.797 266.296 111.924 266.164C112.05 266.031 112.121 265.855 112.122 265.672C112.121 265.489 112.051 265.312 111.924 265.179C111.798 265.046 111.625 264.966 111.442 264.956Z" fill="black"/>
<path d="M191.679 335.16C190.891 333.458 189.985 331.814 188.969 330.238C184.604 324.334 179.107 319.358 172.799 315.6C167.606 312.013 161.473 310.031 155.163 309.902C155.048 309.906 154.936 309.938 154.835 309.995C154.735 310.051 154.65 310.131 154.586 310.227C154.523 310.323 154.483 310.433 154.471 310.548C154.459 310.662 154.474 310.778 154.515 310.886C154.571 311.03 154.672 311.152 154.803 311.234C156.603 312.424 190.509 336.18 190.935 336.234C191.529 336.366 191.909 335.64 191.679 335.16ZM189.131 333.314L157.523 311.4C162.291 311.997 166.871 313.624 170.947 316.168C177.867 320.4 185.325 326.22 189.131 333.314Z" fill="black"/>
<path d="M146.306 184.032C146.252 183.874 146.145 183.74 146.003 183.652C145.861 183.565 145.694 183.529 145.528 183.551C145.363 183.574 145.211 183.653 145.097 183.775C144.984 183.898 144.916 184.055 144.906 184.222C144.76 189.478 144.248 212.564 144.222 213.646C144.172 215.832 143.822 214.446 152.262 220.092C152.387 220.179 152.54 220.217 152.691 220.199C152.841 220.181 152.981 220.109 153.082 219.996C154.415 218.235 155.644 216.398 156.764 214.494C157.432 213.476 157.646 213.548 156.924 211.99L146.306 184.032ZM152.4 218.494L145.626 214.188L146.238 187.89L155.862 213.244L152.402 218.494H152.4Z" fill="black"/>
<path d="M165.638 246.6C165.772 246.734 165.954 246.81 166.144 246.81C166.334 246.81 166.516 246.734 166.65 246.6C166.784 246.466 166.86 246.284 166.86 246.094C166.86 245.904 166.784 245.722 166.65 245.588C165.667 244.571 164.667 243.571 163.65 242.588C163.515 242.461 163.335 242.392 163.149 242.395C162.964 242.398 162.786 242.473 162.655 242.605C162.524 242.736 162.449 242.913 162.445 243.099C162.442 243.285 162.511 243.464 162.638 243.6C163.618 244.622 164.618 245.622 165.638 246.6Z" fill="black"/>
<path d="M359.66 159.71V243.538H285.554L284.554 240.46H355.878C356.067 240.457 356.247 240.38 356.38 240.247C356.513 240.113 356.589 239.933 356.592 239.744V155.2C356.59 155.011 356.515 154.83 356.381 154.696C356.248 154.562 356.067 154.486 355.878 154.484H256.33L237.82 98.0839C237.778 97.9332 237.688 97.8003 237.563 97.7053C237.439 97.6104 237.287 97.5587 237.13 97.5579H198.882C196.282 90.7779 191.56 82.5239 187.862 75.3859C185.956 71.7079 183.444 65.4659 177.912 63.9579C173.496 62.7579 169.402 66.8359 171.634 74.0179C172.262 76.0399 172.034 75.7399 182.974 97.5579H136.242C136.096 97.5637 135.955 97.6131 135.837 97.6997C135.719 97.7863 135.629 97.9062 135.58 98.0439C132.934 105.244 109.512 178.244 106.496 187.226C105.936 188.886 104.472 192.956 104.468 193.026C102.19 194.996 83.762 211.026 76.854 217.098C64.994 227.544 54.516 236.34 50.238 247.748C49.8847 248.779 49.5896 249.83 49.354 250.894L46.416 243.706C46.148 242.842 47.496 243.244 10.97 243.258C10.464 243.128 9.80602 243.478 10.054 244.086C13.854 253.384 23.618 277.098 24.67 279.672C24.7171 279.82 24.8086 279.95 24.932 280.044C25.0555 280.138 25.2049 280.192 25.36 280.198H60.302C60.722 280.198 61.218 279.766 60.994 279.298L60.308 277.626C63.206 277.886 64.528 275.426 64.908 272.52C65.168 270.492 64.992 270.416 65.224 271.404C66.256 277.55 73.716 276.642 74.322 269.7C74.428 268.198 74.438 266.692 74.356 265.188C74.07 257.588 73.768 255.146 75.774 253.924C78.714 252.694 80.534 259.398 82.238 262.574C82.8112 263.675 83.6933 264.585 84.776 265.192C85.8304 265.583 86.9914 265.575 88.0405 265.17C89.0895 264.765 89.9543 263.99 90.472 262.992C91.4076 260.741 91.4441 258.217 90.574 255.94C89.8955 253.118 88.8109 250.409 87.354 247.898C102.04 230.518 121.07 208.144 122.8 206.06C119.318 229.778 115.434 238.9 113.76 253.826C113.372 257.19 114.271 260.576 116.276 263.305C118.281 266.035 121.244 267.904 124.57 268.54C131.386 269.672 141.77 268.806 147.586 268.082L154.724 305.312C154.767 305.462 154.857 305.595 154.981 305.689C155.106 305.784 155.258 305.835 155.414 305.836H194.578C194.744 305.834 194.904 305.776 195.032 305.67C195.159 305.564 195.246 305.417 195.278 305.254C195.299 305.147 195.296 305.036 195.268 304.93C192.468 292.376 189.996 276.466 186.382 263.376H189.668L191.914 270.21C191.958 270.36 192.049 270.492 192.173 270.586C192.297 270.681 192.448 270.733 192.604 270.736H293.494C293.604 270.734 293.711 270.707 293.809 270.658C293.907 270.608 293.992 270.537 294.058 270.45C294.124 270.363 294.17 270.262 294.191 270.154C294.213 270.047 294.21 269.936 294.182 269.83L286.022 244.964H360.376C360.564 244.96 360.744 244.883 360.877 244.75C361.01 244.617 361.087 244.438 361.092 244.25V159.71C361.079 159.529 360.997 159.36 360.864 159.237C360.732 159.114 360.557 159.045 360.376 159.045C360.195 159.045 360.02 159.114 359.888 159.237C359.755 159.36 359.674 159.529 359.66 159.71ZM355.152 155.91V239.022H284.074L275.048 211.522H300.292V232.8C300.292 232.99 300.367 233.172 300.502 233.306C300.636 233.441 300.818 233.516 301.008 233.516C301.198 233.516 301.38 233.441 301.514 233.306C301.649 233.172 301.724 232.99 301.724 232.8V211.528H341.214C341.404 211.528 341.586 211.452 341.72 211.318C341.855 211.184 341.93 211.002 341.93 210.812C341.93 210.622 341.855 210.44 341.72 210.306C341.586 210.171 341.404 210.096 341.214 210.096H301.724V188.456C301.721 188.362 301.699 188.269 301.66 188.183C301.621 188.097 301.566 188.02 301.497 187.956C301.428 187.892 301.347 187.841 301.259 187.809C301.17 187.776 301.076 187.76 300.982 187.764C300.608 187.778 300.306 188.08 300.292 189.456V210.096H274.578L266.416 185.226H341.216C341.405 185.222 341.584 185.146 341.718 185.012C341.851 184.879 341.927 184.699 341.93 184.51V165.346C341.929 165.157 341.853 164.975 341.72 164.841C341.586 164.708 341.405 164.632 341.216 164.63H259.658L256.798 155.916L355.152 155.91ZM265.948 183.8L260.128 166.068H340.498V183.8H265.948ZM174.492 77.2979C172.864 74.6071 172.228 71.4323 172.692 68.3219C172.853 67.4526 173.31 66.666 173.987 66.0966C174.663 65.5271 175.516 65.2102 176.4 65.1999C180.63 65.2299 183.71 70.1999 185.53 73.9679C188.094 79.2819 194.396 90.0199 197.354 97.5679H184.572C181.192 90.8179 177.832 84.0619 174.492 77.2979ZM136.2 100.454L157.07 164.054C155.943 163.672 154.782 163.401 153.602 163.244C154.247 159.428 153.493 155.508 151.478 152.204C148.776 148.834 142.576 149.088 139.112 154.63C138.73 153.098 138.106 151.637 137.264 150.302C136.458 149.17 135.39 148.25 134.151 147.62C132.913 146.99 131.54 146.668 130.15 146.683C128.761 146.698 127.395 147.049 126.17 147.705C124.946 148.362 123.898 149.305 123.116 150.454C122.414 151.534 121.933 152.743 121.701 154.011C121.47 155.278 121.493 156.579 121.768 157.838C120.778 159.018 120.165 160.468 120.01 162C119.959 162.639 120.053 163.281 120.286 163.878C120.518 164.476 120.883 165.013 121.353 165.449C121.823 165.885 122.385 166.209 122.998 166.396C123.611 166.584 124.259 166.63 124.892 166.532C125.492 168.402 127.008 173.474 127.798 176.354C119.676 179.322 115.53 183.448 106.678 191.106C108.054 187.2 135.696 101.876 136.2 100.454ZM130.22 161.612C130.928 157.47 126.42 154.058 123.036 156.658C122.785 155.112 123.035 153.526 123.75 152.133C124.465 150.739 125.608 149.612 127.01 148.915C128.413 148.218 130.002 147.988 131.544 148.26C133.087 148.531 134.502 149.29 135.582 150.424C136.887 152.301 137.773 154.435 138.182 156.684C138.223 156.816 138.302 156.934 138.408 157.024C138.514 157.113 138.644 157.17 138.782 157.188C138.919 157.206 139.059 157.184 139.185 157.125C139.31 157.065 139.416 156.972 139.49 156.854C142.478 150.818 147.612 150.328 150.158 152.854C151.204 154.168 151.864 155.746 152.068 157.414C152.468 159.51 152.478 161.662 152.102 163.762C152.036 164.214 152.302 164.74 152.79 164.668C154.464 164.756 156.11 165.142 157.648 165.806L161.364 177.132C150.598 173.944 139.714 172.45 129.164 175.876C128.294 172.624 127.326 169.399 126.262 166.206C127.263 165.848 128.154 165.237 128.848 164.432C129.542 163.626 130.014 162.655 130.22 161.612ZM124.936 165.058C119.524 165.82 121.008 157.828 125.578 157.198C126.347 157.22 127.085 157.506 127.668 158.008C128.251 158.51 128.643 159.198 128.778 159.956C128.866 160.544 128.836 161.143 128.689 161.72C128.543 162.296 128.283 162.837 127.926 163.312C127.568 163.787 127.12 164.186 126.606 164.485C126.093 164.785 125.525 164.98 124.936 165.058ZM25.834 278.764C22.108 269.642 12.754 246.934 11.834 244.686C12.266 244.686 42.834 244.612 45.25 244.61L59.24 278.764H25.834ZM85.862 248.18C87.862 251.516 89.17 255.218 89.71 259.07C90.288 262.92 87.11 264.9 85.206 263.806C83.434 262.58 83.15 261.26 81.266 257.04C80.418 255.142 79.116 252.666 76.802 252.384C74.488 252.102 73.186 254.206 72.916 256.204C72.6955 258.959 72.6908 261.728 72.902 264.484C72.984 268.484 73.26 270.572 71.88 272.63C71.5464 273.116 71.0897 273.505 70.5567 273.757C70.0237 274.009 69.4334 274.115 68.846 274.064C67.568 273.852 67.002 272.55 66.7 271.438C66.482 270.638 64.866 262.16 64.7 261.33C64.55 260.55 63.2 260.714 63.3 261.52C63.9456 265.612 63.8936 269.783 63.146 273.858C63.0631 274.293 62.8932 274.707 62.6465 275.075C62.3997 275.443 62.0812 275.758 61.71 276C61.0652 276.286 60.3345 276.31 59.672 276.068L50.344 253.308C50.512 252.19 50.74 251.082 51.026 249.988C54.306 238.93 64.026 230.37 73.24 222.198L91.65 240.61C85.682 247.658 85.45 247.58 85.862 248.18ZM185.444 261.95C185.335 261.952 185.227 261.979 185.13 262.029C185.032 262.079 184.947 262.15 184.882 262.238C184.816 262.325 184.77 262.426 184.748 262.533C184.727 262.64 184.729 262.75 184.756 262.856C188.632 276.49 190.772 290.966 193.694 304.41H156L148.85 267.112C148.809 266.961 148.719 266.828 148.595 266.733C148.471 266.638 148.318 266.587 148.162 266.588C141.198 267.534 134.162 267.83 127.142 267.468C123.958 267.429 120.916 266.147 118.664 263.897C116.412 261.646 115.128 258.604 115.088 255.42C115.224 246.788 121.342 227.352 124.562 203.86C124.646 203.248 123.884 202.542 123.362 203.164C115.658 212.434 95.092 236.564 92.636 239.45L74.378 221.2C76.234 219.556 117.444 183.744 118.832 182.746C132.066 173.234 146.454 174.024 161.912 178.8L168.948 200.236C162.31 206.306 163.062 216.378 164.092 224.474C164.424 227.082 164.85 229.676 165.368 232.256C152.082 225.234 135.738 228.81 123.504 238.274C122.78 238.822 123.492 240.074 124.228 239.51C137.67 229.324 154.872 226.284 167.988 235.556C175.866 241.356 181.208 250.68 183.882 259.956C183.938 260.133 184.06 260.282 184.222 260.372C184.385 260.461 184.577 260.484 184.756 260.436C184.935 260.386 185.088 260.268 185.182 260.108C185.276 259.948 185.305 259.757 185.262 259.576C182.776 250.176 176.336 239.472 167.956 233.776C167.313 233.219 166.871 232.467 166.698 231.634C165.842 227.37 165.258 223.056 164.952 218.718C164.524 212.42 165.03 206.296 169.45 201.76L189.2 261.95H185.444ZM292.492 269.31H193.122C192.676 267.948 137.432 99.5459 137.244 98.9899H197.872C197.984 99.3019 198.108 99.6099 198.214 99.9239C199.294 102.642 200.186 107.208 198.918 109.828C195.868 109.771 192.821 110.06 189.836 110.69C188.649 110.855 187.54 111.376 186.654 112.184C186.197 112.729 185.954 113.422 185.97 114.133C185.986 114.844 186.259 115.525 186.74 116.05C187.32 116.632 188.013 117.089 188.776 117.392C189.539 117.696 190.357 117.839 191.178 117.814C194.974 118.106 198.792 117.82 202.502 116.968C203.206 116.881 203.865 116.577 204.388 116.097C204.91 115.618 205.271 114.988 205.418 114.294C205.55 111.564 203.114 110.326 200.418 109.974C201.688 106.636 200.566 102.374 199.388 98.9899H236.604C302.376 299.388 291.164 265.4 292.492 269.31ZM194.588 114.658C196.654 114.226 198.486 113.04 199.724 111.33C201.134 111.324 202.496 111.845 203.542 112.79C203.72 112.966 203.851 113.184 203.925 113.423C203.998 113.662 204.012 113.916 203.964 114.161C203.916 114.407 203.808 114.637 203.65 114.831C203.492 115.025 203.289 115.177 203.058 115.274C198.702 116.5 194.138 116.802 189.658 116.166C188.576 115.928 186.796 114.818 187.49 113.436C187.94 112.542 189.324 112.256 190.208 112.068C192.767 111.505 195.38 111.22 198 111.218C196.986 112.286 195.66 113.007 194.212 113.278C194.037 113.335 193.891 113.457 193.804 113.619C193.716 113.78 193.694 113.97 193.743 114.147C193.791 114.324 193.906 114.476 194.063 114.572C194.221 114.667 194.408 114.698 194.588 114.658Z" fill="black"/>
<path d="M63.6879 256.966V252.4C63.6879 252.21 63.6124 252.028 63.4781 251.894C63.3439 251.76 63.1618 251.684 62.9719 251.684C62.782 251.684 62.5998 251.76 62.4656 251.894C62.3313 252.028 62.2559 252.21 62.2559 252.4V256.97C62.2561 257.064 62.2749 257.157 62.3111 257.244C62.3474 257.331 62.4003 257.409 62.467 257.476C62.5337 257.542 62.6127 257.595 62.6997 257.63C62.7867 257.666 62.8798 257.684 62.9739 257.684C63.0679 257.684 63.1609 257.665 63.2477 257.629C63.3345 257.593 63.4133 257.54 63.4796 257.473C63.5459 257.406 63.5984 257.327 63.6341 257.24C63.6699 257.153 63.6881 257.06 63.6879 256.966Z" fill="black"/>
<path d="M54.4362 251.908C54.3453 251.882 54.25 251.875 54.1562 251.888C54.0158 251.905 53.8837 251.964 53.7768 252.056C53.6699 252.149 53.5931 252.271 53.5562 252.408C53.3087 254.181 53.2316 255.974 53.3262 257.762C53.3762 258.676 54.8102 258.682 54.7582 257.762C54.4922 253.13 55.4902 252.214 54.4362 251.908Z" fill="black"/>
</svg>
